  0
SECTION
  2
HEADER
  9
$ACADVER
  1
AC1009
  9
$EXTMIN
 10
0.0
 20
0.0
 30
0.0
  9
$EXTMAX
 10
1000.0
 20
1000.0
 30
0.0
  9
$FILLMODE
 70
 0
  9
$SPLFRAME
 70
 1
  0
ENDSEC
  0
SECTION
  2
TABLES
  0
TABLE
  2
LAYER
 70
1
  0
LAYER
  2
0
 70
     0
 62
     7
  6
CONTINUOUS
  0
ENDTAB
  0
ENDSEC
  0
SECTION
  2
ENTITIES
  0
POLYLINE
  8
0
 62
     5
 66
     1
 10
0
 20
0
 30
0.0
 70
     1
 40
0
 41
0
  0
VERTEX
  8
0
 10
0.00509983
 20
19.68
 30
0.0
 40
0
 41
0
  0
VERTEX
  8
0
 10
19.68
 20
19.68
 30
0.0
 40
0
 41
0
  0
VERTEX
  8
0
 10
19.68
 20
0.00509983
 30
0.0
 40
0
 41
0
  0
VERTEX
  8
0
 10
0.00509983
 20
0.00509983
 30
0.0
 40
0
 41
0
  0
VERTEX
  8
0
 10
0.00509983
 20
19.68
 30
0.0
 40
0
 41
0
  0
SEQEND
 8
0
  0
POLYLINE
  8
0
 62
     0
 66
     1
 10
0
 20
0
 30
0.0
 70
     1
 40
0.735496
 41
0.735496
  0
VERTEX
  8
0
 10
0.00509983
 20
19.68
 30
0.0
 40
0.0102152
 41
0.0102152
  0
VERTEX
  8
0
 10
19.68
 20
19.68
 30
0.0
 40
0.0102152
 41
0.0102152
  0
VERTEX
  8
0
 10
19.68
 20
0.00509983
 30
0.0
 40
0.0102152
 41
0.0102152
  0
VERTEX
  8
0
 10
0.00509983
 20
0.00509983
 30
0.0
 40
0.0102152
 41
0.0102152
  0
VERTEX
  8
0
 10
0.00509983
 20
19.68
 30
0.0
 40
0.0102152
 41
0.0102152
  0
SEQEND
 8
0
  0
POLYLINE
  8
0
 62
     0
 66
     1
 10
0
 20
0
 30
0.0
 70
     1
 40
2.83465
 41
2.83465
  0
VERTEX
  8
0
 10
5.73085
 20
6.25911
 30
0.0
 40
0.0393701
 41
0.0393701
  0
VERTEX
  8
0
 10
5.71556
 20
6.29107
 30
0.0
 40
0.0393701
 41
0.0393701
  0
VERTEX
  8
0
 10
5.70421
 20
6.322
 30
0.0
 40
0.0393701
 41
0.0393701
  0
VERTEX
  8
0
 10
5.69797
 20
6.35449
 30
0.0
 40
0.0393701
 41
0.0393701
  0
VERTEX
  8
0
 10
5.69803
 20
6.391
 30
0.0
 40
0.0393701
 41
0.0393701
  0
VERTEX
  8
0
 10
5.70551
 20
6.43392
 30
0.0
 40
0.0393701
 41
0.0393701
  0
VERTEX
  8
0
 10
5.72163
 20
6.48583
 30
0.0
 40
0.0393701
 41
0.0393701
  0
VERTEX
  8
0
 10
5.74744
 20
6.54915
 30
0.0
 40
0.0393701
 41
0.0393701
  0
VERTEX
  8
0
 10
5.78424
 20
6.62631
 30
0.0
 40
0.0393701
 41
0.0393701
  0
VERTEX
  8
0
 10
5.83311
 20
6.71989
 30
0.0
 40
0.0393701
 41
0.0393701
  0
VERTEX
  8
0
 10
5.89529
 20
6.83225
 30
0.0
 40
0.0393701
 41
0.0393701
  0
VERTEX
  8
0
 10
5.9719
 20
6.96599
 30
0.0
 40
0.0393701
 41
0.0393701
  0
VERTEX
  8
0
 10
6.06407
 20
7.12343
 30
0.0
 40
0.0393701
 41
0.0393701
  0
VERTEX
  8
0
 10
6.17307
 20
7.30712
 30
0.0
 40
0.0393701
 41
0.0393701
  0
VERTEX
  8
0
 10
6.29997
 20
7.51958
 30
0.0
 40
0.0393701
 41
0.0393701
  0
VERTEX
  8
0
 10
6.44601
 20
7.76324
 30
0.0
 40
0.0393701
 41
0.0393701
  0
VERTEX
  8
0
 10
6.61231
 20
8.04053
 30
0.0
 40
0.0393701
 41
0.0393701
  0
VERTEX
  8
0
 10
6.81369
 20
8.37631
 30
0.0
 40
0.0393701
 41
0.0393701
  0
VERTEX
  8
0
 10
6.99083
 20
8.67085
 30
0.0
 40
0.0393701
 41
0.0393701
  0
VERTEX
  8
0
 10
7.14556
 20
8.92681
 30
0.0
 40
0.0393701
 41
0.0393701
  0
VERTEX
  8
0
 10
7.27968
 20
9.14692
 30
0.0
 40
0.0393701
 41
0.0393701
  0
VERTEX
  8
0
 10
7.39518
 20
9.33382
 30
0.0
 40
0.0393701
 41
0.0393701
  0
VERTEX
  8
0
 10
7.49382
 20
9.49029
 30
0.0
 40
0.0393701
 41
0.0393701
  0
VERTEX
  8
0
 10
7.57753
 20
9.61897
 30
0.0
 40
0.0393701
 41
0.0393701
  0
VERTEX
  8
0
 10
7.64811
 20
9.72254
 30
0.0
 40
0.0393701
 41
0.0393701
  0
VERTEX
  8
0
 10
7.70747
 20
9.80376
 30
0.0
 40
0.0393701
 41
0.0393701
  0
VERTEX
  8
0
 10
7.75749
 20
9.86535
 30
0.0
 40
0.0393701
 41
0.0393701
  0
VERTEX
  8
0
 10
7.80003
 20
9.90983
 30
0.0
 40
0.0393701
 41
0.0393701
  0
VERTEX
  8
0
 10
7.83692
 20
9.94011
 30
0.0
 40
0.0393701
 41
0.0393701
  0
VERTEX
  8
0
 10
7.87007
 20
9.95871
 30
0.0
 40
0.0393701
 41
0.0393701
  0
VERTEX
  8
0
 10
7.90132
 20
9.96847
 30
0.0
 40
0.0393701
 41
0.0393701
  0
VERTEX
  8
0
 10
7.93257
 20
9.97194
 30
0.0
 40
0.0393701
 41
0.0393701
  0
VERTEX
  8
0
 10
7.96565
 20
9.97194
 30
0.0
 40
0.0393701
 41
0.0393701
  0
VERTEX
  8
0
 10
7.99886
 20
9.97026
 30
0.0
 40
0.0393701
 41
0.0393701
  0
VERTEX
  8
0
 10
8.02974
 20
9.965
 30
0.0
 40
0.0393701
 41
0.0393701
  0
VERTEX
  8
0
 10
8.06017
 20
9.95335
 30
0.0
 40
0.0393701
 41
0.0393701
  0
VERTEX
  8
0
 10
8.09207
 20
9.93261
 30
0.0
 40
0.0393701
 41
0.0393701
  0
VERTEX
  8
0
 10
8.12733
 20
9.8999
 30
0.0
 40
0.0393701
 41
0.0393701
  0
VERTEX
  8
0
 10
8.16786
 20
9.85254
 30
0.0
 40
0.0393701
 41
0.0393701
  0
VERTEX
  8
0
 10
8.21556
 20
9.7876
 30
0.0
 40
0.0393701
 41
0.0393701
  0
VERTEX
  8
0
 10
8.27235
 20
9.70236
 30
0.0
 40
0.0393701
 41
0.0393701
  0
VERTEX
  8
0
 10
8.34011
 20
9.59407
 30
0.0
 40
0.0393701
 41
0.0393701
  0
VERTEX
  8
0
 10
8.42079
 20
9.45985
 30
0.0
 40
0.0393701
 41
0.0393701
  0
VERTEX
  8
0
 10
8.51622
 20
9.29693
 30
0.0
 40
0.0393701
 41
0.0393701
  0
VERTEX
  8
0
 10
8.62836
 20
9.1026
 30
0.0
 40
0.0393701
 41
0.0393701
  0
VERTEX
  8
0
 10
8.75911
 20
8.87392
 30
0.0
 40
0.0393701
 41
0.0393701
  0
VERTEX
  8
0
 10
8.91038
 20
8.60824
 30
0.0
 40
0.0393701
 41
0.0393701
  0
VERTEX
  8
0
 10
9.08404
 20
8.30268
 30
0.0
 40
0.0393701
 41
0.0393701
  0
VERTEX
  8
0
 10
9.28207
 20
7.95449
 30
0.0
 40
0.0393701
 41
0.0393701
  0
VERTEX
  8
0
 10
9.42225
 20
7.70747
 30
0.0
 40
0.0393701
 41
0.0393701
  0
VERTEX
  8
0
 10
9.54546
 20
7.48882
 30
0.0
 40
0.0393701
 41
0.0393701
  0
VERTEX
  8
0
 10
9.65261
 20
7.2965
 30
0.0
 40
0.0393701
 41
0.0393701
  0
VERTEX
  8
0
 10
9.74462
 20
7.12853
 30
0.0
 40
0.0393701
 41
0.0393701
  0
VERTEX
  8
0
 10
9.82226
 20
6.98292
 30
0.0
 40
0.0393701
 41
0.0393701
  0
VERTEX
  8
0
 10
9.8865
 20
6.85764
 30
0.0
 40
0.0393701
 41
0.0393701
  0
VERTEX
  8
0
 10
9.93821
 20
6.75065
 30
0.0
 40
0.0393701
 41
0.0393701
  0
VERTEX
  8
0
 10
9.97831
 20
6.66
 30
0.0
 40
0.0393701
 41
0.0393701
  0
VERTEX
  8
0
 10
10.0076
 20
6.58371
 30
0.0
 40
0.0393701
 41
0.0393701
  0
VERTEX
  8
0
 10
10.0271
 20
6.51969
 30
0.0
 40
0.0393701
 41
0.0393701
  0
VERTEX
  8
0
 10
10.0375
 20
6.46599
 30
0.0
 40
0.0393701
 41
0.0393701
  0
VERTEX
  8
0
 10
10.0399
 20
6.42063
 30
0.0
 40
0.0393701
 41
0.0393701
  0
VERTEX
  8
0
 10
10.035
 20
6.38157
 30
0.0
 40
0.0393701
 41
0.0393701
  0
VERTEX
  8
0
 10
10.0239
 20
6.34679
 30
0.0
 40
0.0393701
 41
0.0393701
  0
VERTEX
  8
0
 10
10.0073
 20
6.31429
 30
0.0
 40
0.0393701
 41
0.0393701
  0
VERTEX
  8
0
 10
9.98622
 20
6.28207
 30
0.0
 40
0.0393701
 41
0.0393701
  0
VERTEX
  8
0
 10
9.96061
 20
6.24837
 30
0.0
 40
0.0393701
 41
0.0393701
  0
VERTEX
  8
0
 10
9.93294
 20
6.21886
 30
0.0
 40
0.0393701
 41
0.0393701
  0
VERTEX
  8
0
 10
9.90087
 20
6.19325
 30
0.0
 40
0.0393701
 41
0.0393701
  0
VERTEX
  8
0
 10
9.86203
 20
6.17128
 30
0.0
 40
0.0393701
 41
0.0393701
  0
VERTEX
  8
0
 10
9.81401
 20
6.15272
 30
0.0
 40
0.0393701
 41
0.0393701
  0
VERTEX
  8
0
 10
9.7545
 20
6.13726
 30
0.0
 40
0.0393701
 41
0.0393701
  0
VERTEX
  8
0
 10
9.6811
 20
6.12457
 30
0.0
 40
0.0393701
 41
0.0393701
  0
VERTEX
  8
0
 10
9.59142
 20
6.11447
 30
0.0
 40
0.0393701
 41
0.0393701
  0
VERTEX
  8
0
 10
9.48312
 20
6.10656
 30
0.0
 40
0.0393701
 41
0.0393701
  0
VERTEX
  8
0
 10
9.35385
 20
6.10069
 30
0.0
 40
0.0393701
 41
0.0393701
  0
VERTEX
  8
0
 10
9.20117
 20
6.09646
 30
0.0
 40
0.0393701
 41
0.0393701
  0
VERTEX
  8
0
 10
9.02279
 20
6.09364
 30
0.0
 40
0.0393701
 41
0.0393701
  0
VERTEX
  8
0
 10
8.81629
 20
6.09201
 30
0.0
 40
0.0393701
 41
0.0393701
  0
VERTEX
  8
0
 10
8.57932
 20
6.09119
 30
0.0
 40
0.0393701
 41
0.0393701
  0
VERTEX
  8
0
 10
8.30951
 20
6.09099
 30
0.0
 40
0.0393701
 41
0.0393701
  0
VERTEX
  8
0
 10
8.00456
 20
6.09104
 30
0.0
 40
0.0393701
 41
0.0393701
  0
VERTEX
  8
0
 10
7.63351
 20
6.09093
 30
0.0
 40
0.0393701
 41
0.0393701
  0
VERTEX
  8
0
 10
7.30707
 20
6.09056
 30
0.0
 40
0.0393701
 41
0.0393701
  0
VERTEX
  8
0
 10
7.02219
 20
6.09028
 30
0.0
 40
0.0393701
 41
0.0393701
  0
VERTEX
  8
0
 10
6.77588
 20
6.09039
 30
0.0
 40
0.0393701
 41
0.0393701
  0
VERTEX
  8
0
 10
6.56511
 20
6.09136
 30
0.0
 40
0.0393701
 41
0.0393701
  0
VERTEX
  8
0
 10
6.38688
 20
6.09347
 30
0.0
 40
0.0393701
 41
0.0393701
  0
VERTEX
  8
0
 10
6.23817
 20
6.09717
 30
0.0
 40
0.0393701
 41
0.0393701
  0
VERTEX
  8
0
 10
6.11594
 20
6.10271
 30
0.0
 40
0.0393701
 41
0.0393701
  0
VERTEX
  8
0
 10
6.01719
 20
6.11057
 30
0.0
 40
0.0393701
 41
0.0393701
  0
VERTEX
  8
0
 10
5.93896
 20
6.12099
 30
0.0
 40
0.0393701
 41
0.0393701
  0
VERTEX
  8
0
 10
5.87815
 20
6.13444
 30
0.0
 40
0.0393701
 41
0.0393701
  0
VERTEX
  8
0
 10
5.83182
 20
6.15121
 30
0.0
 40
0.0393701
 41
0.0393701
  0
VERTEX
  8
0
 10
5.79693
 20
6.17171
 30
0.0
 40
0.0393701
 41
0.0393701
  0
VERTEX
  8
0
 10
5.77051
 20
6.19629
 30
0.0
 40
0.0393701
 41
0.0393701
  0
VERTEX
  8
0
 10
5.74946
 20
6.22532
 30
0.0
 40
0.0393701
 41
0.0393701
  0
VERTEX
  8
0
 10
5.73085
 20
6.25911
 30
0.0
 40
0.0393701
 41
0.0393701
  0
SEQEND
 8
0
  0
POLYLINE
  8
0
 62
     0
 66
     1
 10
0
 20
0
 30
0.0
 70
     1
 40
2.83465
 41
2.83465
  0
VERTEX
  8
0
 10
5.02121
 20
14.6124
 30
0.0
 40
0.0393701
 41
0.0393701
  0
VERTEX
  8
0
 10
5.05197
 20
14.6306
 30
0.0
 40
0.0393701
 41
0.0393701
  0
VERTEX
  8
0
 10
5.08176
 20
14.6442
 30
0.0
 40
0.0393701
 41
0.0393701
  0
VERTEX
  8
0
 10
5.11214
 20
14.6506
 30
0.0
 40
0.0393701
 41
0.0393701
  0
VERTEX
  8
0
 10
5.14475
 20
14.6475
 30
0.0
 40
0.0393701
 41
0.0393701
  0
VERTEX
  8
0
 10
5.1811
 20
14.6325
 30
0.0
 40
0.0393701
 41
0.0393701
  0
VERTEX
  8
0
 10
5.22287
 20
14.6029
 30
0.0
 40
0.0393701
 41
0.0393701
  0
VERTEX
  8
0
 10
5.27171
 20
14.5565
 30
0.0
 40
0.0393701
 41
0.0393701
  0
VERTEX
  8
0
 10
5.32915
 20
14.4908
 30
0.0
 40
0.0393701
 41
0.0393701
  0
VERTEX
  8
0
 10
5.39681
 20
14.4033
 30
0.0
 40
0.0393701
 41
0.0393701
  0
VERTEX
  8
0
 10
5.47635
 20
14.2917
 30
0.0
 40
0.0393701
 41
0.0393701
  0
VERTEX
  8
0
 10
5.56933
 20
14.1533
 30
0.0
 40
0.0393701
 41
0.0393701
  0
VERTEX
  8
0
 10
5.67736
 20
13.9858
 30
0.0
 40
0.0393701
 41
0.0393701
  0
VERTEX
  8
0
 10
5.80203
 20
13.7869
 30
0.0
 40
0.0393701
 41
0.0393701
  0
VERTEX
  8
0
 10
5.94499
 20
13.554
 30
0.0
 40
0.0393701
 41
0.0393701
  0
VERTEX
  8
0
 10
6.10786
 20
13.2847
 30
0.0
 40
0.0393701
 41
0.0393701
  0
VERTEX
  8
0
 10
6.29221
 20
12.9764
 30
0.0
 40
0.0393701
 41
0.0393701
  0
VERTEX
  8
0
 10
6.5031
 20
12.6229
 30
0.0
 40
0.0393701
 41
0.0393701
  0
VERTEX
  8
0
 10
6.68869
 20
12.3126
 30
0.0
 40
0.0393701
 41
0.0393701
  0
VERTEX
  8
0
 10
6.85064
 20
12.042
 30
0.0
 40
0.0393701
 41
0.0393701
  0
VERTEX
  8
0
 10
6.99056
 20
11.8083
 30
0.0
 40
0.0393701
 41
0.0393701
  0
VERTEX
  8
0
 10
7.11003
 20
11.6079
 30
0.0
 40
0.0393701
 41
0.0393701
  0
VERTEX
  8
0
 10
7.21067
 20
11.4376
 30
0.0
 40
0.0393701
 41
0.0393701
  0
VERTEX
  8
0
 10
7.29411
 20
11.2942
 30
0.0
 40
0.0393701
 41
0.0393701
  0
VERTEX
  8
0
 10
7.36187
 20
11.1745
 30
0.0
 40
0.0393701
 41
0.0393701
  0
VERTEX
  8
0
 10
7.41564
 20
11.0751
 30
0.0
 40
0.0393701
 41
0.0393701
  0
VERTEX
  8
0
 10
7.45697
 20
10.9929
 30
0.0
 40
0.0393701
 41
0.0393701
  0
VERTEX
  8
0
 10
7.48753
 20
10.9245
 30
0.0
 40
0.0393701
 41
0.0393701
  0
VERTEX
  8
0
 10
7.50885
 20
10.8668
 30
0.0
 40
0.0393701
 41
0.0393701
  0
VERTEX
  8
0
 10
7.52257
 20
10.8163
 30
0.0
 40
0.0393701
 41
0.0393701
  0
VERTEX
  8
0
 10
7.53033
 20
10.7701
 30
0.0
 40
0.0393701
 41
0.0393701
  0
VERTEX
  8
0
 10
7.53369
 20
10.7246
 30
0.0
 40
0.0393701
 41
0.0393701
  0
VERTEX
  8
0
 10
7.53429
 20
10.6767
 30
0.0
 40
0.0393701
 41
0.0393701
  0
VERTEX
  8
0
 10
7.53424
 20
10.6379
 30
0.0
 40
0.0393701
 41
0.0393701
  0
VERTEX
  8
0
 10
7.53331
 20
10.5999
 30
0.0
 40
0.0393701
 41
0.0393701
  0
VERTEX
  8
0
 10
7.52968
 20
10.5603
 30
0.0
 40
0.0393701
 41
0.0393701
  0
VERTEX
  8
0
 10
7.52138
 20
10.5162
 30
0.0
 40
0.0393701
 41
0.0393701
  0
VERTEX
  8
0
 10
7.50657
 20
10.4648
 30
0.0
 40
0.0393701
 41
0.0393701
  0
VERTEX
  8
0
 10
7.4834
 20
10.4034
 30
0.0
 40
0.0393701
 41
0.0393701
  0
VERTEX
  8
0
 10
7.44997
 20
10.3293
 30
0.0
 40
0.0393701
 41
0.0393701
  0
VERTEX
  8
0
 10
7.40435
 20
10.2398
 30
0.0
 40
0.0393701
 41
0.0393701
  0
VERTEX
  8
0
 10
7.34472
 20
10.132
 30
0.0
 40
0.0393701
 41
0.0393701
  0
VERTEX
  8
0
 10
7.26921
 20
10.0033
 30
0.0
 40
0.0393701
 41
0.0393701
  0
VERTEX
  8
0
 10
7.17594
 20
9.85092
 30
0.0
 40
0.0393701
 41
0.0393701
  0
VERTEX
  8
0
 10
7.06299
 20
9.6721
 30
0.0
 40
0.0393701
 41
0.0393701
  0
VERTEX
  8
0
 10
6.92844
 20
9.46408
 30
0.0
 40
0.0393701
 41
0.0393701
  0
VERTEX
  8
0
 10
6.77056
 20
9.22418
 30
0.0
 40
0.0393701
 41
0.0393701
  0
VERTEX
  8
0
 10
6.58729
 20
8.94965
 30
0.0
 40
0.0393701
 41
0.0393701
  0
VERTEX
  8
0
 10
6.37696
 20
8.63769
 30
0.0
 40
0.0393701
 41
0.0393701
  0
VERTEX
  8
0
 10
6.18137
 20
8.34885
 30
0.0
 40
0.0393701
 41
0.0393701
  0
VERTEX
  8
0
 10
6.00906
 20
8.09412
 30
0.0
 40
0.0393701
 41
0.0393701
  0
VERTEX
  8
0
 10
5.85807
 20
7.87153
 30
0.0
 40
0.0393701
 41
0.0393701
  0
VERTEX
  8
0
 10
5.72678
 20
7.6791
 30
0.0
 40
0.0393701
 41
0.0393701
  0
VERTEX
  8
0
 10
5.61328
 20
7.51476
 30
0.0
 40
0.0393701
 41
0.0393701
  0
VERTEX
  8
0
 10
5.51594
 20
7.37657
 30
0.0
 40
0.0393701
 41
0.0393701
  0
VERTEX
  8
0
 10
5.43283
 20
7.26247
 30
0.0
 40
0.0393701
 41
0.0393701
  0
VERTEX
  8
0
 10
5.36231
 20
7.17057
 30
0.0
 40
0.0393701
 41
0.0393701
  0
VERTEX
  8
0
 10
5.30257
 20
7.09874
 30
0.0
 40
0.0393701
 41
0.0393701
  0
VERTEX
  8
0
 10
5.25179
 20
7.04508
 30
0.0
 40
0.0393701
 41
0.0393701
  0
VERTEX
  8
0
 10
5.20822
 20
7.00749
 30
0.0
 40
0.0393701
 41
0.0393701
  0
VERTEX
  8
0
 10
5.17008
 20
6.9841
 30
0.0
 40
0.0393701
 41
0.0393701
  0
VERTEX
  8
0
 10
5.13564
 20
6.97282
 30
0.0
 40
0.0393701
 41
0.0393701
  0
VERTEX
  8
0
 10
5.10303
 20
6.97163
 30
0.0
 40
0.0393701
 41
0.0393701
  0
VERTEX
  8
0
 10
5.07058
 20
6.97857
 30
0.0
 40
0.0393701
 41
0.0393701
  0
VERTEX
  8
0
 10
5.03651
 20
6.99164
 30
0.0
 40
0.0393701
 41
0.0393701
  0
VERTEX
  8
0
 10
5.00076
 20
7.01058
 30
0.0
 40
0.0393701
 41
0.0393701
  0
VERTEX
  8
0
 10
4.97125
 20
7.03629
 30
0.0
 40
0.0393701
 41
0.0393701
  0
VERTEX
  8
0
 10
4.94732
 20
7.07335
 30
0.0
 40
0.0393701
 41
0.0393701
  0
VERTEX
  8
0
 10
4.92844
 20
7.12625
 30
0.0
 40
0.0393701
 41
0.0393701
  0
VERTEX
  8
0
 10
4.91407
 20
7.19949
 30
0.0
 40
0.0393701
 41
0.0393701
  0
VERTEX
  8
0
 10
4.90349
 20
7.29753
 30
0.0
 40
0.0393701
 41
0.0393701
  0
VERTEX
  8
0
 10
4.89626
 20
7.42486
 30
0.0
 40
0.0393701
 41
0.0393701
  0
VERTEX
  8
0
 10
4.89176
 20
7.5861
 30
0.0
 40
0.0393701
 41
0.0393701
  0
VERTEX
  8
0
 10
4.88938
 20
7.7856
 30
0.0
 40
0.0393701
 41
0.0393701
  0
VERTEX
  8
0
 10
4.88861
 20
8.028
 30
0.0
 40
0.0393701
 41
0.0393701
  0
VERTEX
  8
0
 10
4.88883
 20
8.31765
 30
0.0
 40
0.0393701
 41
0.0393701
  0
VERTEX
  8
0
 10
4.88949
 20
8.65918
 30
0.0
 40
0.0393701
 41
0.0393701
  0
VERTEX
  8
0
 10
4.88997
 20
9.05707
 30
0.0
 40
0.0393701
 41
0.0393701
  0
VERTEX
  8
0
 10
4.88971
 20
9.51574
 30
0.0
 40
0.0393701
 41
0.0393701
  0
VERTEX
  8
0
 10
4.88818
 20
10.0398
 30
0.0
 40
0.0393701
 41
0.0393701
  0
VERTEX
  8
0
 10
4.88476
 20
10.6336
 30
0.0
 40
0.0393701
 41
0.0393701
  0
VERTEX
  8
0
 10
4.87989
 20
11.2813
 30
0.0
 40
0.0393701
 41
0.0393701
  0
VERTEX
  8
0
 10
4.87538
 20
11.8525
 30
0.0
 40
0.0393701
 41
0.0393701
  0
VERTEX
  8
0
 10
4.87158
 20
12.3524
 30
0.0
 40
0.0393701
 41
0.0393701
  0
VERTEX
  8
0
 10
4.86876
 20
12.7859
 30
0.0
 40
0.0393701
 41
0.0393701
  0
VERTEX
  8
0
 10
4.86719
 20
13.1579
 30
0.0
 40
0.0393701
 41
0.0393701
  0
VERTEX
  8
0
 10
4.86724
 20
13.4734
 30
0.0
 40
0.0393701
 41
0.0393701
  0
VERTEX
  8
0
 10
4.86919
 20
13.7374
 30
0.0
 40
0.0393701
 41
0.0393701
  0
VERTEX
  8
0
 10
4.87332
 20
13.9547
 30
0.0
 40
0.0393701
 41
0.0393701
  0
VERTEX
  8
0
 10
4.87993
 20
14.1306
 30
0.0
 40
0.0393701
 41
0.0393701
  0
VERTEX
  8
0
 10
4.88938
 20
14.2696
 30
0.0
 40
0.0393701
 41
0.0393701
  0
VERTEX
  8
0
 10
4.90186
 20
14.3771
 30
0.0
 40
0.0393701
 41
0.0393701
  0
VERTEX
  8
0
 10
4.91775
 20
14.4578
 30
0.0
 40
0.0393701
 41
0.0393701
  0
VERTEX
  8
0
 10
4.93733
 20
14.5167
 30
0.0
 40
0.0393701
 41
0.0393701
  0
VERTEX
  8
0
 10
4.96089
 20
14.5587
 30
0.0
 40
0.0393701
 41
0.0393701
  0
VERTEX
  8
0
 10
4.98872
 20
14.589
 30
0.0
 40
0.0393701
 41
0.0393701
  0
VERTEX
  8
0
 10
5.02121
 20
14.6124
 30
0.0
 40
0.0393701
 41
0.0393701
  0
SEQEND
 8
0
  0
POLYLINE
  8
0
 62
     0
 66
     1
 10
0
 20
0
 30
0.0
 70
     1
 40
2.83465
 41
2.83465
  0
VERTEX
  8
0
 10
10.8832
 20
6.6741
 30
0.0
 40
0.0393701
 41
0.0393701
  0
VERTEX
  8
0
 10
10.8524
 20
6.65593
 30
0.0
 40
0.0393701
 41
0.0393701
  0
VERTEX
  8
0
 10
10.8226
 20
6.64236
 30
0.0
 40
0.0393701
 41
0.0393701
  0
VERTEX
  8
0
 10
10.7923
 20
6.6359
 30
0.0
 40
0.0393701
 41
0.0393701
  0
VERTEX
  8
0
 10
10.7597
 20
6.639
 30
0.0
 40
0.0393701
 41
0.0393701
  0
VERTEX
  8
0
 10
10.7233
 20
6.65408
 30
0.0
 40
0.0393701
 41
0.0393701
  0
VERTEX
  8
0
 10
10.6815
 20
6.6836
 30
0.0
 40
0.0393701
 41
0.0393701
  0
VERTEX
  8
0
 10
10.6327
 20
6.72999
 30
0.0
 40
0.0393701
 41
0.0393701
  0
VERTEX
  8
0
 10
10.5753
 20
6.79574
 30
0.0
 40
0.0393701
 41
0.0393701
  0
VERTEX
  8
0
 10
10.5075
 20
6.88319
 30
0.0
 40
0.0393701
 41
0.0393701
  0
VERTEX
  8
0
 10
10.428
 20
6.99485
 30
0.0
 40
0.0393701
 41
0.0393701
  0
VERTEX
  8
0
 10
10.3351
 20
7.13319
 30
0.0
 40
0.0393701
 41
0.0393701
  0
VERTEX
  8
0
 10
10.227
 20
7.30063
 30
0.0
 40
0.0393701
 41
0.0393701
  0
VERTEX
  8
0
 10
10.1023
 20
7.49957
 30
0.0
 40
0.0393701
 41
0.0393701
  0
VERTEX
  8
0
 10
9.95936
 20
7.73253
 30
0.0
 40
0.0393701
 41
0.0393701
  0
VERTEX
  8
0
 10
9.7965
 20
8.00185
 30
0.0
 40
0.0393701
 41
0.0393701
  0
VERTEX
  8
0
 10
9.61219
 20
8.31006
 30
0.0
 40
0.0393701
 41
0.0393701
  0
VERTEX
  8
0
 10
9.40132
 20
8.66363
 30
0.0
 40
0.0393701
 41
0.0393701
  0
VERTEX
  8
0
 10
9.21565
 20
8.97396
 30
0.0
 40
0.0393701
 41
0.0393701
  0
VERTEX
  8
0
 10
9.05371
 20
9.24447
 30
0.0
 40
0.0393701
 41
0.0393701
  0
VERTEX
  8
0
 10
8.91379
 20
9.47825
 30
0.0
 40
0.0393701
 41
0.0393701
  0
VERTEX
  8
0
 10
8.79432
 20
9.67865
 30
0.0
 40
0.0393701
 41
0.0393701
  0
VERTEX
  8
0
 10
8.69368
 20
9.8489
 30
0.0
 40
0.0393701
 41
0.0393701
  0
VERTEX
  8
0
 10
8.61029
 20
9.99229
 30
0.0
 40
0.0393701
 41
0.0393701
  0
VERTEX
  8
0
 10
8.54249
 20
10.112
 30
0.0
 40
0.0393701
 41
0.0393701
  0
VERTEX
  8
0
 10
8.48872
 20
10.2114
 30
0.0
 40
0.0393701
 41
0.0393701
  0
VERTEX
  8
0
 10
8.44738
 20
10.2936
 30
0.0
 40
0.0393701
 41
0.0393701
  0
VERTEX
  8
0
 10
8.41683
 20
10.362
 30
0.0
 40
0.0393701
 41
0.0393701
  0
VERTEX
  8
0
 10
8.39551
 20
10.4198
 30
0.0
 40
0.0393701
 41
0.0393701
  0
VERTEX
  8
0
 10
8.38178
 20
10.4702
 30
0.0
 40
0.0393701
 41
0.0393701
  0
VERTEX
  8
0
 10
8.37403
 20
10.5164
 30
0.0
 40
0.0393701
 41
0.0393701
  0
VERTEX
  8
0
 10
8.37067
 20
10.5619
 30
0.0
 40
0.0393701
 41
0.0393701
  0
VERTEX
  8
0
 10
8.37011
 20
10.6097
 30
0.0
 40
0.0393701
 41
0.0393701
  0
VERTEX
  8
0
 10
8.37011
 20
10.6487
 30
0.0
 40
0.0393701
 41
0.0393701
  0
VERTEX
  8
0
 10
8.37104
 20
10.6866
 30
0.0
 40
0.0393701
 41
0.0393701
  0
VERTEX
  8
0
 10
8.37468
 20
10.7262
 30
0.0
 40
0.0393701
 41
0.0393701
  0
VERTEX
  8
0
 10
8.38297
 20
10.7703
 30
0.0
 40
0.0393701
 41
0.0393701
  0
VERTEX
  8
0
 10
8.39779
 20
10.8217
 30
0.0
 40
0.0393701
 41
0.0393701
  0
VERTEX
  8
0
 10
8.42096
 20
10.8831
 30
0.0
 40
0.0393701
 41
0.0393701
  0
VERTEX
  8
0
 10
8.45438
 20
10.9572
 30
0.0
 40
0.0393701
 41
0.0393701
  0
VERTEX
  8
0
 10
8.5
 20
11.0468
 30
0.0
 40
0.0393701
 41
0.0393701
  0
VERTEX
  8
0
 10
8.55963
 20
11.1545
 30
0.0
 40
0.0393701
 41
0.0393701
  0
VERTEX
  8
0
 10
8.63514
 20
11.2832
 30
0.0
 40
0.0393701
 41
0.0393701
  0
VERTEX
  8
0
 10
8.7284
 20
11.4356
 30
0.0
 40
0.0393701
 41
0.0393701
  0
VERTEX
  8
0
 10
8.84136
 20
11.6144
 30
0.0
 40
0.0393701
 41
0.0393701
  0
VERTEX
  8
0
 10
8.97592
 20
11.8224
 30
0.0
 40
0.0393701
 41
0.0393701
  0
VERTEX
  8
0
 10
9.13379
 20
12.0623
 30
0.0
 40
0.0393701
 41
0.0393701
  0
VERTEX
  8
0
 10
9.31706
 20
12.3369
 30
0.0
 40
0.0393701
 41
0.0393701
  0
VERTEX
  8
0
 10
9.52746
 20
12.6488
 30
0.0
 40
0.0393701
 41
0.0393701
  0
VERTEX
  8
0
 10
9.72299
 20
12.9377
 30
0.0
 40
0.0393701
 41
0.0393701
  0
VERTEX
  8
0
 10
9.89535
 20
13.1924
 30
0.0
 40
0.0393701
 41
0.0393701
  0
VERTEX
  8
0
 10
10.0463
 20
13.415
 30
0.0
 40
0.0393701
 41
0.0393701
  0
VERTEX
  8
0
 10
10.1776
 20
13.6074
 30
0.0
 40
0.0393701
 41
0.0393701
  0
VERTEX
  8
0
 10
10.2911
 20
13.7717
 30
0.0
 40
0.0393701
 41
0.0393701
  0
VERTEX
  8
0
 10
10.3885
 20
13.91
 30
0.0
 40
0.0393701
 41
0.0393701
  0
VERTEX
  8
0
 10
10.4715
 20
14.024
 30
0.0
 40
0.0393701
 41
0.0393701
  0
VERTEX
  8
0
 10
10.542
 20
14.116
 30
0.0
 40
0.0393701
 41
0.0393701
  0
VERTEX
  8
0
 10
10.6018
 20
14.1878
 30
0.0
 40
0.0393701
 41
0.0393701
  0
VERTEX
  8
0
 10
10.6526
 20
14.2414
 30
0.0
 40
0.0393701
 41
0.0393701
  0
VERTEX
  8
0
 10
10.6962
 20
14.279
 30
0.0
 40
0.0393701
 41
0.0393701
  0
VERTEX
  8
0
 10
10.7343
 20
14.3024
 30
0.0
 40
0.0393701
 41
0.0393701
  0
VERTEX
  8
0
 10
10.7688
 20
14.3137
 30
0.0
 40
0.0393701
 41
0.0393701
  0
VERTEX
  8
0
 10
10.8013
 20
14.3149
 30
0.0
 40
0.0393701
 41
0.0393701
  0
VERTEX
  8
0
 10
10.8338
 20
14.3079
 30
0.0
 40
0.0393701
 41
0.0393701
  0
VERTEX
  8
0
 10
10.8679
 20
14.2949
 30
0.0
 40
0.0393701
 41
0.0393701
  0
VERTEX
  8
0
 10
10.9036
 20
14.276
 30
0.0
 40
0.0393701
 41
0.0393701
  0
VERTEX
  8
0
 10
10.9331
 20
14.2503
 30
0.0
 40
0.0393701
 41
0.0393701
  0
VERTEX
  8
0
 10
10.957
 20
14.2132
 30
0.0
 40
0.0393701
 41
0.0393701
  0
VERTEX
  8
0
 10
10.9759
 20
14.1603
 30
0.0
 40
0.0393701
 41
0.0393701
  0
VERTEX
  8
0
 10
10.9903
 20
14.0871
 30
0.0
 40
0.0393701
 41
0.0393701
  0
VERTEX
  8
0
 10
11.0009
 20
13.989
 30
0.0
 40
0.0393701
 41
0.0393701
  0
VERTEX
  8
0
 10
11.0081
 20
13.8617
 30
0.0
 40
0.0393701
 41
0.0393701
  0
VERTEX
  8
0
 10
11.0126
 20
13.7004
 30
0.0
 40
0.0393701
 41
0.0393701
  0
VERTEX
  8
0
 10
11.015
 20
13.5009
 30
0.0
 40
0.0393701
 41
0.0393701
  0
VERTEX
  8
0
 10
11.0158
 20
13.2585
 30
0.0
 40
0.0393701
 41
0.0393701
  0
VERTEX
  8
0
 10
11.0156
 20
12.9689
 30
0.0
 40
0.0393701
 41
0.0393701
  0
VERTEX
  8
0
 10
11.0149
 20
12.6273
 30
0.0
 40
0.0393701
 41
0.0393701
  0
VERTEX
  8
0
 10
11.0144
 20
12.2294
 30
0.0
 40
0.0393701
 41
0.0393701
  0
VERTEX
  8
0
 10
11.0147
 20
11.7708
 30
0.0
 40
0.0393701
 41
0.0393701
  0
VERTEX
  8
0
 10
11.0162
 20
11.2467
 30
0.0
 40
0.0393701
 41
0.0393701
  0
VERTEX
  8
0
 10
11.0197
 20
10.6528
 30
0.0
 40
0.0393701
 41
0.0393701
  0
VERTEX
  8
0
 10
11.0245
 20
10.0053
 30
0.0
 40
0.0393701
 41
0.0393701
  0
VERTEX
  8
0
 10
11.029
 20
9.43397
 30
0.0
 40
0.0393701
 41
0.0393701
  0
VERTEX
  8
0
 10
11.0328
 20
8.93408
 30
0.0
 40
0.0393701
 41
0.0393701
  0
VERTEX
  8
0
 10
11.0356
 20
8.50065
 30
0.0
 40
0.0393701
 41
0.0393701
  0
VERTEX
  8
0
 10
11.0372
 20
8.12864
 30
0.0
 40
0.0393701
 41
0.0393701
  0
VERTEX
  8
0
 10
11.0371
 20
7.8131
 30
0.0
 40
0.0393701
 41
0.0393701
  0
VERTEX
  8
0
 10
11.0352
 20
7.54915
 30
0.0
 40
0.0393701
 41
0.0393701
  0
VERTEX
  8
0
 10
11.031
 20
7.33176
 30
0.0
 40
0.0393701
 41
0.0393701
  0
VERTEX
  8
0
 10
11.0244
 20
7.15597
 30
0.0
 40
0.0393701
 41
0.0393701
  0
VERTEX
  8
0
 10
11.015
 20
7.01688
 30
0.0
 40
0.0393701
 41
0.0393701
  0
VERTEX
  8
0
 10
11.0025
 20
6.90944
 30
0.0
 40
0.0393701
 41
0.0393701
  0
VERTEX
  8
0
 10
10.9867
 20
6.82878
 30
0.0
 40
0.0393701
 41
0.0393701
  0
VERTEX
  8
0
 10
10.9671
 20
6.76986
 30
0.0
 40
0.0393701
 41
0.0393701
  0
VERTEX
  8
0
 10
10.9435
 20
6.72775
 30
0.0
 40
0.0393701
 41
0.0393701
  0
VERTEX
  8
0
 10
10.9156
 20
6.69749
 30
0.0
 40
0.0393701
 41
0.0393701
  0
VERTEX
  8
0
 10
10.8832
 20
6.6741
 30
0.0
 40
0.0393701
 41
0.0393701
  0
SEQEND
 8
0
  0
POLYLINE
  8
0
 62
     0
 66
     1
 10
0
 20
0
 30
0.0
 70
     1
 40
2.83465
 41
2.83465
  0
VERTEX
  8
0
 10
10.1736
 20
15.0274
 30
0.0
 40
0.0393701
 41
0.0393701
  0
VERTEX
  8
0
 10
10.1888
 20
14.9954
 30
0.0
 40
0.0393701
 41
0.0393701
  0
VERTEX
  8
0
 10
10.2001
 20
14.9646
 30
0.0
 40
0.0393701
 41
0.0393701
  0
VERTEX
  8
0
 10
10.2064
 20
14.9321
 30
0.0
 40
0.0393701
 41
0.0393701
  0
VERTEX
  8
0
 10
10.2063
 20
14.8956
 30
0.0
 40
0.0393701
 41
0.0393701
  0
VERTEX
  8
0
 10
10.1988
 20
14.8526
 30
0.0
 40
0.0393701
 41
0.0393701
  0
VERTEX
  8
0
 10
10.1828
 20
14.8007
 30
0.0
 40
0.0393701
 41
0.0393701
  0
VERTEX
  8
0
 10
10.1569
 20
14.7374
 30
0.0
 40
0.0393701
 41
0.0393701
  0
VERTEX
  8
0
 10
10.1201
 20
14.6601
 30
0.0
 40
0.0393701
 41
0.0393701
  0
VERTEX
  8
0
 10
10.0712
 20
14.5667
 30
0.0
 40
0.0393701
 41
0.0393701
  0
VERTEX
  8
0
 10
10.0091
 20
14.4543
 30
0.0
 40
0.0393701
 41
0.0393701
  0
VERTEX
  8
0
 10
9.93246
 20
14.3206
 30
0.0
 40
0.0393701
 41
0.0393701
  0
VERTEX
  8
0
 10
9.84028
 20
14.1631
 30
0.0
 40
0.0393701
 41
0.0393701
  0
VERTEX
  8
0
 10
9.73128
 20
13.9794
 30
0.0
 40
0.0393701
 41
0.0393701
  0
VERTEX
  8
0
 10
9.60439
 20
13.7669
 30
0.0
 40
0.0393701
 41
0.0393701
  0
VERTEX
  8
0
 10
9.45839
 20
13.5233
 30
0.0
 40
0.0393701
 41
0.0393701
  0
VERTEX
  8
0
 10
9.2921
 20
13.2459
 30
0.0
 40
0.0393701
 41
0.0393701
  0
VERTEX
  8
0
 10
9.09065
 20
12.9102
 30
0.0
 40
0.0393701
 41
0.0393701
  0
VERTEX
  8
0
 10
8.91351
 20
12.6157
 30
0.0
 40
0.0393701
 41
0.0393701
  0
VERTEX
  8
0
 10
8.75885
 20
12.3597
 30
0.0
 40
0.0393701
 41
0.0393701
  0
VERTEX
  8
0
 10
8.62468
 20
12.1396
 30
0.0
 40
0.0393701
 41
0.0393701
  0
VERTEX
  8
0
 10
8.50922
 20
11.9527
 30
0.0
 40
0.0393701
 41
0.0393701
  0
VERTEX
  8
0
 10
8.41054
 20
11.7962
 30
0.0
 40
0.0393701
 41
0.0393701
  0
VERTEX
  8
0
 10
8.32687
 20
11.6675
 30
0.0
 40
0.0393701
 41
0.0393701
  0
VERTEX
  8
0
 10
8.25629
 20
11.5639
 30
0.0
 40
0.0393701
 41
0.0393701
  0
VERTEX
  8
0
 10
8.19689
 20
11.4828
 30
0.0
 40
0.0393701
 41
0.0393701
  0
VERTEX
  8
0
 10
8.14686
 20
11.4212
 30
0.0
 40
0.0393701
 41
0.0393701
  0
VERTEX
  8
0
 10
8.10433
 20
11.3767
 30
0.0
 40
0.0393701
 41
0.0393701
  0
VERTEX
  8
0
 10
8.06743
 20
11.3464
 30
0.0
 40
0.0393701
 41
0.0393701
  0
VERTEX
  8
0
 10
8.03429
 20
11.3278
 30
0.0
 40
0.0393701
 41
0.0393701
  0
VERTEX
  8
0
 10
8.00304
 20
11.318
 30
0.0
 40
0.0393701
 41
0.0393701
  0
VERTEX
  8
0
 10
7.97179
 20
11.3146
 30
0.0
 40
0.0393701
 41
0.0393701
  0
VERTEX
  8
0
 10
7.93875
 20
11.3145
 30
0.0
 40
0.0393701
 41
0.0393701
  0
VERTEX
  8
0
 10
7.90549
 20
11.3163
 30
0.0
 40
0.0393701
 41
0.0393701
  0
VERTEX
  8
0
 10
7.87463
 20
11.3215
 30
0.0
 40
0.0393701
 41
0.0393701
  0
VERTEX
  8
0
 10
7.84418
 20
11.3332
 30
0.0
 40
0.0393701
 41
0.0393701
  0
VERTEX
  8
0
 10
7.81233
 20
11.3539
 30
0.0
 40
0.0393701
 41
0.0393701
  0
VERTEX
  8
0
 10
7.77707
 20
11.3866
 30
0.0
 40
0.0393701
 41
0.0393701
  0
VERTEX
  8
0
 10
7.73654
 20
11.434
 30
0.0
 40
0.0393701
 41
0.0393701
  0
VERTEX
  8
0
 10
7.68886
 20
11.4989
 30
0.0
 40
0.0393701
 41
0.0393701
  0
VERTEX
  8
0
 10
7.63206
 20
11.5842
 30
0.0
 40
0.0393701
 41
0.0393701
  0
VERTEX
  8
0
 10
7.56429
 20
11.6924
 30
0.0
 40
0.0393701
 41
0.0393701
  0
VERTEX
  8
0
 10
7.48361
 20
11.8267
 30
0.0
 40
0.0393701
 41
0.0393701
  0
VERTEX
  8
0
 10
7.38818
 20
11.9896
 30
0.0
 40
0.0393701
 41
0.0393701
  0
VERTEX
  8
0
 10
7.27604
 20
12.1839
 30
0.0
 40
0.0393701
 41
0.0393701
  0
VERTEX
  8
0
 10
7.14529
 20
12.4126
 30
0.0
 40
0.0393701
 41
0.0393701
  0
VERTEX
  8
0
 10
6.99403
 20
12.6783
 30
0.0
 40
0.0393701
 41
0.0393701
  0
VERTEX
  8
0
 10
6.82036
 20
12.9838
 30
0.0
 40
0.0393701
 41
0.0393701
  0
VERTEX
  8
0
 10
6.6224
 20
13.332
 30
0.0
 40
0.0393701
 41
0.0393701
  0
VERTEX
  8
0
 10
6.48215
 20
13.579
 30
0.0
 40
0.0393701
 41
0.0393701
  0
VERTEX
  8
0
 10
6.35889
 20
13.7977
 30
0.0
 40
0.0393701
 41
0.0393701
  0
VERTEX
  8
0
 10
6.25174
 20
13.99
 30
0.0
 40
0.0393701
 41
0.0393701
  0
VERTEX
  8
0
 10
6.15978
 20
14.1581
 30
0.0
 40
0.0393701
 41
0.0393701
  0
VERTEX
  8
0
 10
6.08208
 20
14.3036
 30
0.0
 40
0.0393701
 41
0.0393701
  0
VERTEX
  8
0
 10
6.01785
 20
14.4289
 30
0.0
 40
0.0393701
 41
0.0393701
  0
VERTEX
  8
0
 10
5.96615
 20
14.5358
 30
0.0
 40
0.0393701
 41
0.0393701
  0
VERTEX
  8
0
 10
5.92611
 20
14.6265
 30
0.0
 40
0.0393701
 41
0.0393701
  0
VERTEX
  8
0
 10
5.89675
 20
14.7028
 30
0.0
 40
0.0393701
 41
0.0393701
  0
VERTEX
  8
0
 10
5.87733
 20
14.7668
 30
0.0
 40
0.0393701
 41
0.0393701
  0
VERTEX
  8
0
 10
5.86686
 20
14.8206
 30
0.0
 40
0.0393701
 41
0.0393701
  0
VERTEX
  8
0
 10
5.86447
 20
14.8658
 30
0.0
 40
0.0393701
 41
0.0393701
  0
VERTEX
  8
0
 10
5.86931
 20
14.905
 30
0.0
 40
0.0393701
 41
0.0393701
  0
VERTEX
  8
0
 10
5.88049
 20
14.9397
 30
0.0
 40
0.0393701
 41
0.0393701
  0
VERTEX
  8
0
 10
5.89703
 20
14.9722
 30
0.0
 40
0.0393701
 41
0.0393701
  0
VERTEX
  8
0
 10
5.91818
 20
15.0044
 30
0.0
 40
0.0393701
 41
0.0393701
  0
VERTEX
  8
0
 10
5.94374
 20
15.0382
 30
0.0
 40
0.0393701
 41
0.0393701
  0
VERTEX
  8
0
 10
5.9714
 20
15.0676
 30
0.0
 40
0.0393701
 41
0.0393701
  0
VERTEX
  8
0
 10
6.00347
 20
15.0932
 30
0.0
 40
0.0393701
 41
0.0393701
  0
VERTEX
  8
0
 10
6.04232
 20
15.1153
 30
0.0
 40
0.0393701
 41
0.0393701
  0
VERTEX
  8
0
 10
6.09033
 20
15.1338
 30
0.0
 40
0.0393701
 41
0.0393701
  0
VERTEX
  8
0
 10
6.14985
 20
15.1493
 30
0.0
 40
0.0393701
 41
0.0393701
  0
VERTEX
  8
0
 10
6.22331
 20
15.1619
 30
0.0
 40
0.0393701
 41
0.0393701
  0
VERTEX
  8
0
 10
6.31299
 20
15.1721
 30
0.0
 40
0.0393701
 41
0.0393701
  0
VERTEX
  8
0
 10
6.42128
 20
15.18
 30
0.0
 40
0.0393701
 41
0.0393701
  0
VERTEX
  8
0
 10
6.55057
 20
15.1858
 30
0.0
 40
0.0393701
 41
0.0393701
  0
VERTEX
  8
0
 10
6.70324
 20
15.19
 30
0.0
 40
0.0393701
 41
0.0393701
  0
VERTEX
  8
0
 10
6.88162
 20
15.1929
 30
0.0
 40
0.0393701
 41
0.0393701
  0
VERTEX
  8
0
 10
7.08811
 20
15.1944
 30
0.0
 40
0.0393701
 41
0.0393701
  0
VERTEX
  8
0
 10
7.32503
 20
15.1953
 30
0.0
 40
0.0393701
 41
0.0393701
  0
VERTEX
  8
0
 10
7.59483
 20
15.1956
 30
0.0
 40
0.0393701
 41
0.0393701
  0
VERTEX
  8
0
 10
7.89985
 20
15.1954
 30
0.0
 40
0.0393701
 41
0.0393701
  0
VERTEX
  8
0
 10
8.27083
 20
15.1956
 30
0.0
 40
0.0393701
 41
0.0393701
  0
VERTEX
  8
0
 10
8.59728
 20
15.196
 30
0.0
 40
0.0393701
 41
0.0393701
  0
VERTEX
  8
0
 10
8.88217
 20
15.1963
 30
0.0
 40
0.0393701
 41
0.0393701
  0
VERTEX
  8
0
 10
9.12847
 20
15.1961
 30
0.0
 40
0.0393701
 41
0.0393701
  0
VERTEX
  8
0
 10
9.33925
 20
15.1951
 30
0.0
 40
0.0393701
 41
0.0393701
  0
VERTEX
  8
0
 10
9.51753
 20
15.1931
 30
0.0
 40
0.0393701
 41
0.0393701
  0
VERTEX
  8
0
 10
9.66624
 20
15.1893
 30
0.0
 40
0.0393701
 41
0.0393701
  0
VERTEX
  8
0
 10
9.78847
 20
15.1837
 30
0.0
 40
0.0393701
 41
0.0393701
  0
VERTEX
  8
0
 10
9.88721
 20
15.176
 30
0.0
 40
0.0393701
 41
0.0393701
  0
VERTEX
  8
0
 10
9.96544
 20
15.1656
 30
0.0
 40
0.0393701
 41
0.0393701
  0
VERTEX
  8
0
 10
10.0262
 20
15.1521
 30
0.0
 40
0.0393701
 41
0.0393701
  0
VERTEX
  8
0
 10
10.0725
 20
15.1353
 30
0.0
 40
0.0393701
 41
0.0393701
  0
VERTEX
  8
0
 10
10.1074
 20
15.1149
 30
0.0
 40
0.0393701
 41
0.0393701
  0
VERTEX
  8
0
 10
10.1339
 20
15.0903
 30
0.0
 40
0.0393701
 41
0.0393701
  0
VERTEX
  8
0
 10
10.1549
 20
15.0613
 30
0.0
 40
0.0393701
 41
0.0393701
  0
VERTEX
  8
0
 10
10.1736
 20
15.0274
 30
0.0
 40
0.0393701
 41
0.0393701
  0
SEQEND
 8
0
  0
POLYLINE
  8
0
 62
     0
 66
     1
 10
0
 20
0
 30
0.0
 70
     1
 40
2.83465
 41
2.83465
  0
VERTEX
  8
0
 10
4.13331
 20
4.42578
 30
0.0
 40
0.0393701
 41
0.0393701
  0
VERTEX
  8
0
 10
4.13331
 20
15.4792
 30
0.0
 40
0.0393701
 41
0.0393701
  0
VERTEX
  8
0
 10
4.52382
 20
15.8697
 30
0.0
 40
0.0393701
 41
0.0393701
  0
VERTEX
  8
0
 10
4.52382
 20
16.2367
 30
0.0
 40
0.0393701
 41
0.0393701
  0
VERTEX
  8
0
 10
4.65468
 20
16.2367
 30
0.0
 40
0.0393701
 41
0.0393701
  0
VERTEX
  8
0
 10
4.65468
 20
16.1186
 30
0.0
 40
0.0393701
 41
0.0393701
  0
VERTEX
  8
0
 10
5.63081
 20
16.1186
 30
0.0
 40
0.0393701
 41
0.0393701
  0
VERTEX
  8
0
 10
5.63081
 20
16.2367
 30
0.0
 40
0.0393701
 41
0.0393701
  0
VERTEX
  8
0
 10
5.76064
 20
16.2367
 30
0.0
 40
0.0393701
 41
0.0393701
  0
VERTEX
  8
0
 10
5.76064
 20
16.0006
 30
0.0
 40
0.0393701
 41
0.0393701
  0
VERTEX
  8
0
 10
10.1438
 20
16.0006
 30
0.0
 40
0.0393701
 41
0.0393701
  0
VERTEX
  8
0
 10
10.1438
 20
16.2367
 30
0.0
 40
0.0393701
 41
0.0393701
  0
VERTEX
  8
0
 10
10.2737
 20
16.2367
 30
0.0
 40
0.0393701
 41
0.0393701
  0
VERTEX
  8
0
 10
10.2737
 20
16.1186
 30
0.0
 40
0.0393701
 41
0.0393701
  0
VERTEX
  8
0
 10
11.2498
 20
16.1186
 30
0.0
 40
0.0393701
 41
0.0393701
  0
VERTEX
  8
0
 10
11.2498
 20
16.2367
 30
0.0
 40
0.0393701
 41
0.0393701
  0
VERTEX
  8
0
 10
11.3806
 20
16.2367
 30
0.0
 40
0.0393701
 41
0.0393701
  0
VERTEX
  8
0
 10
11.3806
 20
15.8697
 30
0.0
 40
0.0393701
 41
0.0393701
  0
VERTEX
  8
0
 10
11.7711
 20
15.4792
 30
0.0
 40
0.0393701
 41
0.0393701
  0
VERTEX
  8
0
 10
11.7711
 20
4.42578
 30
0.0
 40
0.0393701
 41
0.0393701
  0
VERTEX
  8
0
 10
11.7386
 20
4.42578
 30
0.0
 40
0.0393701
 41
0.0393701
  0
VERTEX
  8
0
 10
11.7386
 20
4.30767
 30
0.0
 40
0.0393701
 41
0.0393701
  0
VERTEX
  8
0
 10
11.3843
 20
4.30767
 30
0.0
 40
0.0393701
 41
0.0393701
  0
VERTEX
  8
0
 10
11.3843
 20
4.42578
 30
0.0
 40
0.0393701
 41
0.0393701
  0
VERTEX
  8
0
 10
10.9001
 20
4.42578
 30
0.0
 40
0.0393701
 41
0.0393701
  0
VERTEX
  8
0
 10
10.0213
 20
5.40403
 30
0.0
 40
0.0393701
 41
0.0393701
  0
VERTEX
  8
0
 10
5.88314
 20
5.40403
 30
0.0
 40
0.0393701
 41
0.0393701
  0
VERTEX
  8
0
 10
5.00435
 20
4.42578
 30
0.0
 40
0.0393701
 41
0.0393701
  0
VERTEX
  8
0
 10
4.52013
 20
4.42578
 30
0.0
 40
0.0393701
 41
0.0393701
  0
VERTEX
  8
0
 10
4.52013
 20
4.30767
 30
0.0
 40
0.0393701
 41
0.0393701
  0
VERTEX
  8
0
 10
4.16581
 20
4.30767
 30
0.0
 40
0.0393701
 41
0.0393701
  0
VERTEX
  8
0
 10
4.16581
 20
4.42578
 30
0.0
 40
0.0393701
 41
0.0393701
  0
VERTEX
  8
0
 10
4.13331
 20
4.42578
 30
0.0
 40
0.0393701
 41
0.0393701
  0
SEQEND
 8
0
  0
ENDSEC
  0
EOF
