  0
SECTION
  2
HEADER
  9
$ACADVER
  1
AC1009
  9
$INSBASE
 10
0.0
 20
0.0
 30
0.0
  9
$EXTMIN
 10
0.0
 20
0.0
 30
0.0
  9
$EXTMAX
 10
0.0
 20
0.0
 30
0.0
  0
ENDSEC
  0
SECTION
  2
TABLES
  0
TABLE
  2
VPORT
 70
1
  0
VPORT
  2
*ACTIVE
 70
0
 10
0.0
 20
0.0
 11
1.0
 21
1.0
 12
-5.0
 22
1.0
 13
0.0
 23
0.0
 14
0.1
 24
0.1
 15
0.1
 25
0.1
 16
0.0
 26
0.0
 36
1.0
 17
0.0
 27
0.0
 37
0.0
 40
10.0
 41
1.0
 42
50.0
 43
0.0
 44
0.0
 50
0.0
 51
0.0
 71
0
 72
100
 73
1
 74
1
 75
0
 76
0
 77
0
 78
0
  0
ENDTAB
  0
TABLE
  2
LTYPE
 70
8
  0
LTYPE
  2
CONTINUOUS
 70
0
  3
Solid line
 72
65
 73
0
 40
0.0
  0
LTYPE
  2
DOT
 70
0
  3
. . . . . . .
 72
65
 73
2
 40
0.25
 49
0.0
 49
-0.25
  0
LTYPE
  2
DASHED
 70
0
  3
__ __ __ __ __
 72
65
 73
2
 40
0.8
 49
0.5
 49
-0.3
  0
LTYPE
  2
DASHDOT
 70
0
  3
__ . __ . __ .
 72
65
 73
4
 40
1.0
 49
0.5
 49
-0.25
 49
0.0
 49
-0.25
  0
LTYPE
  2
DIVIDE
 70
0
  3
____ . . ____ . . 
 72
65
 73
6
 40
1.25
 49
0.5
 49
-0.25
 49
0.0
 49
-0.25
 49
0.0
 49
-0.25
  0
LTYPE
  2
BORDER
 70
0
  3
__ __ . __ __ . 
 72
65
 73
6
 40
1.75
 49
0.5
 49
-0.25
 49
0.5
 49
-0.25
 49
0.0
 49
-0.25
  0
LTYPE
  2
HIDDEN
 70
0
  3
__ __ __ __ __
 72
65
 73
2
 40
0.4
 49
0.25
 49
-0.25
  0
LTYPE
  2
CENTER
 70
0
  3
____ _ ____ _ __
 72
65
 73
4
 40
2.0
 49
1.25
 49
-0.25
 49
0.25
 49
-0.25
  0
ENDTAB
  0
TABLE
  2
LAYER
 70
1
  0
LAYER
  2
PYDXF
 70
64
 62
7
  6
continuous
  0
ENDTAB
  0
TABLE
  2
STYLE
 70
1
  0
STYLE
  2
STANDARD
 70
0
 40
0
 41
1.0
 50
0.0
 71
0
 42
1
 3
ARIAL.TTF
 4

  0
ENDTAB
  0
TABLE
  2
VIEW
 70
1
  0
VIEW
  2
BF_TOPVIEW
 70
0
 40
120.0
 10
0.0
 20
0.0
 41
200.0
 11
0.0
 21
0.0
 31
1.0
 12
0.0
 22
0.0
 32
0.0
 42
50.0
 43
0.0
 44
0.0
 50
0.0
 71
0
  0
ENDTAB
  0
ENDSEC
  0
SECTION
  2
BLOCKS
  0
ENDSEC
  0
SECTION
  2
ENTITIES
  0
LINE
  8
0
 10
82.98941040039062
 20
96.11021423339844
 30
-1.1457230357336812e-05
 11
83.08453369140625
 21
96.01509094238281
 31
-1.1445890777395107e-05
  0
LINE
  8
0
 10
83.08453369140625
 20
96.01509094238281
 30
-1.1445890777395107e-05
 11
83.35678100585938
 21
95.74283599853516
 31
-1.141343545896234e-05
  0
LINE
  8
0
 10
83.35678100585938
 20
95.74283599853516
 30
-1.141343545896234e-05
 11
83.7864761352539
 21
95.31314086914062
 31
-1.1362211807863787e-05
  0
LINE
  8
0
 10
83.7864761352539
 20
95.31314086914062
 30
-1.1362211807863787e-05
 11
84.35394287109375
 21
94.74567413330078
 31
-1.1294564501440618e-05
  0
LINE
  8
0
 10
84.35394287109375
 20
94.74567413330078
 30
-1.1294564501440618e-05
 11
85.03948974609375
 21
94.06012725830078
 31
-1.121284094551811e-05
  0
LINE
  8
0
 10
85.03948974609375
 20
94.06012725830078
 30
-1.121284094551811e-05
 11
85.82344055175781
 21
93.27617645263672
 31
-1.1119386726932134e-05
  0
LINE
  8
0
 10
85.82344055175781
 20
93.27617645263672
 30
-1.1119386726932134e-05
 11
86.68611907958984
 21
92.41349792480469
 31
-1.1016547432518564e-05
  0
LINE
  8
0
 10
86.68611907958984
 20
92.41349792480469
 30
-1.1016547432518564e-05
 11
87.60783386230469
 21
91.49177551269531
 31
-1.0906669558607973e-05
  0
LINE
  8
0
 10
87.60783386230469
 20
91.49177551269531
 30
-1.0906669558607973e-05
 11
88.56891632080078
 21
90.53069305419922
 31
-1.0792099601530936e-05
  0
LINE
  8
0
 10
88.56891632080078
 20
90.53069305419922
 30
-1.0792099601530936e-05
 11
89.54967498779297
 21
89.54993438720703
 31
-1.0675184057618026e-05
  0
LINE
  8
0
 10
89.54967498779297
 20
89.54993438720703
 30
-1.0675184057618026e-05
 11
90.53043365478516
 21
88.56917572021484
 31
-1.0558268513705116e-05
  0
LINE
  8
0
 10
90.53043365478516
 20
88.56917572021484
 30
-1.0558268513705116e-05
 11
91.49151611328125
 21
87.60809326171875
 31
-1.0443698556628078e-05
  0
LINE
  8
0
 10
91.49151611328125
 20
87.60809326171875
 30
-1.0443698556628078e-05
 11
92.4132308959961
 21
86.68637084960938
 31
-1.0333820682717487e-05
  0
LINE
  8
0
 10
92.4132308959961
 20
86.68637084960938
 30
-1.0333820682717487e-05
 11
93.27590942382812
 21
85.82369232177734
 31
-1.0230981388303917e-05
  0
LINE
  8
0
 10
93.27590942382812
 20
85.82369232177734
 30
-1.0230981388303917e-05
 11
94.05986022949219
 21
85.03974151611328
 31
-1.0137527169717941e-05
  0
LINE
  8
0
 10
94.05986022949219
 20
85.03974151611328
 30
-1.0137527169717941e-05
 11
94.74540710449219
 21
84.35419464111328
 31
-1.0055803613795433e-05
  0
LINE
  8
0
 10
94.74540710449219
 20
84.35419464111328
 30
-1.0055803613795433e-05
 11
95.31287384033203
 21
83.78672790527344
 31
-9.988156307372265e-06
  0
LINE
  8
0
 10
95.31287384033203
 20
83.78672790527344
 30
-9.988156307372265e-06
 11
95.74256896972656
 21
83.3570327758789
 31
-9.936932656273711e-06
  0
LINE
  8
0
 10
95.74256896972656
 20
83.3570327758789
 30
-9.936932656273711e-06
 11
96.01482391357422
 21
83.08477783203125
 31
-9.904477337840945e-06
  0
LINE
  8
0
 10
96.01482391357422
 20
83.08477783203125
 30
-9.904477337840945e-06
 11
96.10994720458984
 21
82.9896469116211
 31
-9.893136848404538e-06
  0
LINE
  8
0
 10
96.10994720458984
 20
82.9896469116211
 30
-9.893136848404538e-06
 11
96.10994720458984
 21
81.78630065917969
 31
-9.749686796567403e-06
  0
LINE
  8
0
 10
96.10994720458984
 20
81.78630065917969
 30
-9.749686796567403e-06
 11
96.10995483398438
 21
78.34223175048828
 31
-9.339121788798366e-06
  0
LINE
  8
0
 10
96.10995483398438
 20
78.34223175048828
 30
-9.339121788798366e-06
 11
96.1099624633789
 21
72.90641784667969
 31
-8.691122275195085e-06
  0
LINE
  8
0
 10
96.1099624633789
 20
72.90641784667969
 30
-8.691122275195085e-06
 11
96.10997772216797
 21
65.72782135009766
 31
-7.835366886865813e-06
  0
LINE
  8
0
 10
96.10997772216797
 20
65.72782135009766
 30
-7.835366886865813e-06
 11
96.10999298095703
 21
57.055416107177734
 31
-6.801535619160859e-06
  0
LINE
  8
0
 10
96.10999298095703
 20
57.055416107177734
 30
-6.801535619160859e-06
 11
96.1100082397461
 21
47.13816833496094
 31
-5.6193075579358265e-06
  0
LINE
  8
0
 10
96.1100082397461
 20
47.13816833496094
 30
-5.6193075579358265e-06
 11
96.11002349853516
 21
36.22504425048828
 31
-4.318361789046321e-06
  0
LINE
  8
0
 10
96.11002349853516
 20
36.22504425048828
 30
-4.318361789046321e-06
 11
96.11004638671875
 21
24.565017700195312
 31
-2.9283783078426495e-06
  0
LINE
  8
0
 10
96.11004638671875
 20
24.565017700195312
 30
-2.9283783078426495e-06
 11
96.11006927490234
 21
12.407052993774414
 31
-1.4790359728067415e-06
  0
LINE
  8
0
 10
96.11006927490234
 20
12.407052993774414
 30
-1.4790359728067415e-06
 11
96.11009216308594
 21
0.0001201629638671875
 31
-1.432454155292362e-11
  0
LINE
  8
0
 10
96.11009216308594
 20
0.0001201629638671875
 30
-1.432454155292362e-11
 11
96.11011505126953
 21
-12.40681266784668
 31
1.4790073237236356e-06
  0
LINE
  8
0
 10
96.11011505126953
 20
-12.40681266784668
 30
1.4790073237236356e-06
 11
96.11013793945312
 21
-24.564777374267578
 31
2.9283496587595437e-06
  0
LINE
  8
0
 10
96.11013793945312
 20
-24.564777374267578
 30
2.9283496587595437e-06
 11
96.11016082763672
 21
-36.22480392456055
 31
4.318333139963215e-06
  0
LINE
  8
0
 10
96.11016082763672
 20
-36.22480392456055
 30
4.318333139963215e-06
 11
96.11017608642578
 21
-47.13792419433594
 31
5.61927845410537e-06
  0
LINE
  8
0
 10
96.11017608642578
 20
-47.13792419433594
 30
5.61927845410537e-06
 11
96.11019134521484
 21
-57.055171966552734
 31
6.801506515330402e-06
  0
LINE
  8
0
 10
96.11019134521484
 20
-57.055171966552734
 30
6.801506515330402e-06
 11
96.1102066040039
 21
-65.72757720947266
 31
7.835337783035357e-06
  0
LINE
  8
0
 10
96.1102066040039
 20
-65.72757720947266
 30
7.835337783035357e-06
 11
96.11022186279297
 21
-72.90617370605469
 31
8.691093171364628e-06
  0
LINE
  8
0
 10
96.11022186279297
 20
-72.90617370605469
 30
8.691093171364628e-06
 11
96.1102294921875
 21
-78.34198760986328
 31
9.339092684967909e-06
  0
LINE
  8
0
 10
96.1102294921875
 20
-78.34198760986328
 30
9.339092684967909e-06
 11
96.11023712158203
 21
-81.78605651855469
 31
9.749657692736946e-06
  0
LINE
  8
0
 10
96.11023712158203
 20
-81.78605651855469
 30
9.749657692736946e-06
 11
96.11022186279297
 21
-82.9894027709961
 31
9.893107744574081e-06
  0
LINE
  8
0
 10
96.11022186279297
 20
-82.9894027709961
 30
9.893107744574081e-06
 11
96.01509857177734
 21
-83.08452606201172
 31
9.904447324515786e-06
  0
LINE
  8
0
 10
96.01509857177734
 20
-83.08452606201172
 30
9.904447324515786e-06
 11
95.74284362792969
 21
-83.35678100585938
 31
9.936902642948553e-06
  0
LINE
  8
0
 10
95.74284362792969
 20
-83.35678100585938
 30
9.936902642948553e-06
 11
95.31314849853516
 21
-83.7864761352539
 31
9.988126294047106e-06
  0
LINE
  8
0
 10
95.31314849853516
 20
-83.7864761352539
 30
9.988126294047106e-06
 11
94.74568176269531
 21
-84.35394287109375
 31
1.0055773600470275e-05
  0
LINE
  8
0
 10
94.74568176269531
 20
-84.35394287109375
 30
1.0055773600470275e-05
 11
94.06013488769531
 21
-85.03948974609375
 31
1.0137497156392783e-05
  0
LINE
  8
0
 10
94.06013488769531
 20
-85.03948974609375
 30
1.0137497156392783e-05
 11
93.27618408203125
 21
-85.82344055175781
 31
1.0230951374978758e-05
  0
LINE
  8
0
 10
93.27618408203125
 20
-85.82344055175781
 30
1.0230951374978758e-05
 11
92.41350555419922
 21
-86.68611907958984
 31
1.0333790669392329e-05
  0
LINE
  8
0
 10
92.41350555419922
 20
-86.68611907958984
 30
1.0333790669392329e-05
 11
91.49178314208984
 21
-87.60783386230469
 31
1.0443667633808218e-05
  0
LINE
  8
0
 10
91.49178314208984
 20
-87.60783386230469
 30
1.0443667633808218e-05
 11
90.53070068359375
 21
-88.56891632080078
 31
1.0558237590885255e-05
  0
LINE
  8
0
 10
90.53070068359375
 20
-88.56891632080078
 30
1.0558237590885255e-05
 11
89.54994201660156
 21
-89.54967498779297
 31
1.0675153134798165e-05
  0
LINE
  8
0
 10
89.54994201660156
 20
-89.54967498779297
 30
1.0675153134798165e-05
 11
88.56918334960938
 21
-90.53043365478516
 31
1.0792068678711075e-05
  0
LINE
  8
0
 10
88.56918334960938
 20
-90.53043365478516
 30
1.0792068678711075e-05
 11
87.60810089111328
 21
-91.49151611328125
 31
1.0906638635788113e-05
  0
LINE
  8
0
 10
87.60810089111328
 20
-91.49151611328125
 30
1.0906638635788113e-05
 11
86.6863784790039
 21
-92.4132308959961
 31
1.1016515600204002e-05
  0
LINE
  8
0
 10
86.6863784790039
 20
-92.4132308959961
 30
1.1016515600204002e-05
 11
85.82369995117188
 21
-93.27590942382812
 31
1.1119354894617572e-05
  0
LINE
  8
0
 10
85.82369995117188
 20
-93.27590942382812
 30
1.1119354894617572e-05
 11
85.03974914550781
 21
-94.05986022949219
 31
1.1212809113203548e-05
  0
LINE
  8
0
 10
85.03974914550781
 20
-94.05986022949219
 30
1.1212809113203548e-05
 11
84.35420227050781
 21
-94.74540710449219
 31
1.1294532669126056e-05
  0
LINE
  8
0
 10
84.35420227050781
 20
-94.74540710449219
 30
1.1294532669126056e-05
 11
83.78673553466797
 21
-95.31287384033203
 31
1.1362179975549225e-05
  0
LINE
  8
0
 10
83.78673553466797
 20
-95.31287384033203
 30
1.1362179975549225e-05
 11
83.35704040527344
 21
-95.74256896972656
 31
1.1413403626647778e-05
  0
LINE
  8
0
 10
83.35704040527344
 20
-95.74256896972656
 30
1.1413403626647778e-05
 11
83.08478546142578
 21
-96.01482391357422
 31
1.1445858945080545e-05
  0
LINE
  8
0
 10
83.08478546142578
 20
-96.01482391357422
 30
1.1445858945080545e-05
 11
82.98965454101562
 21
-96.10993957519531
 31
1.1457197615527548e-05
  0
LINE
  8
0
 10
82.98965454101562
 20
-96.10993957519531
 30
1.1457197615527548e-05
 11
81.78630828857422
 21
-96.10993957519531
 31
1.1457197615527548e-05
  0
LINE
  8
0
 10
81.78630828857422
 20
-96.10993957519531
 30
1.1457197615527548e-05
 11
78.34223937988281
 21
-96.10994720458984
 31
1.145719852502225e-05
  0
LINE
  8
0
 10
78.34223937988281
 20
-96.10994720458984
 30
1.145719852502225e-05
 11
72.90642547607422
 21
-96.10995483398438
 31
1.1457199434516951e-05
  0
LINE
  8
0
 10
72.90642547607422
 20
-96.10995483398438
 30
1.1457199434516951e-05
 11
65.72782897949219
 21
-96.10997009277344
 31
1.1457201253506355e-05
  0
LINE
  8
0
 10
65.72782897949219
 20
-96.10997009277344
 30
1.1457201253506355e-05
 11
57.055423736572266
 21
-96.1099853515625
 31
1.1457203072495759e-05
  0
LINE
  8
0
 10
57.055423736572266
 20
-96.1099853515625
 30
1.1457203072495759e-05
 11
47.13817596435547
 21
-96.11000061035156
 31
1.1457204891485162e-05
  0
LINE
  8
0
 10
47.13817596435547
 20
-96.11000061035156
 30
1.1457204891485162e-05
 11
36.22505187988281
 21
-96.11001586914062
 31
1.1457206710474566e-05
  0
LINE
  8
0
 10
36.22505187988281
 20
-96.11001586914062
 30
1.1457206710474566e-05
 11
24.565025329589844
 21
-96.11003875732422
 31
1.1457209438958671e-05
  0
LINE
  8
0
 10
24.565025329589844
 20
-96.11003875732422
 30
1.1457209438958671e-05
 11
12.407060623168945
 21
-96.11006164550781
 31
1.1457212167442776e-05
  0
LINE
  8
0
 10
12.407060623168945
 20
-96.11006164550781
 30
1.1457212167442776e-05
 11
0.0001277923583984375
 21
-96.1100845336914
 31
1.1457214895926882e-05
  0
LINE
  8
0
 10
0.0001277923583984375
 20
-96.1100845336914
 30
1.1457214895926882e-05
 11
-12.406805038452148
 21
-96.110107421875
 31
1.1457217624410987e-05
  0
LINE
  8
0
 10
-12.406805038452148
 20
-96.110107421875
 30
1.1457217624410987e-05
 11
-24.564769744873047
 21
-96.1101303100586
 31
1.1457220352895092e-05
  0
LINE
  8
0
 10
-24.564769744873047
 20
-96.1101303100586
 30
1.1457220352895092e-05
 11
-36.224796295166016
 21
-96.11015319824219
 31
1.1457223081379198e-05
  0
LINE
  8
0
 10
-36.224796295166016
 20
-96.11015319824219
 30
1.1457223081379198e-05
 11
-47.137916564941406
 21
-96.11016845703125
 31
1.1457224900368601e-05
  0
LINE
  8
0
 10
-47.137916564941406
 20
-96.11016845703125
 30
1.1457224900368601e-05
 11
-57.0551643371582
 21
-96.11018371582031
 31
1.1457226719358005e-05
  0
LINE
  8
0
 10
-57.0551643371582
 20
-96.11018371582031
 30
1.1457226719358005e-05
 11
-65.72756958007812
 21
-96.11019897460938
 31
1.1457228538347408e-05
  0
LINE
  8
0
 10
-65.72756958007812
 20
-96.11019897460938
 30
1.1457228538347408e-05
 11
-72.90616607666016
 21
-96.11021423339844
 31
1.1457230357336812e-05
  0
LINE
  8
0
 10
-72.90616607666016
 20
-96.11021423339844
 30
1.1457230357336812e-05
 11
-78.34197998046875
 21
-96.11022186279297
 31
1.1457231266831513e-05
  0
LINE
  8
0
 10
-78.34197998046875
 20
-96.11022186279297
 30
1.1457231266831513e-05
 11
-81.78604888916016
 21
-96.1102294921875
 31
1.1457232176326215e-05
  0
LINE
  8
0
 10
-81.78604888916016
 20
-96.1102294921875
 30
1.1457232176326215e-05
 11
-82.98939514160156
 21
-96.1102294921875
 31
1.1457232176326215e-05
  0
LINE
  8
0
 10
-82.98939514160156
 20
-96.1102294921875
 30
1.1457232176326215e-05
 11
-83.08451843261719
 21
-96.01510620117188
 31
1.144589259638451e-05
  0
LINE
  8
0
 10
-83.08451843261719
 20
-96.01510620117188
 30
1.144589259638451e-05
 11
-83.35676574707031
 21
-95.74285125732422
 31
1.1413437277951743e-05
  0
LINE
  8
0
 10
-83.35676574707031
 20
-95.74285125732422
 30
1.1413437277951743e-05
 11
-83.78646087646484
 21
-95.31315612792969
 31
1.136221362685319e-05
  0
LINE
  8
0
 10
-83.78646087646484
 20
-95.31315612792969
 30
1.136221362685319e-05
 11
-84.35392761230469
 21
-94.74568939208984
 31
1.1294566320430022e-05
  0
LINE
  8
0
 10
-84.35392761230469
 20
-94.74568939208984
 30
1.1294566320430022e-05
 11
-85.03947448730469
 21
-94.06014251708984
 31
1.1212842764507513e-05
  0
LINE
  8
0
 10
-85.03947448730469
 20
-94.06014251708984
 30
1.1212842764507513e-05
 11
-85.82342529296875
 21
-93.27619171142578
 31
1.1119388545921538e-05
  0
LINE
  8
0
 10
-85.82342529296875
 20
-93.27619171142578
 30
1.1119388545921538e-05
 11
-86.68610382080078
 21
-92.41351318359375
 31
1.1016549251507968e-05
  0
LINE
  8
0
 10
-86.68610382080078
 20
-92.41351318359375
 30
1.1016549251507968e-05
 11
-87.60781860351562
 21
-91.49179077148438
 31
1.0906671377597377e-05
  0
LINE
  8
0
 10
-87.60781860351562
 20
-91.49179077148438
 30
1.0906671377597377e-05
 11
-88.56890106201172
 21
-90.53070831298828
 31
1.079210142052034e-05
  0
LINE
  8
0
 10
-88.56890106201172
 20
-90.53070831298828
 30
1.079210142052034e-05
 11
-89.5496597290039
 21
-89.5499496459961
 31
1.067518587660743e-05
  0
LINE
  8
0
 10
-89.5496597290039
 20
-89.5499496459961
 30
1.067518587660743e-05
 11
-90.5304183959961
 21
-88.5691909790039
 31
1.055827033269452e-05
  0
LINE
  8
0
 10
-90.5304183959961
 20
-88.5691909790039
 30
1.055827033269452e-05
 11
-91.49150085449219
 21
-87.60810852050781
 31
1.0443700375617482e-05
  0
LINE
  8
0
 10
-91.49150085449219
 20
-87.60810852050781
 30
1.0443700375617482e-05
 11
-92.41321563720703
 21
-86.68638610839844
 31
1.033382250170689e-05
  0
LINE
  8
0
 10
-92.41321563720703
 20
-86.68638610839844
 30
1.033382250170689e-05
 11
-93.27589416503906
 21
-85.8237075805664
 31
1.023098320729332e-05
  0
LINE
  8
0
 10
-93.27589416503906
 20
-85.8237075805664
 30
1.023098320729332e-05
 11
-94.05984497070312
 21
-85.03975677490234
 31
1.0137528988707345e-05
  0
LINE
  8
0
 10
-94.05984497070312
 20
-85.03975677490234
 30
1.0137528988707345e-05
 11
-94.74539184570312
 21
-84.35420989990234
 31
1.0055805432784837e-05
  0
LINE
  8
0
 10
-94.74539184570312
 20
-84.35420989990234
 30
1.0055805432784837e-05
 11
-95.31285858154297
 21
-83.7867431640625
 31
9.988158126361668e-06
  0
LINE
  8
0
 10
-95.31285858154297
 20
-83.7867431640625
 30
9.988158126361668e-06
 11
-95.7425537109375
 21
-83.35704803466797
 31
9.936934475263115e-06
  0
LINE
  8
0
 10
-95.7425537109375
 20
-83.35704803466797
 30
9.936934475263115e-06
 11
-96.01480865478516
 21
-83.08479309082031
 31
9.904479156830348e-06
  0
LINE
  8
0
 10
-96.01480865478516
 20
-83.08479309082031
 30
9.904479156830348e-06
 11
-96.10993194580078
 21
-82.98966217041016
 31
9.893138667393941e-06
  0
LINE
  8
0
 10
-96.10993194580078
 20
-82.98966217041016
 30
9.893138667393941e-06
 11
-96.10993194580078
 21
-81.78631591796875
 31
9.749688615556806e-06
  0
LINE
  8
0
 10
-96.10993194580078
 20
-81.78631591796875
 30
9.749688615556806e-06
 11
-96.10993957519531
 21
-78.34224700927734
 31
9.33912360778777e-06
  0
LINE
  8
0
 10
-96.10993957519531
 20
-78.34224700927734
 30
9.33912360778777e-06
 11
-96.10994720458984
 21
-72.90643310546875
 31
8.691124094184488e-06
  0
LINE
  8
0
 10
-96.10994720458984
 20
-72.90643310546875
 30
8.691124094184488e-06
 11
-96.1099624633789
 21
-65.72783660888672
 31
7.835368705855217e-06
  0
LINE
  8
0
 10
-96.1099624633789
 20
-65.72783660888672
 30
7.835368705855217e-06
 11
-96.10997772216797
 21
-57.05542755126953
 31
6.8015369834029116e-06
  0
LINE
  8
0
 10
-96.10997772216797
 20
-57.05542755126953
 30
6.8015369834029116e-06
 11
-96.10999298095703
 21
-47.13817596435547
 31
5.619308467430528e-06
  0
LINE
  8
0
 10
-96.10999298095703
 20
-47.13817596435547
 30
5.619308467430528e-06
 11
-96.1100082397461
 21
-36.22504806518555
 31
4.318362243793672e-06
  0
LINE
  8
0
 10
-96.1100082397461
 20
-36.22504806518555
 30
4.318362243793672e-06
 11
-96.11003112792969
 21
-24.565013885498047
 31
2.9283778530952986e-06
  0
LINE
  8
0
 10
-96.11003112792969
 20
-24.565013885498047
 30
2.9283778530952986e-06
 11
-96.11005401611328
 21
-12.40704345703125
 31
1.4790348359383643e-06
  0
LINE
  8
0
 10
-96.11005401611328
 20
-12.40704345703125
 30
1.4790348359383643e-06
 11
-96.11007690429688
 21
-0.00010395050048828125
 31
1.2391865311656147e-11
  0
LINE
  8
0
 10
-96.11007690429688
 20
-0.00010395050048828125
 30
1.2391865311656147e-11
 11
-96.11009979248047
 21
12.406835556030273
 31
-1.479010052207741e-06
  0
LINE
  8
0
 10
-96.11009979248047
 20
12.406835556030273
 30
-1.479010052207741e-06
 11
-96.11012268066406
 21
24.564807891845703
 31
-2.9283532967383508e-06
  0
LINE
  8
0
 10
-96.11012268066406
 20
24.564807891845703
 30
-2.9283532967383508e-06
 11
-96.11014556884766
 21
36.2248420715332
 31
-4.318337687436724e-06
  0
LINE
  8
0
 10
-96.11014556884766
 20
36.2248420715332
 30
-4.318337687436724e-06
 11
-96.11016082763672
 21
47.137969970703125
 31
-5.61928391107358e-06
  0
LINE
  8
0
 10
-96.11016082763672
 20
47.137969970703125
 30
-5.61928391107358e-06
 11
-96.11017608642578
 21
57.05522155761719
 31
-6.801512427045964e-06
  0
LINE
  8
0
 10
-96.11017608642578
 20
57.05522155761719
 30
-6.801512427045964e-06
 11
-96.11019134521484
 21
65.72763061523438
 31
-7.835344149498269e-06
  0
LINE
  8
0
 10
-96.11019134521484
 20
65.72763061523438
 30
-7.835344149498269e-06
 11
-96.1102066040039
 21
72.9062271118164
 31
-8.69109953782754e-06
  0
LINE
  8
0
 10
-96.1102066040039
 20
72.9062271118164
 30
-8.69109953782754e-06
 11
-96.11021423339844
 21
78.342041015625
 31
-9.339099051430821e-06
  0
LINE
  8
0
 10
-96.11021423339844
 20
78.342041015625
 30
-9.339099051430821e-06
 11
-96.11022186279297
 21
81.7861099243164
 31
-9.749664059199858e-06
  0
LINE
  8
0
 10
-96.11022186279297
 20
81.7861099243164
 30
-9.749664059199858e-06
 11
-96.1102066040039
 21
82.98942565917969
 31
-9.893110473058186e-06
  0
LINE
  8
0
 10
-96.1102066040039
 20
82.98942565917969
 30
-9.893110473058186e-06
 11
-96.01508331298828
 21
83.08454895019531
 31
-9.904450052999891e-06
  0
LINE
  8
0
 10
-96.01508331298828
 20
83.08454895019531
 30
-9.904450052999891e-06
 11
-95.74282836914062
 21
83.35679626464844
 31
-9.936904461937957e-06
  0
LINE
  8
0
 10
-95.74282836914062
 20
83.35679626464844
 30
-9.936904461937957e-06
 11
-95.3131332397461
 21
83.78649139404297
 31
-9.98812811303651e-06
  0
LINE
  8
0
 10
-95.3131332397461
 20
83.78649139404297
 30
-9.98812811303651e-06
 11
-94.74566650390625
 21
84.35395812988281
 31
-1.0055775419459678e-05
  0
LINE
  8
0
 10
-94.74566650390625
 20
84.35395812988281
 30
-1.0055775419459678e-05
 11
-94.06011962890625
 21
85.03950500488281
 31
-1.0137498975382186e-05
  0
LINE
  8
0
 10
-94.06011962890625
 20
85.03950500488281
 30
-1.0137498975382186e-05
 11
-93.27616882324219
 21
85.82345581054688
 31
-1.0230953193968162e-05
  0
LINE
  8
0
 10
-93.27616882324219
 20
85.82345581054688
 30
-1.0230953193968162e-05
 11
-92.41349029541016
 21
86.6861343383789
 31
-1.0333792488381732e-05
  0
LINE
  8
0
 10
-92.41349029541016
 20
86.6861343383789
 30
-1.0333792488381732e-05
 11
-91.49176788330078
 21
87.60784912109375
 31
-1.0443669452797621e-05
  0
LINE
  8
0
 10
-91.49176788330078
 20
87.60784912109375
 30
-1.0443669452797621e-05
 11
-90.53068542480469
 21
88.56893157958984
 31
-1.0558239409874659e-05
  0
LINE
  8
0
 10
-90.53068542480469
 20
88.56893157958984
 30
-1.0558239409874659e-05
 11
-89.5499267578125
 21
89.54969024658203
 31
-1.0675154953787569e-05
  0
LINE
  8
0
 10
-89.5499267578125
 20
89.54969024658203
 30
-1.0675154953787569e-05
 11
-88.56916809082031
 21
90.53044891357422
 31
-1.0792070497700479e-05
  0
LINE
  8
0
 10
-88.56916809082031
 20
90.53044891357422
 30
-1.0792070497700479e-05
 11
-87.60808563232422
 21
91.49153137207031
 31
-1.0906640454777516e-05
  0
LINE
  8
0
 10
-87.60808563232422
 20
91.49153137207031
 30
-1.0906640454777516e-05
 11
-86.68636322021484
 21
92.41324615478516
 31
-1.1016517419193406e-05
  0
LINE
  8
0
 10
-86.68636322021484
 20
92.41324615478516
 30
-1.1016517419193406e-05
 11
-85.82368469238281
 21
93.27592468261719
 31
-1.1119356713606976e-05
  0
LINE
  8
0
 10
-85.82368469238281
 20
93.27592468261719
 30
-1.1119356713606976e-05
 11
-85.03973388671875
 21
94.05987548828125
 31
-1.1212810932192951e-05
  0
LINE
  8
0
 10
-85.03973388671875
 20
94.05987548828125
 30
-1.1212810932192951e-05
 11
-84.35418701171875
 21
94.74542236328125
 31
-1.129453448811546e-05
  0
LINE
  8
0
 10
-84.35418701171875
 20
94.74542236328125
 30
-1.129453448811546e-05
 11
-83.7867202758789
 21
95.3128890991211
 31
-1.1362181794538628e-05
  0
LINE
  8
0
 10
-83.7867202758789
 20
95.3128890991211
 30
-1.1362181794538628e-05
 11
-83.35702514648438
 21
95.74258422851562
 31
-1.1413405445637181e-05
  0
LINE
  8
0
 10
-83.35702514648438
 20
95.74258422851562
 30
-1.1413405445637181e-05
 11
-83.08477020263672
 21
96.01483917236328
 31
-1.1445860764069948e-05
  0
LINE
  8
0
 10
-83.08477020263672
 20
96.01483917236328
 30
-1.1445860764069948e-05
 11
-82.98963928222656
 21
96.1099624633789
 31
-1.1457200344011653e-05
  0
LINE
  8
0
 10
-82.98963928222656
 20
96.1099624633789
 30
-1.1457200344011653e-05
 11
-81.78629302978516
 21
96.1099624633789
 31
-1.1457200344011653e-05
  0
LINE
  8
0
 10
-81.78629302978516
 20
96.1099624633789
 30
-1.1457200344011653e-05
 11
-78.34222412109375
 21
96.10997009277344
 31
-1.1457201253506355e-05
  0
LINE
  8
0
 10
-78.34222412109375
 20
96.10997009277344
 30
-1.1457201253506355e-05
 11
-72.90641021728516
 21
96.10997772216797
 31
-1.1457202163001057e-05
  0
LINE
  8
0
 10
-72.90641021728516
 20
96.10997772216797
 30
-1.1457202163001057e-05
 11
-65.72781372070312
 21
96.1099853515625
 31
-1.1457203072495759e-05
  0
LINE
  8
0
 10
-65.72781372070312
 20
96.1099853515625
 30
-1.1457203072495759e-05
 11
-57.0554084777832
 21
96.11000061035156
 31
-1.1457204891485162e-05
  0
LINE
  8
0
 10
-57.0554084777832
 20
96.11000061035156
 30
-1.1457204891485162e-05
 11
-47.138160705566406
 21
96.11001586914062
 31
-1.1457206710474566e-05
  0
LINE
  8
0
 10
-47.138160705566406
 20
96.11001586914062
 30
-1.1457206710474566e-05
 11
-36.22503662109375
 21
96.11003112792969
 31
-1.145720852946397e-05
  0
LINE
  8
0
 10
-36.22503662109375
 20
96.11003112792969
 30
-1.145720852946397e-05
 11
-24.56501007080078
 21
96.11004638671875
 31
-1.1457210348453373e-05
  0
LINE
  8
0
 10
-24.56501007080078
 20
96.11004638671875
 30
-1.1457210348453373e-05
 11
-12.407045364379883
 21
96.11006164550781
 31
-1.1457212167442776e-05
  0
LINE
  8
0
 10
-12.407045364379883
 20
96.11006164550781
 30
-1.1457212167442776e-05
 11
-0.0001125335693359375
 21
96.11007690429688
 31
-1.145721398643218e-05
  0
LINE
  8
0
 10
-0.0001125335693359375
 20
96.11007690429688
 30
-1.145721398643218e-05
 11
12.406820297241211
 21
96.11009216308594
 31
-1.1457215805421583e-05
  0
LINE
  8
0
 10
12.406820297241211
 20
96.11009216308594
 30
-1.1457215805421583e-05
 11
24.56478500366211
 21
96.110107421875
 31
-1.1457217624410987e-05
  0
LINE
  8
0
 10
24.56478500366211
 20
96.110107421875
 30
-1.1457217624410987e-05
 11
36.22481155395508
 21
96.11012268066406
 31
-1.145721944340039e-05
  0
LINE
  8
0
 10
36.22481155395508
 20
96.11012268066406
 30
-1.145721944340039e-05
 11
47.13793182373047
 21
96.11013793945312
 31
-1.1457221262389794e-05
  0
LINE
  8
0
 10
47.13793182373047
 20
96.11013793945312
 30
-1.1457221262389794e-05
 11
57.055179595947266
 21
96.11015319824219
 31
-1.1457223081379198e-05
  0
LINE
  8
0
 10
57.055179595947266
 20
96.11015319824219
 30
-1.1457223081379198e-05
 11
65.72758483886719
 21
96.11016845703125
 31
-1.1457224900368601e-05
  0
LINE
  8
0
 10
65.72758483886719
 20
96.11016845703125
 30
-1.1457224900368601e-05
 11
72.90618133544922
 21
96.11017608642578
 31
-1.1457225809863303e-05
  0
LINE
  8
0
 10
72.90618133544922
 20
96.11017608642578
 30
-1.1457225809863303e-05
 11
78.34199523925781
 21
96.11018371582031
 31
-1.1457226719358005e-05
  0
LINE
  8
0
 10
78.34199523925781
 20
96.11018371582031
 30
-1.1457226719358005e-05
 11
81.78606414794922
 21
96.11019134521484
 31
-1.1457227628852706e-05
  0
LINE
  8
0
 10
82.98941040039062
 20
96.11021423339844
 30
-1.1457230357336812e-05
 11
81.78606414794922
 21
96.11019134521484
 31
-1.1457227628852706e-05
  0
ENDSEC
  0
EOF
