<?xml version="1.0" encoding="UTF-8" standalone="no"?>
<svg
   xmlns:dc="http://purl.org/dc/elements/1.1/"
   xmlns:cc="http://creativecommons.org/ns#"
   xmlns:rdf="http://www.w3.org/1999/02/22-rdf-syntax-ns#"
   xmlns:svg="http://www.w3.org/2000/svg"
   xmlns="http://www.w3.org/2000/svg"
   xmlns:sodipodi="http://sodipodi.sourceforge.net/DTD/sodipodi-0.dtd"
   xmlns:inkscape="http://www.inkscape.org/namespaces/inkscape"
   width="193.99998632632088mm"
   height="302.9985214145163mm"
   viewBox="0 0 193.99998632632088 302.9985214145163"
   id="svg2"
   version="1.1"
   inkscape:version="0.91 r"
   sodipodi:docname="andreas-seite.svg">
  <metadata
     id="metadata22">
    <rdf:RDF>
      <cc:Work
         rdf:about="">
        <dc:format>image/svg+xml</dc:format>
        <dc:type
           rdf:resource="http://purl.org/dc/dcmitype/StillImage" />
      </cc:Work>
    </rdf:RDF>
  </metadata>
  <defs
     id="defs20" />
  <sodipodi:namedview
     pagecolor="#ffffff"
     bordercolor="#666666"
     borderopacity="1"
     objecttolerance="10"
     gridtolerance="10"
     guidetolerance="10"
     inkscape:pageopacity="0"
     inkscape:pageshadow="2"
     inkscape:window-width="1440"
     inkscape:window-height="848"
     id="namedview18"
     showgrid="false"
     inkscape:zoom="0.21981771"
     inkscape:cx="343.70076"
     inkscape:cy="354.83947"
     inkscape:window-x="0"
     inkscape:window-y="0"
     inkscape:window-maximized="1"
     inkscape:current-layer="svg2" />
  <title
     id="title4">Bezier Curve : BezierCircle.003</title>
  <desc
     id="desc6">This is an exported Bezier xml_path from Blender, using the ExportScript by maybites.ch and Craxic</desc>
  <rect
     style="fill:#0000ff;fill-rule:evenodd;stroke:#000000;stroke-width:0.25946653px;stroke-linecap:butt;stroke-linejoin:miter;stroke-opacity:1"
     id="rect3350"
     width="499.74057"
     height="499.74054"
     x="-7.8565979"
     y="-87.457939" />
  <path
     style="fill:none;stroke:#000000;stroke-width:1px;stroke-linecap:butt;stroke-linejoin:miter;stroke-opacity:1"
     d="M137.57770349594202,253.43193820128886 C135.29539290169822,248.93145733567204 136.01386064822597,248.14207436360806 159.9666053161937,208.18365266588026 C188.98111017331254,159.78110825262507 189.65289651350926,159.00960858219173 194.34151277357535,159.1257432312625 C199.0870667308954,159.24328168899373 199.2245913422248,160.18659533243152 227.77744532902778,210.36913860952902 C247.9613871751647,245.84305157984977 248.79299503326746,248.4164693656548 245.66384067931835,252.84881592017408 C242.22806094459438,257.71548866719775 239.13853366772275,257.71776985627093 195.3295045111381,257.70100044629476 C141.91362594309822,257.68055366797984 140.07383551147456,258.3540499463071 137.57770349594202,253.43193820128886 Z "
     id="path8" />
  <path
     style="fill:none;stroke:#000000;stroke-width:1px;stroke-linecap:butt;stroke-linejoin:miter;stroke-opacity:1"
     d="M119.55191147154999,41.259358848730244 C123.86670812424572,38.5871480284477 125.33636609199995,38.31563312297328 151.83618424520495,82.8121257149588 C182.18709015151725,133.77507979572536 183.42209272787693,134.4299412770249 183.3847544692675,141.2245125226013 C183.35476808631248,146.68123885600062 184.4158290421667,148.10215261977947 153.9883564360507,193.0149660323204 C125.85011428534699,234.54873570526382 124.75277841779665,236.92221756848645 119.94171251545517,234.82472906554077 C114.65924156142627,232.52171992295058 116.70382784017953,227.70247530928313 116.08653349933618,142.31868982066567 C115.4132699175532,49.19365487988594 114.83285607162564,44.181935891842045 119.55191147154999,41.259358848730244 Z "
     id="path10" />
  <path
     style="fill:none;stroke:#000000;stroke-width:1px;stroke-linecap:butt;stroke-linejoin:miter;stroke-opacity:1"
     d="M268.4480214490088,242.89022780068217 C264.1332171669182,245.56243099156984 262.6635668285588,245.83395734113657 236.16376393414362,201.33746856384852 C205.81286565722624,150.37450685368705 204.57786308086656,149.7196453723875 204.615201339476,142.92507412681113 C204.64518772243102,137.4683477934118 203.58413248862297,136.04743402963294 234.0116070020877,91.1346358758818 C262.1498644115812,49.60086620293839 263.2471850203417,47.22737671032087 268.0582509226832,49.32488047205632 C273.34071424731724,51.62790487343631 271.2961355979588,56.447134228313956 271.9134146800124,141.83091208753655 C272.5866553736107,234.95595465771115 273.16707684893316,239.9676660163601 268.4480214490088,242.89022780068217 Z "
     id="path12" />
  <path
     style="fill:none;stroke:#000000;stroke-width:1px;stroke-linecap:butt;stroke-linejoin:miter;stroke-opacity:1"
     d="M250.42226757159125,30.71767133630823 C252.7045667217427,35.218129313740405 251.9861104193073,36.007527544594154 228.0333657513396,75.96593398353215 C199.0188513574771,124.36847839678734 198.3470726466753,125.13997806722068 193.658445598168,125.02384341814991 C188.91288001794166,124.90630496041868 188.77536446651868,123.96297605819109 160.2225257385055,73.7804480398834 C140.03859152176346,38.30653888426008 139.2069760342658,35.733113469060186 142.3361303882149,31.300770729238366 C145.7719101229389,26.434101796912103 148.8614450292054,26.431812978443986 192.67046870216248,26.44856712963042 C246.0863565685274,26.468983390365793 247.92613174136125,25.795551961895114 250.42226757159125,30.71767133630823 Z "
     id="path14" />
  <path
     style="fill:none;stroke:#000000;stroke-width:1px;stroke-linecap:butt;stroke-linejoin:miter;stroke-opacity:1"
     d="M96.9999771118164,299.99850688036724 C96.9999771118164,299.99850688036724 96.9999771118164,19.24055897476842 96.9999771118164,19.24055897476842 C96.9999771118164,19.24055897476842 106.91822862050572,9.32225406031489 106.91822862050572,9.32225406031489 C106.91822862050572,9.32225406031489 106.91822862050572,-1.2007468967567547e-05 106.91822862050572,-1.2007468967567547e-05 C106.91822862050572,-1.2007468967567547e-05 110.24191347075508,-1.2007468967567547e-05 110.24191347075508,-1.2007468967567547e-05 C110.24191347075508,-1.2007468967567547e-05 110.24191347075508,3.0002627932395285 110.24191347075508,3.0002627932395285 C110.24191347075508,3.0002627932395285 135.03601254880215,3.0002627932395285 135.03601254880215,3.0002627932395285 C135.03601254880215,3.0002627932395285 135.03601254880215,-1.2007468967567547e-05 135.03601254880215,-1.2007468967567547e-05 C135.03601254880215,-1.2007468967567547e-05 138.333662088977,-1.2007468967567547e-05 138.333662088977,-1.2007468967567547e-05 C138.333662088977,-1.2007468967567547e-05 138.333662088977,5.99855395127571 138.333662088977,5.99855395127571 C138.333662088977,5.99855395127571 249.6662250552124,5.99855395127571 249.6662250552124,5.99855395127571 C249.6662250552124,5.99855395127571 249.6662250552124,-1.2007468967567547e-05 249.6662250552124,-1.2007468967567547e-05 C249.6662250552124,-1.2007468967567547e-05 252.96387459538727,-1.2007468967567547e-05 252.96387459538727,-1.2007468967567547e-05 C252.96387459538727,-1.2007468967567547e-05 252.96387459538727,3.0002627932395285 252.96387459538727,3.0002627932395285 C252.96387459538727,3.0002627932395285 277.7579736734344,3.0002627932395285 277.7579736734344,3.0002627932395285 C277.7579736734344,3.0002627932395285 277.7579736734344,-1.2007468967567547e-05 277.7579736734344,-1.2007468967567547e-05 C277.7579736734344,-1.2007468967567547e-05 281.0816585236837,-1.2007468967567547e-05 281.0816585236837,-1.2007468967567547e-05 C281.0816585236837,-1.2007468967567547e-05 281.0816585236837,9.32225406031489 281.0816585236837,9.32225406031489 C281.0816585236837,9.32225406031489 290.9999634381373,19.240620009927568 290.9999634381373,19.240620009927568 C290.9999634381373,19.240620009927568 290.9999634381373,299.99850688036724 290.9999634381373,299.99850688036724 C290.9999634381373,299.99850688036724 290.1744018754877,299.998508787716 290.1744018754877,299.998508787716 C290.1744018754877,299.998508787716 290.1744018754877,302.99850893020835 290.1744018754877,302.99850893020835 C290.1744018754877,302.99850893020835 281.17440144801066,302.9985094070455 281.17440144801066,302.9985094070455 C281.17440144801066,302.9985094070455 281.17440144801066,299.9985097413903 281.17440144801066,299.9985097413903 C281.17440144801066,299.9985097413903 268.8757863619047,299.99850688036724 268.8757863619047,299.99850688036724 C268.8757863619047,299.99850688036724 246.5540613636914,275.1510516291316 246.5540613636914,275.1510516291316 C246.5540613636914,275.1510516291316 141.4458639274725,275.1510516291316 141.4458639274725,275.1510516291316 C141.4458639274725,275.1510516291316 119.12414655865412,299.99850688036724 119.12414655865412,299.99850688036724 C119.12414655865412,299.99850688036724 106.82548569617879,299.9985097413903 106.82548569617879,299.9985097413903 C106.82548569617879,299.9985097413903 106.82548569617879,302.9985094070473 106.82548569617879,302.9985094070473 C106.82548569617879,302.9985094070473 97.82548526870173,302.9985089302106 97.82548526870173,302.9985089302106 C97.82548526870173,302.9985089302106 97.82548526870173,299.998508787716 97.82548526870173,299.998508787716 C97.82548526870173,299.998508787716 96.9999771118164,299.99850688036724 96.9999771118164,299.99850688036724 Z "
     id="path16" />
</svg>
