<?xml version="1.0" encoding="UTF-8" standalone="no"?>
<!-- Created with Inkscape (http://www.inkscape.org/) -->

<svg
   xmlns:dc="http://purl.org/dc/elements/1.1/"
   xmlns:cc="http://creativecommons.org/ns#"
   xmlns:rdf="http://www.w3.org/1999/02/22-rdf-syntax-ns#"
   xmlns:svg="http://www.w3.org/2000/svg"
   xmlns="http://www.w3.org/2000/svg"
   xmlns:sodipodi="http://sodipodi.sourceforge.net/DTD/sodipodi-0.dtd"
   xmlns:inkscape="http://www.inkscape.org/namespaces/inkscape"
   width="210mm"
   height="297mm"
   viewBox="0 0 744.09448819 1052.3622047"
   id="svg3454"
   version="1.1"
   inkscape:version="0.91 r13725"
   sodipodi:docname="babinkbagra.svg">
  <defs
     id="defs3456" />
  <sodipodi:namedview
     id="base"
     pagecolor="#ffffff"
     bordercolor="#666666"
     borderopacity="1.0"
     inkscape:pageopacity="0.0"
     inkscape:pageshadow="2"
     inkscape:zoom="5.58743"
     inkscape:cx="369.09891"
     inkscape:cy="485.86932"
     inkscape:document-units="px"
     inkscape:current-layer="layer1"
     showgrid="false"
     inkscape:window-width="1280"
     inkscape:window-height="962"
     inkscape:window-x="-8"
     inkscape:window-y="-8"
     inkscape:window-maximized="1" />
  <metadata
     id="metadata3459">
    <rdf:RDF>
      <cc:Work
         rdf:about="">
        <dc:format>image/svg+xml</dc:format>
        <dc:type
           rdf:resource="http://purl.org/dc/dcmitype/StillImage" />
        <dc:title />
      </cc:Work>
    </rdf:RDF>
  </metadata>
  <g
     inkscape:label="Ebene 1"
     inkscape:groupmode="layer"
     id="layer1">
    <path
       style="fill:#000000"
       d="m 351.44753,633.41301 c -3.01258,-0.40655 -5.79398,-0.54353 -6.1809,-0.3044 -0.38692,0.23913 -0.96004,0.0197 -1.27359,-0.48765 -0.31355,-0.50734 -1.46964,-0.68719 -2.5691,-0.39968 -1.1173,0.29218 -1.999,0.0302 -1.999,-0.59388 0,-0.61415 0.46261,-1.11663 1.02802,-1.11663 0.59279,0 0.85769,-1.58762 0.6257,-3.75 -0.22128,-2.0625 0.11153,-4.875 0.73957,-6.25 0.62805,-1.375 1.13398,-4.3 1.12431,-6.5 l -0.0176,-4 -4.89208,0 c -4.06594,0 -5.21024,0.42614 -6.77611,2.52345 -1.03621,1.3879 -2.1552,4.19448 -2.48663,6.23686 -0.4957,3.05468 -0.11811,4.34862 2.12861,7.29421 1.62253,2.12726 3.29848,3.36311 4.12871,3.04452 0.76862,-0.29495 1.3975,-0.0738 1.3975,0.49136 0,0.5652 0.50838,0.71344 1.12973,0.32942 0.6919,-0.42762 0.93412,-0.15983 0.625,0.69098 -0.2776,0.76406 -1.12348,1.21946 -1.87973,1.01201 -0.75625,-0.20746 -1.97715,-0.39496 -2.71312,-0.41667 -0.73596,-0.0217 -1.73943,-1.095 -2.22992,-2.3851 -0.49049,-1.29009 -2.03861,-2.86814 -3.44026,-3.50678 -1.40165,-0.63863 -2.11844,-1.42691 -1.59287,-1.75173 0.52557,-0.32482 1.12915,-2.38427 1.34128,-4.57656 0.45653,-4.71793 2.28462,-8.42429 5.1601,-10.46184 2.19456,-1.55504 8.59979,-2.24812 8.59979,-0.93054 0,0.4244 0.81027,1.0288 1.80059,1.34312 3.50394,1.11211 5.26379,10.36523 3.28416,17.26778 -0.70327,2.45216 -0.56801,3.47948 0.58402,4.43558 1.66037,1.37798 9.33149,1.83088 9.33133,0.55091 -5e-5,-0.44496 0.40275,-0.56004 0.89512,-0.25574 1.25368,0.77482 2.31237,-2.01278 3.20358,-8.43524 l 0.7632,-5.5 -0.30713,6.64141 c -0.32791,7.0907 0.57287,10.13085 2.44655,8.25717 1.92102,-1.92102 1.54872,-12.48593 -0.61312,-17.39858 -1.98977,-4.52166 -2.09742,-8 -0.24759,-8 0.55077,0 0.70056,0.92476 0.33589,2.07372 -0.70871,2.23295 0.96359,7.37968 3.28606,10.11327 0.78829,0.92784 1.18084,2.09541 0.87233,2.5946 -0.30852,0.49918 0.30042,3.17452 1.35319,5.94519 1.05277,2.77067 1.63611,5.3156 1.29631,5.6554 -1.11332,1.11332 2.43239,0.64678 4.8512,-0.63832 3.12431,-1.65992 3.42126,-4.15295 0.91406,-7.67399 -1.12736,-1.58324 -2.04975,-3.21416 -2.04975,-3.62428 0,-0.41012 1.30917,1.06158 2.90926,3.27045 2.69199,3.71618 8.09074,6.41084 8.09074,4.0383 0,-0.53257 0.7251,-0.69007 1.61134,-0.34999 1.16,0.44514 1.4401,0.195 1,-0.89301 -2.18442,-5.40028 -2.24914,-5.15926 0.84152,-3.13418 2.79206,1.82943 2.83938,1.82936 2.09343,-0.003 -0.41976,-1.03094 -1.18105,-3.32068 -1.69177,-5.08831 -0.51072,-1.76762 -1.36925,-3.48622 -1.90786,-3.8191 -0.53861,-0.33287 -0.72039,-1.02413 -0.40395,-1.53613 0.31643,-0.51199 0.23944,-1.47436 -0.17107,-2.1386 -0.41052,-0.66423 -0.86729,-2.34154 -1.01504,-3.72734 -0.35223,-3.3037 -6.76322,-9.32173 -12.93978,-12.14665 -2.70425,-1.23681 -6.62103,-3.9744 -8.70395,-6.08353 -2.08292,-2.10913 -4.33292,-3.84167 -5,-3.85009 -0.9104,-0.0115 -0.89798,-0.21521 0.0498,-0.81685 1.63888,-1.04035 7.64275,-0.55642 10.22194,0.82392 1.10846,0.59324 2.01539,0.84536 2.01539,0.56027 0,-0.28509 -2.26663,-1.66693 -5.03695,-3.07075 -5.67647,-2.87649 -14.11034,-4.24106 -13.70862,-2.218 0.14414,0.7259 -0.89767,1.2785 -2.52226,1.33788 -3.33301,0.12182 -4.66378,1.20504 -2.85429,2.32336 0.89083,0.55057 0.0687,1.07662 -2.52896,1.6181 -2.11691,0.44156 -4.07392,0.87238 -4.34892,0.95766 -0.88903,0.2757 -7.42773,1.52118 -10,1.90478 -1.66594,0.24844 -3.07642,-0.34074 -4.22776,-1.76598 l -1.72777,-2.1388 -0.0222,2.30902 c -0.0124,1.28887 0.41958,2.03596 0.97777,1.69098 0.55,-0.33992 1,-0.12102 1,0.48644 0,1.70515 -4.40617,5.71151 -5.77841,5.25409 -0.67188,-0.22396 -1.25712,0.4178 -1.30054,1.42614 -0.0488,1.13438 -0.27755,1.33787 -0.59986,0.53375 -0.41443,-1.03392 -1.00089,-0.98509 -2.86891,0.23889 -1.62872,1.06718 -2.55542,1.20283 -3.02514,0.44281 -0.46664,-0.75504 -0.9444,-0.67387 -1.53683,0.26112 -0.68309,1.07805 -0.86283,1.02127 -0.875,-0.27644 -0.0102,-1.09019 -0.92963,-1.66169 -2.76531,-1.7189 -5.82232,-0.18146 -6.4119,-0.42081 -5.89601,-2.39356 0.37287,-1.42588 0.1011,-1.75922 -1.0684,-1.31044 -1.25622,0.48206 -1.33486,0.32039 -0.39504,-0.81203 0.95183,-1.14688 0.60083,-1.61352 -1.85856,-2.47087 -3.42139,-1.19271 -3.38314,-1.10723 -2.05675,-4.5959 0.67781,-1.78276 0.64223,-2.5651 -0.11663,-2.5651 -0.60053,0 -0.85652,-0.9 -0.56887,-2 0.40007,-1.52985 0.0161,-2.01856 -1.63336,-2.07895 -1.18601,-0.0434 -1.59388,-0.30592 -0.90638,-0.58333 2.6368,-1.06398 1.11909,-2.54125 -2.21136,-2.15244 -1.90374,0.22225 -3.26171,0.20446 -3.01771,-0.0396 0.75075,-0.75075 4.88942,-3.08059 6.59068,-3.71019 1.36696,-0.50588 1.46328,-1.30531 0.63453,-5.26598 -0.53739,-2.56826 -1.38067,-5.17235 -1.87394,-5.78688 -1.50986,-1.881 1.60443,-3.73314 4.06387,-2.41689 1.13516,0.60757 2.06393,1.34035 2.06393,1.62846 0,0.28811 -0.41891,0.26494 -0.9309,-0.0515 -0.512,-0.31644 -1.21356,-0.11799 -1.55902,0.44098 -0.34549,0.55903 0.2718,1.01632 1.37189,1.01632 2.52131,0 3.60189,-1.60035 1.59943,-2.36877 -1.30803,-0.50193 -1.27792,-0.84602 0.22798,-2.60478 2.18385,-2.55054 5.58298,-2.73561 5.07769,-0.27645 -0.22438,1.09202 -1.09792,1.63663 -2.32332,1.44847 -1.46106,-0.22435 -1.20769,0.21173 0.9898,1.70351 2.36957,1.60861 3.25931,1.76709 4.5,0.80153 1.31884,-1.02638 1.36598,-0.97188 0.32024,0.37028 -0.92994,1.19356 -0.94605,1.85395 -0.0667,2.73334 1.8511,1.85109 0.0257,2.65544 -2.70712,1.19287 -1.37335,-0.73499 -2.79491,-1.03843 -3.15903,-0.6743 -0.8899,0.88989 2.69496,4.77013 3.78475,4.0966 0.47214,-0.2918 1.6495,-0.0699 2.61636,0.49317 1.62229,0.94473 1.60361,1.02851 -0.24208,1.08592 -1.87573,0.0584 -1.89127,0.14476 -0.25,1.39066 0.9625,0.73064 1.75,1.63216 1.75,2.00338 0,1.04931 -4.07143,-1.35695 -8.75,-5.17136 -2.3375,-1.90575 -4.25,-2.94666 -4.25,-2.31315 0,0.63352 0.67241,1.40988 1.49425,1.72525 0.82184,0.31537 1.24529,0.97625 0.94099,1.46861 -0.3043,0.49237 -0.10704,0.89522 0.43835,0.89522 0.5454,0 1.26149,0.85024 1.59131,1.88942 0.38357,1.20851 2.20973,2.29483 5.06739,3.01439 2.45724,0.61874 4.46771,1.39229 4.46771,1.719 0,0.3267 -1.2375,0.278 -2.75,-0.10823 -1.5125,-0.38623 -3.64852,-0.88055 -4.7467,-1.0985 -1.09818,-0.21794 -2.14818,-0.85072 -2.33333,-1.40617 -0.18515,-0.55545 -1.17868,-1.00991 -2.20785,-1.00991 -1.66061,0 -1.58983,0.28138 0.62879,2.5 1.375,1.375 3.1811,2.5 4.01356,2.5 0.83246,0 1.2436,0.43681 0.91365,0.97068 -0.95689,1.54828 3.56965,2.16936 8.70478,1.19437 4.37589,-0.83083 4.8391,-0.71938 6.30433,1.51686 1.60127,2.44384 7.13745,6.32607 8.97277,6.29212 0.55,-0.0102 -0.125,-0.89849 -1.5,-1.97403 -2.85042,-2.22963 -2.36571,-2.48626 1.6849,-0.89207 3.64231,1.43349 10.3151,1.94289 10.3151,0.78745 0,-0.49246 -1.35,-0.89538 -3,-0.89538 -1.65,0 -3,-0.45 -3,-1 0,-0.55 0.62685,-1 1.39301,-1 1.42261,0 3.13034,-2.90977 1.8256,-3.11063 -0.39523,-0.0608 -2.84454,-0.19927 -5.44289,-0.30761 -6.41227,-0.26738 -7.30163,-1.54873 -1.19239,-1.71794 2.70417,-0.0749 3.90417,-0.3312 2.66667,-0.56955 -1.2375,-0.23836 -2.25,-0.81226 -2.25,-1.27534 0,-1.02672 1.9683,-0.79426 3.9994,0.47234 1.5947,0.99447 4.56463,0.88118 10.87304,-0.41476 0.20485,-0.0421 -0.1656,-0.72482 -0.82322,-1.5172 -0.77846,-0.93799 -1.90493,-1.17831 -3.22837,-0.68874 -2.47341,0.91497 -7.82085,0.24212 -7.82085,-0.98407 0,-0.48757 0.405,-0.774 0.9,-0.6365 0.495,0.1375 0.93553,-0.0964 0.97895,-0.51967 0.24855,-2.42326 6.12105,-4.98309 6.12105,-2.66818 0,0.51582 -0.9,0.93785 -2,0.93785 -1.1,0 -2,0.42179 -2,0.93732 0,0.51553 1.8,0.91248 4,0.88212 4.0396,-0.0558 5.26119,-1.1215 2.5,-2.18107 -2.87373,-1.10275 -1.47479,-2.48443 2.07028,-2.04473 2.22929,0.2765 3.33787,0.0668 2.9515,-0.5584 -0.77571,-1.25513 0.43938,-8.03524 1.44004,-8.03524 0.40657,0 2.13791,2.25 3.8474,5 1.70949,2.75 3.57676,5 4.14948,5 0.57271,0 1.0413,0.46156 1.0413,1.02568 0,0.58409 -1.2916,0.35777 -3,-0.52568 -1.65,-0.85325 -3,-1.9898 -3,-2.52568 0,-0.53588 -0.4,-0.97432 -0.88889,-0.97432 -0.48889,0 -0.82639,0.7875 -0.75,1.75 0.0764,0.9625 -0.44497,1.63038 -1.15858,1.48418 -0.73976,-0.15156 -1.16961,0.46463 -1,1.43355 0.1925,1.09973 -0.58468,1.93889 -2.20253,2.37817 -2.33174,0.63312 -2.36539,0.72743 -0.5,1.40123 1.1,0.39734 3.64841,1.40999 5.66313,2.25035 3.58524,1.49544 6.43697,1.08251 5.29416,-0.76658 -0.31643,-0.51199 -0.0988,-0.9309 0.48369,-0.9309 0.58246,0 1.05902,-0.59037 1.05902,-1.31194 0,-0.72157 1.2893,-2.26517 2.86512,-3.43022 1.57582,-1.16505 3.08581,-2.9622 3.35554,-3.99366 0.40881,-1.56326 0.0282,-1.80755 -2.28669,-1.4678 -2.32965,0.34192 -3.05031,-0.13251 -4.47252,-2.94439 -0.93247,-1.84359 -2.5637,-4.30328 -3.62495,-5.46597 -1.92395,-2.10783 -1.91953,-2.11874 1.5181,-3.75 1.89621,-0.89981 4.14059,-1.63602 4.98751,-1.63602 0.84692,0 1.81797,-0.45 2.15789,-1 0.33992,-0.55 1.82898,-0.98171 3.30902,-0.95936 l 2.69098,0.0406 -3.5,3.03252 c -2.88995,2.50396 -4.14118,2.95088 -7.1786,2.5641 l -3.6786,-0.46843 3.48861,3.48861 c 3.96424,3.96423 7.2382,3.95674 9.84552,-0.0225 1.29796,-1.98094 3.56901,-10.63617 3.78512,-14.42555 0.0392,-0.6875 0.44628,-1.25 0.90462,-1.25 0.45833,0 0.74417,-0.3375 0.6352,-0.75 -0.34464,-1.30464 1.29643,-5.25 2.18373,-5.25 0.46795,0 1.45013,-0.22998 2.18261,-0.51106 0.95321,-0.36578 1.33179,0.48701 1.33179,3 0,1.93108 -0.3375,3.51106 -0.75,3.51106 -0.4125,0 -0.75,0.79385 -0.75,1.76412 0,4.84528 -6.03439,16.62503 -9.25558,18.06783 -0.41556,0.18614 0.25553,1.15717 1.49132,2.15785 2.14725,1.73875 2.16957,1.90485 0.50339,3.74596 -0.95892,1.0596 -1.44251,2.22752 -1.07465,2.59539 0.36787,0.36788 -0.30615,0.66886 -1.49781,0.66886 -1.19167,0 -2.16667,0.45 -2.16667,1 0,0.55 -1.0125,1.03553 -2.25,1.07895 -1.2375,0.0434 -1.6847,0.30685 -0.99377,0.58541 0.69093,0.27855 1.00407,0.91446 0.69588,1.41313 -0.3082,0.49867 -0.0997,1.69773 0.46336,2.66459 0.97209,1.66927 1.02525,1.66967 1.05412,0.008 0.0176,-1.01049 0.7948,-1.75 1.83928,-1.75 2.54284,0 5.79727,-2.50735 4.38629,-3.37938 -1.44906,-0.89557 -0.39046,-3.6328 1.17294,-3.03286 0.66142,0.25381 1.26893,-0.41936 1.35003,-1.49593 0.0811,-1.07657 1.07769,-2.88765 2.21466,-4.02462 1.74691,-1.74691 2.35189,-3.05484 1.99691,-4.31721 -0.0387,-0.1375 0.46674,-1.6 1.12313,-3.25 0.65638,-1.65 1.57033,-7.21927 2.031,-12.37615 0.66349,-7.42721 0.53396,-10.10283 -0.62312,-12.87213 -1.80545,-4.32113 -1.80782,-4.2518 0.14537,-4.2518 1.63855,0 5.87248,4.63469 5.92035,6.48073 0.0145,0.5606 0.3786,1.58177 0.80902,2.26927 0.46094,0.73625 0.297,1.25 -0.39888,1.25 -0.83162,0 -0.77507,0.48967 0.19099,1.65369 0.75484,0.90954 1.37244,2.41537 1.37244,3.34631 0,0.93094 0.6176,2.43677 1.37244,3.3463 0.75485,0.90954 1.03725,1.6537 0.62756,1.6537 -0.40969,0 -0.12729,0.75359 0.62756,1.67465 1.10398,1.34707 0.79319,1.29817 -1.58888,-0.25 -1.74192,-1.13213 -2.61685,-1.36581 -2.12477,-0.56752 0.64637,1.04861 0.3339,1.1976 -1.37451,0.65538 -1.97886,-0.62807 -2.09674,-0.48817 -1.12252,1.33217 0.78498,1.46676 0.78462,2.22177 -10e-4,2.70749 -0.59941,0.37045 -0.86775,1.52276 -0.59633,2.56069 0.32474,1.2418 -0.0293,1.88714 -1.03532,1.88714 -1.19847,0 -1.27727,0.30311 -0.36465,1.40275 0.89398,1.07718 0.86437,1.52306 -0.12755,1.92106 -0.98849,0.39662 -0.99829,0.53683 -0.0417,0.59724 0.6875,0.0434 1.25,0.51483 1.25,1.04757 0,0.53273 -0.64029,0.72291 -1.42288,0.4226 -0.9575,-0.36743 -1.33129,0.0517 -1.14285,1.28139 0.15401,1.00506 -0.4432,2.11063 -1.32713,2.45681 -1.15095,0.45075 -0.61365,0.91033 1.89286,1.61906 2.82987,0.80017 3.74356,0.68516 4.77207,-0.60072 0.69963,-0.8747 1.05125,-2.16578 0.78138,-2.86907 -0.27171,-0.70807 0.21933,-1.27869 1.10038,-1.27869 1.25627,0 1.34466,-0.29689 0.42006,-1.41097 -0.85549,-1.0308 -0.87011,-1.59694 -0.0543,-2.10115 0.6142,-0.3796 0.88397,-1.29675 0.59948,-2.0381 -0.3503,-0.91286 0.003,-1.14813 1.09587,-0.72891 1.07443,0.41229 1.37166,0.22831 0.89006,-0.55093 -0.42759,-0.69137 -0.11973,-1.16994 0.75232,-1.16994 0.81163,0 1.70266,-0.5625 1.98007,-1.25 0.3451,-0.85524 0.53013,-0.77629 0.5859,0.25 0.10953,2.01535 7.07638,-9.62916 7.07638,-11.82757 0,-0.95008 0.70052,-2.72755 1.5567,-3.94992 0.85619,-1.22238 1.18891,-2.22251 0.73938,-2.22251 -0.44952,0 -2.38754,3.25135 -4.3067,7.22522 -1.91916,3.97388 -4.12359,7.41028 -4.89873,7.63646 -1.03546,0.30213 -1.2002,-0.0892 -0.62097,-1.47523 0.43361,-1.03755 0.87583,-2.56145 0.98271,-3.38645 0.40128,-3.09741 1.71809,-6 2.72199,-6 0.57178,0 0.75869,-0.73204 0.41536,-1.62675 -0.34334,-0.89471 -0.17544,-2.16753 0.37311,-2.82848 0.54854,-0.66096 1.19786,-2.29142 1.44294,-3.62325 0.24507,-1.33184 0.53232,-2.64652 0.63832,-2.92152 0.106,-0.275 0.13615,-0.84739 0.067,-1.27197 -0.0692,-0.42458 1.00255,-1.20094 2.38158,-1.72525 1.37901,-0.5243 2.50731,-1.41442 2.50731,-1.97803 0,-0.56361 0.60973,-1.02475 1.35497,-1.02475 2.41789,0 6.63533,-6.16522 6.80155,-9.94278 0.0861,-1.95647 0.28457,-4.90722 0.44106,-6.55722 0.28434,-2.998 -2.38441,-12.0465 -3.28682,-11.14409 -0.26259,0.26258 -1.33993,-0.38508 -2.39409,-1.43924 -1.05417,-1.05417 -3.15417,-1.95818 -4.66667,-2.0089 -11.06924,-0.37125 -12.53207,-0.12911 -18.78269,3.10916 -6.47595,3.35501 -8.3623,5.48808 -6.50009,7.35029 0.56803,0.56803 0.99854,2.18028 0.9567,3.58278 -0.0732,2.45289 -0.12078,2.43198 -1.25,-0.54911 -1.50341,-3.96895 -3.9904,-6.40089 -6.54579,-6.40089 -1.1081,0 -2.65199,-0.90982 -3.43087,-2.02183 -1.11285,-1.58883 -1.63893,-1.74945 -2.45641,-0.75 -0.73814,0.90244 -0.63375,1.64633 0.35944,2.56126 0.76984,0.70918 1.418,0.93418 1.44035,0.5 0.0224,-0.43419 1.36024,0.75406 2.97308,2.64055 2.33765,2.73427 2.69325,3.71818 1.75319,4.85088 -1.52796,1.84108 -1.89944,4.11073 -1.18138,7.21793 0.50502,2.18534 0.72415,2.29818 1.74686,0.89954 1.01509,-1.38821 5.22776,-1.25972 4.61339,0.14071 -0.11122,0.25353 0.12848,2.86546 0.53267,5.80429 0.483,3.51181 0.35557,5.72265 -0.37178,6.45 -0.80889,0.80889 -1.10667,0.53059 -1.10667,-1.03431 0,-1.17754 -0.38965,-2.3818 -0.86589,-2.67614 -0.47624,-0.29433 -0.64878,-1.67089 -0.38342,-3.05901 0.62455,-3.26712 -0.0907,-3.19616 -2.27939,0.22613 -0.9673,1.5125 -1.39796,2.4164 -0.95702,2.00868 1.43206,-1.32421 3.48611,1.40657 3.47041,4.61376 -0.0201,4.1088 -1.33932,6.08919 -3.5031,5.25887 -1.40843,-0.54046 -1.63312,-0.20434 -1.23959,1.85428 0.33876,1.77211 0.0426,2.51441 -1.00312,2.51441 -1.04389,0 -1.19275,0.37058 -0.50213,1.25 1.33915,1.70526 0.70211,7.85582 -0.92021,8.88455 -2.09191,1.32649 -2.99217,1.0017 -2.02313,-0.72988 1.54217,-2.75571 0.1951,-6.16679 -2.94976,-7.46943 -2.66488,-1.10383 -3.10866,-1.00189 -4.54104,1.0431 -1.3867,1.97981 -2.18832,2.19534 -6.33732,1.70395 l -4.74981,-0.56254 -0.65874,5.69013 c -1.76048,15.2066 -1.88422,15.8248 -2.64012,13.19012 -0.39449,-1.375 -0.76212,-4.3757 -0.81694,-6.66821 -0.0548,-2.29252 -0.37282,-4.88002 -0.70667,-5.75 -1.02183,-2.66286 -2.39301,-1.76107 -2.39301,1.57382 0,1.82527 -1.05395,4.5374 -2.5,6.43328 -1.375,1.80272 -2.52988,3.64519 -2.56639,4.09439 -0.19153,2.35613 -6.84565,9.85221 -9.01119,10.1514 -1.33233,0.18407 -2.82686,0.72351 -3.32118,1.19875 -1.11816,1.07502 -6.63329,-1.66835 -8.40794,-4.18234 -0.71869,-1.0181 -1.95619,-1.85109 -2.75,-1.85109 -0.94086,0 -1.39589,-0.95734 -1.30712,-2.75 0.11676,-2.35784 0.19798,-2.42915 0.56955,-0.5 0.23836,1.2375 0.83454,2.25 1.32487,2.25 0.49032,0 1.79955,0.97469 2.90941,2.16598 1.43299,1.53813 3.56206,2.29404 7.34494,2.60774 l 5.32703,0.44176 1.70745,-3.85774 c 0.9391,-2.12176 2.89979,-5.84215 4.35709,-8.26754 1.4573,-2.4254 2.04978,-4.03908 1.31662,-3.58596 -0.92231,0.57002 -1.17015,0.38817 -0.8044,-0.5902 1.48664,-3.97676 2.80896,-8.79121 3.29631,-12.00155 0.65628,-4.3231 6.53875,-12.49202 7.67345,-10.65603 0.41768,0.67582 -0.1199,2.70781 -1.20124,4.54056 -2.08562,3.53485 -2.53772,6.20298 -1.05107,6.20298 0.49841,0 2.52266,-2.25 4.49834,-5 4.22742,-5.88426 7.59282,-6.58533 12.00097,-2.5 3.66486,3.39648 4.88765,3.16651 7.9758,-1.5 1.45589,-2.2 2.36059,-4 2.01044,-4 -0.35014,0 -0.18109,-0.5625 0.37568,-1.25 1.19291,-1.47301 1.35085,-6.94113 0.17958,-6.21724 -0.96616,0.59712 -2.29748,-3.15666 -1.54904,-4.36766 0.94393,-1.5273 -1.4365,-8.11273 -3.77938,-10.45561 -1.25742,-1.25742 -3.52876,-4.40646 -5.04742,-6.99786 -2.51023,-4.28337 -5.57116,-6.29021 -5.57116,-3.65261 0,0.58246 0.42277,0.79773 0.93948,0.47838 0.51671,-0.31934 0.91681,0.2166 0.8891,1.19099 -0.0277,0.97438 0.28077,3.23411 0.68552,5.02161 0.40474,1.7875 0.34215,3.25 -0.1391,3.25 -0.48125,0 -0.875,1.35 -0.875,3 0,1.65 0.49416,3 1.09813,3 1.1048,0 4.19739,6.2064 4.48461,9 0.36986,3.59731 -0.18872,5.82669 -1.59511,6.36637 -1.172,0.44974 -1.37932,0.0503 -0.92122,-1.77495 0.35193,-1.40219 -0.25006,-4.20186 -1.48763,-6.9185 -1.14333,-2.50975 -2.07878,-4.8311 -2.07878,-5.15855 0,-0.32745 -0.94163,-1.86898 -2.09251,-3.42563 -2.02086,-2.73335 -2.03362,-2.94598 -0.37282,-6.2095 l 1.71968,-3.37924 -3.46784,3.5 c -4.38188,4.4225 -4.90109,6.0609 -2.61447,8.25 1.00538,0.9625 1.87971,1.4125 1.94296,1 0.0633,-0.4125 0.47671,1.05 0.91881,3.25 0.57028,2.83788 0.43906,4.29053 -0.45166,5 -0.6905,0.55 -1.7948,2.0125 -2.45399,3.25 -1.67757,3.14931 -3.12816,2.80152 -3.12816,-0.75 0,-2 0.5,-3 1.5,-3 0.83333,0 1.5,-0.88889 1.5,-2 0,-1.11111 -0.66667,-2 -1.5,-2 -1.45407,0 -1.5971,-0.64369 -1.88866,-8.5 -0.0843,-2.27078 -0.53672,-2.92858 -1.86134,-2.70616 -1.03786,0.17426 -1.75,-0.33441 -1.75,-1.25 0,-1.39107 1.1718,-1.9904 3.25,-1.66226 0.4125,0.0651 0.75,-0.35814 0.75,-0.9406 0,-0.58246 0.43035,-0.79305 0.95633,-0.46797 0.52598,0.32507 0.67187,1.3323 0.32421,2.23829 -0.53312,1.38929 -0.22595,1.34512 1.96142,-0.28202 1.42644,-1.0611 2.79621,-2.95783 3.04393,-4.21494 0.41109,-2.08617 0.30343,-2.15266 -1.2335,-0.76175 -0.92614,0.83815 -3.02466,1.67069 -4.66337,1.85008 -1.63871,0.1794 -3.51806,0.65905 -4.17633,1.06588 -0.65827,0.40683 -1.9724,0.30567 -2.9203,-0.2248 -1.23463,-0.69093 -2.82113,-0.40449 -5.59357,1.0099 -3.65992,1.86715 -3.85115,1.87586 -3.52078,0.16037 0.19214,-0.99771 0.9221,-1.81402 1.62213,-1.81402 0.70003,0 1.59386,-0.49544 1.9863,-1.10097 0.94521,-1.45846 6.10779,-2.37913 6.82585,-1.2173 0.81128,1.31268 7.47512,0.0491 9.52511,-1.8061 0.9551,-0.86436 2.26158,-1.24706 2.90328,-0.85047 0.64171,0.3966 0.37572,-0.48617 -0.59109,-1.96171 -0.96681,-1.47553 -2.02598,-2.31844 -2.35373,-1.87312 -0.32774,0.44532 -1.49589,0.96715 -2.59589,1.15962 -1.1,0.19247 -2.28493,0.80896 -2.63317,1.36998 -0.37103,0.59773 -1.08294,0.24586 -1.71959,-0.84995 -0.99108,-1.70588 -1.08909,-1.71641 -1.11683,-0.11998 -0.0211,1.21596 -0.86961,1.77335 -2.78041,1.82651 -1.5125,0.0421 -3.425,0.25901 -4.25,0.48207 -0.825,0.22305 -2.78865,0.70086 -4.36368,1.06179 l -2.86367,0.65624 1.86367,-2.84963 c 1.02503,-1.56729 1.30118,-2.50298 0.61368,-2.07929 -0.6875,0.42369 -1.25,0.36602 -1.25,-0.12816 0,-1.31839 5.17809,-3.59797 7.5,-3.30176 1.61294,0.20577 1.75809,0.006 0.75,-1.03131 -0.6875,-0.70755 -1.25,-2.68146 -1.25,-4.38646 0,-1.705 -0.39167,-3.5275 -0.87037,-4.05 -0.47871,-0.5225 -1.15468,-3.2 -1.50217,-5.95 -0.62032,-4.9091 -0.60449,-4.94793 0.87037,-2.13569 0.82619,1.57537 1.50217,3.93787 1.50217,5.25 0,1.31213 0.39541,2.38569 0.87868,2.38569 0.48327,0 1.45622,1.39432 2.16211,3.09848 1.17174,2.82883 1.37811,2.93761 2.37132,1.25 0.59834,-1.01666 1.98789,-1.93018 3.08789,-2.03003 1.1,-0.0999 3.35,-0.4756 5,-0.83501 5.37822,-1.1715 14.5,-0.71368 14.5,0.72776 0,0.49876 0.35899,0.68497 0.79775,0.4138 0.43876,-0.27117 1.43616,-0.0985 2.21646,0.38378 0.8547,0.52824 1.92898,0.45333 2.70225,-0.18843 0.90933,-0.75468 1.28354,-0.75185 1.28354,0.01 0,0.61208 1.29177,0.91145 3,0.69526 1.78355,-0.22572 3,0.0774 3,0.74751 0,0.79578 0.3528,0.77437 1.2,-0.0728 1.5434,-1.5434 2.87078,-1.54104 2.55,0.004 -0.1375,0.6625 0.65,1.26568 1.75,1.34039 1.1,0.0747 3.8,0.96627 6,1.98123 2.2,1.01496 4.40876,1.73803 4.90836,1.60682 0.4996,-0.13121 1.22738,0.27763 1.6173,0.90853 0.51029,0.82568 1.65677,0.64206 4.09164,-0.6553 1.86048,-0.99131 3.6077,-1.82814 3.8827,-1.85961 0.275,-0.0315 1.13203,-0.45737 1.90451,-0.94643 0.96551,-0.61127 1.18149,-0.52834 0.69098,0.26532 -0.39244,0.63502 -0.26352,1.15455 0.28648,1.15455 0.55,0 1.29707,-0.48068 1.66016,-1.06817 0.3631,-0.5875 1.24566,-0.84351 1.96125,-0.56891 0.7156,0.2746 1.57925,0.22112 1.91923,-0.11886 1.04162,-1.04162 4.57739,-0.97231 4.57739,0.0897 0,0.54975 0.2961,0.70345 0.65799,0.34156 0.3619,-0.3619 1.2619,-0.1568 2,0.45578 1.00357,0.83288 1.34201,0.79161 1.34201,-0.16367 0,-0.88235 0.58648,-0.74667 1.89629,0.43869 1.36315,1.23363 2.01137,1.37088 2.30561,0.48815 0.26749,-0.80245 1.16973,-0.41177 2.60371,1.12743 1.39406,1.49635 2.19439,1.8522 2.19439,0.97571 0,-0.94339 0.42637,-0.7966 1.3483,0.46421 0.74156,1.01415 1.86656,1.5236 2.5,1.13211 0.63343,-0.39149 1.1517,-0.20868 1.1517,0.40624 0,0.61492 0.45,0.83992 1,0.5 0.55,-0.33992 1,0.2944 1,1.4096 0,1.32566 0.48395,1.84192 1.39788,1.49121 1.827,-0.70108 5.61837,3.39328 4.89287,5.2839 -0.39183,1.02107 0.009,1.36678 1.32347,1.14031 1.36564,-0.23537 1.79838,0.18535 1.5689,1.52533 -0.18969,1.10766 0.11013,1.58644 0.74698,1.19285 0.75126,-0.4643 0.75261,0.16115 0.005,2.12862 -0.5826,1.53237 -0.73514,2.46199 -0.33898,2.06583 0.39616,-0.39617 1.41058,-0.1617 2.25426,0.52103 1.27095,1.02848 1.39017,0.98413 0.6953,-0.25868 -0.6691,-1.19673 -0.57495,-1.25585 0.46566,-0.29238 1.06101,0.98234 1.06554,1.49534 0.0243,2.75 -1.52018,1.83171 -0.72068,1.97084 2.28057,0.39687 l 2.18426,-1.14551 -2,2.3174 c -1.1,1.27458 -1.46516,2.00559 -0.81146,1.62448 1.56303,-0.91126 3.19213,2.08945 2.52317,4.64754 -0.38715,1.48048 -0.17903,1.79943 0.78527,1.20346 0.84969,-0.52513 1.07062,-0.42025 0.62693,0.29764 -0.3768,0.60969 -0.41047,2.20271 -0.0748,3.54005 0.4672,1.86149 1.11908,2.32081 2.78059,1.95925 1.7578,-0.38252 1.88521,-0.26864 0.67032,0.59914 -1.26807,0.90577 -1.19076,1.07617 0.5,1.10206 1.1,0.0168 1.55,0.36123 1,0.76531 -1.60793,1.18133 -1.69052,3.35981 -0.19372,5.10985 1.58579,1.85408 3.0925,5.24928 2.84241,6.40504 -0.0928,0.4291 0.54788,2.16613 1.42384,3.86006 0.87627,1.69452 1.07749,2.76148 0.44735,2.37203 -1.3492,-0.83385 -1.17803,9.88361 0.20344,12.73771 0.61692,1.27455 0.42996,1.75 -0.68814,1.75 -0.84435,0 -1.54207,-0.7875 -1.55049,-1.75 -0.0131,-1.49555 -0.15626,-1.5319 -0.98469,-0.25 -1.24536,1.92706 -1.27231,3.28633 -0.0502,2.53101 0.5224,-0.32287 1.43823,0.32558 2.03518,1.44098 0.59695,1.11541 0.69418,2.02801 0.21607,2.02801 -0.47811,0 -0.73339,2.1375 -0.56729,4.75 0.1661,2.6125 0.34442,5.5375 0.39626,6.5 0.0518,0.9625 0.50045,1.75 0.99692,1.75 0.49646,0 1.43397,1.0125 2.08336,2.25 1.14569,2.18331 1.12217,2.19813 -0.79356,0.5 -2.09402,-1.85576 -9.31723,-2.452 -9.31723,-0.76905 0,0.53952 -1.125,1.2633 -2.5,1.60841 -1.65744,0.41599 -2.5,1.32372 -2.5,2.69336 0,2.04601 0.0227,2.04458 2.3566,-0.14801 2.79355,-2.6244 9.02162,-3.89563 11.00819,-2.24693 0.75994,0.6307 2.07656,0.88009 2.92582,0.5542 1.50363,-0.577 2.18012,0.49155 5.47333,8.64541 0.72674,1.79938 0.7266,3.77901 -4.4e-4,6.5 -0.85457,3.19824 -1.84133,4.30435 -5.40448,6.05819 -3.43979,1.69312 -4.35902,1.84466 -4.35902,0.71861 0,-0.78483 0.67242,-1.68499 1.49426,-2.00036 0.82184,-0.31537 1.29532,-0.89528 1.05218,-1.28869 -0.24314,-0.39341 -0.67195,-1.98297 -0.9529,-3.53236 -0.65504,-3.61228 -3.36444,-6.1098 -7.67723,-7.07684 l -3.41631,-0.76603 4.37575,-1.4752 c 3.92545,-1.3234 4.72531,-1.30851 7.77271,0.1447 1.86834,0.89094 3.84934,2.80972 4.40224,4.26393 1.22386,3.219 2.4334,2.43162 1.56707,-1.02012 -0.34233,-1.36396 -1.52137,-2.76524 -2.62009,-3.11396 -1.09873,-0.34872 -1.99768,-1.10186 -1.99768,-1.67364 0,-0.57178 -0.675,-0.78058 -1.5,-0.46399 -0.825,0.31658 -1.5,0.13972 -1.5,-0.39301 0,-1.33822 -5.36186,-1.2165 -8.45295,0.1919 -3.57526,1.62899 -3.17739,3.41647 1.40422,6.30872 2.92242,1.84484 4.09569,3.34531 4.50591,5.76254 0.58645,3.45561 0.32719,6.31718 -0.66194,7.30632 -0.93003,0.93003 -11.99046,3.32404 -13.20736,2.85872 -1.0572,-0.40426 -1.65141,3.90903 -1.58887,11.53342 0.0155,1.88663 -0.30226,3.09984 -0.70607,2.69603 -0.40382,-0.40382 -0.74971,-4.47851 -0.76866,-9.05487 -0.029,-6.99976 0.20449,-8.23146 1.47064,-7.7588 1.29294,0.48267 1.31164,0.32405 0.13264,-1.12537 -0.75485,-0.92798 -1.03725,-1.68723 -0.62756,-1.68723 0.40969,0 0.12729,-0.76138 -0.62756,-1.69196 -1.07631,-1.32689 -1.08684,-1.5201 -0.0488,-0.89546 0.80902,0.48682 0.50953,-0.79932 -0.77033,-3.30804 -1.85615,-3.63841 -1.90631,-4.10454 -0.44167,-4.10454 0.90876,0 3.28041,0.99287 5.27033,2.20638 2.71874,1.65796 3.2769,1.78224 2.24559,0.5 -2.41802,-3.00635 0.39018,-1.82246 3.43535,1.44828 1.6154,1.73507 2.42756,2.86624 1.8048,2.51373 -0.7514,-0.42532 -1.0788,0.4227 -0.97328,2.52092 0.16366,3.25412 1.88346,4.78811 3.12177,2.78448 0.38472,-0.62249 0.13664,-3.14208 -0.55128,-5.59909 -1.02057,-3.64513 -1.89108,-4.73484 -4.72997,-5.921 -1.91356,-0.79953 -4.43674,-1.48222 -5.60707,-1.51709 -1.96067,-0.0584 -1.93365,-0.14089 0.34389,-1.04981 4.81082,-1.91989 4.40033,-5.03441 -0.93067,-7.06129 -2.45301,-0.93266 -2.47177,-1.00408 -0.5411,-2.06037 1.1,-0.60182 2.26335,-1.48926 2.58523,-1.97209 0.32188,-0.48284 1.86134,-1.21917 3.42102,-1.63629 2.54617,-0.68095 2.67467,-0.90641 1.25823,-2.20758 -1.43549,-1.31868 -1.42837,-1.62204 0.079,-3.36875 1.56547,-1.81404 1.54659,-1.87748 -0.34347,-1.15406 -1.1,0.42102 -2.675,1.01801 -3.5,1.32663 -0.825,0.30862 -0.375,-0.55223 1,-1.913 1.375,-1.36076 2.80249,-2.32652 3.1722,-2.14612 0.66777,0.32583 4.98585,-8.21467 6.24909,-12.35972 0.36304,-1.19122 0.20495,-2.44712 -0.3513,-2.7909 -0.55624,-0.34378 -1.32154,0.63085 -1.70065,2.16584 -0.91108,3.68887 -4.45743,9.18919 -7.92462,12.2909 l -2.79458,2.5 2.37214,-4 c 1.30468,-2.2 2.79773,-4.29132 3.31789,-4.64737 0.52016,-0.35606 1.2951,-2.60606 1.72209,-5 0.42699,-2.39395 1.44742,-6.60263 2.26762,-9.35263 1.4712,-4.93265 1.67322,-4.77053 2.06818,1.65964 0.16803,2.73559 1.59288,3.36377 1.71709,0.75703 0.19923,-4.18092 -0.18151,-6.29189 -1.92319,-10.66292 -1.79294,-4.49967 -3.52905,-5.7111 -3.00482,-2.0967 0.61906,4.26818 -1.89256,2.7818 -4.58261,-2.71202 -2.07715,-4.24208 -3.13955,-5.4537 -4.36851,-4.9821 -1.29753,0.4979 -1.23321,0.178 0.32005,-1.59179 1.06916,-1.21821 1.30496,-1.83876 0.52399,-1.37899 -1.06026,0.62419 -1.25819,0.41443 -0.78138,-0.82811 0.35119,-0.91522 0.17611,-1.66404 -0.38909,-1.66404 -0.5652,0 -0.80577,-0.35899 -0.5346,-0.79775 0.57832,-0.93574 -0.22046,-2.19006 -2.56108,-4.02164 -1.30227,-1.01906 -2.17312,-1.05874 -3.82569,-0.17431 -1.97093,1.05481 -2.05204,0.98144 -1.02874,-0.93061 1.26584,-2.36525 0.82026,-2.54938 -2.27523,-0.94024 -1.20134,0.6245 -1.84962,0.77737 -1.44062,0.3397 0.74065,-0.79257 -1.94157,-3.20855 -3.63184,-3.27134 -0.4885,-0.0181 -1.26911,-0.63392 -1.73468,-1.3684 -0.52652,-0.83062 -0.85228,-0.90334 -0.86181,-0.1924 -0.008,0.62866 -0.67812,1.39736 -1.48822,1.70822 -0.98267,0.37708 -2.0133,-0.57359 -3.0965,-2.85625 -0.89297,-1.8818 -2.48016,-3.69333 -3.52709,-4.02561 -1.04692,-0.33228 -1.9035,-1.2347 -1.9035,-2.00537 0,-0.8347 -0.60647,-1.16851 -1.5,-0.82563 -1.07362,0.41199 -1.5,2.09009 -1.5,5.90352 0,2.93035 -0.43886,6.48221 -0.97525,7.89301 -0.63366,1.66667 -0.63366,2.5651 0,2.5651 0.53639,0 0.97525,0.99 0.97525,2.2 0,1.67327 0.27868,1.92132 1.16396,1.03604 1.51482,-1.51482 4.28266,1.55717 5.94717,6.60069 1.04077,3.15357 1.30045,3.37034 1.97339,1.64735 0.76992,-1.97131 0.77546,-1.97121 0.86051,0.0159 0.0653,1.52689 0.29084,1.676 0.95324,0.63035 0.63274,-0.99882 1.20177,-0.35724 2.10173,2.36965 0.89996,2.72689 1.46899,3.36846 2.10173,2.36964 0.6104,-0.96357 0.87218,-0.53682 0.88296,1.43937 0.0103,1.88759 0.39908,2.57184 1.18525,2.08596 0.78521,-0.48529 0.96124,-0.1792 0.5353,0.93079 -0.45751,1.19224 0.0513,1.82602 1.82315,2.27072 1.35178,0.33927 2.23848,0.97171 1.97044,1.40541 -0.26804,0.43369 0.22188,1.06069 1.0887,1.39332 2.29996,0.88258 2.41247,0.81126 2.41247,-1.52919 0,-3.67782 -2.25855,-9.86602 -3.60087,-9.86602 -0.74602,0 -1.12286,-0.83825 -0.89913,-2 0.21184,-1.1 -0.039,-2 -0.55742,-2 -0.51842,0 -0.94258,-0.45 -0.94258,-1 0,-0.55 0.52707,-1 1.17126,-1 0.64419,0 1.99419,-0.74474 3,-1.65499 1.64177,-1.48578 2.07486,-1.15828 1.73914,1.3151 -0.0493,0.36305 0.6287,1.06208 1.50661,1.55338 1.23373,0.69044 1.35963,1.33534 0.55442,2.8399 -0.57299,1.07063 -0.74586,1.94661 -0.38417,1.94661 0.3617,0 0.04,0.76138 -0.71482,1.69196 -1.18285,1.45822 -1.16522,1.5761 0.12756,0.85329 1.13849,-0.63653 1.23221,-0.54756 0.38886,0.36919 -1.18564,1.28883 0.10184,6.51805 2.2699,9.21939 1.72012,2.14323 2.71691,6.07012 2.44094,9.61617 -0.13912,1.7875 -0.005,3.25 0.298,3.25 1.12243,0 3.65951,-6.09841 2.98866,-7.18388 -0.40373,-0.65324 -0.24833,-0.84884 0.37052,-0.46638 0.64938,0.40135 1.31987,-0.80824 1.71588,-3.09549 0.35749,-2.06484 1.32399,-4.87925 2.14778,-6.25425 2.85233,-4.76088 0.64462,6.83621 -2.63596,13.84664 -2.39943,5.12746 -3.2605,6.16926 -4.35101,5.26421 -1.10077,-0.91356 -1.2864,-0.60321 -0.97519,1.63041 l 0.38438,2.75874 -1.15752,-2.5 c -0.63664,-1.375 -1.06593,-3.9143 -0.95399,-5.64288 0.11194,-1.72858 -0.35527,-5.10358 -1.03824,-7.5 l -1.24177,-4.35712 -0.64421,3 c -0.35432,1.65 -0.33727,3.45 0.0379,4 0.37516,0.55 0.59232,2.03155 0.48259,3.29234 -0.10973,1.26079 0.18403,2.52938 0.6528,2.8191 0.46877,0.28972 0.59916,0.93636 0.28976,1.43699 -0.30941,0.50063 -0.0759,1.81954 0.51887,2.9309 0.79563,1.48666 0.7755,2.02067 -0.0762,2.02067 -0.83806,0 -0.81397,0.41409 0.0873,1.5 0.90123,1.08591 0.92532,1.5 0.0873,1.5 -0.87263,0 -0.87595,0.52632 -0.0135,2.13786 0.62928,1.17582 1.34318,3.53832 1.58643,5.25 l 0.44229,3.11214 -2.06083,-3 c -2.00251,-2.91509 -3.92649,-8.51041 -4.42235,-12.86106 -0.38967,-3.41885 -2.67131,-7.34168 -4.9834,-8.56796 -1.88372,-0.99908 -1.89977,-1.06263 -0.13592,-0.5382 1.44261,0.42892 1.09511,-0.21361 -1.2469,-2.3055 -1.7858,-1.59508 -2.9483,-3.19875 -2.58333,-3.56371 0.36489,-0.36496 -0.13465,-0.66357 -1.11016,-0.66357 -1.11971,0 -1.57314,-0.52254 -1.22981,-1.41724 0.29911,-0.77948 -0.13126,-1.67631 -0.95639,-1.99294 -0.82514,-0.31663 -1.24392,-0.99044 -0.93063,-1.49735 0.31329,-0.50691 0.004,-1.11191 -0.68662,-1.34444 -0.96676,-0.32537 -0.91456,-0.86351 0.22654,-2.33541 1.43338,-1.84892 1.41411,-1.85434 -0.57874,-0.16262 -2.34423,1.98999 -3.87132,2.31511 -2.81027,0.5983 0.39148,-0.63344 0.0416,-1.64594 -0.77764,-2.25 -0.81919,-0.60407 -2.02637,-2.10632 -2.68263,-3.33835 -0.65626,-1.23202 -1.51727,-2.13202 -1.91335,-2 -0.39608,0.13203 -0.83264,-0.0974 -0.97014,-0.50995 -0.49755,-1.49264 -3.76794,-4.42317 -4.5,-4.03235 -0.4125,0.22021 -0.75,-0.31701 -0.75,-1.19382 0,-1.2568 -0.40244,-1.37882 -1.90152,-0.57653 -1.34243,0.71844 -1.87272,2.03354 -1.80358,4.4728 0.0539,1.90033 0.49672,3.20869 0.98412,2.90746 0.48739,-0.30123 0.22103,0.73934 -0.59193,2.31238 -0.81296,1.57303 -1.63763,3.98506 -1.8326,5.36006 -0.19497,1.375 -1.02949,3.04819 -1.85449,3.7182 -1.33333,1.08284 -1.33333,1.22542 0,1.28327 1.09111,0.0473 0.88666,0.57674 -0.75,1.94209 -1.2375,1.03236 -2.25,2.33287 -2.25,2.89001 0,0.55714 -1.11245,2.33505 -2.47212,3.95092 -1.35966,1.61587 -2.24025,3.1698 -1.95687,3.45319 0.28339,0.28338 -0.20253,0.79068 -1.07982,1.12733 -1.09318,0.41949 -1.361,0.22237 -0.85117,-0.62646 0.48015,-0.79943 0.13601,-0.74531 -0.97064,0.15263 -1.04075,0.84447 -1.48207,2.12361 -1.12301,3.25493 0.37721,1.18848 0.0138,2.08543 -1.00294,2.4756 -1.23345,0.47332 -1.33455,0.92505 -0.44651,1.99507 0.63138,0.76077 0.75537,1.39011 0.27552,1.39853 -0.47984,0.008 -0.19744,0.4879 0.62756,1.06551 1.162,0.81355 0.97366,0.90144 -0.83583,0.39006 -2.18796,-0.61835 -2.25639,-0.51172 -1.08102,1.68449 0.69015,1.28955 1.17877,2.45713 1.08583,2.59463 -0.0929,0.1375 0.1661,0.1375 0.57564,0 0.40954,-0.1375 3.342,-3.1161 6.51656,-6.61911 3.17457,-3.503 6.88949,-7.24817 8.25538,-8.32258 1.36589,-1.07441 2.48344,-2.51096 2.48344,-3.19233 0,-1.46397 3.68156,-5.61598 4.97965,-5.61598 1.47765,0 -1.47528,4.81542 -4.32989,7.06086 -1.45737,1.14636 -2.64976,2.44085 -2.64976,2.87663 0,0.43578 -3.37845,4.24839 -7.50766,8.47246 l -7.50767,7.68014 -3.37434,-2.57373 c -3.7557,-2.86462 -4.81815,-2.05434 -3.86234,2.94565 0.37801,1.97744 0.19557,2.62114 -0.603,2.1276 -0.62975,-0.38921 -1.14499,-0.20453 -1.14499,0.41039 0,0.61492 -0.44485,0.8431 -0.98855,0.50708 -0.58718,-0.3629 -0.72119,0.0857 -0.33006,1.10503 0.44676,1.16422 0.28231,1.48349 -0.51145,0.99292 -1.58475,-0.97943 -1.47214,-0.0901 0.46224,3.65057 1.13538,2.19559 1.28567,3.27178 0.49377,3.53575 -0.62613,0.20871 -0.81941,0.89562 -0.42952,1.52648 1.01705,1.64562 1.11621,4.68441 0.13303,4.07677 -1.40052,-0.86557 -0.92948,0.7075 1.28461,4.28997 2.48678,4.02369 3.68704,3.6637 1.92975,-0.57879 -1.39174,-3.35994 -0.8508,-5.8693 1.96511,-9.11608 1.07226,-1.23632 1.72997,-2.60315 1.46159,-3.0374 -0.26839,-0.43426 0.92587,-1.10009 2.65389,-1.47963 2.3104,-0.50744 2.77583,-0.92189 1.75873,-1.56606 -1.11228,-0.70444 -1.05622,-0.87898 0.28627,-0.8913 0.91818,-0.008 4.12642,-2.26087 7.12942,-5.00545 5.20477,-4.75687 14.4632,-9.97921 17.72866,-10.00009 0.84013,-0.005 2.52841,-0.71084 3.75176,-1.5677 1.22334,-0.85687 2.78597,-1.24034 3.4725,-0.85217 0.68654,0.38817 -0.2953,-0.71076 -2.18186,-2.44207 -1.88656,-1.73131 -3.06896,-3.14783 -2.62755,-3.14783 0.4414,0 0.33572,-0.5625 -0.23486,-1.25 -1.72662,-2.08045 -1.75713,-2.38279 -0.40483,-4.01221 1.10026,-1.32573 0.99833,-1.66618 -0.656,-2.19125 -1.12726,-0.35777 -1.83924,-1.34854 -1.67733,-2.33409 0.15473,-0.94185 -0.27384,-2.38745 -0.95239,-3.21245 -1.45187,-1.76523 -3.71376,-8.1365 -3.10477,-8.74549 0.23164,-0.23165 1.35867,0.51632 2.50451,1.66216 1.14583,1.14583 2.53333,2.08333 3.08333,2.08333 0.55,0 0.91885,0.3375 0.81967,0.75 -0.26399,1.09797 3.54028,7.23626 4.48935,7.24368 0.44496,0.003 0.5309,0.45632 0.19098,1.00632 -0.33992,0.55 -0.11492,1 0.5,1 0.61492,0 0.83992,0.45 0.5,1 -0.33992,0.55 -0.11492,1 0.5,1 0.61492,0 0.85387,0.42742 0.53101,0.94983 -0.32287,0.5224 0.33818,1.44498 1.46899,2.05017 1.13081,0.60519 1.82902,1.46763 1.55159,1.91653 -0.27744,0.4489 0.4366,1.66382 1.58675,2.69982 1.87949,1.69297 4.05701,5.59721 4.27787,7.67012 0.0461,0.43257 0.72129,1.18048 1.50046,1.66203 0.77916,0.48155 1.41666,2.26514 1.41666,3.96352 0,2.0782 0.49051,3.08798 1.5,3.08798 0.825,0 1.20597,0.29404 0.84659,0.65341 -0.35938,0.35938 0.24908,2.11368 1.35213,3.89844 l 2.00553,3.24503 -3.98749,-1.01213 c -2.43962,-0.61925 -4.21988,-1.74436 -4.58617,-2.89844 -0.32928,-1.03747 -1.01837,-1.88631 -1.53131,-1.88631 -0.51293,0 -0.93261,-0.92656 -0.93261,-2.05902 0,-1.13246 -0.45,-1.7809 -1,-1.44098 -0.55,0.33992 -1,-0.11008 -1,-1 0,-0.88992 -0.45,-1.33992 -1,-1 -0.55,0.33992 -1,-0.30852 -1,-1.44098 0,-1.13246 -0.5625,-1.94652 -1.25,-1.80902 -0.6875,0.1375 -1.11723,-0.37331 -0.95496,-1.13513 0.23447,-1.10073 -0.68948,-1.24529 -4.5,-0.70406 -7.93515,1.12709 -8.22873,1.18955 -8.94134,1.90215 -0.37787,0.37787 -1.44874,0.68704 -2.3797,0.68704 -0.93097,0 -3.44347,2.0919 -5.58334,4.64866 -2.13986,2.55677 -5.13431,5.95357 -6.65433,7.54846 -1.52002,1.5949 -2.90334,3.815 -3.07405,4.93358 -0.1707,1.11858 -0.81537,2.34588 -1.43259,2.72734 -0.61722,0.38146 -1.23601,2.62225 -1.3751,4.97953 -0.15335,2.59895 -0.86333,4.64328 -1.80374,5.19378 -0.85297,0.49931 -1.08848,0.92152 -0.52336,0.93824 0.56513,0.0167 1.91513,-0.58162 3,-1.32967 1.08488,-0.74804 2.80383,-1.23143 3.81988,-1.07419 1.59877,0.24741 1.7591,-0.18468 1.19137,-3.21094 -0.36081,-1.92325 -0.9311,-4.21368 -1.26731,-5.08985 -0.40602,-1.05806 -0.21779,-1.34982 0.5605,-0.86881 0.7146,0.44164 1.52062,-0.1932 2.06577,-1.62705 1.05413,-2.77257 3.86804,-5.33668 4.81613,-4.38858 0.36603,0.36603 -0.30236,1.34342 -1.4853,2.17198 -2.60449,1.82426 -4.74551,8.50998 -3.059,9.55229 1.51383,0.93561 0.30025,3.80883 -1.89685,4.49091 -0.97497,0.30267 -2.55407,0.96747 -3.50911,1.47732 -0.95504,0.50985 -2.5665,0.927 -3.58102,0.927 -2.55761,0 -4.76903,4.37059 -3.57049,7.05662 l 0.93239,2.08956 2.92992,-2.30468 c 1.61146,-1.26757 2.5874,-1.75046 2.16876,-1.07309 -1.03937,1.68174 -0.0515,1.54525 2.92326,-0.40387 1.37282,-0.8995 2.72103,-1.41046 2.99603,-1.13546 0.76326,0.76326 -3.8963,3.53828 -6.63576,3.95196 -1.33466,0.20154 -2.31416,0.91826 -2.17666,1.5927 0.1375,0.67444 -0.22039,1.22626 -0.79531,1.22626 -1.06959,0 -0.32894,6.53403 0.96349,8.5 0.36157,0.55 0.79897,2.35 0.972,4 0.36544,3.48486 2.09805,4.95429 3.78943,3.21384 0.64879,-0.66761 2.76579,-4.27597 4.70444,-8.01858 2.80491,-5.41493 3.33866,-7.29438 2.61334,-9.20213 -0.7298,-1.9195 -0.62104,-2.28594 0.54556,-1.83828 2.14325,0.82245 1.77665,4.88474 -0.8711,9.65271 -2.94818,5.30898 -3.84871,8.68287 -2.32823,8.72285 2.0306,0.0534 -2.08247,1.97038 -4.69081,2.18625 -1.37974,0.11419 -2.27819,0.58046 -1.99656,1.03616 0.28164,0.45569 1.43055,0.53702 2.55314,0.18072 1.36096,-0.43195 1.81307,-0.2789 1.35682,0.45933 -0.94655,1.53156 -0.003,1.38796 3.73345,-0.56837 4.91024,-2.5707 7.26771,-2.50139 8.744,0.25708 1.3686,2.55725 5.2844,3.31466 6.54997,1.26693 0.50142,-0.81132 1.06893,-0.66289 1.92104,0.50245 1.11177,1.52042 1.42234,1.48643 3.84736,-0.42109 2.14133,-1.68437 2.65688,-2.95563 2.73842,-6.75245 l 0.10045,-4.67742 0.92699,3.95729 c 0.50985,2.17652 0.6948,4.56239 0.41101,5.30194 -0.2838,0.73956 -0.0712,1.06972 0.47255,0.73369 0.5437,-0.33602 0.98855,-0.0793 0.98855,0.57051 0,0.90694 0.32978,0.90777 1.41928,0.004 1.11218,-0.92302 1.60883,-0.83918 2.2953,0.38748 0.75395,1.34724 1.13868,1.37331 2.76087,0.18714 1.49907,-1.09615 1.85436,-2.53639 1.73595,-7.03697 -0.19287,-7.3306 -1.82549,-13.27896 -3.99103,-14.54112 -0.9462,-0.55149 -1.27037,-1.00044 -0.72037,-0.99768 2.66959,0.0134 5.06339,2.658 5.37145,5.93416 0.18101,1.925 0.68891,4.175 1.12866,5 0.43975,0.825 1.07159,3.21527 1.40408,5.31171 0.45538,2.87127 0.29505,3.65483 -0.64983,3.17585 -0.6899,-0.34973 -0.42675,0.0389 0.58477,0.8637 1.01152,0.82477 2.78645,1.31714 3.94429,1.09416 1.96674,-0.37876 1.99531,-0.29558 0.43465,1.26508 -1.31637,1.31637 -4.80241,1.85619 -16.44429,2.54642 -13.63528,0.80841 -21.096,0.46122 -39.00045,-1.81493 -2.54869,-0.32401 -5.12919,-0.0316 -6.5,0.73653 -2.58446,1.44819 -21.05312,1.89746 -29.75074,0.72372 z m 117.97741,-38.59337 c 0,-0.71988 -0.525,-1.30887 -1.16667,-1.30887 -0.64166,0 -0.89539,0.27127 -0.56384,0.60282 0.33155,0.33156 0.17893,1.79406 -0.33916,3.25 -0.88639,2.49092 -0.8531,2.5326 0.56384,0.70605 0.82821,-1.06762 1.50583,-2.53012 1.50583,-3.25 z m -155,-1.61789 c 0,-0.44496 0.45,-0.5309 1,-0.19098 1.38604,0.85662 1.28771,0.40466 -1.0731,-4.93234 -1.74922,-3.95441 -1.86639,-4.95069 -0.75,-6.37712 1.18899,-1.51919 1.14572,-1.55143 -0.4269,-0.3181 -0.9625,0.75485 -1.75,0.94235 -1.75,0.41667 0,-0.52568 -0.5625,-0.98046 -1.25,-1.01062 -0.6875,-0.0302 -3.725,-0.31149 -6.75,-0.62515 -3.025,-0.31367 -4.94152,-0.32783 -4.25893,-0.0315 0.93904,0.40771 0.8698,0.91011 -0.28452,2.06443 -1.11498,1.11499 -1.23592,1.87462 -0.44933,2.8224 0.78253,0.94289 0.72372,1.43826 -0.21548,1.81511 -0.71046,0.28506 -0.23711,0.55382 1.05188,0.59724 1.46165,0.0492 2.54044,0.83161 2.86663,2.07895 0.5603,2.1426 0.5392,2.13018 4.24756,2.50106 1.3518,0.13519 2.5893,0.64026 2.75,1.12237 0.36741,1.10227 5.29219,1.16513 5.29219,0.0676 z m -5,-6.69098 c 1.93876,-1.25292 3,-1.25292 3,0 0,0.55 -1.0125,0.99311 -2.25,0.98469 -1.81944,-0.0124 -1.96296,-0.20082 -0.75,-0.98469 z m -5.36383,-2.50574 c -0.3483,-0.90766 0.003,-1.49426 0.89521,-1.49426 1.61739,0 1.98533,1.56262 0.5734,2.43524 -0.49236,0.3043 -1.15324,-0.11914 -1.46861,-0.94098 z m 3.36383,0.9473 c 0,-0.20415 0.9,-0.85286 2,-1.44156 1.10492,-0.59134 2,-0.65928 2,-0.15182 0,0.50521 -0.9,1.15391 -2,1.44157 -1.1,0.28766 -2,0.35597 -2,0.15181 z m 160.52044,4.62283 c -0.62435,-1.96715 -6.20851,-5.70965 -7.13578,-4.78238 -0.23621,0.23621 1.15253,1.50689 3.0861,2.82373 1.93356,1.31684 3.51865,3.03176 3.52241,3.81093 0.004,0.77916 0.27292,1.15058 0.59814,0.82536 0.32521,-0.32522 0.29332,-1.53016 -0.0709,-2.67764 z m -149.65662,-2.31439 c -0.0749,-2.3375 -0.3312,-3.2375 -0.56955,-2 -0.23836,1.2375 -0.86791,2.25 -1.39901,2.25 -0.58593,0 -0.54474,0.78643 0.10474,2 1.59217,2.97499 2.01489,2.46468 1.86382,-2.25 z m 4.13618,0.13197 c 0,-1.1 -0.45,-1.72189 -1,-1.38197 -0.55,0.33992 -1,1.51803 -1,2.61803 0,1.1 0.45,1.72189 1,1.38197 0.55,-0.33992 1,-1.51803 1,-2.61803 z m 53.48207,-5.21103 c -0.78839,-1.12559 -2.23188,-2.1609 -3.20776,-2.30069 -0.97587,-0.13978 -3.34931,-0.50153 -5.27431,-0.80388 -3.38748,-0.53205 -3.35831,-0.49073 0.90759,1.28554 2.78722,1.16056 3.96418,2.10931 3.20145,2.5807 -0.89857,0.55535 -0.9194,1.09097 -0.0817,2.10038 0.86285,1.03967 1.67868,1.10243 3.50631,0.2697 2.16819,-0.98789 2.25325,-1.26878 0.94838,-3.13175 z m -58.33602,-0.0807 c 0.74573,0.46089 0.89253,0.28118 0.40918,-0.50089 -0.56726,-0.91786 -1.21828,-0.79929 -2.63093,0.47913 -1.03242,0.93434 -1.58864,2.16559 -1.23604,2.73612 0.35741,0.57829 1.007,0.0482 1.46796,-1.1979 0.49731,-1.34433 1.29038,-1.94874 1.98983,-1.51646 z m 60.28656,-2.84024 c -0.67973,-2.17807 -2.17071,-3.70314 -3.65123,-3.73469 -1.12929,-0.0241 0.33139,3.35037 2.04949,4.73469 2.15768,1.7385 2.40765,1.58244 1.60174,-1 z m -38.43261,-0.75 c 0,-0.55 -0.45,-1 -1,-1 -0.55,0 -1,0.45 -1,1 0,0.55 0.45,1 1,1 0.55,0 1,-0.45 1,-1 z m 8.57004,-0.85278 c -0.80676,-0.8102 -2.19391,-1.08399 -3.45853,-0.68261 -3.24795,1.03086 -2.50555,2.19399 1.34702,2.11042 2.90404,-0.063 3.24257,-0.29192 2.11151,-1.42781 z m 32.42996,-5.20624 c 0,-0.58246 0.35659,-0.83863 0.79241,-0.56928 0.43583,0.26936 0.8572,-0.37022 0.93637,-1.42129 0.19781,-2.62591 -1.10769,-3.19052 -4.16073,-1.79946 -2.43155,1.10788 -2.48509,1.28324 -0.91995,3.0127 1.8496,2.04378 3.3519,2.39218 3.3519,0.77733 z m 77.47794,-7.97667 c -0.28081,-0.45436 -0.0532,-1.10877 0.50575,-1.45423 0.55897,-0.34546 1.0063,-1.16406 0.99407,-1.8191 -0.0122,-0.65504 -0.90222,-0.066 -1.97776,1.30902 -2.35245,3.00744 -2.52238,4.13769 -0.50574,3.36383 0.82184,-0.31537 1.2645,-0.94515 0.98368,-1.39952 z m -157.47794,-1.96431 c 0,-0.55 -0.47656,-1 -1.05902,-1 -0.58246,0 -0.7809,0.45 -0.44098,1 0.33992,0.55 0.81648,1 1.05902,1 0.24254,0 0.44098,-0.45 0.44098,-1 z m 139,-17 c -1.95837,-1.2656 -3.28218,-1.2656 -2.5,0 0.33992,0.55 1.37898,0.99311 2.30902,0.98469 1.45727,-0.0132 1.48367,-0.14929 0.19098,-0.98469 z m -82.57143,-8.57143 c 0.86429,-0.86428 1.57143,-1.96273 1.57143,-2.44098 0,-1.33291 -1.86756,-2.18748 -3.10676,-1.42161 -0.78661,0.48615 -0.74753,0.90604 0.1351,1.45153 0.90043,0.5565 0.67111,1.07297 -0.83407,1.87852 -1.73318,0.92757 -2.33336,0.74347 -3.6351,-1.11502 -1.75759,-2.5093 -2.10224,-1.66426 -0.52399,1.28473 1.25125,2.33797 4.24818,2.50805 6.39339,0.36283 z m 48.57143,-8.48759 c 0,-1.13246 -0.45,-1.7809 -1,-1.44098 -0.55,0.33992 -1,1.26648 -1,2.05902 0,0.79254 0.45,1.44098 1,1.44098 0.55,0 1,-0.92656 1,-2.05902 z m 27.46929,-26.94098 c -0.72554,1.27555 -0.60892,1.30201 0.77931,0.17689 0.89789,-0.72772 1.38171,-1.9767 1.07518,-2.77553 -0.42821,-1.11588 -0.87784,-1.18642 -1.94056,-0.30444 -1.05903,0.87892 -1.38322,0.83802 -1.38322,-0.17448 0,-2.16007 -1.67065,0.27719 -2.45228,3.57756 l -0.7105,3 2.74264,-2.5 c 1.50845,-1.375 2.3587,-1.825 1.88943,-1 z m -5.23379,-10.5484 c -0.58712,-3.07133 -0.76496,-2.9126 -1.59125,1.42034 -0.5285,2.77141 -0.4009,3.17099 0.71648,2.24365 0.78277,-0.64964 1.15386,-2.204 0.87477,-3.66399 z m -54.56883,2.1812 c 0,-0.75196 -1.5,-2.04708 -3.33334,-2.87806 -3.5247,-1.5976 -4.13757,-1.41184 -2.08333,0.63146 0.93516,0.93018 4.35002,3.22457 5.33333,3.58339 0.0458,0.0167 0.0833,-0.58483 0.0833,-1.33679 z m 52.24773,-3.1328 c -0.055,-2 -0.055,-2 -0.9144,0 -0.47269,1.1 -0.88417,2.675 -0.9144,3.5 -0.0489,1.33333 0.0527,1.33333 0.9144,0 0.53316,-0.825 0.94464,-2.4 0.9144,-3.5 z m -9.92971,-0.75 c 0.008,0.6875 0.69031,1.25 1.51531,1.25 0.825,0 1.5,-0.58899 1.5,-1.30887 0,-1.56152 -2.92222,-5.65258 -2.9682,-4.15542 -0.0323,1.05037 -4.0318,1.51362 -4.0318,0.46698 0,-0.74557 -4.04062,-0.45376 -6.17191,0.44574 -0.91955,0.38809 -2.36902,0.80793 -3.22105,0.93298 -3.73117,0.54762 -2.51891,1.63128 1.97629,1.76665 7.61316,0.22926 8.18352,0.29998 9.00801,1.11697 0.42463,0.42076 1.1334,0.19576 1.57504,-0.5 0.63463,-0.99979 0.80621,-1.00294 0.81831,-0.015 z m -57.98469,-2.08678 c 0,-1.81221 -3.19606,-4.16322 -5.65964,-4.16322 -3.51101,0 -3.91331,1.43541 -0.58866,2.10034 1.90686,0.38137 3.26876,1.36991 3.59242,2.60756 0.53766,2.05603 2.65588,1.62162 2.65588,-0.54468 z m -15.58753,-0.26801 c 0.86682,-0.33263 1.32253,-1.01497 1.01269,-1.51631 -0.30985,-0.50134 -1.03257,-0.62153 -1.60606,-0.2671 -0.57349,0.35444 -1.43551,0.0243 -1.91559,-0.73369 -0.71039,-1.12155 -0.87574,-1.08335 -0.8882,0.20522 -0.0134,1.38065 0.81324,2.91667 1.56957,2.91667 0.13835,0 0.96077,-0.27215 1.82759,-0.60479 z m 75.21253,142.80704 c -0.27117,-0.43876 -0.0796,-1.45126 0.42567,-2.25 0.50529,-0.79874 0.96427,-3.25225 1.01997,-5.45225 0.10106,-3.99196 0.10315,-3.99397 1.03842,-1 1.53344,4.90881 -0.47659,11.95041 -2.48406,8.70225 z m 27.56995,-3.70225 c 0.0204,-1.65 0.2445,-2.20394 0.49804,-1.23097 0.25354,0.97297 0.23687,2.32297 -0.0371,3 -0.27393,0.67703 -0.48137,-0.11903 -0.46099,-1.76903 z m -107.16454,-2.25 c -0.0167,-1.7875 -0.48041,-3.25 -1.03041,-3.25 -0.55,0 -1,-0.72314 -1,-1.60699 0,-1.01759 -0.55016,-1.39587 -1.5,-1.03138 -1.92327,0.73802 -1.90109,0.18232 0.0714,-1.7902 2.20361,-2.20361 3.34163,-1.95499 2.67743,0.58494 -0.40199,1.53721 -0.21234,1.93909 0.6605,1.39965 0.75573,-0.46707 1.13843,-0.23984 0.9998,0.59363 -0.12353,0.74269 0.10903,2.11052 0.5168,3.03961 0.40777,0.9291 0.26743,2.5041 -0.31187,3.5 -0.89503,1.5387 -1.05784,1.32246 -1.08368,-1.43926 z m 71.90558,-1.5 c 2.47802,-6.28946 3.98921,-9.09049 4.02487,-7.46016 0.0215,0.98441 -0.87001,3.57191 -1.98118,5.75 -2.183,4.27902 -3.48511,5.36863 -2.04369,1.71016 z m -91.68599,-0.4734 c -1.7875,-0.22182 -3.25,-0.85309 -3.25,-1.40282 0,-0.54972 0.99897,-0.85871 2.21992,-0.68664 2.02614,0.28555 2.2086,-0.08 2.09012,-4.18714 l -0.12981,-4.5 1.07748,4.75 c 0.59336,2.61575 1.64964,4.75 2.35087,4.75 0.70036,0 1.5515,0.45 1.89142,1 0.61778,0.99958 -0.15026,1.03358 -6.25,0.2766 z m 64.47409,-3.57169 c -1.40514,-1.84224 -2.70257,-4.21698 -2.88318,-5.27722 -0.18061,-1.06023 -1.40822,-3.50269 -2.72803,-5.42769 l -2.39965,-3.5 3.15946,3.0353 c 1.7377,1.66942 3.35316,4.04117 3.58992,5.27055 0.23676,1.22939 1.40362,3.60192 2.59302,5.27228 2.99138,4.201 1.81648,4.75405 -1.33154,0.62678 z m -84.22409,0.77847 -7,-1.24636 6.18045,-0.11851 c 5.5693,-0.10679 6.2233,-0.341 6.61382,-2.36851 0.37412,-1.94239 0.45198,-1.87664 0.56955,0.48095 0.098,1.96498 0.76725,2.86561 2.38618,3.21106 1.2375,0.26407 3.15,0.67044 4.25,0.90305 4.84887,1.02538 -6.7015,0.25978 -13,-0.86168 z m 73.00555,-1.47725 c -1.53455,-1.69566 -1.57596,-2.00613 -0.26753,-2.00613 0.8514,0 1.83174,0.73941 2.17853,1.64313 0.94492,2.46242 0.12918,2.61737 -1.911,0.363 z m -87.00555,-1.34605 c -3.53058,-1.32652 -6.5,-4.31832 -6.5,-6.54901 0,-0.97351 0.86622,-0.36235 2.25,1.58748 1.43095,2.01631 3.4203,3.39036 5.46492,3.77466 1.76821,0.33234 3.48226,1.03682 3.80902,1.56552 0.75089,1.21496 -1.16722,1.0704 -5.02394,-0.37865 z m 135.57895,-0.24341 c 0.048,-1.16495 0.28494,-1.4019 0.60416,-0.60417 0.28887,0.72187 0.25335,1.58437 -0.0789,1.91667 -0.3323,0.33229 -0.56864,-0.25834 -0.52522,-1.3125 z m -24.07895,-0.0786 c 0,-1.79539 3.75325,-5.91239 4.61089,-5.05776 0.43068,0.42917 -0.43059,1.99394 -1.91392,3.47728 -1.48333,1.48333 -2.69697,2.19455 -2.69697,1.58048 z m 23.14426,-8.08806 c -1.0912,-2.55004 -1.06651,-2.60886 0.33949,-0.80887 0.83394,1.06762 1.51625,2.30512 1.51625,2.75 0,1.51991 -0.67833,0.81036 -1.85574,-1.94113 z m -15.50589,-1.75 c -0.31658,-0.825 -0.13972,-1.5 0.39301,-1.5 0.53274,0 0.96862,0.675 0.96862,1.5 0,0.825 -0.17686,1.5 -0.39301,1.5 -0.21616,0 -0.65203,-0.675 -0.96862,-1.5 z m -127.06343,-2.75 c 0.13938,-1.7875 0.38112,-4.95634 0.53721,-7.04186 0.15609,-2.08553 0.92824,-4.3267 1.71588,-4.98038 1.48898,-1.23575 1.47638,-1.02685 -0.43865,7.27224 -0.31728,1.375 -0.52754,3.7375 -0.46724,5.25 0.0603,1.5125 -0.27517,2.75 -0.74549,2.75 -0.47032,0 -0.74109,-1.4625 -0.60171,-3.25 z m 157.25373,-9.16667 c -1.26555,-1.69583 -2.34609,-3.30833 -2.4012,-3.58333 -0.42087,-2.10014 -1.91825,-4.02099 -3.53437,-4.53393 -1.05718,-0.33553 -1.66405,-1.02766 -1.3486,-1.53807 0.31544,-0.5104 -0.35302,-0.928 -1.48548,-0.928 -1.13246,0 -2.05902,-0.37458 -2.05902,-0.8324 0,-0.45782 -2.1375,-1.33325 -4.75,-1.94539 l -4.75,-1.113 5.98396,0.39729 c 3.29119,0.21851 6.14119,0.86894 6.33334,1.44539 0.19215,0.57646 0.80339,1.04811 1.3583,1.04811 0.55492,0 2.15311,0.9 3.55153,2 1.39842,1.1 2.19621,2 1.77287,2 -0.42334,0 0.42026,0.93603 1.87467,2.08007 1.45441,1.14405 2.42951,2.42775 2.16689,2.85268 -0.26262,0.42493 0.16878,1.6264 0.95867,2.66993 1.83272,2.42122 1.84628,3.06399 0.0646,3.06399 -0.78934,0 -2.47062,-1.3875 -3.73617,-3.08334 z m -153.32024,-8.18327 c 2.57963,-3.38207 3.02816,-4.48479 1.74157,-4.28164 -1.91683,0.30266 -2.3986,-0.23445 -1.34692,-1.50164 0.88702,-1.06879 0.79139,-1.52004 -0.42068,-1.98516 -1.19702,-0.45934 -1.32985,-1.04814 -0.56071,-2.4853 0.55437,-1.03585 0.72377,-2.16752 0.37646,-2.51484 -0.34732,-0.34731 -0.0315,-0.63148 0.70185,-0.63148 0.73333,0 1.04033,-0.29301 0.68221,-0.65112 -1.2983,-1.2983 2.91216,-3.28361 6.81779,-3.21472 l 4,0.0706 -3.30075,0.78172 c -1.81541,0.42995 -3.56317,1.04415 -3.88391,1.36489 -0.93202,0.93197 -1.21918,5.64863 -0.34392,5.64863 0.43743,0 1.03101,0.9013 1.31908,2.00288 0.35542,1.35911 -0.41066,2.88484 -2.38337,4.74676 -1.59892,1.50912 -2.90713,3.45783 -2.90713,4.33045 0,0.87262 -0.67121,1.58658 -1.49157,1.58658 -1.118,0 -0.86755,-0.81813 1,-3.26661 z m 43.52053,-5.361 c -2.43943,-1.54274 -0.73873,-1.84716 2.47104,-0.44231 2.27444,0.99548 2.5163,1.32025 1,1.34283 -1.1,0.0164 -2.66197,-0.38885 -3.47104,-0.90052 z m -6.17298,-6.05985 c -1.73719,-1.01437 -6.25341,-8.91511 -5.51701,-9.65152 0.23765,-0.23764 1.44386,1.65797 2.68047,4.21246 1.43536,2.96506 2.51779,4.20863 2.99342,3.43904 0.50747,-0.8211 0.86335,-0.85802 1.11609,-0.11577 0.40468,1.18849 9.98602,-2.94353 13.30238,-5.73675 1.90844,-1.60739 1.90844,-1.59445 0,1.09191 -1.06223,1.49521 -2.45633,2.73271 -3.098,2.75 -0.64166,0.0173 -1.31666,0.36892 -1.5,0.78142 -0.36989,0.83227 -6.60964,4.26754 -7.66437,4.21959 -0.36793,-0.0167 -1.40877,-0.46239 -2.31298,-0.99038 z m -35.9329,-5.95616 c -0.34715,-4.61695 -0.0945,-8.93662 0.58712,-10.03955 0.5653,-0.91468 0.37957,-1.15518 -0.60142,-0.77874 -1.83697,0.70491 -4.09277,-1.62077 -2.8132,-2.90034 0.59088,-0.59088 0.39538,-2.49573 -0.5234,-5.09985 -0.80661,-2.28617 -1.27587,-5.14689 -1.0428,-6.35713 0.42662,-2.21525 2.48383,-4.16757 3.4127,-3.23869 0.275,0.275 -0.0822,0.85981 -0.79375,1.29958 -0.89912,0.55568 -1.08362,1.91969 -0.60487,4.47165 0.60176,3.20767 0.89552,3.51288 2.32271,2.41328 1.31951,-1.01662 1.29716,-0.8622 -0.11617,0.80271 -2.29594,2.70463 -2.20781,3.37736 0.37724,2.87953 2.91977,-0.5623 6.27396,1.31666 5.07734,2.84424 -0.5085,0.64914 -0.84336,3.54395 -0.74412,6.4329 0.15454,4.49915 -0.15245,5.47075 -2.14002,6.77305 -1.29616,0.84928 -2.3544,1.06882 -2.39736,0.49736 z m 54.36809,-4.92841 c -0.98408,-1.57578 -0.82574,-2.31095 0.91537,-4.25 1.81869,-2.02546 1.99758,-2.07237 1.31406,-0.34464 -0.43517,1.1 -0.73538,3.0125 -0.66712,4.25 0.1512,2.74097 -0.0395,2.78304 -1.56231,0.34464 z m 15.32753,-6.09464 c -1.92364,-2.90682 -2.25555,-4 -1.21445,-4 1.2636,0 5.59575,5.70423 5.59575,7.36803 0,1.75326 -2.01961,0.20073 -4.3813,-3.36803 z m 43.3813,2.89392 c 0,-0.60834 1.125,-1.991 2.5,-3.07258 1.375,-1.08158 2.5,-2.60495 2.5,-3.38527 0,-0.78032 1.4625,-3.38593 3.25,-5.79024 1.7875,-2.40432 4.12645,-5.89571 5.19766,-7.75866 1.84415,-3.20715 1.968,-3.2632 2.33036,-1.05471 0.21131,1.28793 -0.39444,3.1912 -1.35265,4.25 -0.95444,1.05465 -1.40279,1.91754 -0.99633,1.91754 0.40646,0 -0.63675,1.73705 -2.31824,3.8601 -1.68149,2.12306 -2.80576,4.1116 -2.49838,4.41898 0.30738,0.30739 -0.37967,1.06117 -1.52677,1.67508 -1.14711,0.61392 -2.08565,1.58252 -2.08565,2.15245 0,1.35581 -2.56051,3.89339 -3.92857,3.89339 -0.58929,0 -1.07143,-0.49774 -1.07143,-1.10608 z m -82.38156,-4.34198 c 0.32755,-0.85357 0.0974,-1.55194 -0.51145,-1.55194 -0.60884,0 -1.10699,-0.9 -1.10699,-2 0,-1.42007 0.66667,-2 2.29911,-2 1.67603,0 2.63095,-0.88078 3.52356,-3.25 0.67345,-1.7875 2.3535,-4.6 3.73344,-6.25 1.37993,-1.65 2.23379,-2.24533 1.89744,-1.32296 -0.48883,1.34055 -0.16303,1.55975 1.62383,1.09247 3.08587,-0.80697 1.67363,1.29077 -2.22686,3.30779 -2.04108,1.05548 -3.78926,3.2965 -5.38332,6.90095 -1.29836,2.93583 -2.82948,5.62762 -3.40248,5.98175 -0.62642,0.38715 -0.80436,0.0251 -0.44628,-0.90806 z m -19.61844,-1.11481 -3.5,-1.32425 4.5,0.0225 c 2.475,0.0124 3.9347,0.25041 3.24377,0.52897 -0.69093,0.27855 -1.00187,0.91803 -0.69098,1.42105 0.31088,0.50302 0.42619,0.8609 0.25623,0.79528 -0.16996,-0.0656 -1.88402,-0.71521 -3.80902,-1.44355 z m -3.26696,-3.15502 c -1.6939,-0.25604 -2.50285,-0.84554 -2.08595,-1.52011 0.42993,-0.69563 0.10386,-0.88041 -0.8844,-0.50118 -1.08361,0.41582 -1.4814,0.0834 -1.29247,-1.08006 0.15011,-0.92442 -0.13076,-2.19071 -0.62417,-2.81398 -0.57585,-0.72742 -0.32812,-1.35155 0.69181,-1.74293 0.98521,-0.37807 1.28568,-1.08734 0.79083,-1.86679 -0.43893,-0.69138 -0.80496,-1.68861 -0.81338,-2.21607 -0.008,-0.52745 -1.38073,-1.23826 -3.04957,-1.57957 -1.66885,-0.34132 -3.91885,-1.127 -5,-1.74596 -1.80162,-1.03143 -1.6842,-1.18336 1.40643,-1.81986 3.01809,-0.62155 3.17559,-0.81003 1.5,-1.79503 -2.5035,-1.4717 -3.07383,-4.0838 -0.69211,-3.16985 0.9851,0.37802 3.40486,-0.11898 5.48856,-1.12732 3.1402,-1.51959 3.67689,-2.23619 3.41021,-4.5534 -0.20566,-1.78698 0.15187,-2.75 1.02096,-2.75 0.77799,0 1.09667,-0.62744 0.76184,-1.5 -0.3193,-0.83208 -0.0282,-1.5 0.65383,-1.5 0.9156,0 0.87909,-0.42716 -0.14302,-1.67342 -1.21981,-1.4873 -1.12939,-1.61081 0.81298,-1.1105 1.36593,0.35182 2.38535,0.0419 2.71861,-0.82659 0.29326,-0.76422 -0.0152,-1.4038 -0.68542,-1.42129 -0.79418,-0.0207 -0.68349,-0.4561 0.31779,-1.25 0.84502,-0.67001 1.37452,-2.0057 1.17667,-2.9682 -0.2215,-1.07756 0.24483,-1.75 1.21361,-1.75 0.90665,0 1.57332,-0.84746 1.57332,-2 0,-1.11111 0.66667,-2 1.5,-2 0.825,0 1.5,-0.45 1.5,-1 0,-0.55 1.575,-1 3.5,-1 1.925,0 3.5,-0.45 3.5,-1 0,-0.55 0.88588,-1 1.96861,-1 1.33904,0 1.78454,0.47971 1.39302,1.5 -0.31659,0.825 -1.05427,1.5 -1.63931,1.5 -1.28236,0 -11.08508,10.33357 -11.5525,12.17812 -0.1816,0.71662 -0.66258,1.53221 -1.06885,1.81242 -1.21669,0.83914 -4.04869,8.74021 -4.29596,11.98542 -0.12673,1.66322 -0.61126,3.02404 -1.07674,3.02404 -0.46547,0 -0.58741,0.41891 -0.27098,0.9309 0.31644,0.512 0.0846,1.2342 -0.5152,1.60489 -1.47475,0.91145 -0.54234,6.89807 1.99705,12.82222 2.74249,6.39799 3.08319,5.87473 -3.2061,4.9241 z m 13.26696,-0.19171 c 0,-0.5652 -0.7875,-0.7743 -1.75,-0.46468 -1.42674,0.45896 -1.48174,0.37299 -0.29775,-0.4654 0.79874,-0.5656 1.76409,-0.83563 2.14522,-0.60008 0.38113,0.23555 0.93969,-0.21471 1.24126,-1.00057 0.30156,-0.78586 1.54144,-1.96036 2.75528,-2.60998 l 2.20699,-1.18115 -2.19706,3.08549 c -2.47798,3.48 -4.10394,4.76224 -4.10394,3.23637 z m -7.15481,-2.53083 c -1.43683,-3.15349 -0.69184,-4.08305 2.08241,-2.59832 1.44309,0.77232 2.64156,0.80714 3.83565,0.11143 1.59511,-0.92934 1.57655,-1.01434 -0.22754,-1.04227 -1.77865,-0.0275 -1.81702,-0.17767 -0.40606,-1.58863 1.09228,-1.09228 2.40541,-1.34559 4.39144,-0.84713 l 2.83323,0.71109 -2.92716,2.34217 c -1.60994,1.28818 -3.45752,2.34439 -4.10573,2.34712 -0.64822,0.003 -1.88228,0.70868 -2.74237,1.56877 -1.4184,1.4184 -1.67259,1.32503 -2.73387,-1.00423 z m 16.04647,-5.52811 c 1.31542,-1.14481 2.10971,-2.36343 1.76509,-2.70804 -0.34461,-0.34461 0.98765,-2.87344 2.96057,-5.61961 l 3.58715,-4.99304 -3.10224,-2.42786 c -2.388,-1.8689 -3.10223,-3.2126 -3.10223,-5.83634 0,-2.89231 -0.41644,-3.508 -2.75,-4.06578 -1.5125,-0.36152 -3.04768,-0.82204 -3.4115,-1.02337 -0.85359,-0.47236 1.35026,-6.35742 2.38074,-6.35742 0.42942,0 0.78076,-1.52686 0.78076,-3.39301 0,-3.1908 1.34175,-4.69508 4.5,-5.04508 0.55,-0.0609 0.8896,-1.53419 0.75467,-3.27386 -0.18918,-2.43914 0.15412,-3.16086 1.5,-3.1535 2.24891,0.0123 4.45622,-0.50994 5.85585,-1.38548 1.15102,-0.72004 2.38948,-0.005 2.38948,1.37864 0,1.44939 -4.34761,4.87229 -6.18856,4.87229 -1.11903,0 -1.81144,0.73322 -1.81144,1.91821 0,1.05502 -0.30147,2.70384 -0.66994,3.66405 -0.44881,1.16959 -0.29347,1.51316 0.47063,1.04092 0.62732,-0.3877 2.46402,-0.0205 4.08156,0.81593 2.24045,1.15858 2.83672,2.06155 2.50324,3.79086 l -0.43773,2.27003 1.17893,-2.25 c 0.64842,-1.2375 1.78517,-2.25 2.52612,-2.25 1.77495,0 1.73395,2.6803 -0.0566,3.70031 -0.77208,0.43983 -1.59175,1.92469 -1.82147,3.29969 l -0.41768,2.5 -1.14316,-2.72207 c -0.65994,-1.57144 -2.22472,-2.99353 -3.70185,-3.36426 -1.40728,-0.35321 -3.13873,-1.4703 -3.84765,-2.48243 -1.19479,-1.70581 -1.40367,-1.58713 -2.85943,1.62464 -1.56184,3.44579 -1.55599,3.46785 1.06228,4.00642 3.67839,0.75663 9.27462,3.64381 9.82059,5.06659 0.43331,1.12918 -0.63301,5.82153 -2.18637,9.62111 -1.3376,3.27183 1.56222,1.82562 3.00767,-1.5 1.22227,-2.81213 1.41786,-2.938 1.45173,-0.93426 0.0587,3.47303 -1.81844,6.35649 -3.77176,5.79376 -1.14561,-0.33003 -2.97616,1.11777 -5.6891,4.49956 -2.2,2.74239 -4.9,5.44014 -6,5.99501 -1.55109,0.78241 -1.46318,0.54166 0.39166,-1.07261 z m 10.90834,-18.23146 c 1.39915,-1.39915 1.5992,-3.8 0.31663,-3.8 -0.48585,0 -1.12753,0.93367 -1.42594,2.07482 -0.45936,1.75656 -0.86072,1.90455 -2.61664,0.96481 -2.30565,-1.23395 -2.75103,-3.5998 -0.82405,-4.37735 0.74674,-0.30132 0.54544,-0.53617 -0.5,-0.58333 -1.1823,-0.0533 -1.75,0.66716 -1.75,2.22105 0,2.67822 1.72066,4.7 4,4.7 0.88,0 2.14,-0.54 2.8,-1.2 z m -28.76482,17.26574 c -1.63049,-3.04661 -1.2171,-5.89801 1.02939,-7.10029 1.65126,-0.88374 1.82694,-1.39125 0.87755,-2.53519 -0.84584,-1.01917 -0.8644,-1.43026 -0.0646,-1.43026 0.61734,0 1.12244,-1.15073 1.12244,-2.55718 0,-4.57736 2.18323,-11.90523 4.03375,-13.53902 0.99436,-0.8779 1.95606,-2.4529 2.13709,-3.5 0.39165,-2.26525 4.50729,-7.059 5.34299,-6.22331 0.3213,0.3213 -0.33787,2.22582 -1.46483,4.23226 -1.12695,2.00645 -2.049,4.53439 -2.049,5.61767 0,1.08327 -0.45,1.96958 -1,1.96958 -0.55,0 -1,0.675 -1,1.5 0,0.825 -0.38279,1.5 -0.85063,1.5 -0.46785,0 -1.63914,3.34827 -2.60287,7.44061 -1.54235,6.54937 -1.58125,7.78336 -0.32476,10.30206 1.10296,2.21095 1.15617,3.11488 0.23404,3.97628 -0.88506,0.82677 -1.60974,0.69852 -2.8046,-0.49634 -1.48157,-1.48157 -1.57718,-1.43466 -1.1886,0.58311 0.52201,2.71054 -0.0593,2.81643 -1.4274,0.26002 z m 62.57448,0.9869 c 1.71031,-0.40845 4.17294,-1.48739 5.47251,-2.39764 3.003,-2.10338 3.72965,-2.08397 3.55672,0.095 -0.15264,1.92329 -3.23656,3.0047 -8.63889,3.02933 l -3.5,0.0159 3.10966,-0.74264 z m -51.85966,-2.74197 c -1.7767,-0.4643 -2.23617,-1.49117 -1.15223,-2.5751 0.95743,-0.95744 3.45357,0.37235 2.77126,1.47635 -0.3889,0.62925 0.21819,0.73648 1.63097,0.28808 1.53308,-0.48658 2.03234,-0.36135 1.56621,0.39287 -0.70012,1.13282 -1.73618,1.2227 -4.81621,0.4178 z m 87.4785,-2.27164 c -1.41656,-1.18141 -1.86875,-2.14333 -1.20144,-2.55576 0.73846,-0.45639 0.67775,-1.13403 -0.1959,-2.18671 -0.69628,-0.83897 -1.3346,-2.71141 -1.4185,-4.16098 -0.0839,-1.44957 -0.21106,-3.39094 -0.2826,-4.31415 -0.0715,-0.92322 -0.78363,-2.33214 -1.58244,-3.13095 -0.79881,-0.79881 -1.17381,-1.73096 -0.83333,-2.07143 0.34047,-0.34048 -0.0139,-0.61905 -0.78741,-0.61905 -1.56568,0 2.66974,-4.33156 5.11467,-5.23076 1.1509,-0.42328 1.05657,-0.70154 -0.44731,-1.31957 -1.39816,-0.57459 -2.41548,-0.15371 -3.81948,1.58016 -1.58256,1.95438 -2.0721,2.11303 -2.82893,0.91676 -0.92977,-1.46962 -1.27801,-2.84279 -1.06425,-4.19659 0.0651,-0.4125 -0.25658,-0.75 -0.71491,-0.75 -0.45834,0 -0.83334,-0.75665 -0.83334,-1.68143 0,-1.99055 9.42459,-11.26195 11.63531,-11.44619 0.84225,-0.0702 2.56379,-0.23471 3.82565,-0.36559 2.22918,-0.23121 2.24119,-0.1885 0.42312,1.50529 -1.02914,0.95878 -2.7679,2.02786 -3.86391,2.37572 -1.82129,0.57806 -5.3535,6.29966 -5.3535,8.67181 0,1.85554 5.9598,-2.08119 7.41714,-4.89937 0.79804,-1.54325 2.26816,-3.44038 3.26692,-4.21584 1.7406,-1.35144 1.74334,-1.32441 0.0659,0.65157 -0.9625,1.13383 -1.75,2.32376 -1.75,2.64429 0,0.83825 2.79927,0.30792 3.72106,-0.70497 0.42851,-0.47087 0.14707,-0.48936 -0.62557,-0.0411 -0.95224,0.55245 -1.1715,0.43782 -0.6809,-0.35599 0.39798,-0.64395 1.13321,-0.91767 1.63384,-0.60827 0.50063,0.30941 1.80941,0.0813 2.9084,-0.50682 1.68535,-0.90197 1.8968,-0.80526 1.35073,0.6178 -0.48426,1.26195 -0.28956,1.47918 0.7725,0.86189 0.78097,-0.45392 0.29494,0.43573 -1.08006,1.97698 l -2.5,2.80227 3,-0.60134 c 1.65,-0.33074 2.4347,-0.35576 1.74377,-0.0556 -0.69093,0.30015 -1.03154,0.90929 -0.75691,1.35364 0.27462,0.44436 -0.7116,1.11184 -2.19162,1.4833 -1.90819,0.47893 -2.31015,0.91072 -1.38186,1.48443 0.95749,0.59176 0.4805,1.29851 -1.776,2.63145 -2.81521,1.66299 -2.95081,1.97077 -1.5501,3.51853 1.4016,1.54875 1.2907,1.78519 -1.27615,2.7209 l -2.81113,1.02476 3,0.1649 3,0.1649 -2.91432,0.87151 c -1.60287,0.47933 -3.28522,0.64228 -3.73854,0.36211 -1.41124,-0.87219 0.3478,3.02622 1.94878,4.31893 1.31595,1.06255 1.19831,1.35166 -0.88974,2.18661 l -2.40614,0.96216 2.5,0.13367 c 1.76322,0.0943 2.05174,0.33399 0.979,0.81338 -1.71368,0.76582 -1.8751,2.0053 -0.53664,4.1207 0.58672,0.92729 0.51216,1.57418 -0.20913,1.81461 -0.61648,0.20549 -0.87301,1.01955 -0.57006,1.80902 0.75585,1.96971 -0.71204,1.7451 -3.43467,-0.52558 z m -89.88698,-4.23699 c 0.31613,-1.20888 0.13585,-2.72685 -0.40062,-3.37326 -1.16682,-1.40592 -0.19753,-4.43199 1.41609,-4.42098 1.7073,0.0117 3.46007,4.49837 2.90061,7.42496 -0.33205,1.73701 -1.13756,2.56724 -2.49081,2.56724 -1.56777,0 -1.87582,-0.47506 -1.42527,-2.19796 z m 7.63045,-0.76356 c 1.28305,-0.81141 1.27235,-1.00749 -0.0833,-1.52772 -1.80786,-0.69374 -2.11477,-3.51076 -0.38249,-3.51076 0.97614,0 3.49385,3.99727 3.49385,5.54705 0,0.24912 -1.0125,0.44606 -2.25,0.43764 -1.77832,-0.0121 -1.94143,-0.21046 -0.77803,-0.94621 z m 2.41277,-3.78848 c -0.35935,-1.5125 -1.38042,-3.58474 -2.26905,-4.60499 -0.88863,-1.02024 -1.61569,-2.14524 -1.61569,-2.5 0,-0.35475 -1.0125,-0.51548 -2.25,-0.35716 -2.84195,0.36358 -2.92246,-1.35759 -0.13334,-2.85029 2.65505,-1.42094 4.17605,-0.0528 6.18375,5.56244 0.78661,2.2 1.76395,4.7875 2.17188,5.75 0.4445,1.04879 0.30576,1.75 -0.34625,1.75 -0.59836,0 -1.38195,-1.2375 -1.7413,-2.75 z m -32.18474,-1.45 c -1.8863,-1.8863 -1.40105,-3.28512 0.55,-1.58548 0.9625,0.83848 2.425,1.32397 3.25,1.07886 1.33333,-0.39613 1.33333,-0.32777 0,0.61518 -1.92278,1.35981 -2.34365,1.34779 -3.8,-0.10856 z m 72.23869,-1.95282 c 0.39753,-1.29095 0.96391,-3.35968 1.25862,-4.59718 0.60613,-2.54512 1.8248,-2.93774 2.6273,-0.84645 0.84979,2.21449 -0.26683,5.07927 -2.53087,6.49319 -1.92485,1.20209 -2.02462,1.12481 -1.35505,-1.04956 z m 7.93185,0.63943 c 2.27431,-2.27432 7.62946,-3.12965 7.62946,-1.2186 0,1.81058 -2.07528,2.73199 -6.15322,2.73199 -2.66921,0 -2.82743,-0.1622 -1.47624,-1.51339 z m -78.37054,-2.48661 c 0.825,-0.53316 1.0125,-0.97627 0.41667,-0.98469 -0.59584,-0.008 -1.1011,-0.57781 -1.12281,-1.26531 -0.0217,-0.6875 -0.18972,-1.7 -0.37335,-2.25 -0.18364,-0.55 0.47029,-3.3625 1.45317,-6.25 1.88729,-5.54447 4.62632,-7.17262 4.62632,-2.75 0,1.375 -0.46583,2.5 -1.03518,2.5 -0.70103,0 -0.71239,0.60316 -0.0352,1.86852 0.55,1.02768 0.7028,2.16571 0.33957,2.52894 -1.11368,1.11367 -1.15394,3.60254 -0.0583,3.60254 0.65006,0 0.60171,0.52083 -0.13022,1.40275 -0.89398,1.07718 -0.86437,1.52305 0.12755,1.92106 0.71046,0.28506 -0.28326,0.54693 -2.20826,0.58193 -2.61046,0.0475 -3.11877,-0.18274 -2,-0.90574 z m 142.24934,-2.25 c -1.07509,-2.9383 -1.04816,-3.06383 0.28076,-1.30887 1.27176,1.67947 2.02282,4.55887 1.18914,4.55887 -0.15442,0 -0.81588,-1.4625 -1.4699,-3.25 z m -82.51398,-1.70556 c 0.2986,-1.94944 1.0428,-4.52839 1.65377,-5.731 0.94401,-1.85811 1.12714,-1.30576 1.21918,3.67718 0.0927,5.02047 -0.14509,5.84465 -1.65377,5.731 -1.43901,-0.1084 -1.66254,-0.78261 -1.21918,-3.67718 z m -13.73301,0.35478 c -0.006,-2.90519 2.33773,-7.23314 4.43478,-8.18862 2.00845,-0.91511 2.27303,-0.81825 1.87915,0.68793 -0.572,2.18733 -6.31073,9.0047 -6.31393,7.50069 z m 5.99765,-0.80997 c 0,-2.36602 4.66096,-8.26162 5.70561,-7.21697 0.3357,0.3357 1.21428,0.10917 1.95238,-0.5034 2.14992,-1.78428 1.66095,1.15642 -0.77006,4.63112 -1.15438,1.65 -1.83157,2.18913 -1.50486,1.19806 0.6417,-1.94658 -0.47029,-1.60713 -3.63307,1.10903 -0.9625,0.82659 -1.75,1.17856 -1.75,0.78216 z m 84.17475,-5.10506 c -0.6873,-1.50845 -1.04424,-2.94803 -0.79321,-3.19906 0.6789,-0.67891 2.80493,3.65545 2.39551,4.88373 -0.19397,0.58189 -0.915,-0.17621 -1.6023,-1.68467 z m -56.6326,-4.82205 c -2.34919,-4.00859 -3.18311,-6.66214 -2.09367,-6.66214 1.53748,0 5.64859,5.23533 6.17398,7.86232 0.90655,4.53273 -1.0595,3.95444 -4.08031,-1.20018 z m -21.52741,1.68148 c -0.008,-0.64249 -0.86094,-0.93509 -1.91889,-0.65843 -1.39388,0.3645 -1.86284,0.004 -1.75,-1.34362 0.0848,-1.01287 -0.39216,-1.73447 -1.05986,-1.60357 -0.66771,0.13091 -0.97458,-0.38594 -0.68195,-1.14854 0.29264,-0.76259 2.04844,-1.56357 3.90179,-1.77993 3.92759,-0.45853 4.86197,1.26032 2.82157,5.19047 -0.71385,1.375 -1.30455,1.97963 -1.31266,1.34362 z m -50.01474,-4.39406 c 0,-0.57009 -1.125,-0.70531 -2.66093,-0.31981 -2.61388,0.65604 -2.63206,0.62664 -1.02847,-1.6628 1.08332,-1.54667 1.30827,-2.72125 0.66874,-3.49185 -0.66778,-0.80462 -0.22079,-1.49969 1.45564,-2.26352 2.83407,-1.29129 6.06529,-7.46552 5.15222,-9.84492 -0.53764,-1.40107 -0.39596,-1.45284 0.94052,-0.34365 1.33926,1.11148 1.65777,0.98366 2.13953,-0.85856 0.31131,-1.19045 0.98398,-2.16445 1.49484,-2.16445 0.51085,0 2.03018,-1.10136 3.37629,-2.44747 2.37365,-2.37365 2.47891,-2.38873 3.48973,-0.5 0.81812,1.52866 0.71886,1.94747 -0.46154,1.94747 -0.86169,0 -1.27956,0.58437 -0.97863,1.36858 0.31425,0.81891 -0.32446,1.59076 -1.59026,1.92178 -1.86783,0.48844 -2.05325,1.082 -1.58411,5.07101 0.52341,4.45041 0.46534,4.55973 -3.89283,7.32822 -3.01378,1.91447 -4.27066,3.33054 -3.94265,4.44198 0.26483,0.89737 -0.2069,1.89575 -1.04829,2.21862 -0.84139,0.32287 -1.5298,0.14259 -1.5298,-0.40063 z m 38,-1.20467 c 0,-1.39805 2.88354,-4.55087 3.65369,-3.99489 0.19047,0.1375 0.45881,0.20536 0.59631,0.15081 0.1375,-0.0546 1.44586,-0.20784 2.90746,-0.34063 1.8043,-0.16392 2.50091,0.16653 2.16982,1.02932 -0.49034,1.27781 -6.32728,3.80182 -6.32728,2.73604 0,-0.31374 -0.675,-0.0102 -1.5,0.67446 -1.21995,1.01247 -1.5,0.96484 -1.5,-0.25511 z m 45.5,0.25511 c -0.33992,-0.55 -0.14148,-1 0.44098,-1 0.58246,0 1.05902,0.45 1.05902,1 0,0.55 -0.19844,1 -0.44098,1 -0.24254,0 -0.7191,-0.45 -1.05902,-1 z m -85.5,-8.39301 c 0,-0.21616 0.69837,-0.661 1.55194,-0.98855 0.88992,-0.34149 1.29132,-0.17385 0.94098,0.39301 -0.58726,0.95021 -2.49292,1.40545 -2.49292,0.59554 z m 17,-6.73001 c 0,-0.48234 0.43417,-0.87698 0.96482,-0.87698 1.30751,0 3.2983,-3.87194 2.7395,-5.32814 -0.59269,-1.54454 -0.36237,-3.22454 0.40693,-2.96811 0.33618,0.11206 0.53609,-0.78794 0.44423,-2 -0.0918,-1.21206 0.13377,-3.10142 0.5014,-4.19857 0.38516,-1.14951 0.0422,-2.95047 -0.80925,-4.25 -1.3305,-2.0306 -1.31094,-2.25518 0.19638,-2.25518 0.92071,0 1.39591,-0.45 1.05599,-1 -0.33992,-0.55 -0.029,-0.99311 0.69098,-0.98469 1.63103,0.0191 4.28078,1.64664 4.39281,2.69821 0.0461,0.43257 0.60859,2.05327 1.25,3.60158 0.64142,1.5483 1.16621,3.53787 1.16621,4.42126 0,0.88339 0.7875,2.50644 1.75,3.60679 0.9625,1.10035 1.26924,1.72224 0.68164,1.38198 -1.12058,-0.64889 -3.70286,5.20232 -3.21269,7.27967 0.18945,0.80288 -1.75597,1.28203 -5.96895,1.47012 -3.4375,0.15347 -6.25,-0.1156 -6.25,-0.59794 z m 9.99527,-4.5893 c -1.05517,-1.64559 -1.10303,-1.64858 -0.60216,-0.0377 0.36883,1.18622 -0.01,1.77264 -1.1745,1.82028 -1.41975,0.0581 -1.37081,0.20864 0.28139,0.86585 2.40694,0.95744 3.06267,-0.20401 1.49527,-2.64845 z m 7.07026,-8.9816 c -0.7586,-2.64334 -1.47682,-5.95997 -1.59604,-7.37027 -0.11922,-1.4103 -0.55379,-3.6603 -0.9657,-5 l -0.74894,-2.43581 2.12257,2.40301 c 1.16742,1.32165 2.13259,2.89665 2.14482,3.5 0.0122,0.60334 0.90222,-0.028 1.97776,-1.40301 l 1.95553,-2.5 0.12296,2.5 c 0.0676,1.375 0.30804,4.6393 0.53425,7.254 0.23284,2.69146 0.003,4.6438 -0.53015,4.5 -0.51779,-0.1397 -1.54811,0.55874 -2.2896,1.55208 -1.22372,1.63936 -1.47551,1.36241 -2.72746,-3 z m -20.95645,0.19392 c -0.758,-3.33735 -0.68426,-8.47518 0.11023,-7.68069 0.50442,0.50442 0.73708,2.66393 0.51702,4.79891 -0.22007,2.13498 -0.50233,3.43178 -0.62725,2.88178 z m 0.89092,-9.6017 c 0,-2.1826 6.69721,-11.91445 10.11621,-14.70007 3.61985,-2.94926 5.99083,-3.37414 9.28677,-1.66419 1.45503,0.75488 2.88354,1.28103 3.17446,1.16923 1.05272,-0.40454 5.22515,4.36094 6.88996,7.86928 2.39092,5.03848 1.21051,5.40593 -1.55563,0.48425 -3.68351,-6.55391 -8.46085,-9.0062 -15.13224,-7.76761 -2.14729,0.39866 -7.5531,6.58459 -10.52953,12.04906 -1.2375,2.27195 -2.25,3.42397 -2.25,2.56005 z"
       id="path3334"
       inkscape:connector-curvature="0" />
  </g>
</svg>
