  0
SECTION
  2
HEADER
  9
$ACADVER
  1
AC1014
  9
$HANDSEED
  5
FFFF
  9
$MEASUREMENT
 70
     1
  0
ENDSEC
  0
SECTION
  2
TABLES
  0
TABLE
  2
VPORT
  5
8
330
0
100
AcDbSymbolTable
 70
     4
  0
VPORT
  5
2E
330
8
100
AcDbSymbolTableRecord
100
AcDbViewportTableRecord
  2
*ACTIVE
 70
     0
 10
0.0
 20
0.0
 11
1.0
 21
1.0
 12
210.0
 22
148.5
 13
0.0
 23
0.0
 14
10.0
 24
10.0
 15
10.0
 25
10.0
 16
0.0
 26
0.0
 36
1.0
 17
0.0
 27
0.0
 37
0.0
 40
341.0
 41
1.24
 42
50.0
 43
0.0
 44
0.0
 50
0.0
 51
0.0
 71
     0
 72
   100
 73
     1
 74
     3
 75
     0
 76
     0
 77
     0
 78
     0
  0
ENDTAB
  0
TABLE
  2
LTYPE
  5
5
330
0
100
AcDbSymbolTable
 70
     1
  0
LTYPE
  5
14
330
5
100
AcDbSymbolTableRecord
100
AcDbLinetypeTableRecord
  2
BYBLOCK
 70
     0
  3

 72
    65
 73
     0
 40
0.0
  0
LTYPE
  5
15
330
5
100
AcDbSymbolTableRecord
100
AcDbLinetypeTableRecord
  2
BYLAYER
 70
     0
  3

 72
    65
 73
     0
 40
0.0
  0
LTYPE
  5
16
330
5
100
AcDbSymbolTableRecord
100
AcDbLinetypeTableRecord
  2
CONTINUOUS
 70
     0
  3
Solid line
 72
    65
 73
     0
 40
0.0
  0
ENDTAB
  0
TABLE
  2
LAYER
  5
2
100
AcDbSymbolTable
 70
1
  0
LAYER
  5
50
100
AcDbSymbolTableRecord
100
AcDbLayerTableRecord
  2
0
 70
0
  6
CONTINUOUS
  0
ENDTAB
  0
TABLE
  2
STYLE
  5
3
330
0
100
AcDbSymbolTable
 70
     1
  0
STYLE
  5
11
330
3
100
AcDbSymbolTableRecord
100
AcDbTextStyleTableRecord
  2
STANDARD
 70
     0
 40
0.0
 41
1.0
 50
0.0
 71
     0
 42
2.5
  3
txt
  4

  0
ENDTAB
  0
TABLE
  2
VIEW
  5
6
330
0
100
AcDbSymbolTable
 70
     0
  0
ENDTAB
  0
TABLE
  2
UCS
  5
7
330
0
100
AcDbSymbolTable
 70
     0
  0
ENDTAB
  0
TABLE
  2
APPID
  5
9
330
0
100
AcDbSymbolTable
 70
     2
  0
APPID
  5
12
330
9
100
AcDbSymbolTableRecord
100
AcDbRegAppTableRecord
  2
ACAD
 70
     0
  0
ENDTAB
  0
TABLE
  2
DIMSTYLE
  5
A
330
0
100
AcDbSymbolTable
 70
     1
  0
DIMSTYLE
105
27
330
A
100
AcDbSymbolTableRecord
100
AcDbDimStyleTableRecord
  2
ISO-25
 70
     0
  3

  4

  5

  6

  7

 40
1.0
 41
2.5
 42
0.625
 43
3.75
 44
1.25
 45
0.0
 46
0.0
 47
0.0
 48
0.0
140
2.5
141
2.5
142
0.0
143
0.03937007874016
144
1.0
145
0.0
146
1.0
147
0.625
 71
     0
 72
     0
 73
     0
 74
     0
 75
     0
 76
     0
 77
     1
 78
     8
170
     0
171
     3
172
     1
173
     0
174
     0
175
     0
176
     0
177
     0
178
     0
270
     2
271
     2
272
     2
273
     2
274
     3
340
11
275
     0
280
     0
281
     0
282
     0
283
     0
284
     8
285
     0
286
     0
287
     3
288
     0
  0
ENDTAB
  0
TABLE
  2
BLOCK_RECORD
  5
1
330
0
100
AcDbSymbolTable
 70
     1
  0
BLOCK_RECORD
  5
1F
330
1
100
AcDbSymbolTableRecord
100
AcDbBlockTableRecord
  2
*MODEL_SPACE
  0
BLOCK_RECORD
  5
1B
330
1
100
AcDbSymbolTableRecord
100
AcDbBlockTableRecord
  2
*PAPER_SPACE
  0
ENDTAB
  0
ENDSEC
  0
SECTION
  2
BLOCKS
  0
BLOCK
  5
20
330
1F
100
AcDbEntity
  8
0
100
AcDbBlockBegin
  2
*MODEL_SPACE
 70
     0
 10
0.0
 20
0.0
 30
0.0
  3
*MODEL_SPACE
  1

  0
ENDBLK
  5
21
330
1F
100
AcDbEntity
  8
0
100
AcDbBlockEnd
  0
BLOCK
  5
1C
330
1B
100
AcDbEntity
 67
     1
  8
0
100
AcDbBlockBegin
  2
*PAPER_SPACE
  1

  0
ENDBLK
  5
1D
330
1B
100
AcDbEntity
 67
     1
  8
0
100
AcDbBlockEnd
  0
ENDSEC
  0
SECTION
  2
ENTITIES
  0
LWPOLYLINE
  5
100
100
AcDbEntity
  8
0
 62
7
100
AcDbPolyline
 90
4
 70
1
 10
444.235296
 20
313.725488
 30
0.0
 10
512.836600
 20
346.352944
 30
0.0
 10
483.555552
 20
450.928104
 30
0.0
 10
444.235296
 20
313.725488
 30
0.0
  0
LWPOLYLINE
  5
101
100
AcDbEntity
  8
0
 62
7
100
AcDbPolyline
 90
4
 70
1
 10
523.712416
 20
349.699344
 30
0.0
 10
566.379088
 20
368.104576
 30
0.0
 10
486.065360
 20
507.816992
 30
0.0
 10
523.712416
 20
349.699344
 30
0.0
  0
SPLINE
  5
102
100
AcDbEntity
  8
0
 62
7
100
AcDbSpline
 70
8
 71
3
 72
8
 73
4
 74
0
 40
0
 40
0
 40
0
 40
0
 40
1
 40
1
 40
1
 40
1
 10
332.967320
 20
227.555552
 30
0.0
 10
400.732024
 20
211.660128
 30
0.0
 10
400.732024
 20
211.660128
 30
0.0
 10
400.732024
 20
211.660128
 30
0.0
  0
LWPOLYLINE
  5
103
100
AcDbEntity
  8
0
 62
7
100
AcDbPolyline
 90
5
 70
1
 10
471.843136
 20
471.006536
 30
0.0
 10
348.026144
 20
253.490200
 30
0.0
 10
422.483664
 20
292.810456
 30
0.0
 10
471.843136
 20
468.496736
 30
0.0
 10
471.843136
 20
471.006536
 30
0.0
  0
LWPOLYLINE
  5
104
100
AcDbEntity
  8
0
 62
7
100
AcDbPolyline
 90
5
 70
1
 10
400.732024
 20
211.660128
 30
0.0
 10
385.673200
 20
148.915032
 30
0.0
 10
288.627448
 20
148.078432
 30
0.0
 10
334.640520
 20
223.372552
 30
0.0
 10
332.967320
 20
227.555552
 30
0.0
  0
LWPOLYLINE
  5
105
100
AcDbEntity
  8
0
 62
7
100
AcDbPolyline
 90
6
 70
1
 10
445.071896
 20
271.895424
 30
0.0
 10
452.601304
 20
276.078432
 30
0.0
 10
466.823528
 20
245.960784
 30
0.0
 10
527.895424
 20
224.209152
 30
0.0
 10
437.542480
 20
241.777776
 30
0.0
 10
445.071896
 20
271.895424
 30
0.0
  0
LWPOLYLINE
  5
106
100
AcDbEntity
  8
0
 62
7
100
AcDbPolyline
 90
4
 70
1
 10
489.411768
 20
287.790848
 30
0.0
 10
517.856208
 20
235.921568
 30
0.0
 10
469.333336
 20
273.568624
 30
0.0
 10
489.411768
 20
287.790848
 30
0.0
  0
LWPOLYLINE
  5
107
100
AcDbEntity
  8
0
 62
7
100
AcDbPolyline
 90
5
 70
1
 10
530.405232
 20
316.235296
 30
0.0
 10
536.261440
 20
291.973856
 30
0.0
 10
544.627448
 20
322.928104
 30
0.0
 10
533.751632
 20
316.235296
 30
0.0
 10
530.405232
 20
316.235296
 30
0.0
  0
LWPOLYLINE
  5
108
100
AcDbEntity
  8
0
 62
7
100
AcDbPolyline
 90
10
 70
1
 10
590.640520
 20
324.601304
 30
0.0
 10
702.745096
 20
135.529408
 30
0.0
 10
486.901960
 20
133.019608
 30
0.0
 10
487.738560
 20
143.058824
 30
0.0
 10
557.176472
 20
158.117648
 30
0.0
 10
552.156864
 20
184.888888
 30
0.0
 10
558.013072
 20
201.620912
 30
0.0
 10
567.215688
 20
198.274512
 30
0.0
 10
562.196080
 20
211.660128
 30
0.0
 10
590.640520
 20
324.601304
 30
0.0
  0
LWPOLYLINE
  5
109
100
AcDbEntity
  8
0
 62
7
100
AcDbPolyline
 90
4
 70
1
 10
420.810456
 20
168.156864
 30
0.0
 10
430.849672
 20
206.640520
 30
0.0
 10
532.915032
 20
184.888888
 30
0.0
 10
420.810456
 20
168.156864
 30
0.0
  0
LWPOLYLINE
  5
10a
100
AcDbEntity
  8
0
 62
7
100
AcDbPolyline
 90
5
 70
1
 10
435.032680
 20
227.555552
 30
0.0
 10
432.522872
 20
219.189544
 30
0.0
 10
525.385624
 20
195.764704
 30
0.0
 10
530.405232
 20
208.313728
 30
0.0
 10
435.032680
 20
227.555552
 30
0.0
  0
LWPOLYLINE
  5
10b
100
AcDbEntity
  8
0
 62
7
100
AcDbPolyline
 90
5
 70
1
 10
348.862744
 20
237.594768
 30
0.0
 10
404.915032
 20
225.045752
 30
0.0
 10
408.261440
 20
233.411768
 30
0.0
 10
366.431376
 20
243.450984
 30
0.0
 10
348.862744
 20
237.594768
 30
0.0
  0
SPLINE
  5
10c
100
AcDbEntity
  8
0
 62
7
100
AcDbSpline
 70
8
 71
3
 72
8
 73
4
 74
0
 40
0
 40
0
 40
0
 40
0
 40
1
 40
1
 40
1
 40
1
 10
352.513856
 20
257.687352
 30
0.0
 10
352.513856
 20
258.776648
 30
0.0
 10
470.061928
 20
464.637544
 30
0.0
 10
470.291192
 20
463.949752
 30
0.0
  0
SPLINE
  5
10d
100
AcDbEntity
  8
0
 62
7
100
AcDbSpline
 70
8
 71
3
 72
8
 73
4
 74
0
 40
0
 40
0
 40
0
 40
0
 40
1
 40
1
 40
1
 40
1
 10
470.291192
 20
463.949752
 30
0.0
 10
470.691720
 20
462.748168
 30
0.0
 10
423.511632
 20
295.330360
 30
0.0
 10
422.453584
 20
294.198760
 30
0.0
  0
SPLINE
  5
10e
100
AcDbEntity
  8
0
 62
7
100
AcDbSpline
 70
8
 71
3
 72
8
 73
4
 74
0
 40
0
 40
0
 40
0
 40
0
 40
1
 40
1
 40
1
 40
1
 10
422.453584
 20
294.198760
 30
0.0
 10
421.552176
 20
293.234696
 30
0.0
 10
353.828616
 20
257.177192
 30
0.0
 10
352.919296
 20
257.177192
 30
0.0
  0
SPLINE
  5
10f
100
AcDbEntity
  8
0
 62
7
100
AcDbSpline
 70
8
 71
3
 72
8
 73
4
 74
0
 40
0
 40
0
 40
0
 40
0
 40
1
 40
1
 40
1
 40
1
 10
352.919296
 20
257.177192
 30
0.0
 10
352.696304
 20
257.177192
 30
0.0
 10
352.513856
 20
257.406760
 30
0.0
 10
352.513856
 20
257.687352
 30
0.0
  0
LWPOLYLINE
  5
110
100
AcDbEntity
  8
0
 62
7
100
AcDbPolyline
 90
4
 70
1
 10
403.241832
 20
245.960784
 30
0.0
 10
411.607840
 20
242.614376
 30
0.0
 10
414.954248
 20
256.000000
 30
0.0
 10
403.241832
 20
245.960784
 30
0.0
  0
SPLINE
  5
111
100
AcDbEntity
  8
0
 62
7
100
AcDbSpline
 70
8
 71
3
 72
8
 73
4
 74
0
 40
0
 40
0
 40
0
 40
0
 40
1
 40
1
 40
1
 40
1
 10
446.042408
 20
317.030064
 30
0.0
 10
446.237528
 20
317.605232
 30
0.0
 10
454.654272
 20
346.967336
 30
0.0
 10
464.746296
 20
382.279192
 30
0.0
  0
SPLINE
  5
112
100
AcDbEntity
  8
0
 62
7
100
AcDbSpline
 70
8
 71
3
 72
8
 73
4
 74
0
 40
0
 40
0
 40
0
 40
0
 40
1
 40
1
 40
1
 40
1
 10
464.746296
 20
382.279192
 30
0.0
 10
474.838320
 20
417.591048
 30
0.0
 10
483.295056
 20
446.485168
 30
0.0
 10
483.539040
 20
446.488344
 30
0.0
  0
SPLINE
  5
113
100
AcDbEntity
  8
0
 62
7
100
AcDbSpline
 70
8
 71
3
 72
8
 73
4
 74
0
 40
0
 40
0
 40
0
 40
0
 40
1
 40
1
 40
1
 40
1
 10
483.539040
 20
446.488344
 30
0.0
 10
483.909984
 20
446.493144
 30
0.0
 10
511.200632
 20
349.680968
 30
0.0
 10
511.455440
 20
347.456328
 30
0.0
  0
SPLINE
  5
114
100
AcDbEntity
  8
0
 62
7
100
AcDbSpline
 70
8
 71
3
 72
8
 73
4
 74
0
 40
0
 40
0
 40
0
 40
0
 40
1
 40
1
 40
1
 40
1
 10
511.455440
 20
347.456328
 30
0.0
 10
511.536272
 20
346.750576
 30
0.0
 10
447.972328
 20
315.984312
 30
0.0
 10
446.433392
 20
315.984312
 30
0.0
  0
SPLINE
  5
115
100
AcDbEntity
  8
0
 62
7
100
AcDbSpline
 70
8
 71
3
 72
8
 73
4
 74
0
 40
0
 40
0
 40
0
 40
0
 40
1
 40
1
 40
1
 40
1
 10
446.433392
 20
315.984312
 30
0.0
 10
446.023232
 20
315.984312
 30
0.0
 10
445.847296
 20
316.454904
 30
0.0
 10
446.042408
 20
317.030064
 30
0.0
  0
LWPOLYLINE
  5
116
100
AcDbEntity
  8
0
 62
7
100
AcDbPolyline
 90
2
 70
1
 10
352.513856
 20
257.687352
 30
0.0
 10
352.513856
 20
257.687352
 30
0.0
  0
SPLINE
  5
117
100
AcDbEntity
  8
0
 62
7
100
AcDbSpline
 70
8
 71
3
 72
8
 73
4
 74
0
 40
0
 40
0
 40
0
 40
0
 40
1
 40
1
 40
1
 40
1
 10
524.095840
 20
352.097752
 30
0.0
 10
523.319696
 20
354.197632
 30
0.0
 10
488.656288
 20
500.438424
 30
0.0
 10
488.881352
 20
500.663480
 30
0.0
  0
SPLINE
  5
118
100
AcDbEntity
  8
0
 62
7
100
AcDbSpline
 70
8
 71
3
 72
8
 73
4
 74
0
 40
0
 40
0
 40
0
 40
0
 40
1
 40
1
 40
1
 40
1
 10
488.881352
 20
500.663480
 30
0.0
 10
489.175216
 20
500.957352
 30
0.0
 10
564.664056
 20
369.605672
 30
0.0
 10
564.664056
 20
368.800480
 30
0.0
  0
SPLINE
  5
119
100
AcDbEntity
  8
0
 62
7
100
AcDbSpline
 70
8
 71
3
 72
8
 73
4
 74
0
 40
0
 40
0
 40
0
 40
0
 40
1
 40
1
 40
1
 40
1
 10
564.664056
 20
368.800480
 30
0.0
 10
564.664056
 20
368.349968
 30
0.0
 10
531.453384
 20
353.568704
 30
0.0
 10
525.256560
 20
351.261144
 30
0.0
  0
SPLINE
  5
11a
100
AcDbEntity
  8
0
 62
7
100
AcDbSpline
 70
8
 71
3
 72
8
 73
4
 74
0
 40
0
 40
0
 40
0
 40
0
 40
1
 40
1
 40
1
 40
1
 10
525.256560
 20
351.261144
 30
0.0
 10
524.844888
 20
351.107856
 30
0.0
 10
524.322568
 20
351.484328
 30
0.0
 10
524.095840
 20
352.097752
 30
0.0
  0
LWPOLYLINE
  5
11b
100
AcDbEntity
  8
0
 62
7
100
AcDbPolyline
 90
2
 70
1
 10
446.042408
 20
317.030064
 30
0.0
 10
446.042408
 20
317.030064
 30
0.0
  0
SPLINE
  5
11c
100
AcDbEntity
  8
0
 62
7
100
AcDbSpline
 70
8
 71
3
 72
8
 73
4
 74
0
 40
0
 40
0
 40
0
 40
0
 40
1
 40
1
 40
1
 40
1
 10
488.119016
 20
137.909368
 30
0.0
 10
488.450944
 20
140.373464
 30
0.0
 10
488.774072
 20
142.430360
 30
0.0
 10
488.837080
 20
142.480248
 30
0.0
  0
SPLINE
  5
11d
100
AcDbEntity
  8
0
 62
7
100
AcDbSpline
 70
8
 71
3
 72
8
 73
4
 74
0
 40
0
 40
0
 40
0
 40
0
 40
1
 40
1
 40
1
 40
1
 10
488.837080
 20
142.480248
 30
0.0
 10
488.900120
 20
142.530168
 30
0.0
 10
504.386928
 20
145.885144
 30
0.0
 10
523.252288
 20
149.935824
 30
0.0
  0
SPLINE
  5
11e
100
AcDbEntity
  8
0
 62
7
100
AcDbSpline
 70
8
 71
3
 72
8
 73
4
 74
0
 40
0
 40
0
 40
0
 40
0
 40
1
 40
1
 40
1
 40
1
 10
523.252288
 20
149.935824
 30
0.0
 10
542.117648
 20
153.986504
 30
0.0
 10
557.668136
 20
157.386376
 30
0.0
 10
557.808928
 20
157.491080
 30
0.0
  0
SPLINE
  5
11f
100
AcDbEntity
  8
0
 62
7
100
AcDbSpline
 70
8
 71
3
 72
8
 73
4
 74
0
 40
0
 40
0
 40
0
 40
0
 40
1
 40
1
 40
1
 40
1
 10
557.808928
 20
157.491080
 30
0.0
 10
557.949720
 20
157.595800
 30
0.0
 10
556.930232
 20
163.714208
 30
0.0
 10
555.543392
 20
171.087552
 30
0.0
  0
LWPOLYLINE
  5
120
100
AcDbEntity
  8
0
 62
7
100
AcDbPolyline
 90
2
 70
1
 10
524.095840
 20
352.097752
 30
0.0
 10
524.095840
 20
352.097752
 30
0.0
  0
SPLINE
  5
121
100
AcDbEntity
  8
0
 62
7
100
AcDbSpline
 70
8
 71
3
 72
8
 73
4
 74
0
 40
0
 40
0
 40
0
 40
0
 40
1
 40
1
 40
1
 40
1
 10
555.614584
 20
192.304328
 30
0.0
 10
557.040568
 20
196.600216
 30
0.0
 10
558.295832
 20
200.225312
 30
0.0
 10
558.404056
 20
200.360104
 30
0.0
  0
SPLINE
  5
122
100
AcDbEntity
  8
0
 62
7
100
AcDbSpline
 70
8
 71
3
 72
8
 73
4
 74
0
 40
0
 40
0
 40
0
 40
0
 40
1
 40
1
 40
1
 40
1
 10
558.404056
 20
200.360104
 30
0.0
 10
558.512272
 20
200.494888
 30
0.0
 10
560.601432
 20
199.845000
 30
0.0
 10
563.046624
 20
198.915904
 30
0.0
  0
SPLINE
  5
123
100
AcDbEntity
  8
0
 62
7
100
AcDbSpline
 70
8
 71
3
 72
8
 73
4
 74
0
 40
0
 40
0
 40
0
 40
0
 40
1
 40
1
 40
1
 40
1
 10
563.046624
 20
198.915904
 30
0.0
 10
565.491816
 20
197.986800
 30
0.0
 10
567.664368
 20
197.398576
 30
0.0
 10
567.874528
 20
197.608728
 30
0.0
  0
SPLINE
  5
124
100
AcDbEntity
  8
0
 62
7
100
AcDbSpline
 70
8
 71
3
 72
8
 73
4
 74
0
 40
0
 40
0
 40
0
 40
0
 40
1
 40
1
 40
1
 40
1
 10
567.874528
 20
197.608728
 30
0.0
 10
568.084680
 20
197.818880
 30
0.0
 10
567.077936
 20
201.093248
 30
0.0
 10
565.637312
 20
204.885096
 30
0.0
  0
LWPOLYLINE
  5
125
100
AcDbEntity
  8
0
 62
7
100
AcDbPolyline
 90
3
 70
1
 10
555.543392
 20
171.087552
 30
0.0
 10
553.021872
 20
184.493632
 30
0.0
 10
555.614584
 20
192.304328
 30
0.0
  0
SPLINE
  5
126
100
AcDbEntity
  8
0
 62
7
100
AcDbSpline
 70
8
 71
3
 72
8
 73
4
 74
0
 40
0
 40
0
 40
0
 40
0
 40
1
 40
1
 40
1
 40
1
 10
577.004776
 20
267.191560
 30
0.0
 10
587.226096
 20
307.685952
 30
0.0
 10
591.203768
 20
322.219480
 30
0.0
 10
591.779848
 20
321.176384
 30
0.0
  0
SPLINE
  5
127
100
AcDbEntity
  8
0
 62
7
100
AcDbSpline
 70
8
 71
3
 72
8
 73
4
 74
0
 40
0
 40
0
 40
0
 40
0
 40
1
 40
1
 40
1
 40
1
 10
591.779848
 20
321.176384
 30
0.0
 10
592.213416
 20
320.391336
 30
0.0
 10
616.983072
 20
278.567856
 30
0.0
 10
646.823536
 20
228.235320
 30
0.0
  0
SPLINE
  5
128
100
AcDbEntity
  8
0
 62
7
100
AcDbSpline
 70
8
 71
3
 72
8
 73
4
 74
0
 40
0
 40
0
 40
0
 40
0
 40
1
 40
1
 40
1
 40
1
 10
646.823536
 20
228.235320
 30
0.0
 10
676.663992
 20
177.902784
 30
0.0
 10
700.973816
 20
136.627824
 30
0.0
 10
700.845344
 20
136.513200
 30
0.0
  0
SPLINE
  5
129
100
AcDbEntity
  8
0
 62
7
100
AcDbSpline
 70
8
 71
3
 72
8
 73
4
 74
0
 40
0
 40
0
 40
0
 40
0
 40
1
 40
1
 40
1
 40
1
 10
700.845344
 20
136.513200
 30
0.0
 10
700.716872
 20
136.398560
 30
0.0
 10
662.211768
 20
135.889384
 30
0.0
 10
615.278432
 20
135.381696
 30
0.0
  0
SPLINE
  5
12a
100
AcDbEntity
  8
0
 62
7
100
AcDbSpline
 70
8
 71
3
 72
8
 73
4
 74
0
 40
0
 40
0
 40
0
 40
0
 40
1
 40
1
 40
1
 40
1
 10
615.278432
 20
135.381696
 30
0.0
 10
568.345096
 20
134.874008
 30
0.0
 10
520.398440
 20
134.227008
 30
0.0
 10
508.730304
 20
133.943912
 30
0.0
  0
LWPOLYLINE
  5
12b
100
AcDbEntity
  8
0
 62
7
100
AcDbPolyline
 90
3
 70
1
 10
565.637312
 20
204.885096
 30
0.0
 10
563.018000
 20
211.779360
 30
0.0
 10
577.004776
 20
267.191560
 30
0.0
  0
SPLINE
  5
12c
100
AcDbEntity
  8
0
 62
7
100
AcDbSpline
 70
8
 71
3
 72
8
 73
4
 74
0
 40
0
 40
0
 40
0
 40
0
 40
1
 40
1
 40
1
 40
1
 10
535.852280
 20
297.668496
 30
0.0
 10
535.628584
 20
298.309512
 30
0.0
 10
534.530416
 20
302.504576
 30
0.0
 10
533.411912
 20
306.990848
 30
0.0
  0
SPLINE
  5
12d
100
AcDbEntity
  8
0
 62
7
100
AcDbSpline
 70
8
 71
3
 72
8
 73
4
 74
0
 40
0
 40
0
 40
0
 40
0
 40
1
 40
1
 40
1
 40
1
 10
533.411912
 20
306.990848
 30
0.0
 10
531.736352
 20
313.711464
 30
0.0
 10
531.590608
 20
315.147712
 30
0.0
 10
532.584224
 20
315.147712
 30
0.0
  0
SPLINE
  5
12e
100
AcDbEntity
  8
0
 62
7
100
AcDbSpline
 70
8
 71
3
 72
8
 73
4
 74
0
 40
0
 40
0
 40
0
 40
0
 40
1
 40
1
 40
1
 40
1
 10
532.584224
 20
315.147712
 30
0.0
 10
533.247496
 20
315.147712
 30
0.0
 10
535.842680
 20
316.460680
 30
0.0
 10
538.351296
 20
318.065424
 30
0.0
  0
SPLINE
  5
12f
100
AcDbEntity
  8
0
 62
7
100
AcDbSpline
 70
8
 71
3
 72
8
 73
4
 74
0
 40
0
 40
0
 40
0
 40
0
 40
1
 40
1
 40
1
 40
1
 10
538.351296
 20
318.065424
 30
0.0
 10
540.859912
 20
319.670168
 30
0.0
 10
542.912416
 20
320.728608
 30
0.0
 10
542.912416
 20
320.417520
 30
0.0
  0
SPLINE
  5
130
100
AcDbEntity
  8
0
 62
7
100
AcDbSpline
 70
8
 71
3
 72
8
 73
4
 74
0
 40
0
 40
0
 40
0
 40
0
 40
1
 40
1
 40
1
 40
1
 10
542.912416
 20
320.417520
 30
0.0
 10
542.912416
 20
319.482440
 30
0.0
 10
536.926192
 20
297.187136
 30
0.0
 10
536.579744
 20
296.831896
 30
0.0
  0
SPLINE
  5
131
100
AcDbEntity
  8
0
 62
7
100
AcDbSpline
 70
8
 71
3
 72
8
 73
4
 74
0
 40
0
 40
0
 40
0
 40
0
 40
1
 40
1
 40
1
 40
1
 10
536.579744
 20
296.831896
 30
0.0
 10
536.403328
 20
296.651000
 30
0.0
 10
536.075968
 20
297.027472
 30
0.0
 10
535.852280
 20
297.668496
 30
0.0
  0
LWPOLYLINE
  5
132
100
AcDbEntity
  8
0
 62
7
100
AcDbPolyline
 90
4
 70
1
 10
508.730304
 20
133.943912
 30
0.0
 10
487.515512
 20
133.429192
 30
0.0
 10
488.119016
 20
137.909368
 30
0.0
 10
488.119016
 20
137.909368
 30
0.0
  0
SPLINE
  5
133
100
AcDbEntity
  8
0
 62
7
100
AcDbSpline
 70
8
 71
3
 72
8
 73
4
 74
0
 40
0
 40
0
 40
0
 40
0
 40
1
 40
1
 40
1
 40
1
 10
493.545064
 20
255.859576
 30
0.0
 10
482.276192
 20
264.594848
 30
0.0
 10
472.569168
 20
272.220448
 30
0.0
 10
471.973904
 20
272.805352
 30
0.0
  0
SPLINE
  5
134
100
AcDbEntity
  8
0
 62
7
100
AcDbSpline
 70
8
 71
3
 72
8
 73
4
 74
0
 40
0
 40
0
 40
0
 40
0
 40
1
 40
1
 40
1
 40
1
 10
471.973904
 20
272.805352
 30
0.0
 10
471.092992
 20
273.670920
 30
0.0
 10
471.715704
 20
274.423080
 30
0.0
 10
475.320312
 20
276.847400
 30
0.0
  0
SPLINE
  5
135
100
AcDbEntity
  8
0
 62
7
100
AcDbSpline
 70
8
 71
3
 72
8
 73
4
 74
0
 40
0
 40
0
 40
0
 40
0
 40
1
 40
1
 40
1
 40
1
 10
475.320312
 20
276.847400
 30
0.0
 10
477.756096
 20
278.485624
 30
0.0
 10
481.862264
 20
281.357248
 30
0.0
 10
484.445120
 20
283.228776
 30
0.0
  0
LWPOLYLINE
  5
136
100
AcDbEntity
  8
0
 62
7
100
AcDbPolyline
 90
2
 70
1
 10
535.852280
 20
297.668496
 30
0.0
 10
535.852280
 20
297.668496
 30
0.0
  0
SPLINE
  5
137
100
AcDbEntity
  8
0
 62
7
100
AcDbSpline
 70
8
 71
3
 72
8
 73
4
 74
0
 40
0
 40
0
 40
0
 40
0
 40
1
 40
1
 40
1
 40
1
 10
501.794584
 20
263.511440
 30
0.0
 10
508.753936
 20
250.795368
 30
0.0
 10
514.354792
 20
240.298152
 30
0.0
 10
514.240936
 20
240.184288
 30
0.0
  0
SPLINE
  5
138
100
AcDbEntity
  8
0
 62
7
100
AcDbSpline
 70
8
 71
3
 72
8
 73
4
 74
0
 40
0
 40
0
 40
0
 40
0
 40
1
 40
1
 40
1
 40
1
 10
514.240936
 20
240.184288
 30
0.0
 10
514.127072
 20
240.070432
 30
0.0
 10
504.813936
 20
247.124312
 30
0.0
 10
493.545064
 20
255.859576
 30
0.0
  0
LWPOLYLINE
  5
139
100
AcDbEntity
  8
0
 62
7
100
AcDbPolyline
 90
3
 70
1
 10
484.445120
 20
283.228776
 30
0.0
 10
489.141216
 20
286.631568
 30
0.0
 10
501.794584
 20
263.511440
 30
0.0
  0
SPLINE
  5
13a
100
AcDbEntity
  8
0
 62
7
100
AcDbSpline
 70
8
 71
3
 72
8
 73
4
 74
0
 40
0
 40
0
 40
0
 40
0
 40
1
 40
1
 40
1
 40
1
 10
474.729408
 20
235.276928
 30
0.0
 10
457.704576
 20
238.639152
 30
0.0
 10
442.595872
 20
241.617824
 30
0.0
 10
441.154520
 20
241.896192
 30
0.0
  0
LWPOLYLINE
  5
13b
100
AcDbEntity
  8
0
 62
7
100
AcDbPolyline
 90
2
 70
1
 10
493.545064
 20
255.859576
 30
0.0
 10
493.545064
 20
255.859576
 30
0.0
  0
SPLINE
  5
13c
100
AcDbEntity
  8
0
 62
7
100
AcDbSpline
 70
8
 71
3
 72
8
 73
4
 74
0
 40
0
 40
0
 40
0
 40
0
 40
1
 40
1
 40
1
 40
1
 10
441.407808
 20
253.886128
 30
0.0
 10
442.988472
 20
260.202224
 30
0.0
 10
444.652184
 20
266.779184
 30
0.0
 10
445.104944
 20
268.501600
 30
0.0
  0
SPLINE
  5
13d
100
AcDbEntity
  8
0
 62
7
100
AcDbSpline
 70
8
 71
3
 72
8
 73
4
 74
0
 40
0
 40
0
 40
0
 40
0
 40
1
 40
1
 40
1
 40
1
 10
445.104944
 20
268.501600
 30
0.0
 10
445.667296
 20
270.640928
 30
0.0
 10
446.693456
 20
272.029024
 30
0.0
 10
448.343328
 20
272.882208
 30
0.0
  0
SPLINE
  5
13e
100
AcDbEntity
  8
0
 62
7
100
AcDbSpline
 70
8
 71
3
 72
8
 73
4
 74
0
 40
0
 40
0
 40
0
 40
0
 40
1
 40
1
 40
1
 40
1
 10
448.343328
 20
272.882208
 30
0.0
 10
450.720304
 20
274.111384
 30
0.0
 10
450.797112
 20
274.078656
 30
0.0
 10
453.198216
 20
270.813664
 30
0.0
  0
SPLINE
  5
13f
100
AcDbEntity
  8
0
 62
7
100
AcDbSpline
 70
8
 71
3
 72
8
 73
4
 74
0
 40
0
 40
0
 40
0
 40
0
 40
1
 40
1
 40
1
 40
1
 10
453.198216
 20
270.813664
 30
0.0
 10
454.540056
 20
268.989048
 30
0.0
 10
458.029152
 20
262.489912
 30
0.0
 10
460.951760
 20
256.371128
 30
0.0
  0
LWPOLYLINE
  5
140
100
AcDbEntity
  8
0
 62
7
100
AcDbPolyline
 90
3
 70
1
 10
441.154520
 20
241.896192
 30
0.0
 10
438.533880
 20
242.402328
 30
0.0
 10
441.407808
 20
253.886128
 30
0.0
  0
SPLINE
  5
141
100
AcDbEntity
  8
0
 62
7
100
AcDbSpline
 70
8
 71
3
 72
8
 73
4
 74
0
 40
0
 40
0
 40
0
 40
0
 40
1
 40
1
 40
1
 40
1
 10
480.118424
 20
240.335776
 30
0.0
 10
498.416448
 20
233.849824
 30
0.0
 10
510.367280
 20
228.988424
 30
0.0
 10
507.775160
 20
229.085480
 30
0.0
  0
SPLINE
  5
142
100
AcDbEntity
  8
0
 62
7
100
AcDbSpline
 70
8
 71
3
 72
8
 73
4
 74
0
 40
0
 40
0
 40
0
 40
0
 40
1
 40
1
 40
1
 40
1
 10
507.775160
 20
229.085480
 30
0.0
 10
506.624840
 20
229.128600
 30
0.0
 10
491.754248
 20
231.914704
 30
0.0
 10
474.729408
 20
235.276928
 30
0.0
  0
LWPOLYLINE
  5
143
100
AcDbEntity
  8
0
 62
7
100
AcDbPolyline
 90
3
 70
1
 10
460.951760
 20
256.371128
 30
0.0
 10
466.265600
 20
245.246072
 30
0.0
 10
480.118424
 20
240.335776
 30
0.0
  0
SPLINE
  5
144
100
AcDbEntity
  8
0
 62
7
100
AcDbSpline
 70
8
 71
3
 72
8
 73
4
 74
0
 40
0
 40
0
 40
0
 40
0
 40
1
 40
1
 40
1
 40
1
 10
480.167320
 20
208.009368
 30
0.0
 10
456.930720
 20
213.842456
 30
0.0
 10
436.904080
 20
218.878072
 30
0.0
 10
435.663672
 20
219.199624
 30
0.0
  0
SPLINE
  5
145
100
AcDbEntity
  8
0
 62
7
100
AcDbSpline
 70
8
 71
3
 72
8
 73
4
 74
0
 40
0
 40
0
 40
0
 40
0
 40
1
 40
1
 40
1
 40
1
 10
435.663672
 20
219.199624
 30
0.0
 10
433.450392
 20
219.773376
 30
0.0
 10
433.428984
 20
219.842616
 30
0.0
 10
434.514480
 20
222.916968
 30
0.0
  0
SPLINE
  5
146
100
AcDbEntity
  8
0
 62
7
100
AcDbSpline
 70
8
 71
3
 72
8
 73
4
 74
0
 40
0
 40
0
 40
0
 40
0
 40
1
 40
1
 40
1
 40
1
 10
434.514480
 20
222.916968
 30
0.0
 10
435.468592
 20
225.619224
 30
0.0
 10
435.945616
 20
226.024824
 30
0.0
 10
437.986120
 20
225.868816
 30
0.0
  0
SPLINE
  5
147
100
AcDbEntity
  8
0
 62
7
100
AcDbSpline
 70
8
 71
3
 72
8
 73
4
 74
0
 40
0
 40
0
 40
0
 40
0
 40
1
 40
1
 40
1
 40
1
 10
437.986120
 20
225.868816
 30
0.0
 10
439.287168
 20
225.769344
 30
0.0
 10
460.355928
 20
221.655352
 30
0.0
 10
484.805600
 20
216.726616
 30
0.0
  0
LWPOLYLINE
  5
148
100
AcDbEntity
  8
0
 62
7
100
AcDbPolyline
 90
2
 70
1
 10
474.729408
 20
235.276928
 30
0.0
 10
474.729408
 20
235.276928
 30
0.0
  0
SPLINE
  5
149
100
AcDbEntity
  8
0
 62
7
100
AcDbSpline
 70
8
 71
3
 72
8
 73
4
 74
0
 40
0
 40
0
 40
0
 40
0
 40
1
 40
1
 40
1
 40
1
 10
527.161024
 20
202.476104
 30
0.0
 10
525.756160
 20
198.935224
 30
0.0
 10
524.625064
 20
197.222760
 30
0.0
 10
523.739096
 20
197.295344
 30
0.0
  0
SPLINE
  5
14a
100
AcDbEntity
  8
0
 62
7
100
AcDbSpline
 70
8
 71
3
 72
8
 73
4
 74
0
 40
0
 40
0
 40
0
 40
0
 40
1
 40
1
 40
1
 40
1
 10
523.739096
 20
197.295344
 30
0.0
 10
523.011224
 20
197.354944
 30
0.0
 10
503.403920
 20
202.176280
 30
0.0
 10
480.167320
 20
208.009368
 30
0.0
  0
LWPOLYLINE
  5
14b
100
AcDbEntity
  8
0
 62
7
100
AcDbPolyline
 90
3
 70
1
 10
484.805600
 20
216.726616
 30
0.0
 10
529.259536
 20
207.765272
 30
0.0
 10
527.161024
 20
202.476104
 30
0.0
  0
SPLINE
  5
14c
100
AcDbEntity
  8
0
 62
7
100
AcDbSpline
 70
8
 71
3
 72
8
 73
4
 74
0
 40
0
 40
0
 40
0
 40
0
 40
1
 40
1
 40
1
 40
1
 10
378.101960
 20
231.828408
 30
0.0
 10
365.448368
 20
234.707640
 30
0.0
 10
354.536088
 20
237.250168
 30
0.0
 10
353.852448
 20
237.478472
 30
0.0
  0
SPLINE
  5
14d
100
AcDbEntity
  8
0
 62
7
100
AcDbSpline
 70
8
 71
3
 72
8
 73
4
 74
0
 40
0
 40
0
 40
0
 40
0
 40
1
 40
1
 40
1
 40
1
 10
353.852448
 20
237.478472
 30
0.0
 10
351.863672
 20
238.142640
 30
0.0
 10
362.988080
 20
241.526272
 30
0.0
 10
367.179440
 20
241.532056
 30
0.0
  0
SPLINE
  5
14e
100
AcDbEntity
  8
0
 62
7
100
AcDbSpline
 70
8
 71
3
 72
8
 73
4
 74
0
 40
0
 40
0
 40
0
 40
0
 40
1
 40
1
 40
1
 40
1
 10
367.179440
 20
241.532056
 30
0.0
 10
369.275712
 20
241.535256
 30
0.0
 10
379.123272
 20
239.587600
 30
0.0
 10
389.062896
 20
237.204624
 30
0.0
  0
LWPOLYLINE
  5
14f
100
AcDbEntity
  8
0
 62
7
100
AcDbPolyline
 90
2
 70
1
 10
480.167320
 20
208.009368
 30
0.0
 10
480.167320
 20
208.009368
 30
0.0
  0
SPLINE
  5
150
100
AcDbEntity
  8
0
 62
7
100
AcDbSpline
 70
8
 71
3
 72
8
 73
4
 74
0
 40
0
 40
0
 40
0
 40
0
 40
1
 40
1
 40
1
 40
1
 10
405.877168
 20
229.669952
 30
0.0
 10
404.957352
 20
227.328320
 30
0.0
 10
404.147720
 20
226.484832
 30
0.0
 10
402.863944
 20
226.530712
 30
0.0
  0
SPLINE
  5
151
100
AcDbEntity
  8
0
 62
7
100
AcDbSpline
 70
8
 71
3
 72
8
 73
4
 74
0
 40
0
 40
0
 40
0
 40
0
 40
1
 40
1
 40
1
 40
1
 10
402.863944
 20
226.530712
 30
0.0
 10
401.898448
 20
226.565192
 30
0.0
 10
390.755552
 20
228.949184
 30
0.0
 10
378.101960
 20
231.828408
 30
0.0
  0
LWPOLYLINE
  5
152
100
AcDbEntity
  8
0
 62
7
100
AcDbPolyline
 90
3
 70
1
 10
389.062896
 20
237.204624
 30
0.0
 10
407.134944
 20
232.871936
 30
0.0
 10
405.877168
 20
229.669952
 30
0.0
  0
LWPOLYLINE
  5
153
100
AcDbEntity
  8
0
 62
7
100
AcDbPolyline
 90
2
 70
1
 10
378.101960
 20
231.828408
 30
0.0
 10
378.101960
 20
231.828408
 30
0.0
  0
SPLINE
  5
154
100
AcDbEntity
  8
0
 62
7
100
AcDbSpline
 70
8
 71
3
 72
8
 73
4
 74
0
 40
0
 40
0
 40
0
 40
0
 40
1
 40
1
 40
1
 40
1
 10
409.124072
 20
249.949624
 30
0.0
 10
413.475088
 20
253.592504
 30
0.0
 10
413.512472
 20
253.605264
 30
0.0
 10
412.920056
 20
251.244872
 30
0.0
  0
SPLINE
  5
155
100
AcDbEntity
  8
0
 62
7
100
AcDbSpline
 70
8
 71
3
 72
8
 73
4
 74
0
 40
0
 40
0
 40
0
 40
0
 40
1
 40
1
 40
1
 40
1
 10
412.920056
 20
251.244872
 30
0.0
 10
412.590984
 20
249.933744
 30
0.0
 10
412.104648
 20
247.775520
 30
0.0
 10
411.839304
 20
246.448808
 30
0.0
  0
SPLINE
  5
156
100
AcDbEntity
  8
0
 62
7
100
AcDbSpline
 70
8
 71
3
 72
8
 73
4
 74
0
 40
0
 40
0
 40
0
 40
0
 40
1
 40
1
 40
1
 40
1
 10
411.839304
 20
246.448808
 30
0.0
 10
411.312176
 20
243.813168
 30
0.0
 10
410.665840
 20
243.645720
 30
0.0
 10
407.102136
 20
245.221504
 30
0.0
  0
LWPOLYLINE
  5
157
100
AcDbEntity
  8
0
 62
7
100
AcDbPolyline
 90
3
 70
1
 10
407.102136
 20
245.221504
 30
0.0
 10
404.729768
 20
246.270512
 30
0.0
 10
409.124072
 20
249.949624
 30
0.0
  0
SPLINE
  5
158
100
AcDbEntity
  8
0
 62
7
100
AcDbSpline
 70
8
 71
3
 72
8
 73
4
 74
0
 40
0
 40
0
 40
0
 40
0
 40
1
 40
1
 40
1
 40
1
 10
291.202960
 20
150.538184
 30
0.0
 10
291.708328
 20
151.482472
 30
0.0
 10
301.883944
 20
168.227640
 30
0.0
 10
313.815448
 20
187.749680
 30
0.0
  0
SPLINE
  5
159
100
AcDbEntity
  8
0
 62
7
100
AcDbSpline
 70
8
 71
3
 72
8
 73
4
 74
0
 40
0
 40
0
 40
0
 40
0
 40
1
 40
1
 40
1
 40
1
 10
313.815448
 20
187.749680
 30
0.0
 10
330.413184
 20
214.906496
 30
0.0
 10
335.379488
 20
223.652656
 30
0.0
 10
334.957352
 20
224.982688
 30
0.0
  0
SPLINE
  5
15a
100
AcDbEntity
  8
0
 62
7
100
AcDbSpline
 70
8
 71
3
 72
8
 73
4
 74
0
 40
0
 40
0
 40
0
 40
0
 40
1
 40
1
 40
1
 40
1
 10
334.957352
 20
224.982688
 30
0.0
 10
334.555416
 20
226.249088
 30
0.0
 10
334.715752
 20
226.602480
 30
0.0
 10
335.547904
 20
226.284272
 30
0.0
  0
SPLINE
  5
15b
100
AcDbEntity
  8
0
 62
7
100
AcDbSpline
 70
8
 71
3
 72
8
 73
4
 74
0
 40
0
 40
0
 40
0
 40
0
 40
1
 40
1
 40
1
 40
1
 10
335.547904
 20
226.284272
 30
0.0
 10
336.176160
 20
226.044024
 30
0.0
 10
350.903512
 20
222.523784
 30
0.0
 10
368.275336
 20
218.461520
 30
0.0
  0
SPLINE
  5
15c
100
AcDbEntity
  8
0
 62
7
100
AcDbSpline
 70
8
 71
3
 72
8
 73
4
 74
0
 40
0
 40
0
 40
0
 40
0
 40
1
 40
1
 40
1
 40
1
 10
368.275336
 20
218.461520
 30
0.0
 10
394.357688
 20
212.362376
 30
0.0
 10
399.793232
 20
210.849576
 30
0.0
 10
399.474488
 20
209.778320
 30
0.0
  0
SPLINE
  5
15d
100
AcDbEntity
  8
0
 62
7
100
AcDbSpline
 70
8
 71
3
 72
8
 73
4
 74
0
 40
0
 40
0
 40
0
 40
0
 40
1
 40
1
 40
1
 40
1
 10
399.474488
 20
209.778320
 30
0.0
 10
399.262200
 20
209.064816
 30
0.0
 10
396.007608
 20
195.492808
 30
0.0
 10
392.242064
 20
179.618304
 30
0.0
  0
SPLINE
  5
15e
100
AcDbEntity
  8
0
 62
7
100
AcDbSpline
 70
8
 71
3
 72
8
 73
4
 74
0
 40
0
 40
0
 40
0
 40
0
 40
1
 40
1
 40
1
 40
1
 10
392.242064
 20
179.618304
 30
0.0
 10
388.476512
 20
163.743792
 30
0.0
 10
385.166304
 20
150.518816
 30
0.0
 10
384.886048
 20
150.229464
 30
0.0
  0
SPLINE
  5
15f
100
AcDbEntity
  8
0
 62
7
100
AcDbSpline
 70
8
 71
3
 72
8
 73
4
 74
0
 40
0
 40
0
 40
0
 40
0
 40
1
 40
1
 40
1
 40
1
 10
384.886048
 20
150.229464
 30
0.0
 10
384.605776
 20
149.940120
 30
0.0
 10
363.205688
 20
149.504912
 30
0.0
 10
337.330296
 20
149.262344
 30
0.0
  0
LWPOLYLINE
  5
160
100
AcDbEntity
  8
0
 62
7
100
AcDbPolyline
 90
2
 70
1
 10
407.102136
 20
245.221504
 30
0.0
 10
407.102136
 20
245.221504
 30
0.0
  0
SPLINE
  5
161
100
AcDbEntity
  8
0
 62
7
100
AcDbSpline
 70
8
 71
3
 72
8
 73
4
 74
0
 40
0
 40
0
 40
0
 40
0
 40
1
 40
1
 40
1
 40
1
 10
422.441832
 20
170.474800
 30
0.0
 10
422.441832
 20
172.058296
 30
0.0
 10
430.990216
 20
204.274808
 30
0.0
 10
431.584552
 20
204.931216
 30
0.0
  0
SPLINE
  5
162
100
AcDbEntity
  8
0
 62
7
100
AcDbSpline
 70
8
 71
3
 72
8
 73
4
 74
0
 40
0
 40
0
 40
0
 40
0
 40
1
 40
1
 40
1
 40
1
 10
431.584552
 20
204.931216
 30
0.0
 10
431.899872
 20
205.279464
 30
0.0
 10
453.218808
 20
201.081896
 30
0.0
 10
478.959976
 20
195.603288
 30
0.0
  0
SPLINE
  5
163
100
AcDbEntity
  8
0
 62
7
100
AcDbSpline
 70
8
 71
3
 72
8
 73
4
 74
0
 40
0
 40
0
 40
0
 40
0
 40
1
 40
1
 40
1
 40
1
 10
478.959976
 20
195.603288
 30
0.0
 10
504.701136
 20
190.124688
 30
0.0
 10
526.477184
 20
185.510344
 30
0.0
 10
527.351192
 20
185.349200
 30
0.0
  0
SPLINE
  5
164
100
AcDbEntity
  8
0
 62
7
100
AcDbSpline
 70
8
 71
3
 72
8
 73
4
 74
0
 40
0
 40
0
 40
0
 40
0
 40
1
 40
1
 40
1
 40
1
 10
527.351192
 20
185.349200
 30
0.0
 10
528.743344
 20
185.092520
 30
0.0
 10
426.188736
 20
169.499120
 30
0.0
 10
423.487584
 20
169.556768
 30
0.0
  0
SPLINE
  5
165
100
AcDbEntity
  8
0
 62
7
100
AcDbSpline
 70
8
 71
3
 72
8
 73
4
 74
0
 40
0
 40
0
 40
0
 40
0
 40
1
 40
1
 40
1
 40
1
 10
423.487584
 20
169.556768
 30
0.0
 10
422.912416
 20
169.569008
 30
0.0
 10
422.441832
 20
169.982160
 30
0.0
 10
422.441832
 20
170.474800
 30
0.0
  0
LWPOLYLINE
  5
166
100
AcDbEntity
  8
0
 62
7
100
AcDbPolyline
 90
4
 70
1
 10
337.330296
 20
149.262344
 30
0.0
 10
290.284112
 20
148.821304
 30
0.0
 10
291.202960
 20
150.538184
 30
0.0
 10
291.202960
 20
150.538184
 30
0.0
  0
SPLINE
  5
167
100
AcDbEntity
  8
0
 62
7
100
AcDbSpline
 70
8
 71
3
 72
8
 73
4
 74
0
 40
0
 40
0
 40
0
 40
0
 40
1
 40
1
 40
1
 40
1
 10
259.106104
 20
-638.300240
 30
0.0
 10
785.008688
 20
-634.750800
 30
0.0
 10
785.008688
 20
-634.750800
 30
0.0
 10
785.008688
 20
-634.750800
 30
0.0
  0
LWPOLYLINE
  5
168
100
AcDbEntity
  8
0
 62
7
100
AcDbPolyline
 90
2
 70
1
 10
422.441832
 20
170.474800
 30
0.0
 10
422.441832
 20
170.474800
 30
0.0
  0
LWPOLYLINE
  5
169
100
AcDbEntity
  8
0
 62
7
100
AcDbPolyline
 90
4
 70
1
 10
785.008688
 20
-634.750800
 30
0.0
 10
486.267624
 20
-121.271120
 30
0.0
 10
205.865128
 20
-639.483360
 30
0.0
 10
259.106104
 20
-638.300240
 30
0.0
  0
LWPOLYLINE
  5
16a
100
AcDbEntity
  8
0
 62
7
100
AcDbPolyline
 90
4
 70
1
 10
483.309792
 20
534.776080
 30
0.0
 10
205.273560
 20
124.820520
 30
0.0
 10
780.276160
 20
127.778352
 30
0.0
 10
483.309792
 20
534.776080
 30
0.0
  0
ENDSEC
  0
SECTION
  2
OBJECTS
  0
DICTIONARY
  5
C
330
0
100
AcDbDictionary
  3
ACAD_GROUP
350
D
  3
ACAD_MLINESTYLE
350
17
  0
DICTIONARY
  5
D
330
C
100
AcDbDictionary
  0
DICTIONARY
  5
1A
330
C
100
AcDbDictionary
  0
DICTIONARY
  5
17
330
C
100
AcDbDictionary
  3
STANDARD
350
18
  0
DICTIONARY
  5
19
330
C
100
AcDbDictionary
  0
ENDSEC
  0
EOF
