<?xml version="1.0" encoding="UTF-8" standalone="no"?>
<!-- Created with Inkscape (http://www.inkscape.org/) -->

<svg
   xmlns:dc="http://purl.org/dc/elements/1.1/"
   xmlns:cc="http://creativecommons.org/ns#"
   xmlns:rdf="http://www.w3.org/1999/02/22-rdf-syntax-ns#"
   xmlns:svg="http://www.w3.org/2000/svg"
   xmlns="http://www.w3.org/2000/svg"
   xmlns:sodipodi="http://sodipodi.sourceforge.net/DTD/sodipodi-0.dtd"
   xmlns:inkscape="http://www.inkscape.org/namespaces/inkscape"
   id="svg3336"
   version="1.1"
   inkscape:version="0.91 r13725"
   width="1200"
   height="800"
   viewBox="0 0 1200 800"
   sodipodi:docname="bauhaus TRIANGEL.svg">
  <metadata
     id="metadata3342">
    <rdf:RDF>
      <cc:Work
         rdf:about="">
        <dc:format>image/svg+xml</dc:format>
        <dc:type
           rdf:resource="http://purl.org/dc/dcmitype/StillImage" />
        <dc:title></dc:title>
      </cc:Work>
    </rdf:RDF>
  </metadata>
  <defs
     id="defs3340">
    <inkscape:perspective
       sodipodi:type="inkscape:persp3d"
       inkscape:vp_x="0 : 400 : 1"
       inkscape:vp_y="0 : 1000 : 0"
       inkscape:vp_z="1200 : 400 : 1"
       inkscape:persp3d-origin="600 : 266.66667 : 1"
       id="perspective3400" />
  </defs>
  <sodipodi:namedview
     pagecolor="#ffffff"
     bordercolor="#666666"
     borderopacity="1"
     objecttolerance="10"
     gridtolerance="10"
     guidetolerance="10"
     inkscape:pageopacity="0"
     inkscape:pageshadow="2"
     inkscape:window-width="1253"
     inkscape:window-height="848"
     id="namedview3338"
     showgrid="false"
     inkscape:zoom="1.3523417"
     inkscape:cx="631.19397"
     inkscape:cy="422.52595"
     inkscape:window-x="12"
     inkscape:window-y="39"
     inkscape:window-maximized="0"
     inkscape:current-layer="svg3336" />
  <path
     style="fill:none;fill-rule:evenodd;stroke:#000000;stroke-width:1px;stroke-linecap:butt;stroke-linejoin:miter;stroke-opacity:1"
     d="M 555.29412,407.84314 641.04575,367.05882 604.44444,236.33987 Z"
     id="path3348"
     inkscape:connector-curvature="0" />
  <path
     style="fill:none;fill-rule:evenodd;stroke:#000000;stroke-width:1px;stroke-linecap:butt;stroke-linejoin:miter;stroke-opacity:1"
     d="M 654.64052,362.87582 707.97386,339.86928 607.5817,165.22876 Z"
     id="path3350"
     inkscape:connector-curvature="0" />
  <path
     style="fill:none;fill-rule:evenodd;stroke:#000000;stroke-width:1px;stroke-linecap:butt;stroke-linejoin:miter;stroke-opacity:1"
     d="m 589.80392,211.24183 -154.77124,271.89542 93.0719,-49.15032 61.69934,-219.60785 z"
     id="path3352"
     inkscape:connector-curvature="0" />
  <path
     style="fill:none;fill-rule:evenodd;stroke:#000000;stroke-width:1px;stroke-linecap:butt;stroke-linejoin:miter;stroke-opacity:1"
     d="m 416.20915,515.55556 c 84.70588,19.86928 84.70588,19.86928 84.70588,19.86928 l -18.82353,78.43137 -121.30719,1.04575 57.51634,-94.11765 z"
     id="path3354"
     inkscape:connector-curvature="0" />
  <path
     style="fill:none;fill-rule:evenodd;stroke:#000000;stroke-width:1px;stroke-linecap:butt;stroke-linejoin:miter;stroke-opacity:1"
     d="m 556.33987,460.13072 9.41176,-5.22876 17.77778,37.64706 76.33987,27.18954 -112.94118,-21.96078 z"
     id="path3356"
     inkscape:connector-curvature="0" />
  <path
     style="fill:none;fill-rule:evenodd;stroke:#000000;stroke-width:1px;stroke-linecap:butt;stroke-linejoin:miter;stroke-opacity:1"
     d="m 611.76471,440.26144 35.55555,64.8366 -60.65359,-47.05882 z"
     id="path3358"
     inkscape:connector-curvature="0" />
  <path
     style="fill:none;fill-rule:evenodd;stroke:#000000;stroke-width:1px;stroke-linecap:butt;stroke-linejoin:miter;stroke-opacity:1"
     d="m 663.00654,404.70588 7.32026,30.3268 10.45751,-38.69281 -13.59477,8.36601 z"
     id="path3360"
     inkscape:connector-curvature="0" />
  <path
     style="fill:none;fill-rule:evenodd;stroke:#000000;stroke-width:1px;stroke-linecap:butt;stroke-linejoin:miter;stroke-opacity:1"
     d="m 738.30065,394.24837 140.13072,236.33987 -269.80392,3.13725 1.04575,-12.54902 86.79739,-18.82353 -6.27451,-33.46405 7.32026,-20.91503 11.50327,4.183 -6.27451,-16.73202 z"
     id="path3362"
     inkscape:connector-curvature="0" />
  <path
     style="fill:none;fill-rule:evenodd;stroke:#000000;stroke-width:1px;stroke-linecap:butt;stroke-linejoin:miter;stroke-opacity:1"
     d="m 526.01307,589.80392 12.54902,-48.10457 127.5817,27.18954 z"
     id="path3364"
     inkscape:connector-curvature="0" />
  <path
     style="fill:none;fill-rule:evenodd;stroke:#000000;stroke-width:1px;stroke-linecap:butt;stroke-linejoin:miter;stroke-opacity:1"
     d="m 543.79085,515.55556 -3.13726,10.45751 116.07844,29.28105 6.27451,-15.68628 z"
     id="path3366"
     inkscape:connector-curvature="0" />
  <path
     style="fill:none;fill-rule:evenodd;stroke:#000000;stroke-width:1px;stroke-linecap:butt;stroke-linejoin:miter;stroke-opacity:1"
     d="m 436.07843,503.00654 70.06536,15.68627 4.18301,-10.45752 -52.28758,-12.54902 z"
     id="path3368"
     inkscape:connector-curvature="0" />
  <path
     style="fill:none;fill-rule:evenodd;stroke:#000000;stroke-width:1px;stroke-linecap:butt;stroke-linejoin:miter;stroke-opacity:1"
     d="M 504.05229,492.54902 514.5098,496.73203 518.69281,480 Z"
     id="path3370"
     inkscape:connector-curvature="0" />
  <path
     style="fill:#a0a0a0;stroke:none;stroke-width:1px;stroke-linecap:butt;stroke-linejoin:miter;stroke-opacity:1"
     d="m 440.64232,477.89081 c 0,-1.36162 146.93509,-258.68774 147.22167,-257.828 0.50066,1.50198 -58.47445,210.77424 -59.79701,212.18874 -1.12676,1.20508 -85.78121,46.27696 -86.91786,46.27696 -0.27874,0 -0.5068,-0.28696 -0.5068,-0.6377 z"
     id="path3372"
     inkscape:connector-curvature="0" />
  <path
     style="fill:#a0a0a0;stroke:none;stroke-width:1px;stroke-linecap:butt;stroke-linejoin:miter;stroke-opacity:1"
     d="m 557.55301,403.71242 c 0.2439,-0.71896 10.76483,-37.42159 23.37986,-81.56141 12.61503,-44.13982 23.18595,-80.25747 23.49093,-80.26144 0.46368,-0.006 34.57699,121.00922 34.8955,123.79002 0.10104,0.88219 -79.35389,39.34002 -81.27756,39.34002 -0.5127,0 -0.73262,-0.58824 -0.48873,-1.30719 z"
     id="path3374"
     inkscape:connector-curvature="0" />
  <path
     style="fill:#a0a0a0;stroke:none;stroke-width:1px;stroke-linecap:butt;stroke-linejoin:miter;stroke-opacity:1"
     d="m 655.1198,359.87781 c -0.97018,-2.62485 -44.29944,-185.42584 -44.01811,-185.70716 0.36733,-0.36734 94.72838,163.82226 94.72838,164.82875 0,0.56314 -41.51334,19.03972 -49.25937,21.92417 -0.51459,0.19161 -1.16749,-0.27898 -1.4509,-1.04576 z"
     id="path3376"
     inkscape:connector-curvature="0" />
  <path
     style="fill:#a0a0a0;stroke:none;stroke-width:1px;stroke-linecap:butt;stroke-linejoin:miter;stroke-opacity:1"
     d="m 610.14877,627.61329 c 0.41491,-3.08012 0.81882,-5.65124 0.89758,-5.7136 0.0788,-0.0624 19.43731,-4.25612 43.01901,-9.31947 23.5817,-5.06335 43.01981,-9.31319 43.1958,-9.44407 0.17599,-0.1309 -1.09837,-7.77891 -2.83192,-16.99559 l -3.1519,-16.7576 3.24089,-9.76337 c 1.78248,-5.36986 3.35156,-9.90123 3.48684,-10.06972 0.13527,-0.16848 2.74672,0.64388 5.80321,1.80525 3.05649,1.16138 5.77218,1.89666 6.03488,1.63397 0.26269,-0.26269 -0.99574,-4.35565 -2.79652,-9.09546 l -3.27414,-8.61783 17.48347,-69.26525 c 12.77665,-50.61799 17.74874,-68.7849 18.46884,-67.48103 0.54196,0.98131 31.50403,53.26066 68.80461,116.17633 37.30057,62.91567 67.68785,114.50937 67.52726,114.65265 -0.16059,0.1433 -48.29197,0.77977 -106.95864,1.41438 -58.66667,0.63461 -118.59999,1.44336 -133.18516,1.79723 l -26.51849,0.6434 0.75438,-5.60022 z"
     id="path3378"
     inkscape:connector-curvature="0" />
  <path
     style="fill:#a0a0a0;stroke:none;stroke-width:1px;stroke-linecap:butt;stroke-linejoin:miter;stroke-opacity:1"
     d=""
     id="path3380"
     inkscape:connector-curvature="0" />
  <path
     style="fill:#a0a0a0;stroke:none;stroke-width:1px;stroke-linecap:butt;stroke-linejoin:miter;stroke-opacity:1"
     d="m 669.81535,427.91438 c -0.27962,-0.80127 -1.65233,-6.0451 -3.05046,-11.65294 -2.09445,-8.40077 -2.27663,-10.19608 -1.03461,-10.19608 0.82909,0 4.07307,-1.64121 7.20884,-3.64714 3.13577,-2.00593 5.7014,-3.32898 5.7014,-2.94012 0,1.16885 -7.48278,29.03798 -7.91584,29.48203 -0.22052,0.22612 -0.62972,-0.24447 -0.90933,-1.04575 z"
     id="path3382"
     inkscape:connector-curvature="0" />
  <path
     style="fill:#a0a0a0;stroke:none;stroke-width:1px;stroke-linecap:butt;stroke-linejoin:miter;stroke-opacity:1"
     d="m 616.93133,480.17553 c -14.08609,-10.91909 -26.21987,-20.45109 -26.96395,-21.18222 -1.10114,-1.08196 -0.32275,-2.02216 4.18301,-5.05256 3.04473,-2.04778 8.17744,-5.63731 11.40601,-7.97672 l 5.87012,-4.25349 15.81671,28.90016 c 8.69919,15.89509 15.70026,29.01661 15.55794,29.15894 -0.14233,0.14232 -11.78375,-8.67503 -25.86984,-19.59411 z"
     id="path3384"
     inkscape:connector-curvature="0" />
  <path
     style="fill:#a0a0a0;stroke:none;stroke-width:1px;stroke-linecap:butt;stroke-linejoin:miter;stroke-opacity:1"
     d="m 593.41176,505.90384 c -21.28104,-4.20278 -40.16692,-7.92612 -41.96861,-8.27408 l -3.2758,-0.63267 3.59241,-14.35475 c 1.97583,-7.89512 4.05547,-16.11632 4.62142,-18.26934 0.70294,-2.67416 1.98564,-4.40928 4.04798,-5.47576 2.97122,-1.53647 3.06723,-1.49556 6.06861,2.58568 1.6773,2.28077 6.03867,10.40469 9.69193,18.05317 l 6.6423,13.90632 17.31603,6.13787 c 22.87253,8.10744 37.81107,14.18419 34.57092,14.06287 -1.4379,-0.0539 -20.02614,-3.53653 -41.30719,-7.73931 z"
     id="path3386"
     inkscape:connector-curvature="0" />
  <path
     style="fill:#a0a0a0;stroke:none;stroke-width:1px;stroke-linecap:butt;stroke-linejoin:miter;stroke-opacity:1"
     d="m 600.20915,539.98829 c -29.04575,-7.29136 -54.07905,-13.58588 -55.62956,-13.98782 -2.7666,-0.71719 -2.79336,-0.80374 -1.43649,-4.64668 1.19264,-3.37782 1.78892,-3.88482 4.33955,-3.68981 1.62631,0.12434 27.96226,5.26683 58.52435,11.42775 l 55.56742,11.20168 -2.62314,6.61146 c -1.75608,4.4261 -3.16995,6.56668 -4.27741,6.47595 -0.90984,-0.0745 -25.41897,-6.10117 -54.46472,-13.39253 z"
     id="path3388"
     inkscape:connector-curvature="0" />
  <path
     style="fill:#a0a0a0;stroke:none;stroke-width:1px;stroke-linecap:butt;stroke-linejoin:miter;stroke-opacity:1"
     d="m 472.62745,510.21449 c -15.81699,-3.59904 -29.45734,-6.7772 -30.31189,-7.06258 -2.48597,-0.83021 11.41954,-5.05975 16.65874,-5.06698 2.62034,-0.004 14.92979,2.43057 27.35432,5.40929 l 22.59006,5.41586 -1.57222,4.00248 c -1.14977,2.92704 -2.16181,3.9814 -3.76653,3.92405 -1.20687,-0.0431 -15.13549,-3.02309 -30.95248,-6.62212 z"
     id="path3390"
     inkscape:connector-curvature="0" />
  <path
     style="fill:#a0a0a0;stroke:none;stroke-width:1px;stroke-linecap:butt;stroke-linejoin:miter;stroke-opacity:1"
     d=""
     id="path3392"
     inkscape:connector-curvature="0" />
  <path
     style="fill:#a0a0a0;stroke:none;stroke-width:1px;stroke-linecap:butt;stroke-linejoin:miter;stroke-opacity:1"
     d="m 508.87767,493.47312 -2.96546,-1.31126 5.49288,-4.59889 c 5.43877,-4.5536 5.4855,-4.56955 4.74498,-1.61906 -0.41134,1.63891 -1.01926,4.33669 -1.35094,5.99508 -0.65891,3.29455 -1.46683,3.50386 -5.92146,1.53413 z"
     id="path3394"
     inkscape:connector-curvature="0" />
  <path
     style="fill:#a0a0a0;stroke:none;stroke-width:1px;stroke-linecap:butt;stroke-linejoin:miter;stroke-opacity:1"
     d="m 364.0037,611.82727 c 0.63171,-1.18036 13.35123,-22.11182 28.26561,-46.51437 20.74717,-33.94602 26.95505,-44.87872 26.42738,-46.54126 -0.50242,-1.583 -0.302,-2.02474 0.73819,-1.62698 0.78532,0.30031 19.19451,4.70061 40.90929,9.77844 32.60294,7.62393 39.39737,9.51493 38.99894,10.854 -0.26536,0.89188 -4.3336,17.85689 -9.04053,37.70002 -4.70694,19.84314 -8.8447,36.37436 -9.19502,36.73605 -0.35034,0.36168 -27.10045,0.90569 -59.44469,1.2089 l -58.80773,0.5513 1.14856,-2.1461 z"
     id="path3396"
     inkscape:connector-curvature="0" />
  <path
     style="fill:#a0a0a0;stroke:none;stroke-width:1px;stroke-linecap:butt;stroke-linejoin:miter;stroke-opacity:1"
     d="m 528.05229,586.9065 c 0,-1.97937 10.68548,-42.25001 11.4284,-43.07052 0.39415,-0.43531 27.04282,4.81165 59.21928,11.65991 32.17645,6.84825 59.39651,12.61618 60.48902,12.81761 1.74019,0.32085 -126.45307,19.8126 -129.82951,19.74054 -0.71896,-0.0153 -1.30719,-0.53174 -1.30719,-1.14754 z"
     id="path3398"
     inkscape:connector-curvature="0" />
  <flowRoot
     xml:space="preserve"
     id="flowRoot3800"
     style="fill:black;stroke:none;stroke-opacity:1;stroke-width:1px;stroke-linejoin:miter;stroke-linecap:butt;fill-opacity:1;font-family:sans-serif;font-style:normal;font-weight:normal;font-size:40px;line-height:125%;letter-spacing:0px;word-spacing:0px"><flowRegion
       id="flowRegion3802"><rect
         id="rect3804"
         width="50.28315"
         height="108.70034"
         x="282.47299"
         y="281.63989" /></flowRegion><flowPara
       id="flowPara3806"></flowPara></flowRoot>  <text
     xml:space="preserve"
     style="font-style:normal;font-weight:normal;font-size:40px;line-height:125%;font-family:sans-serif;letter-spacing:0px;word-spacing:0px;fill:#000000;fill-opacity:1;stroke:none;stroke-width:1px;stroke-linecap:butt;stroke-linejoin:miter;stroke-opacity:1"
     x="303.91727"
     y="342.27545"
     id="text3808"
     sodipodi:linespacing="125%"><tspan
       sodipodi:role="line"
       id="tspan3810"
       x="303.91727"
       y="342.27545" /></text>
  <flowRoot
     xml:space="preserve"
     id="flowRoot3812"
     style="fill:black;stroke:none;stroke-opacity:1;stroke-width:1px;stroke-linejoin:miter;stroke-linecap:butt;fill-opacity:1;font-family:sans-serif;font-style:normal;font-weight:normal;font-size:40px;line-height:125%;letter-spacing:0px;word-spacing:0px"><flowRegion
       id="flowRegion3814"><rect
         id="rect3816"
         width="29.578323"
         height="70.24852"
         x="290.60703"
         y="297.16852" /></flowRegion><flowPara
       id="flowPara3818"></flowPara></flowRoot>  <flowRoot
     xml:space="preserve"
     id="flowRoot3820"
     style="font-style:normal;font-weight:normal;font-size:40px;line-height:125%;font-family:sans-serif;letter-spacing:0px;word-spacing:0px;fill:#000000;fill-opacity:1;stroke:none;stroke-width:1px;stroke-linecap:butt;stroke-linejoin:miter;stroke-opacity:1"><flowRegion
       id="flowRegion3822"><rect
         id="rect3824"
         width="255.85249"
         height="87.25605"
         x="495.43692"
         y="375.55106" /></flowRegion><flowPara
       id="flowPara3826" /></flowRoot>  <flowRoot
     xml:space="preserve"
     id="flowRoot3828"
     style="fill:black;stroke:none;stroke-opacity:1;stroke-width:1px;stroke-linejoin:miter;stroke-linecap:butt;fill-opacity:1;font-family:sans-serif;font-style:normal;font-weight:normal;font-size:40px;line-height:125%;letter-spacing:0px;word-spacing:0px"><flowRegion
       id="flowRegion3830"><rect
         id="rect3832"
         width="211.48503"
         height="53.980457"
         x="491.00015"
         y="381.46674" /></flowRegion><flowPara
       id="flowPara3834"></flowPara></flowRoot>  <text
     xml:space="preserve"
     style="font-style:normal;font-weight:normal;font-size:40px;line-height:125%;font-family:sans-serif;letter-spacing:0px;word-spacing:0px;fill:#000000;fill-opacity:1;stroke:none;stroke-width:1px;stroke-linecap:butt;stroke-linejoin:miter;stroke-opacity:1"
     x="490.26071"
     y="497.56165"
     id="text3836"
     sodipodi:linespacing="125%"><tspan
       sodipodi:role="line"
       id="tspan3838"
       x="490.26071"
       y="497.56165" /></text>
  <text
     xml:space="preserve"
     style="font-style:normal;font-weight:normal;font-size:40px;line-height:125%;font-family:sans-serif;letter-spacing:0px;word-spacing:0px;fill:#000000;fill-opacity:1;stroke:none;stroke-width:1px;stroke-linecap:butt;stroke-linejoin:miter;stroke-opacity:1"
     x="528.71252"
     y="480.55411"
     id="text3840"
     sodipodi:linespacing="125%"><tspan
       sodipodi:role="line"
       id="tspan3842"
       x="528.71252"
       y="480.55411" /></text>
  <text
     xml:space="preserve"
     style="font-style:normal;font-weight:normal;font-size:40px;line-height:125%;font-family:sans-serif;letter-spacing:0px;word-spacing:0px;fill:#000000;fill-opacity:1;stroke:none;stroke-width:1px;stroke-linecap:butt;stroke-linejoin:miter;stroke-opacity:1"
     x="526.49414"
     y="479.0752"
     id="text3844"
     sodipodi:linespacing="125%"><tspan
       sodipodi:role="line"
       id="tspan3846"
       x="526.49414"
       y="479.0752" /></text>
  <text
     xml:space="preserve"
     style="font-style:normal;font-weight:normal;font-size:40px;line-height:125%;font-family:sans-serif;letter-spacing:0px;word-spacing:0px;fill:#000000;fill-opacity:1;stroke:none;stroke-width:1px;stroke-linecap:butt;stroke-linejoin:miter;stroke-opacity:1"
     x="561.98816"
     y="447.2785"
     id="text3848"
     sodipodi:linespacing="125%"><tspan
       sodipodi:role="line"
       id="tspan3850"
       x="561.98816"
       y="447.2785">I</tspan></text>
  <text
     xml:space="preserve"
     style="font-style:normal;font-weight:normal;font-size:40px;line-height:125%;font-family:sans-serif;letter-spacing:0px;word-spacing:0px;fill:#000000;fill-opacity:1;stroke:none;stroke-width:1px;stroke-linecap:butt;stroke-linejoin:miter;stroke-opacity:1"
     x="593.04535"
     y="431.74988"
     id="text3852"
     sodipodi:linespacing="125%"><tspan
       sodipodi:role="line"
       id="tspan3854"
       x="593.04535"
       y="431.74988">A</tspan></text>
  <text
     xml:space="preserve"
     style="font-style:normal;font-weight:normal;font-size:40px;line-height:125%;font-family:sans-serif;letter-spacing:0px;word-spacing:0px;fill:#000000;fill-opacity:1;stroke:none;stroke-width:1px;stroke-linecap:butt;stroke-linejoin:miter;stroke-opacity:1"
     x="584.91132"
     y="421.39746"
     id="text3856"
     sodipodi:linespacing="125%"><tspan
       sodipodi:role="line"
       id="tspan3858"
       x="584.91132"
       y="421.39746" /></text>
  <text
     xml:space="preserve"
     style="font-style:normal;font-weight:normal;font-size:40px;line-height:125%;font-family:sans-serif;letter-spacing:0px;word-spacing:0px;fill:#000000;fill-opacity:1;stroke:none;stroke-width:1px;stroke-linecap:butt;stroke-linejoin:miter;stroke-opacity:1"
     x="638.89178"
     y="411.04504"
     id="text3860"
     sodipodi:linespacing="125%"><tspan
       sodipodi:role="line"
       id="tspan3862"
       x="638.89178"
       y="411.04504" /></text>
  <text
     xml:space="preserve"
     style="font-style:normal;font-weight:normal;font-size:40px;line-height:125%;font-family:sans-serif;letter-spacing:0px;word-spacing:0px;fill:#000000;fill-opacity:1;stroke:none;stroke-width:1px;stroke-linecap:butt;stroke-linejoin:miter;stroke-opacity:1"
     x="627.06042"
     y="422.13693"
     id="text3864"
     sodipodi:linespacing="125%"><tspan
       sodipodi:role="line"
       id="tspan3866"
       x="627.06042"
       y="422.13693" /></text>
  <text
     xml:space="preserve"
     style="font-style:normal;font-weight:normal;font-size:40px;line-height:125%;font-family:sans-serif;letter-spacing:0px;word-spacing:0px;fill:#000000;fill-opacity:1;stroke:none;stroke-width:1px;stroke-linecap:butt;stroke-linejoin:miter;stroke-opacity:1"
     x="668.47009"
     y="399.21371"
     id="text3868"
     sodipodi:linespacing="125%"><tspan
       sodipodi:role="line"
       id="tspan3870"
       x="668.47009"
       y="399.21371" /></text>
  <text
     xml:space="preserve"
     style="font-style:normal;font-weight:normal;font-size:40px;line-height:125%;font-family:sans-serif;letter-spacing:0px;word-spacing:0px;fill:#000000;fill-opacity:1;stroke:none;stroke-width:1px;stroke-linecap:butt;stroke-linejoin:miter;stroke-opacity:1"
     x="706.18243"
     y="386.64294"
     id="text3872"
     sodipodi:linespacing="125%"><tspan
       sodipodi:role="line"
       id="tspan3874"
       x="706.18243"
       y="386.64294" /></text>
  <text
     xml:space="preserve"
     style="font-style:normal;font-weight:normal;font-size:40px;line-height:125%;font-family:sans-serif;letter-spacing:0px;word-spacing:0px;fill:#000000;fill-opacity:1;stroke:none;stroke-width:1px;stroke-linecap:butt;stroke-linejoin:miter;stroke-opacity:1"
     x="632.23663"
     y="451.71524"
     id="text3876"
     sodipodi:linespacing="125%"><tspan
       sodipodi:role="line"
       id="tspan3878"
       x="632.23663"
       y="451.71524">G</tspan></text>
  <text
     xml:space="preserve"
     style="font-style:normal;font-weight:normal;font-size:40px;line-height:125%;font-family:sans-serif;letter-spacing:0px;word-spacing:0px;fill:#000000;fill-opacity:1;stroke:none;stroke-width:1px;stroke-linecap:butt;stroke-linejoin:miter;stroke-opacity:1"
     x="669.20953"
     y="487.9487"
     id="text3880"
     sodipodi:linespacing="125%"><tspan
       sodipodi:role="line"
       id="tspan3882"
       x="669.20953"
       y="487.9487" /></text>
  <text
     xml:space="preserve"
     style="font-style:normal;font-weight:normal;font-size:40px;line-height:125%;font-family:sans-serif;letter-spacing:0px;word-spacing:0px;fill:#000000;fill-opacity:1;stroke:none;stroke-width:1px;stroke-linecap:butt;stroke-linejoin:miter;stroke-opacity:1"
     x="658.11768"
     y="493.12491"
     id="text3884"
     sodipodi:linespacing="125%"><tspan
       sodipodi:role="line"
       id="tspan3886"
       x="658.11768"
       y="493.12491">E</tspan></text>
  <text
     xml:space="preserve"
     style="font-style:normal;font-weight:normal;font-size:40px;line-height:125%;font-family:sans-serif;letter-spacing:0px;word-spacing:0px;fill:#000000;fill-opacity:1;stroke:none;stroke-width:1px;stroke-linecap:butt;stroke-linejoin:miter;stroke-opacity:1"
     x="669.94904"
     y="539.71075"
     id="text3888"
     sodipodi:linespacing="125%"><tspan
       sodipodi:role="line"
       id="tspan3890"
       x="669.94904"
       y="539.71075">L</tspan></text>
  <text
     xml:space="preserve"
     style="font-style:normal;font-weight:normal;font-size:40px;line-height:125%;font-family:sans-serif;letter-spacing:0px;word-spacing:0px;fill:#000000;fill-opacity:1;stroke:none;stroke-width:1px;stroke-linecap:butt;stroke-linejoin:miter;stroke-opacity:1"
     x="525.01526"
     y="481.29358"
     id="text3892"
     sodipodi:linespacing="125%"><tspan
       sodipodi:role="line"
       id="tspan3894"
       x="525.01526"
       y="481.29358" /></text>
  <text
     xml:space="preserve"
     style="font-style:normal;font-weight:normal;font-size:40px;line-height:125%;font-family:sans-serif;letter-spacing:0px;word-spacing:0px;fill:#000000;fill-opacity:1;stroke:none;stroke-width:1px;stroke-linecap:butt;stroke-linejoin:miter;stroke-opacity:1"
     x="521.31793"
     y="481.29358"
     id="text3896"
     sodipodi:linespacing="125%"><tspan
       sodipodi:role="line"
       id="tspan3898"
       x="521.31793"
       y="481.29358">R</tspan></text>
  <text
     xml:space="preserve"
     style="font-style:normal;font-weight:normal;font-size:40px;line-height:125%;font-family:sans-serif;letter-spacing:0px;word-spacing:0px;fill:#000000;fill-opacity:1;stroke:none;stroke-width:1px;stroke-linecap:butt;stroke-linejoin:miter;stroke-opacity:1"
     x="482.86612"
     y="501.25894"
     id="text3900"
     sodipodi:linespacing="125%"><tspan
       sodipodi:role="line"
       id="tspan3902"
       x="482.86612"
       y="501.25894">T</tspan></text>
  <path
     style="fill:none;fill-rule:evenodd;stroke:#000000;stroke-width:1px;stroke-linecap:butt;stroke-linejoin:miter;stroke-opacity:1"
     d="m 323.88263,1597.8753 c 657.37823,-4.4368 657.37823,-4.4368 657.37823,-4.4368 L 607.83453,951.5889 257.33141,1599.3542 Z"
     id="path3904"
     inkscape:connector-curvature="0" />
  <path
     style="fill:#4d4d4d;fill-rule:evenodd;stroke:#000000;stroke-width:1px;stroke-linecap:butt;stroke-linejoin:miter;stroke-opacity:1;fill-opacity:0.15362689"
     d="M 604.13724,131.5299 256.59195,643.97435 975.3452,640.27706 Z"
     id="path3906"
     inkscape:connector-curvature="0" />
</svg>
