  0
SECTION
  2
HEADER
  9
$ACADVER
  1
AC1014
  9
$HANDSEED
  5
FFFF
  9
$MEASUREMENT
 70
     1
  0
ENDSEC
  0
SECTION
  2
TABLES
  0
TABLE
  2
VPORT
  5
8
330
0
100
AcDbSymbolTable
 70
     4
  0
VPORT
  5
2E
330
8
100
AcDbSymbolTableRecord
100
AcDbViewportTableRecord
  2
*ACTIVE
 70
     0
 10
0.0
 20
0.0
 11
1.0
 21
1.0
 12
210.0
 22
148.5
 13
0.0
 23
0.0
 14
10.0
 24
10.0
 15
10.0
 25
10.0
 16
0.0
 26
0.0
 36
1.0
 17
0.0
 27
0.0
 37
0.0
 40
341.0
 41
1.24
 42
50.0
 43
0.0
 44
0.0
 50
0.0
 51
0.0
 71
     0
 72
   100
 73
     1
 74
     3
 75
     0
 76
     0
 77
     0
 78
     0
  0
ENDTAB
  0
TABLE
  2
LTYPE
  5
5
330
0
100
AcDbSymbolTable
 70
     1
  0
LTYPE
  5
14
330
5
100
AcDbSymbolTableRecord
100
AcDbLinetypeTableRecord
  2
BYBLOCK
 70
     0
  3

 72
    65
 73
     0
 40
0.0
  0
LTYPE
  5
15
330
5
100
AcDbSymbolTableRecord
100
AcDbLinetypeTableRecord
  2
BYLAYER
 70
     0
  3

 72
    65
 73
     0
 40
0.0
  0
LTYPE
  5
16
330
5
100
AcDbSymbolTableRecord
100
AcDbLinetypeTableRecord
  2
CONTINUOUS
 70
     0
  3
Solid line
 72
    65
 73
     0
 40
0.0
  0
ENDTAB
  0
TABLE
  2
LAYER
  5
2
100
AcDbSymbolTable
 70
1
  0
LAYER
  5
50
100
AcDbSymbolTableRecord
100
AcDbLayerTableRecord
  2
0
 70
0
  6
CONTINUOUS
  0
ENDTAB
  0
TABLE
  2
STYLE
  5
3
330
0
100
AcDbSymbolTable
 70
     1
  0
STYLE
  5
11
330
3
100
AcDbSymbolTableRecord
100
AcDbTextStyleTableRecord
  2
STANDARD
 70
     0
 40
0.0
 41
1.0
 50
0.0
 71
     0
 42
2.5
  3
txt
  4

  0
ENDTAB
  0
TABLE
  2
VIEW
  5
6
330
0
100
AcDbSymbolTable
 70
     0
  0
ENDTAB
  0
TABLE
  2
UCS
  5
7
330
0
100
AcDbSymbolTable
 70
     0
  0
ENDTAB
  0
TABLE
  2
APPID
  5
9
330
0
100
AcDbSymbolTable
 70
     2
  0
APPID
  5
12
330
9
100
AcDbSymbolTableRecord
100
AcDbRegAppTableRecord
  2
ACAD
 70
     0
  0
ENDTAB
  0
TABLE
  2
DIMSTYLE
  5
A
330
0
100
AcDbSymbolTable
 70
     1
  0
DIMSTYLE
105
27
330
A
100
AcDbSymbolTableRecord
100
AcDbDimStyleTableRecord
  2
ISO-25
 70
     0
  3

  4

  5

  6

  7

 40
1.0
 41
2.5
 42
0.625
 43
3.75
 44
1.25
 45
0.0
 46
0.0
 47
0.0
 48
0.0
140
2.5
141
2.5
142
0.0
143
0.03937007874016
144
1.0
145
0.0
146
1.0
147
0.625
 71
     0
 72
     0
 73
     0
 74
     0
 75
     0
 76
     0
 77
     1
 78
     8
170
     0
171
     3
172
     1
173
     0
174
     0
175
     0
176
     0
177
     0
178
     0
270
     2
271
     2
272
     2
273
     2
274
     3
340
11
275
     0
280
     0
281
     0
282
     0
283
     0
284
     8
285
     0
286
     0
287
     3
288
     0
  0
ENDTAB
  0
TABLE
  2
BLOCK_RECORD
  5
1
330
0
100
AcDbSymbolTable
 70
     1
  0
BLOCK_RECORD
  5
1F
330
1
100
AcDbSymbolTableRecord
100
AcDbBlockTableRecord
  2
*MODEL_SPACE
  0
BLOCK_RECORD
  5
1B
330
1
100
AcDbSymbolTableRecord
100
AcDbBlockTableRecord
  2
*PAPER_SPACE
  0
ENDTAB
  0
ENDSEC
  0
SECTION
  2
BLOCKS
  0
BLOCK
  5
20
330
1F
100
AcDbEntity
  8
0
100
AcDbBlockBegin
  2
*MODEL_SPACE
 70
     0
 10
0.0
 20
0.0
 30
0.0
  3
*MODEL_SPACE
  1

  0
ENDBLK
  5
21
330
1F
100
AcDbEntity
  8
0
100
AcDbBlockEnd
  0
BLOCK
  5
1C
330
1B
100
AcDbEntity
 67
     1
  8
0
100
AcDbBlockBegin
  2
*PAPER_SPACE
  1

  0
ENDBLK
  5
1D
330
1B
100
AcDbEntity
 67
     1
  8
0
100
AcDbBlockEnd
  0
ENDSEC
  0
SECTION
  2
ENTITIES
  0
SPLINE
  5
100
100
AcDbEntity
  8
0
 62
7
100
AcDbSpline
 70
8
 71
3
 72
8
 73
4
 74
0
 40
0
 40
0
 40
0
 40
0
 40
1
 40
1
 40
1
 40
1
 10
404.820217
 20
224.259617
 30
0.0
 10
404.820217
 20
227.638670
 30
0.0
 10
407.561348
 20
230.379612
 30
0.0
 10
410.940401
 20
230.379612
 30
0.0
  0
SPLINE
  5
101
100
AcDbEntity
  8
0
 62
7
100
AcDbSpline
 70
8
 71
3
 72
8
 73
4
 74
0
 40
0
 40
0
 40
0
 40
0
 40
1
 40
1
 40
1
 40
1
 10
410.940401
 20
230.379612
 30
0.0
 10
414.319454
 20
230.379612
 30
0.0
 10
417.060586
 20
227.638670
 30
0.0
 10
417.060586
 20
224.259617
 30
0.0
  0
SPLINE
  5
102
100
AcDbEntity
  8
0
 62
7
100
AcDbSpline
 70
8
 71
3
 72
8
 73
4
 74
0
 40
0
 40
0
 40
0
 40
0
 40
1
 40
1
 40
1
 40
1
 10
417.060586
 20
224.259617
 30
0.0
 10
417.060586
 20
220.880564
 30
0.0
 10
414.319454
 20
218.139621
 30
0.0
 10
410.940401
 20
218.139621
 30
0.0
  0
SPLINE
  5
103
100
AcDbEntity
  8
0
 62
7
100
AcDbSpline
 70
8
 71
3
 72
8
 73
4
 74
0
 40
0
 40
0
 40
0
 40
0
 40
1
 40
1
 40
1
 40
1
 10
410.940401
 20
218.139621
 30
0.0
 10
407.561348
 20
218.139621
 30
0.0
 10
404.820217
 20
220.880564
 30
0.0
 10
404.820217
 20
224.259617
 30
0.0
  0
LWPOLYLINE
  5
104
100
AcDbEntity
  8
0
 62
7
100
AcDbPolyline
 90
12
 70
0
 10
397.600026
 20
0.000011
 30
0.0
 10
397.600026
 20
227.006370
 30
0.0
 10
408.193654
 20
237.599974
 30
0.0
 10
542.206423
 20
237.599974
 30
0.0
 10
552.800015
 20
227.006321
 30
0.0
 10
552.800015
 20
0.000011
 30
0.0
 10
535.100673
 20
0.000011
 30
0.0
 10
517.243293
 20
19.877975
 30
0.0
 10
433.156735
 20
19.877975
 30
0.0
 10
415.299361
 20
0.000011
 30
0.0
 10
397.600026
 20
0.000011
 30
0.0
 10
397.600026
 20
0.000011
 30
0.0
  0
SPLINE
  5
105
100
AcDbEntity
  8
0
 62
7
100
AcDbSpline
 70
8
 71
3
 72
8
 73
4
 74
0
 40
0
 40
0
 40
0
 40
0
 40
1
 40
1
 40
1
 40
1
 10
545.579806
 20
224.259617
 30
0.0
 10
545.579806
 20
227.638670
 30
0.0
 10
542.838674
 20
230.379612
 30
0.0
 10
539.459621
 20
230.379612
 30
0.0
  0
SPLINE
  5
106
100
AcDbEntity
  8
0
 62
7
100
AcDbSpline
 70
8
 71
3
 72
8
 73
4
 74
0
 40
0
 40
0
 40
0
 40
0
 40
1
 40
1
 40
1
 40
1
 10
539.459621
 20
230.379612
 30
0.0
 10
536.080568
 20
230.379612
 30
0.0
 10
533.339437
 20
227.638670
 30
0.0
 10
533.339437
 20
224.259617
 30
0.0
  0
SPLINE
  5
107
100
AcDbEntity
  8
0
 62
7
100
AcDbSpline
 70
8
 71
3
 72
8
 73
4
 74
0
 40
0
 40
0
 40
0
 40
0
 40
1
 40
1
 40
1
 40
1
 10
533.339437
 20
224.259617
 30
0.0
 10
533.339437
 20
220.880564
 30
0.0
 10
536.080568
 20
218.139621
 30
0.0
 10
539.459621
 20
218.139621
 30
0.0
  0
SPLINE
  5
108
100
AcDbEntity
  8
0
 62
7
100
AcDbSpline
 70
8
 71
3
 72
8
 73
4
 74
0
 40
0
 40
0
 40
0
 40
0
 40
1
 40
1
 40
1
 40
1
 10
539.459621
 20
218.139621
 30
0.0
 10
542.838674
 20
218.139621
 30
0.0
 10
545.579806
 20
220.880564
 30
0.0
 10
545.579806
 20
224.259617
 30
0.0
  0
LWPOLYLINE
  5
109
100
AcDbEntity
  8
0
 62
7
100
AcDbPolyline
 90
2
 70
0
 10
404.820217
 20
224.259617
 30
0.0
 10
404.820217
 20
224.259617
 30
0.0
  0
SPLINE
  5
10a
100
AcDbEntity
  8
0
 62
7
100
AcDbSpline
 70
8
 71
3
 72
8
 73
4
 74
0
 40
0
 40
0
 40
0
 40
0
 40
1
 40
1
 40
1
 40
1
 10
401.606636
 20
20.709607
 30
0.0
 10
401.606636
 20
24.088663
 30
0.0
 10
404.347762
 20
26.829602
 30
0.0
 10
407.726821
 20
26.829602
 30
0.0
  0
SPLINE
  5
10b
100
AcDbEntity
  8
0
 62
7
100
AcDbSpline
 70
8
 71
3
 72
8
 73
4
 74
0
 40
0
 40
0
 40
0
 40
0
 40
1
 40
1
 40
1
 40
1
 10
407.726821
 20
26.829602
 30
0.0
 10
411.105880
 20
26.829602
 30
0.0
 10
413.847005
 20
24.088663
 30
0.0
 10
413.847005
 20
20.709607
 30
0.0
  0
SPLINE
  5
10c
100
AcDbEntity
  8
0
 62
7
100
AcDbSpline
 70
8
 71
3
 72
8
 73
4
 74
0
 40
0
 40
0
 40
0
 40
0
 40
1
 40
1
 40
1
 40
1
 10
413.847005
 20
20.709607
 30
0.0
 10
413.847005
 20
17.330551
 30
0.0
 10
411.105880
 20
14.589612
 30
0.0
 10
407.726821
 20
14.589612
 30
0.0
  0
SPLINE
  5
10d
100
AcDbEntity
  8
0
 62
7
100
AcDbSpline
 70
8
 71
3
 72
8
 73
4
 74
0
 40
0
 40
0
 40
0
 40
0
 40
1
 40
1
 40
1
 40
1
 10
407.726821
 20
14.589612
 30
0.0
 10
404.347762
 20
14.589612
 30
0.0
 10
401.606636
 20
17.330551
 30
0.0
 10
401.606636
 20
20.709607
 30
0.0
  0
LWPOLYLINE
  5
10e
100
AcDbEntity
  8
0
 62
7
100
AcDbPolyline
 90
2
 70
0
 10
545.579806
 20
224.259617
 30
0.0
 10
545.579806
 20
224.259617
 30
0.0
  0
SPLINE
  5
10f
100
AcDbEntity
  8
0
 62
7
100
AcDbSpline
 70
8
 71
3
 72
8
 73
4
 74
0
 40
0
 40
0
 40
0
 40
0
 40
1
 40
1
 40
1
 40
1
 10
548.793386
 20
20.709607
 30
0.0
 10
548.793386
 20
24.088663
 30
0.0
 10
546.052261
 20
26.829602
 30
0.0
 10
542.673202
 20
26.829602
 30
0.0
  0
SPLINE
  5
110
100
AcDbEntity
  8
0
 62
7
100
AcDbSpline
 70
8
 71
3
 72
8
 73
4
 74
0
 40
0
 40
0
 40
0
 40
0
 40
1
 40
1
 40
1
 40
1
 10
542.673202
 20
26.829602
 30
0.0
 10
539.294143
 20
26.829602
 30
0.0
 10
536.553017
 20
24.088663
 30
0.0
 10
536.553017
 20
20.709607
 30
0.0
  0
SPLINE
  5
111
100
AcDbEntity
  8
0
 62
7
100
AcDbSpline
 70
8
 71
3
 72
8
 73
4
 74
0
 40
0
 40
0
 40
0
 40
0
 40
1
 40
1
 40
1
 40
1
 10
536.553017
 20
20.709607
 30
0.0
 10
536.553017
 20
17.330551
 30
0.0
 10
539.294143
 20
14.589612
 30
0.0
 10
542.673202
 20
14.589612
 30
0.0
  0
SPLINE
  5
112
100
AcDbEntity
  8
0
 62
7
100
AcDbSpline
 70
8
 71
3
 72
8
 73
4
 74
0
 40
0
 40
0
 40
0
 40
0
 40
1
 40
1
 40
1
 40
1
 10
542.673202
 20
14.589612
 30
0.0
 10
546.052261
 20
14.589612
 30
0.0
 10
548.793386
 20
17.330551
 30
0.0
 10
548.793386
 20
20.709607
 30
0.0
  0
LWPOLYLINE
  5
113
100
AcDbEntity
  8
0
 62
7
100
AcDbPolyline
 90
2
 70
0
 10
401.606636
 20
20.709607
 30
0.0
 10
401.606636
 20
20.709607
 30
0.0
  0
LWPOLYLINE
  5
114
100
AcDbEntity
  8
0
 62
7
100
AcDbPolyline
 90
2
 70
0
 10
548.793386
 20
20.709607
 30
0.0
 10
548.793386
 20
20.709607
 30
0.0
  0
LWPOLYLINE
  5
115
100
AcDbEntity
  8
0
 62
7
100
AcDbPolyline
 90
6
 70
0
 10
405.726821
 20
33.709577
 30
0.0
 10
405.726821
 20
35.709577
 30
0.0
 10
409.726821
 20
35.709577
 30
0.0
 10
409.726821
 20
33.709577
 30
0.0
 10
405.726821
 20
33.709577
 30
0.0
 10
405.726821
 20
33.709577
 30
0.0
  0
LWPOLYLINE
  5
116
100
AcDbEntity
  8
0
 62
7
100
AcDbPolyline
 90
6
 70
0
 10
405.726821
 20
5.709576
 30
0.0
 10
405.726821
 20
7.709576
 30
0.0
 10
409.726821
 20
7.709576
 30
0.0
 10
409.726821
 20
5.709576
 30
0.0
 10
405.726821
 20
5.709576
 30
0.0
 10
405.726821
 20
5.709576
 30
0.0
  0
LWPOLYLINE
  5
117
100
AcDbEntity
  8
0
 62
7
100
AcDbPolyline
 90
6
 70
0
 10
544.673202
 20
5.709576
 30
0.0
 10
544.673202
 20
7.709576
 30
0.0
 10
540.673202
 20
7.709576
 30
0.0
 10
540.673202
 20
5.709576
 30
0.0
 10
544.673202
 20
5.709576
 30
0.0
 10
544.673202
 20
5.709576
 30
0.0
  0
LWPOLYLINE
  5
118
100
AcDbEntity
  8
0
 62
7
100
AcDbPolyline
 90
6
 70
0
 10
544.673202
 20
33.709577
 30
0.0
 10
544.673202
 20
35.709577
 30
0.0
 10
540.673202
 20
35.709577
 30
0.0
 10
540.673202
 20
33.709577
 30
0.0
 10
544.673202
 20
33.709577
 30
0.0
 10
544.673202
 20
33.709577
 30
0.0
  0
LWPOLYLINE
  5
119
100
AcDbEntity
  8
0
 62
7
100
AcDbPolyline
 90
6
 70
0
 10
424.442755
 20
229.142405
 30
0.0
 10
425.856967
 20
230.556614
 30
0.0
 10
423.028543
 20
233.385057
 30
0.0
 10
421.614328
 20
231.970823
 30
0.0
 10
424.442755
 20
229.142405
 30
0.0
 10
424.442755
 20
229.142405
 30
0.0
  0
LWPOLYLINE
  5
11a
100
AcDbEntity
  8
0
 62
7
100
AcDbPolyline
 90
6
 70
0
 10
404.643764
 20
209.343405
 30
0.0
 10
406.057979
 20
210.757638
 30
0.0
 10
403.229549
 20
213.586057
 30
0.0
 10
401.815340
 20
212.171848
 30
0.0
 10
404.643764
 20
209.343405
 30
0.0
 10
404.643764
 20
209.343405
 30
0.0
  0
LWPOLYLINE
  5
11b
100
AcDbEntity
  8
0
 62
7
100
AcDbPolyline
 90
6
 70
0
 10
545.756259
 20
209.343405
 30
0.0
 10
544.342043
 20
210.757638
 30
0.0
 10
547.170474
 20
213.586057
 30
0.0
 10
548.584683
 20
212.171848
 30
0.0
 10
545.756259
 20
209.343405
 30
0.0
 10
545.756259
 20
209.343405
 30
0.0
  0
LWPOLYLINE
  5
11c
100
AcDbEntity
  8
0
 62
7
100
AcDbPolyline
 90
6
 70
0
 10
525.957268
 20
229.142405
 30
0.0
 10
524.543056
 20
230.556614
 30
0.0
 10
527.371480
 20
233.385057
 30
0.0
 10
528.785695
 20
231.970823
 30
0.0
 10
525.957268
 20
229.142405
 30
0.0
 10
525.957268
 20
229.142405
 30
0.0
  0
LWPOLYLINE
  5
11d
100
AcDbEntity
  8
0
 62
7
100
AcDbPolyline
 90
6
 70
0
 10
265.856764
 20
150.556268
 30
0.0
 10
264.442531
 20
149.142059
 30
0.0
 10
261.614112
 20
151.970490
 30
0.0
 10
263.028322
 20
153.384699
 30
0.0
 10
265.856764
 20
150.556268
 30
0.0
 10
265.856764
 20
150.556268
 30
0.0
  0
SPLINE
  5
11e
100
AcDbEntity
  8
0
 62
7
100
AcDbSpline
 70
8
 71
3
 72
8
 73
4
 74
0
 40
0
 40
0
 40
0
 40
0
 40
1
 40
1
 40
1
 40
1
 10
250.940552
 20
150.379828
 30
0.0
 10
247.561499
 20
150.379828
 30
0.0
 10
244.820557
 20
147.638690
 30
0.0
 10
244.820557
 20
144.259637
 30
0.0
  0
SPLINE
  5
11f
100
AcDbEntity
  8
0
 62
7
100
AcDbSpline
 70
8
 71
3
 72
8
 73
4
 74
0
 40
0
 40
0
 40
0
 40
0
 40
1
 40
1
 40
1
 40
1
 10
244.820557
 20
144.259637
 30
0.0
 10
244.820557
 20
140.880584
 30
0.0
 10
247.561499
 20
138.139447
 30
0.0
 10
250.940552
 20
138.139447
 30
0.0
  0
SPLINE
  5
120
100
AcDbEntity
  8
0
 62
7
100
AcDbSpline
 70
8
 71
3
 72
8
 73
4
 74
0
 40
0
 40
0
 40
0
 40
0
 40
1
 40
1
 40
1
 40
1
 10
250.940552
 20
138.139447
 30
0.0
 10
254.319605
 20
138.139447
 30
0.0
 10
257.060548
 20
140.880584
 30
0.0
 10
257.060548
 20
144.259637
 30
0.0
  0
SPLINE
  5
121
100
AcDbEntity
  8
0
 62
7
100
AcDbSpline
 70
8
 71
3
 72
8
 73
4
 74
0
 40
0
 40
0
 40
0
 40
0
 40
1
 40
1
 40
1
 40
1
 10
257.060548
 20
144.259637
 30
0.0
 10
257.060548
 20
147.638690
 30
0.0
 10
254.319605
 20
150.379828
 30
0.0
 10
250.940552
 20
150.379828
 30
0.0
  0
LWPOLYLINE
  5
122
100
AcDbEntity
  8
0
 62
7
100
AcDbPolyline
 90
6
 70
0
 10
246.057764
 20
130.757281
 30
0.0
 10
244.643555
 20
129.343072
 30
0.0
 10
241.815113
 20
132.171502
 30
0.0
 10
243.229346
 20
133.585711
 30
0.0
 10
246.057764
 20
130.757281
 30
0.0
 10
246.057764
 20
130.757281
 30
0.0
  0
LWPOLYLINE
  5
123
100
AcDbEntity
  8
0
 62
7
100
AcDbPolyline
 90
2
 70
0
 10
250.940552
 20
150.379828
 30
0.0
 10
250.940552
 20
150.379828
 30
0.0
  0
SPLINE
  5
124
100
AcDbEntity
  8
0
 62
7
100
AcDbSpline
 70
8
 71
3
 72
8
 73
4
 74
0
 40
0
 40
0
 40
0
 40
0
 40
1
 40
1
 40
1
 40
1
 10
244.820166
 20
15.740607
 30
0.0
 10
244.820166
 20
12.361548
 30
0.0
 10
247.561304
 20
9.620607
 30
0.0
 10
250.940357
 20
9.620605
 30
0.0
  0
SPLINE
  5
125
100
AcDbEntity
  8
0
 62
7
100
AcDbSpline
 70
8
 71
3
 72
8
 73
4
 74
0
 40
0
 40
0
 40
0
 40
0
 40
1
 40
1
 40
1
 40
1
 10
250.940357
 20
9.620605
 30
0.0
 10
254.319410
 20
9.620603
 30
0.0
 10
257.060548
 20
12.361538
 30
0.0
 10
257.060548
 20
15.740594
 30
0.0
  0
SPLINE
  5
126
100
AcDbEntity
  8
0
 62
7
100
AcDbSpline
 70
8
 71
3
 72
8
 73
4
 74
0
 40
0
 40
0
 40
0
 40
0
 40
1
 40
1
 40
1
 40
1
 10
257.060548
 20
15.740594
 30
0.0
 10
257.060548
 20
19.119653
 30
0.0
 10
254.319410
 20
21.860594
 30
0.0
 10
250.940357
 20
21.860596
 30
0.0
  0
SPLINE
  5
127
100
AcDbEntity
  8
0
 62
7
100
AcDbSpline
 70
8
 71
3
 72
8
 73
4
 74
0
 40
0
 40
0
 40
0
 40
0
 40
1
 40
1
 40
1
 40
1
 10
250.940357
 20
21.860596
 30
0.0
 10
247.561304
 20
21.860597
 30
0.0
 10
244.820166
 20
19.119662
 30
0.0
 10
244.820166
 20
15.740607
 30
0.0
  0
LWPOLYLINE
  5
128
100
AcDbEntity
  8
0
 62
7
100
AcDbPolyline
 90
10
 70
0
 10
237.600000
 20
12.993853
 30
0.0
 10
248.193604
 20
2.400249
 30
0.0
 10
382.206147
 20
2.400030
 30
0.0
 10
392.799751
 20
12.993658
 30
0.0
 10
392.799983
 20
147.006195
 30
0.0
 10
382.206355
 20
157.599799
 30
0.0
 10
248.193799
 20
157.600019
 30
0.0
 10
237.600195
 20
147.006390
 30
0.0
 10
237.600000
 20
12.993853
 30
0.0
 10
237.600000
 20
12.993853
 30
0.0
  0
LWPOLYLINE
  5
129
100
AcDbEntity
  8
0
 62
7
100
AcDbPolyline
 90
2
 70
0
 10
244.820166
 20
15.740607
 30
0.0
 10
244.820166
 20
15.740607
 30
0.0
  0
LWPOLYLINE
  5
12a
100
AcDbEntity
  8
0
 62
7
100
AcDbPolyline
 90
6
 70
0
 10
264.442726
 20
10.857812
 30
0.0
 10
265.856935
 20
9.443603
 30
0.0
 10
263.028517
 20
6.615167
 30
0.0
 10
261.614283
 20
8.029394
 30
0.0
 10
264.442726
 20
10.857812
 30
0.0
 10
264.442726
 20
10.857812
 30
0.0
  0
LWPOLYLINE
  5
12b
100
AcDbEntity
  8
0
 62
7
100
AcDbPolyline
 90
6
 70
0
 10
244.643726
 20
30.656806
 30
0.0
 10
246.057935
 20
29.242579
 30
0.0
 10
243.229517
 20
26.414160
 30
0.0
 10
241.815308
 20
27.828370
 30
0.0
 10
244.643726
 20
30.656806
 30
0.0
 10
244.643726
 20
30.656806
 30
0.0
  0
LWPOLYLINE
  5
12c
100
AcDbEntity
  8
0
 62
7
100
AcDbPolyline
 90
6
 70
0
 10
364.543195
 20
9.443768
 30
0.0
 10
365.957428
 20
10.857983
 30
0.0
 10
368.785846
 20
8.029553
 30
0.0
 10
367.371637
 20
6.615344
 30
0.0
 10
364.543195
 20
9.443768
 30
0.0
 10
364.543195
 20
9.443768
 30
0.0
  0
SPLINE
  5
12d
100
AcDbEntity
  8
0
 62
7
100
AcDbSpline
 70
8
 71
3
 72
8
 73
4
 74
0
 40
0
 40
0
 40
0
 40
0
 40
1
 40
1
 40
1
 40
1
 10
379.459394
 20
9.620220
 30
0.0
 10
382.838453
 20
9.620219
 30
0.0
 10
385.579395
 20
12.361348
 30
0.0
 10
385.579395
 20
15.740405
 30
0.0
  0
SPLINE
  5
12e
100
AcDbEntity
  8
0
 62
7
100
AcDbSpline
 70
8
 71
3
 72
8
 73
4
 74
0
 40
0
 40
0
 40
0
 40
0
 40
1
 40
1
 40
1
 40
1
 10
385.579395
 20
15.740405
 30
0.0
 10
385.579395
 20
19.119460
 30
0.0
 10
382.838459
 20
21.860588
 30
0.0
 10
379.459406
 20
21.860590
 30
0.0
  0
SPLINE
  5
12f
100
AcDbEntity
  8
0
 62
7
100
AcDbSpline
 70
8
 71
3
 72
8
 73
4
 74
0
 40
0
 40
0
 40
0
 40
0
 40
1
 40
1
 40
1
 40
1
 10
379.459406
 20
21.860590
 30
0.0
 10
376.080347
 20
21.860591
 30
0.0
 10
373.339405
 20
19.119463
 30
0.0
 10
373.339405
 20
15.740405
 30
0.0
  0
SPLINE
  5
130
100
AcDbEntity
  8
0
 62
7
100
AcDbSpline
 70
8
 71
3
 72
8
 73
4
 74
0
 40
0
 40
0
 40
0
 40
0
 40
1
 40
1
 40
1
 40
1
 10
373.339405
 20
15.740405
 30
0.0
 10
373.339405
 20
12.361351
 30
0.0
 10
376.080341
 20
9.620222
 30
0.0
 10
379.459394
 20
9.620220
 30
0.0
  0
LWPOLYLINE
  5
131
100
AcDbEntity
  8
0
 62
7
100
AcDbPolyline
 90
6
 70
0
 10
384.342182
 20
29.242759
 30
0.0
 10
385.756397
 20
30.656971
 30
0.0
 10
388.584834
 20
27.828547
 30
0.0
 10
387.170606
 20
26.414331
 30
0.0
 10
384.342182
 20
29.242759
 30
0.0
 10
384.342182
 20
29.242759
 30
0.0
  0
SPLINE
  5
132
100
AcDbEntity
  8
0
 62
7
100
AcDbSpline
 70
8
 71
3
 72
8
 73
4
 74
0
 40
0
 40
0
 40
0
 40
0
 40
1
 40
1
 40
1
 40
1
 10
385.579792
 20
144.259442
 30
0.0
 10
385.579792
 20
147.638495
 30
0.0
 10
382.838667
 20
150.379437
 30
0.0
 10
379.459608
 20
150.379437
 30
0.0
  0
SPLINE
  5
133
100
AcDbEntity
  8
0
 62
7
100
AcDbSpline
 70
8
 71
3
 72
8
 73
4
 74
0
 40
0
 40
0
 40
0
 40
0
 40
1
 40
1
 40
1
 40
1
 10
379.459608
 20
150.379437
 30
0.0
 10
376.080549
 20
150.379437
 30
0.0
 10
373.339423
 20
147.638495
 30
0.0
 10
373.339423
 20
144.259442
 30
0.0
  0
SPLINE
  5
134
100
AcDbEntity
  8
0
 62
7
100
AcDbSpline
 70
8
 71
3
 72
8
 73
4
 74
0
 40
0
 40
0
 40
0
 40
0
 40
1
 40
1
 40
1
 40
1
 10
373.339423
 20
144.259442
 30
0.0
 10
373.339423
 20
140.880389
 30
0.0
 10
376.080549
 20
138.139447
 30
0.0
 10
379.459608
 20
138.139447
 30
0.0
  0
SPLINE
  5
135
100
AcDbEntity
  8
0
 62
7
100
AcDbSpline
 70
8
 71
3
 72
8
 73
4
 74
0
 40
0
 40
0
 40
0
 40
0
 40
1
 40
1
 40
1
 40
1
 10
379.459608
 20
138.139447
 30
0.0
 10
382.838667
 20
138.139447
 30
0.0
 10
385.579792
 20
140.880389
 30
0.0
 10
385.579792
 20
144.259442
 30
0.0
  0
LWPOLYLINE
  5
136
100
AcDbEntity
  8
0
 62
7
100
AcDbPolyline
 90
2
 70
0
 10
379.459394
 20
9.620220
 30
0.0
 10
379.459394
 20
9.620220
 30
0.0
  0
LWPOLYLINE
  5
137
100
AcDbEntity
  8
0
 62
7
100
AcDbPolyline
 90
2
 70
0
 10
385.579792
 20
144.259442
 30
0.0
 10
385.579792
 20
144.259442
 30
0.0
  0
LWPOLYLINE
  5
138
100
AcDbEntity
  8
0
 62
7
100
AcDbPolyline
 90
6
 70
0
 10
365.957257
 20
149.142230
 30
0.0
 10
364.543048
 20
150.556439
 30
0.0
 10
367.371466
 20
153.384882
 30
0.0
 10
368.785675
 20
151.970648
 30
0.0
 10
365.957257
 20
149.142230
 30
0.0
 10
365.957257
 20
149.142230
 30
0.0
  0
LWPOLYLINE
  5
139
100
AcDbEntity
  8
0
 62
7
100
AcDbPolyline
 90
6
 70
0
 10
385.756245
 20
129.343230
 30
0.0
 10
384.342030
 20
130.757464
 30
0.0
 10
387.170460
 20
133.585882
 30
0.0
 10
388.584669
 20
132.171673
 30
0.0
 10
385.756245
 20
129.343230
 30
0.0
 10
385.756245
 20
129.343230
 30
0.0
  0
ENDSEC
  0
SECTION
  2
OBJECTS
  0
DICTIONARY
  5
C
330
0
100
AcDbDictionary
  3
ACAD_GROUP
350
D
  3
ACAD_MLINESTYLE
350
17
  0
DICTIONARY
  5
D
330
C
100
AcDbDictionary
  0
DICTIONARY
  5
1A
330
C
100
AcDbDictionary
  0
DICTIONARY
  5
17
330
C
100
AcDbDictionary
  3
STANDARD
350
18
  0
DICTIONARY
  5
19
330
C
100
AcDbDictionary
  0
ENDSEC
  0
EOF
