<?xml version="1.0" encoding="UTF-8" standalone="no"?>
<svg
   xmlns:dc="http://purl.org/dc/elements/1.1/"
   xmlns:cc="http://creativecommons.org/ns#"
   xmlns:rdf="http://www.w3.org/1999/02/22-rdf-syntax-ns#"
   xmlns:svg="http://www.w3.org/2000/svg"
   xmlns="http://www.w3.org/2000/svg"
   xmlns:sodipodi="http://sodipodi.sourceforge.net/DTD/sodipodi-0.dtd"
   xmlns:inkscape="http://www.inkscape.org/namespaces/inkscape"
   width="193.99998632632088mm"
   height="302.9985214145163mm"
   viewBox="0 0 193.99998632632088 302.9985214145163"
   id="svg11573"
   version="1.1"
   inkscape:version="0.91 r13725"
   sodipodi:docname="peters-deckel-seite.svg">
  <metadata
     id="metadata11667">
    <rdf:RDF>
      <cc:Work
         rdf:about="">
        <dc:format>image/svg+xml</dc:format>
        <dc:type
           rdf:resource="http://purl.org/dc/dcmitype/StillImage" />
        <dc:title>Bezier Curve : BezierCircle.003</dc:title>
      </cc:Work>
    </rdf:RDF>
  </metadata>
  <defs
     id="defs11665" />
  <sodipodi:namedview
     pagecolor="#ffffff"
     bordercolor="#666666"
     borderopacity="1"
     objecttolerance="10"
     gridtolerance="10"
     guidetolerance="10"
     inkscape:pageopacity="0"
     inkscape:pageshadow="2"
     inkscape:window-width="687"
     inkscape:window-height="480"
     id="namedview11663"
     showgrid="false"
     inkscape:zoom="0.15543459"
     inkscape:cx="241.28061"
     inkscape:cy="503.20391"
     inkscape:window-x="327"
     inkscape:window-y="130"
     inkscape:window-maximized="0"
     inkscape:current-layer="svg11573" />
  <title
     id="title11575">Bezier Curve : BezierCircle.003</title>
  <desc
     id="desc11577">This is an exported Bezier xml_path from Blender, using the ExportScript by maybites.ch and Craxic</desc>
  <path
     style="fill:none;stroke:#000000;stroke-width:1px;stroke-linecap:butt;stroke-linejoin:miter;stroke-opacity:1"
     d="M96.9999771118164,299.99850688036724 C96.9999771118164,299.99850688036724 96.9999771118164,19.24055897476842 96.9999771118164,19.24055897476842 C96.9999771118164,19.24055897476842 106.91822862050572,9.32225406031489 106.91822862050572,9.32225406031489 C106.91822862050572,9.32225406031489 106.91822862050572,-1.2007468967567547e-05 106.91822862050572,-1.2007468967567547e-05 C106.91822862050572,-1.2007468967567547e-05 110.24191347075508,-1.2007468967567547e-05 110.24191347075508,-1.2007468967567547e-05 C110.24191347075508,-1.2007468967567547e-05 110.24191347075508,3.0002627932395285 110.24191347075508,3.0002627932395285 C110.24191347075508,3.0002627932395285 135.03601254880215,3.0002627932395285 135.03601254880215,3.0002627932395285 C135.03601254880215,3.0002627932395285 135.03601254880215,-1.2007468967567547e-05 135.03601254880215,-1.2007468967567547e-05 C135.03601254880215,-1.2007468967567547e-05 138.333662088977,-1.2007468967567547e-05 138.333662088977,-1.2007468967567547e-05 C138.333662088977,-1.2007468967567547e-05 138.333662088977,5.99855395127571 138.333662088977,5.99855395127571 C138.333662088977,5.99855395127571 249.6662250552124,5.99855395127571 249.6662250552124,5.99855395127571 C249.6662250552124,5.99855395127571 249.6662250552124,-1.2007468967567547e-05 249.6662250552124,-1.2007468967567547e-05 C249.6662250552124,-1.2007468967567547e-05 252.96387459538727,-1.2007468967567547e-05 252.96387459538727,-1.2007468967567547e-05 C252.96387459538727,-1.2007468967567547e-05 252.96387459538727,3.0002627932395285 252.96387459538727,3.0002627932395285 C252.96387459538727,3.0002627932395285 277.7579736734344,3.0002627932395285 277.7579736734344,3.0002627932395285 C277.7579736734344,3.0002627932395285 277.7579736734344,-1.2007468967567547e-05 277.7579736734344,-1.2007468967567547e-05 C277.7579736734344,-1.2007468967567547e-05 281.0816585236837,-1.2007468967567547e-05 281.0816585236837,-1.2007468967567547e-05 C281.0816585236837,-1.2007468967567547e-05 281.0816585236837,9.32225406031489 281.0816585236837,9.32225406031489 C281.0816585236837,9.32225406031489 290.9999634381373,19.240620009927568 290.9999634381373,19.240620009927568 C290.9999634381373,19.240620009927568 290.9999634381373,299.99850688036724 290.9999634381373,299.99850688036724 C290.9999634381373,299.99850688036724 290.1744018754877,299.998508787716 290.1744018754877,299.998508787716 C290.1744018754877,299.998508787716 290.1744018754877,302.99850893020835 290.1744018754877,302.99850893020835 C290.1744018754877,302.99850893020835 281.17440144801066,302.9985094070455 281.17440144801066,302.9985094070455 C281.17440144801066,302.9985094070455 281.17440144801066,299.9985097413903 281.17440144801066,299.9985097413903 C281.17440144801066,299.9985097413903 268.8757863619047,299.99850688036724 268.8757863619047,299.99850688036724 C268.8757863619047,299.99850688036724 246.5540613636914,275.1510516291316 246.5540613636914,275.1510516291316 C246.5540613636914,275.1510516291316 141.4458639274725,275.1510516291316 141.4458639274725,275.1510516291316 C141.4458639274725,275.1510516291316 119.12414655865412,299.99850688036724 119.12414655865412,299.99850688036724 C119.12414655865412,299.99850688036724 106.82548569617879,299.9985097413903 106.82548569617879,299.9985097413903 C106.82548569617879,299.9985097413903 106.82548569617879,302.9985094070473 106.82548569617879,302.9985094070473 C106.82548569617879,302.9985094070473 97.82548526870173,302.9985089302106 97.82548526870173,302.9985089302106 C97.82548526870173,302.9985089302106 97.82548526870173,299.998508787716 97.82548526870173,299.998508787716 C97.82548526870173,299.998508787716 96.9999771118164,299.99850688036724 96.9999771118164,299.99850688036724 Z "
     id="path11579" />
  <path
     style="fill:none;stroke:#000000;stroke-width:1px;stroke-linecap:butt;stroke-linejoin:miter;stroke-opacity:1"
     d="M188.18519262452216,69.52683150483966 C184.40093074128816,67.35767246626324 125.96867508199395,43.2189841859481 112.331063045082,67.85108069282387 C107.18212176048138,77.15103840993879 121.23120232279639,92.56543733544277 129.82823337078187,88.71308119543443 C139.0647221517767,84.57418024201127 124.85599650131252,75.60251538716915 129.82823337078187,70.54294483435245 C145.79997866675257,54.290670502840555 199.59231005628476,76.06545181052462 188.18519262452216,69.52683150483966 Z "
     id="path11581" />
  <path
     style="fill:none;stroke:#000000;stroke-width:1px;stroke-linecap:butt;stroke-linejoin:miter;stroke-opacity:1"
     d="M193.40924619592028,71.13089652243491 C197.2087929161725,73.27315431461636 263.3434450957146,98.53855163282236 277.3115396312338,73.30963808099767 C282.4605343215987,64.00961932872366 269.5151601715702,48.10068302621477 259.81436930553394,52.44766809596672 C250.5778957833289,56.58658430817968 264.81104312684755,65.58234279209586 259.81436930553394,70.61777393946915 C241.55281372013906,89.02098831455143 180.32540526389764,63.753973564627984 193.40924619592028,71.13089652243491 Z "
     id="path11583" />
  <path
     style="fill:none;stroke:#000000;stroke-width:1px;stroke-linecap:butt;stroke-linejoin:miter;stroke-opacity:1"
     d="M286.53983444211286,245.01461373532533 C284.0411999850552,240.51396883771827 281.5425578986026,236.01332012541377 279.04392344154496,231.5126790425042 C274.46568378317227,233.762999583959 269.8874364954047,236.01332012541377 265.309196837032,238.26364066686858 C265.309196837032,242.49269817974974 265.309196837032,246.72175187793346 265.309196837032,250.95080939081464 C269.8486410223706,253.39512637092713 274.3880852077092,255.83943953634216 278.9275293930478,258.2837565164547 C281.46496695253444,253.86071019431068 284.00239688262616,249.4376600574693 286.53983444211286,245.01461373532533 Z "
     id="path11585" />
  <path
     style="fill:none;stroke:#000000;stroke-width:1px;stroke-linecap:butt;stroke-linejoin:miter;stroke-opacity:1"
     d="M239.6945830410575,244.64214667661844 C242.14665911577683,240.2811769260265 244.59873519049614,235.92020336073708 247.05081126521546,231.5592336101451 C251.62905473828556,233.80956178099478 256.20729439665826,236.0598823224496 260.7855378697284,238.31021049329928 C260.7855378697284,242.539264191483 260.7855378697284,246.76831407496928 260.7855378697284,250.99736777315297 C256.2460936843898,253.44168475326546 251.7066494990512,255.88599791868052 247.16720531371263,258.330314898793 C244.67632995126178,253.76759342963396 242.18545840350836,249.20486814577748 239.6945830410575,244.64214667661844 Z "
     id="path11587" />
  <path
     style="fill:none;stroke:#000000;stroke-width:1px;stroke-linecap:butt;stroke-linejoin:miter;stroke-opacity:1"
     d="M262.8591311078672,234.73852453263768 C267.34627579120996,232.31194971035032 271.8334204745527,229.88537488806296 276.3205651578955,227.4588000657756 C274.04882127557937,222.89115000751528 271.77706976386844,218.32350757864984 269.50532588155227,213.75585752038953 C265.2763141450405,213.77567105892828 261.0473100379236,213.79547696807214 256.8182983014118,213.8152905066109 C254.39527496244742,218.36614063731543 251.97225543818047,222.91698313862508 249.5492320992161,227.46783326932965 C253.9858663736656,229.89139448063403 258.42250064811515,232.3149633213333 262.8591311078672,234.73852453263768 Z "
     id="path11589" />
  <path
     style="fill:none;stroke:#000000;stroke-width:1px;stroke-linecap:butt;stroke-linejoin:miter;stroke-opacity:1"
     d="M227.6389756264059,221.92939611661956 C232.12612030974867,224.35597093890692 236.61326880778887,226.78254576119429 241.10041349113166,229.20912058348165 C238.8286657941181,233.7767630123471 236.55691809710456,238.3444130706074 234.285170400091,242.91205931417028 C230.05616247827666,242.892249590329 225.82715264911357,242.87243605179023 221.5981428199505,242.85262632794894 C219.17512138833484,238.30178001194182 216.75209804937046,233.75092988123725 214.32907661775482,229.2000873799276 C218.7657108922043,226.77652616862323 223.2023413519564,224.35295732792395 227.6389756264059,221.92939611661956 Z "
     id="path11591" />
  <path
     style="fill:none;stroke:#000000;stroke-width:1px;stroke-linecap:butt;stroke-linejoin:miter;stroke-opacity:1"
     d="M204.4744304206193,212.02577015794134 C206.92650554166426,216.38673990853331 209.37858066270923,220.7477172885202 211.83065578375417,225.10868703911217 C216.40889925682427,222.85835886826246 220.98713891519697,220.60803832680767 225.56538238826707,218.357710155958 C225.56538238826707,214.1286602724717 225.56538238826707,209.89961038898542 225.56538238826707,205.67056050549917 C220.91279046195856,203.3426185003966 216.26020044299878,201.01466886589915 211.60760851669025,198.6867268607966 C209.22988280255805,203.13307716964314 206.85215708842588,207.5794198490948 204.4744304206193,212.02577015794134 Z "
     id="path11593" />
  <path
     style="fill:none;stroke:#000000;stroke-width:1px;stroke-linecap:butt;stroke-linejoin:miter;stroke-opacity:1"
     d="M251.31967896065157,211.6533030992345 C248.8210445035939,216.15395181153897 246.32241004653622,220.65460815323837 243.82377558947854,225.15525686554287 C239.2455321164084,222.90492869469315 234.66728482864085,220.65460815323837 230.08904135557074,218.4042799823887 C230.08904135557074,214.1752224695075 230.08904135557074,209.94617258602125 230.08904135557074,205.71711507314006 C234.59292111661267,203.6994910759409 239.09680087765463,201.68186707874173 243.60068063869656,199.66424308154254 C246.1736788077824,203.66059642077317 248.74668079156572,207.65694976000384 251.31967896065157,211.6533030992345 Z "
     id="path11595" />
  <path
     style="fill:none;stroke:#000000;stroke-width:1px;stroke-linecap:butt;stroke-linejoin:miter;stroke-opacity:1"
     d="M181.87598345491674,212.17448232320794 C179.47386942633273,216.38557261111458 177.07175635142303,220.59665526962638 174.66964327651337,224.80774555753305 C170.09139789609452,222.55741738668337 165.5131544230244,220.30709684522856 160.93490904260557,218.05676867437887 C160.93490904260557,213.8277111614977 160.93490904260557,209.59866127801143 160.93490904260557,205.36960376513028 C165.35848179299717,203.50441507790575 169.78205263604008,201.63921876128634 174.2056253864317,199.77403007406184 C176.7624110913686,203.90751415711054 179.3191967963055,208.04099824015924 181.87598345491674,212.17448232320794 Z "
     id="path11597" />
  <path
     style="fill:none;stroke:#000000;stroke-width:1px;stroke-linecap:butt;stroke-linejoin:miter;stroke-opacity:1"
     d="M135.32029906132848,211.67825884993155 C137.7723751360478,216.03922860052353 140.22444739606965,220.40020598051038 142.67652347078896,224.76117573110236 C147.2547669438591,222.51084756025267 151.83300660223176,220.26052701879786 156.4112500753019,218.01019884794817 C156.4112500753019,213.7811489644619 156.4112500753019,209.55209908097564 156.4112500753019,205.32304919748935 C151.65941116551963,203.07177498167286 146.90756844103993,200.82050076585637 142.15572953125766,198.56922655003984 C139.87725270794795,202.93890144020546 137.5987758846382,207.30858395976594 135.32029906132848,211.67825884993155 Z "
     id="path11599" />
  <path
     style="fill:none;stroke:#000000;stroke-width:1px;stroke-linecap:butt;stroke-linejoin:miter;stroke-opacity:1"
     d="M158.4848433134407,221.58188480860977 C162.97198990413222,224.00845963089714 167.45913458747498,226.4350344531845 171.9462811781665,228.86160927547186 C169.67453348115293,233.42925933373218 167.40278578413938,237.9969017625976 165.13103808712583,242.56455182085793 C160.9020301653115,242.54474209701664 156.67301842879965,242.52492855847788 152.4440105069853,242.50511883463656 C150.02098716802095,237.95426870393203 147.597967643754,233.40342620262237 145.17494430478962,228.8525760719178 C149.61157857923914,226.42901486061342 154.04820903899122,224.00544601991413 158.4848433134407,221.58188480860977 Z "
     id="path11601" />
  <path
     style="fill:none;stroke:#000000;stroke-width:1px;stroke-linecap:butt;stroke-linejoin:miter;stroke-opacity:1"
     d="M193.70499760280904,234.39101322462787 C198.19214252457041,231.9644384023405 202.67928720791318,229.53786358005314 207.16643189125597,227.11128875776578 C204.89468514791676,222.54363869950546 202.62293935825193,217.97599627064005 200.35119261491275,213.4083462123797 C196.12218326258687,213.42815975091847 191.89317438709816,213.44796566006232 187.66416503477222,213.46777919860108 C185.24114264948224,218.0186293293056 182.81812121786658,222.56947183061527 180.39509883257654,227.12032196131983 C184.8317321533517,229.54388317262422 189.2683645204525,231.9674520133235 193.70499760280904,234.39101322462787 Z "
     id="path11603" />
  <path
     style="fill:none;stroke:#000000;stroke-width:1px;stroke-linecap:butt;stroke-linejoin:miter;stroke-opacity:1"
     d="M170.5404507280923,244.2946391833061 C172.99252680281165,239.93366561801668 175.44460287753094,235.57269205272726 177.89667895225026,231.21172230213529 C182.47492051797167,233.46205047298497 187.05316208369305,235.71237101443978 191.63140436467023,237.96269918528947 C191.63140436467023,242.19175288347319 191.63140436467023,246.4208065816569 191.63140436467023,250.64986027984062 C187.09196041775022,253.0941772599531 182.55251718608602,255.53849042536817 178.01307300074743,257.9828074054807 C175.52219954564532,253.4200859363216 173.03132418319444,248.85736065246513 170.5404507280923,244.2946391833061 Z "
     id="path11605" />
  <path
     style="fill:none;stroke:#000000;stroke-width:1px;stroke-linecap:butt;stroke-linejoin:miter;stroke-opacity:1"
     d="M217.38570212914766,244.66710624201295 C214.88706385739255,240.16646134440592 212.38842749298615,235.66581644679889 209.8897901749054,231.1651677344944 C205.31154765550963,233.41548827594917 200.73330608978824,235.66580881740398 196.1550633319739,237.91612935885877 C196.1550633319739,242.14518687173995 196.1550633319739,246.3742443846211 196.1550633319739,250.60330189750226 C200.69450775573108,253.04761887761475 205.23395194106965,255.4919320430298 209.77339612640822,257.9362490231423 C212.3108308248718,253.51320270099833 214.84826647700973,249.09015256415694 217.38570212914766,244.66710624201295 Z "
     id="path11607" />
  <path
     style="fill:none;stroke:#000000;stroke-width:1px;stroke-linecap:butt;stroke-linejoin:miter;stroke-opacity:1"
     d="M124.81740702194057,233.82987123020163 C129.30455170528333,231.40329640791427 133.7916963886261,228.9767215856269 138.27884107196888,226.55014676333954 C136.00709337495533,221.9824967050792 133.73534949263922,217.4148542762138 131.46360179562566,212.84720421795348 C127.23459005911387,212.86701012709733 123.00558595199696,212.88681603624119 118.77657421548517,212.90662194538504 C116.35355469121822,217.45747207608957 113.9305275375564,222.00832983618903 111.50750801328947,226.5591799668936 C115.94413847304153,228.98274117819795 120.38077656218849,231.40631001889724 124.81740702194057,233.82987123020163 Z "
     id="path11609" />
  <path
     style="fill:none;stroke:#000000;stroke-width:1px;stroke-linecap:butt;stroke-linejoin:miter;stroke-opacity:1"
     d="M101.65285514043345,243.73349718887985 C104.1049350298502,239.37252362359044 106.55700728987206,235.011550058301 109.00908717928883,230.65058030770905 C113.5873268376615,232.90090847855873 118.16557412542906,235.15122902001355 122.74381378380173,237.40155719086323 C122.74381378380173,241.63061088904692 122.74381378380173,245.8596684019281 122.74381378380173,250.08872210011182 C118.20436959846316,252.5330390802243 113.66492541312456,254.97735224563934 109.125481227786,257.4216692257518 C106.63460586533515,252.85894394189535 104.1437305028843,248.29622247273633 101.65285514043345,243.73349718887985 Z "
     id="path11611" />
  <path
     style="fill:none;stroke:#000000;stroke-width:1px;stroke-linecap:butt;stroke-linejoin:miter;stroke-opacity:1"
     d="M148.4981103561862,244.1059642475867 C145.9994720844311,239.60531172058478 143.50083762737341,235.10465919358285 141.0021993556183,230.60401048127835 C136.4239558825482,232.85433865212804 131.84571622417553,235.10465919358285 127.2674727511054,237.35498736443253 C127.2674727511054,241.58404106261622 127.2674727511054,245.8130985754974 127.2674727511054,250.04215227368113 C131.806916936444,252.48646925379362 136.34636112178256,254.93078241920864 140.88580530712113,257.37509939932113 C143.42323905191034,252.9520530771772 145.960676611397,248.52901056973067 148.4981103561862,244.1059642475867 Z "
     id="path11613" />
  <path
     style="fill:none;stroke:#000000;stroke-width:1px;stroke-linecap:butt;stroke-linejoin:miter;stroke-opacity:1"
     d="M148.4981103561862,178.783306420806 C145.9994720844311,174.28265007910662 143.50083762737341,169.78200899619702 141.0021993556183,165.28135265449765 C136.4239558825482,167.53167319595244 131.84571622417553,169.78200899619702 127.2674727511054,172.03232953765183 C127.2674727511054,176.261387050533 127.2674727511054,180.49043693401924 127.2674727511054,184.7194944469004 C131.806916936444,187.16380761231545 136.34636112178256,189.6081284071254 140.88580530712113,192.05244157254043 C143.42323905191034,187.62939906509393 145.960676611397,183.2063489282525 148.4981103561862,178.783306420806 Z "
     id="path11615" />
  <path
     style="fill:none;stroke:#000000;stroke-width:1px;stroke-linecap:butt;stroke-linejoin:miter;stroke-opacity:1"
     d="M101.65285514043345,178.41083936209913 C104.1049350298502,174.04986198211228 106.55700728987206,169.6888998609152 109.00908717928883,165.32792248092835 C113.5873268376615,167.57824302238313 118.16557412542906,169.82857882262772 122.74381378380173,172.07889936408253 C122.74381378380173,176.3079568769637 122.74381378380173,180.53700676044994 122.74381378380173,184.7660642733311 C118.20436959846316,187.21037743874615 113.66492541312456,189.6546982335561 109.125481227786,192.09901139897113 C106.63460586533515,187.5362899298121 104.1437305028843,182.97356083125817 101.65285514043345,178.41083936209913 Z "
     id="path11617" />
  <path
     style="fill:none;stroke:#000000;stroke-width:1px;stroke-linecap:butt;stroke-linejoin:miter;stroke-opacity:1"
     d="M124.81740702194057,168.5072134034209 C129.30455170528333,166.08063858113354 133.7916963886261,163.65406375884618 138.27884107196888,161.2274889365588 C136.00709337495533,156.6598465076934 133.73534949263922,152.0921888200382 131.46360179562566,147.52454639117275 C127.23459005911387,147.54435230031663 123.00558595199696,147.56415820946046 118.77657421548517,147.58396411860434 C116.35355469121822,152.13482187870378 113.9305275375564,156.68566438001343 111.50750801328947,161.23652214011287 C115.94413847304153,163.66009098081216 120.38077656218849,166.08364456272164 124.81740702194057,168.5072134034209 Z "
     id="path11619" />
  <path
     style="fill:none;stroke:#000000;stroke-width:1px;stroke-linecap:butt;stroke-linejoin:miter;stroke-opacity:1"
     d="M217.38570403649638,179.34443315644245 C214.88706576474127,174.84379207353288 212.38842749298615,170.34315099062326 209.8897901749054,165.8425099077137 C205.31154765550963,168.09283044916847 200.73330608978824,170.34313573183348 196.15506428564825,172.59345627328827 C196.15506428564825,176.82251378616945 196.15506428564825,181.0515636696557 196.15506428564825,185.2806211825369 C200.69450870940543,187.72493434795192 205.23395194106965,190.16925514276187 209.77339612640822,192.61356830817692 C212.31083273222052,188.1905258007304 214.84826838435845,183.76747566388897 217.38570403649638,179.34443315644245 Z "
     id="path11621" />
  <path
     style="fill:none;stroke:#000000;stroke-width:1px;stroke-linecap:butt;stroke-linejoin:miter;stroke-opacity:1"
     d="M170.54045263544106,178.97196609773562 C172.99252871016037,174.61098871774874 175.4446047848797,170.25002659655166 177.89668085959897,165.88904921656479 C182.4749224253204,168.1393697580196 187.0531639910418,170.38970555826418 191.6314053183446,172.64002609971897 C191.6314053183446,176.86908361260015 191.6314053183446,181.0981334960864 191.6314053183446,185.3271910089676 C187.0919613714246,187.7715041743826 182.55251813976037,190.21582496919257 178.0130739544218,192.66013813460762 C175.52219954564532,188.09741666544858 173.0313260905432,183.53468756689463 170.54045263544106,178.97196609773562 Z "
     id="path11623" />
  <path
     style="fill:none;stroke:#000000;stroke-width:1px;stroke-linecap:butt;stroke-linejoin:miter;stroke-opacity:1"
     d="M193.70499876509967,169.0683401390574 C198.19214347824476,166.64176531677003 202.67928720791318,164.21519049448267 207.16643189125597,161.7886156721953 C204.89468514791676,157.22097324332987 202.62293935825193,152.65331555567465 200.35119356858712,148.08567312680924 C196.1221846930984,148.10549429474287 191.89317677128406,148.12530020388672 187.66416789579534,148.14512137182038 C185.2411455105053,152.69596387313004 182.8181231252153,157.2468063744397 180.39510073992528,161.79764887574936 C184.83173406070043,164.22121771644862 189.26836595096404,166.6447712983581 193.70499876509967,169.0683401390574 Z "
     id="path11625" />
  <path
     style="fill:none;stroke:#000000;stroke-width:1px;stroke-linecap:butt;stroke-linejoin:miter;stroke-opacity:1"
     d="M158.4848433134407,156.25922698182904 C162.97198990413222,158.6858018041164 167.4591364948237,161.11237662640377 171.94628308551518,163.53895144869114 C169.67453538850165,168.10659387755658 167.4027876914881,172.6742515652118 165.13103999447455,177.2418939940772 C160.9020301653115,177.22208045553847 156.67302224349712,177.20225928760482 152.4440105069853,177.18244574906606 C150.02098716802095,172.6316032477564 147.597967643754,168.08076074644674 145.17494430478962,163.52991824513708 C149.61157857923914,161.10634940443782 154.04820903899122,158.68279582252833 158.4848433134407,156.25922698182904 Z "
     id="path11627" />
  <path
     style="fill:none;stroke:#000000;stroke-width:1px;stroke-linecap:butt;stroke-linejoin:miter;stroke-opacity:1"
     d="M135.32029906132848,146.35560102315083 C137.7723751360478,150.7165784031377 140.22444739606965,155.07754052433478 142.67652347078896,159.43851790432166 C147.2547669438591,157.18819736286684 151.83300660223176,154.93786156262226 156.4112500753019,152.68754102116748 C156.4112500753019,148.4584911376812 156.4112500753019,144.22942599540514 156.4112500753019,140.00037611191885 C151.65940735082216,137.74910952549726 146.90756844103993,135.49782768028587 142.15572571656023,133.24656109386427 C139.8772488932505,137.61623598402986 137.5987758846382,141.98592613298524 135.32029906132848,146.35560102315083 Z "
     id="path11629" />
  <path
     style="fill:none;stroke:#000000;stroke-width:1px;stroke-linecap:butt;stroke-linejoin:miter;stroke-opacity:1"
     d="M181.87598154756802,146.8518168670323 C179.47386942633273,151.062907154939 177.07175825877175,155.27399744284565 174.6696451838621,159.48508773075235 C170.09139980344324,157.23476718929754 165.5131544230244,154.98443138905296 160.93490904260557,152.73411084759817 C160.93490904260557,148.5050609641119 160.93490904260557,144.27599582183583 160.93490904260557,140.04694593834955 C165.35848179299717,138.18175725112505 169.78205263604008,136.31655330511074 174.2056253864317,134.4513646178862 C176.7624110913686,138.5848487009349 179.31919584263113,142.7183327839836 181.87598154756802,146.8518168670323 Z "
     id="path11631" />
  <path
     style="fill:none;stroke:#000000;stroke-width:1px;stroke-linecap:butt;stroke-linejoin:miter;stroke-opacity:1"
     d="M251.31967896065157,146.33063764305888 C248.8210445035939,150.83129398475828 246.32241004653622,155.33193506766787 243.82377558947854,159.83259140936724 C239.2455321164084,157.58227086791246 234.66728482864085,155.33193506766787 230.08904135557074,153.08161452621306 C230.08904135557074,148.8525646427268 230.08904135557074,144.62349950045075 230.08904135557074,140.3944496169645 C234.59292111661267,138.3768256197653 239.09680087765463,136.35918636377633 243.60068063869656,134.34156236657714 C246.1736788077824,138.3379157058078 248.74668079156572,142.33428430382824 251.31967896065157,146.33063764305888 Z "
     id="path11633" />
  <path
     style="fill:none;stroke:#000000;stroke-width:1px;stroke-linecap:butt;stroke-linejoin:miter;stroke-opacity:1"
     d="M204.4744304206193,146.70310470176577 C206.92650649533863,151.06408208175262 209.37858161638357,155.4250442029497 211.83065769110289,159.78602158293654 C216.40889925682427,157.53570104148176 220.9871427298944,155.28536524123717 225.5653842956158,153.03504469978236 C225.5653842956158,148.8059948162961 225.5653842956158,144.57692967402005 225.5653842956158,140.3478797905338 C220.91279236930728,138.01993778543124 216.2602023503475,135.69199578032868 211.60761042403897,133.36405377522613 C209.22988375623243,137.81040408407267 206.85215708842588,142.25675439291922 204.4744304206193,146.70310470176577 Z "
     id="path11635" />
  <path
     style="fill:none;stroke:#000000;stroke-width:1px;stroke-linecap:butt;stroke-linejoin:miter;stroke-opacity:1"
     d="M227.6389756264059,156.606730660444 C232.12612030974867,159.03330548273135 236.61326880778887,161.45988030501871 241.10041349113166,163.88645512730608 C238.8286657941181,168.4540975561715 236.55691809710456,173.0217552438267 234.285170400091,177.58939767269214 C230.05616247827666,177.5695841341534 225.8271545564623,177.54976296621973 221.59814472729923,177.529949427681 C219.17512329568356,172.97910692637134 216.75209995671918,168.42826442506168 214.32907852510354,163.87742192375202 C218.7657108922043,161.45385308305273 223.2023432593051,159.03029950114325 227.6389756264059,156.606730660444 Z "
     id="path11637" />
  <path
     style="fill:none;stroke:#000000;stroke-width:1px;stroke-linecap:butt;stroke-linejoin:miter;stroke-opacity:1"
     d="M262.8591311078672,169.41584381767228 C267.34627579120996,166.98926899538492 271.8334204745527,164.56269417309755 276.3205651578955,162.1361193508102 C274.04882127557937,157.56847692194478 271.77706976386844,153.00081923428957 269.50532588155227,148.43317680542413 C265.2763141450405,148.45299797335778 261.0473100379236,148.47280388250164 256.8182983014118,148.49262505043527 C254.39527496244742,153.04346755174493 251.97225543818047,157.59431005305458 249.5492320992161,162.14515255436424 C253.9858663736656,164.56872139506353 258.42250064811515,166.99227497697302 262.8591311078672,169.41584381767228 Z "
     id="path11639" />
  <path
     style="fill:none;stroke:#000000;stroke-width:1px;stroke-linecap:butt;stroke-linejoin:miter;stroke-opacity:1"
     d="M239.6945830410575,179.3194697763505 C242.14665911577683,174.95849239636365 244.59873519049614,170.59753027516658 247.05081126521546,166.23655289517973 C251.62905473828556,168.4868734366345 256.20729439665826,170.7372092368791 260.7855378697284,172.9875297783339 C260.7855378697284,177.21658729121506 260.7855378697284,181.44563717470132 260.7855378697284,185.67469468758247 C256.2460936843898,188.11900785299753 251.7066494990512,190.56332864780748 247.16720531371263,193.0076418132225 C244.67632995126178,188.4449203440635 242.18545840350836,183.88219124550955 239.6945830410575,179.3194697763505 Z "
     id="path11641" />
  <path
     style="fill:none;stroke:#000000;stroke-width:1px;stroke-linecap:butt;stroke-linejoin:miter;stroke-opacity:1"
     d="M286.53983444211286,179.6919368350574 C284.0411999850552,175.19129575214777 281.5425578986026,170.6906546692382 279.04392344154496,166.19001358632858 C274.46568378317227,168.4403341277834 269.8874364954047,170.6906394104484 265.309196837032,172.9409599519032 C265.309196837032,177.17002509417927 265.309196837032,181.39909023645532 265.309196837032,185.62815537873138 C269.8486410223706,188.0724685441464 274.3880852077092,190.51678933895636 278.9275293930478,192.9611025043714 C281.46496695253444,188.53804473813508 284.00239688262616,184.1149946012937 286.53983444211286,179.6919368350574 Z "
     id="path11643" />
  <path
     style="fill:none;stroke:#000000;stroke-width:1px;stroke-linecap:butt;stroke-linejoin:miter;stroke-opacity:1"
     d="M262.3850786561517,188.57316284283047 C266.87222333949444,190.99973766511783 271.35937565223213,193.4263124874052 275.8465203355749,195.85288730969256 C273.5747688238639,200.42053736795287 271.3030249415478,204.9881797968183 269.0312734298368,209.55582985507863 C264.802261693325,209.53601631653987 260.5732575862081,209.51619514860622 256.3442458496963,209.4963816100675 C253.92122251073192,204.94553910875783 251.49820298646497,200.39469660744817 249.0751796475006,195.8438541061385 C253.5118139219501,193.42029289483412 257.9484443817022,190.99672405413483 262.3850786561517,188.57316284283047 Z "
     id="path11645" />
  <path
     style="fill:none;stroke:#000000;stroke-width:1px;stroke-linecap:butt;stroke-linejoin:miter;stroke-opacity:1"
     d="M193.58779603054612,188.57317047222534 C198.07494357491197,190.9997452945127 202.56209016560345,193.42632011680007 207.0492377099693,195.85289493908743 C204.77748810560703,200.42054499734775 202.5057404085935,204.9881874262132 200.2339908042312,209.5558374844735 C196.00498145190534,209.53602394593474 191.77597257641662,209.51620277800112 187.54696322409072,209.49638923946236 C185.1239408388007,204.9455467381527 182.70091940718504,200.39470423684304 180.277897021895,195.84386173553338 C184.71453034267017,193.420300524229 189.15116270977097,190.99673168352973 193.58779603054612,188.57317047222534 Z "
     id="path11647" />
  <path
     style="fill:none;stroke:#000000;stroke-width:1px;stroke-linecap:butt;stroke-linejoin:miter;stroke-opacity:1"
     d="M124.79051340494053,188.57317810162024 C129.2776580882833,190.9997529239076 133.76480658632352,193.42632774619497 138.25195508436371,195.85290256848234 C135.98020738735016,200.42055262674265 133.70845587563917,204.9881950556081 131.43670817862562,209.5558451138684 C127.20769644211384,209.53603157532964 122.97869233499694,209.51621040739602 118.74968059848513,209.49639686885726 C116.3266610742182,204.9455543675476 113.90363392055636,200.39471186623794 111.48061439628944,195.84386936492828 C115.91724485604149,193.4203081536239 120.35388294518846,190.99673931292463 124.79051340494053,188.57317810162024 Z "
     id="path11649" />
  <path
     style="fill:none;stroke:#000000;stroke-width:1px;stroke-linecap:butt;stroke-linejoin:miter;stroke-opacity:1"
     d="M227.7561783907618,202.77206183267162 C232.24332307410458,200.34548701038426 236.73046775744734,197.9189121880969 241.2176124407901,195.49233736580953 C238.94586474377655,190.92468730754922 236.67412086146044,186.35704487868378 234.4023731644469,181.78939482042347 C230.17336524263254,181.80920835896222 225.9443573208182,181.82902952689585 221.7153474916551,181.8488430654346 C219.29232606003947,186.39968556674427 216.8693027210751,190.95052806805393 214.44628128945942,195.5013705693636 C218.88291365656022,197.92493178066798 223.31954602366102,200.34850062136724 227.7561783907618,202.77206183267162 Z "
     id="path11651" />
  <path
     style="fill:none;stroke:#000000;stroke-width:1px;stroke-linecap:butt;stroke-linejoin:miter;stroke-opacity:1"
     d="M158.26397233127022,202.4246039304261 C162.751117014613,199.99802910813872 167.23826169795575,197.57145428585136 171.7254063812985,195.144879463564 C169.4536605916337,190.57722940530365 167.18191289462015,186.00958697643824 164.91016710495532,181.44193691817793 C160.68115918314098,181.46175045671666 156.45214744662917,181.48157162465031 152.22313952481483,181.50138516318907 C149.80011618585044,186.05222766449873 147.3770966615835,190.6030701658084 144.95407332261914,195.15391266711805 C149.39070759706863,197.5774738784224 153.8273380568207,200.0010427191217 158.26397233127022,202.4246039304261 Z "
     id="path11653" />
  <path
     style="fill:none;stroke:#000000;stroke-width:1px;stroke-linecap:butt;stroke-linejoin:miter;stroke-opacity:1"
     d="M193.9189995069708,103.06038717474644 C198.40614419031357,100.63381235245907 202.89328887365633,98.20723753017171 207.3804335569991,95.78066270788435 C205.10868681365992,91.2130202790189 202.83694102399508,86.64536259136372 200.5651942806559,82.07772016249828 C196.33618540516719,82.09754133043191 192.1071774833528,82.11734723957579 187.8781686078641,82.13716840750942 C185.4551462225741,86.68801090881908 183.03212479095845,91.23885341012874 180.6091024056684,95.7896959114384 C185.0457347727692,98.21326475213766 189.48236713987,100.63681833404718 193.9189995069708,103.06038717474644 Z "
     id="path11655" />
  <path
     style="fill:none;stroke:#000000;stroke-width:1px;stroke-linecap:butt;stroke-linejoin:miter;stroke-opacity:1"
     d="M217.48250007686056,111.94161318251952 C214.98386561980288,116.44226952421889 212.4852311627452,120.94291060712851 209.98659670568753,125.44356694882788 C205.4083513252687,123.19324640737307 200.8301073753614,120.94291060712851 196.25186247177973,118.6925900656737 C196.25186247177973,114.46354018218744 196.25186247177973,110.23447503991139 196.25186247177973,106.0054251564251 C200.75574223282166,103.98780115922591 205.25962199386362,101.97019242081655 209.76350175490555,99.95256842361735 C212.33650183134012,103.94892176284799 214.90950000042596,107.94525984328885 217.48250007686056,111.94161318251952 Z "
     id="path11657" />
  <path
     style="fill:none;stroke:#000000;stroke-width:1px;stroke-linecap:butt;stroke-linejoin:miter;stroke-opacity:1"
     d="M170.63725249050265,112.31408024122638 C173.08932665787324,116.67505762121323 175.54140273259256,121.0360197424103 177.99347689996316,125.39699712239718 C182.5717194193589,123.14667658094237 187.14996098508033,120.89634078069781 191.72820350447608,118.646020239243 C191.72820350447608,114.41697035575675 191.72820350447608,110.18793573106024 191.72820350447608,105.95888584757398 C187.07561205500474,103.63094384247142 182.42302155920777,101.30298657857907 177.77042963289927,98.97504457347651 C175.39270391876704,103.42139488232306 173.01497820463487,107.86772993237983 170.63725249050265,112.31408024122638 Z "
     id="path11659" />
  <path
     style="fill:none;stroke:#000000;stroke-width:1px;stroke-linecap:butt;stroke-linejoin:miter;stroke-opacity:1"
     d="M193.8017967426149,122.2177061999046 C198.2889428564692,124.64428102219196 202.77608801664917,127.07085584447933 207.26323460734065,129.4974306667667 C204.9914869103271,134.0650730956321 202.71973921331355,138.63273078328734 200.44799151630002,143.20037321215275 C196.2189821639741,143.1805673030089 191.98997328848537,143.16074613507527 187.7609639361595,143.1409402259314 C185.33794155086946,138.59009772462173 182.91492011925382,134.0392399645223 180.4918977339638,129.48839746321264 C184.92853105473895,127.06482862251335 189.36516342183972,124.64127504060389 193.8017967426149,122.2177061999046 Z "
     id="path11661" />
</svg>
