  0
SECTION
  2
HEADER
  9
$ACADVER
  1
AC1014
  9
$HANDSEED
  5
FFFF
  9
$MEASUREMENT
 70
     1
  0
ENDSEC
  0
SECTION
  2
TABLES
  0
TABLE
  2
VPORT
  5
8
330
0
100
AcDbSymbolTable
 70
     4
  0
VPORT
  5
2E
330
8
100
AcDbSymbolTableRecord
100
AcDbViewportTableRecord
  2
*ACTIVE
 70
     0
 10
0.0
 20
0.0
 11
1.0
 21
1.0
 12
210.0
 22
148.5
 13
0.0
 23
0.0
 14
10.0
 24
10.0
 15
10.0
 25
10.0
 16
0.0
 26
0.0
 36
1.0
 17
0.0
 27
0.0
 37
0.0
 40
341.0
 41
1.24
 42
50.0
 43
0.0
 44
0.0
 50
0.0
 51
0.0
 71
     0
 72
   100
 73
     1
 74
     3
 75
     0
 76
     0
 77
     0
 78
     0
  0
ENDTAB
  0
TABLE
  2
LTYPE
  5
5
330
0
100
AcDbSymbolTable
 70
     1
  0
LTYPE
  5
14
330
5
100
AcDbSymbolTableRecord
100
AcDbLinetypeTableRecord
  2
BYBLOCK
 70
     0
  3

 72
    65
 73
     0
 40
0.0
  0
LTYPE
  5
15
330
5
100
AcDbSymbolTableRecord
100
AcDbLinetypeTableRecord
  2
BYLAYER
 70
     0
  3

 72
    65
 73
     0
 40
0.0
  0
LTYPE
  5
16
330
5
100
AcDbSymbolTableRecord
100
AcDbLinetypeTableRecord
  2
CONTINUOUS
 70
     0
  3
Solid line
 72
    65
 73
     0
 40
0.0
  0
ENDTAB
  0
TABLE
  2
LAYER
  5
2
100
AcDbSymbolTable
 70
1
  0
LAYER
  5
50
100
AcDbSymbolTableRecord
100
AcDbLayerTableRecord
  2
0
 70
0
  6
CONTINUOUS
  0
ENDTAB
  0
TABLE
  2
STYLE
  5
3
330
0
100
AcDbSymbolTable
 70
     1
  0
STYLE
  5
11
330
3
100
AcDbSymbolTableRecord
100
AcDbTextStyleTableRecord
  2
STANDARD
 70
     0
 40
0.0
 41
1.0
 50
0.0
 71
     0
 42
2.5
  3
txt
  4

  0
ENDTAB
  0
TABLE
  2
VIEW
  5
6
330
0
100
AcDbSymbolTable
 70
     0
  0
ENDTAB
  0
TABLE
  2
UCS
  5
7
330
0
100
AcDbSymbolTable
 70
     0
  0
ENDTAB
  0
TABLE
  2
APPID
  5
9
330
0
100
AcDbSymbolTable
 70
     2
  0
APPID
  5
12
330
9
100
AcDbSymbolTableRecord
100
AcDbRegAppTableRecord
  2
ACAD
 70
     0
  0
ENDTAB
  0
TABLE
  2
DIMSTYLE
  5
A
330
0
100
AcDbSymbolTable
 70
     1
  0
DIMSTYLE
105
27
330
A
100
AcDbSymbolTableRecord
100
AcDbDimStyleTableRecord
  2
ISO-25
 70
     0
  3

  4

  5

  6

  7

 40
1.0
 41
2.5
 42
0.625
 43
3.75
 44
1.25
 45
0.0
 46
0.0
 47
0.0
 48
0.0
140
2.5
141
2.5
142
0.0
143
0.03937007874016
144
1.0
145
0.0
146
1.0
147
0.625
 71
     0
 72
     0
 73
     0
 74
     0
 75
     0
 76
     0
 77
     1
 78
     8
170
     0
171
     3
172
     1
173
     0
174
     0
175
     0
176
     0
177
     0
178
     0
270
     2
271
     2
272
     2
273
     2
274
     3
340
11
275
     0
280
     0
281
     0
282
     0
283
     0
284
     8
285
     0
286
     0
287
     3
288
     0
  0
ENDTAB
  0
TABLE
  2
BLOCK_RECORD
  5
1
330
0
100
AcDbSymbolTable
 70
     1
  0
BLOCK_RECORD
  5
1F
330
1
100
AcDbSymbolTableRecord
100
AcDbBlockTableRecord
  2
*MODEL_SPACE
  0
BLOCK_RECORD
  5
1B
330
1
100
AcDbSymbolTableRecord
100
AcDbBlockTableRecord
  2
*PAPER_SPACE
  0
ENDTAB
  0
ENDSEC
  0
SECTION
  2
BLOCKS
  0
BLOCK
  5
20
330
1F
100
AcDbEntity
  8
0
100
AcDbBlockBegin
  2
*MODEL_SPACE
 70
     0
 10
0.0
 20
0.0
 30
0.0
  3
*MODEL_SPACE
  1

  0
ENDBLK
  5
21
330
1F
100
AcDbEntity
  8
0
100
AcDbBlockEnd
  0
BLOCK
  5
1C
330
1B
100
AcDbEntity
 67
     1
  8
0
100
AcDbBlockBegin
  2
*PAPER_SPACE
  1

  0
ENDBLK
  5
1D
330
1B
100
AcDbEntity
 67
     1
  8
0
100
AcDbBlockEnd
  0
ENDSEC
  0
SECTION
  2
ENTITIES
  0
LWPOLYLINE
  5
100
100
AcDbEntity
  8
0
 62
7
100
AcDbPolyline
 90
34
 70
1
 10
0.657896
 20
2.400009
 30
0.0
 10
0.657896
 20
227.006370
 30
0.0
 10
8.592498
 20
234.941014
 30
0.0
 10
8.592498
 20
242.398827
 30
0.0
 10
11.251446
 20
242.398827
 30
0.0
 10
11.251446
 20
239.998607
 30
0.0
 10
31.086725
 20
239.998607
 30
0.0
 10
31.086725
 20
242.398827
 30
0.0
 10
33.724845
 20
242.398827
 30
0.0
 10
33.724845
 20
237.599974
 30
0.0
 10
122.790896
 20
237.599974
 30
0.0
 10
122.790896
 20
242.398827
 30
0.0
 10
125.429016
 20
242.398827
 30
0.0
 10
125.429016
 20
239.998607
 30
0.0
 10
145.264296
 20
239.998607
 30
0.0
 10
145.264296
 20
242.398827
 30
0.0
 10
147.923240
 20
242.398827
 30
0.0
 10
147.923240
 20
234.941014
 30
0.0
 10
155.857888
 20
227.006321
 30
0.0
 10
155.857888
 20
2.400009
 30
0.0
 10
155.197440
 20
2.400009
 30
0.0
 10
155.197440
 20
0.000009
 30
0.0
 10
147.997432
 20
0.000009
 30
0.0
 10
147.997432
 20
2.400009
 30
0.0
 10
138.158544
 20
2.400009
 30
0.0
 10
120.301160
 20
22.277977
 30
0.0
 10
36.214606
 20
22.277977
 30
0.0
 10
18.357232
 20
2.400009
 30
0.0
 10
8.518303
 20
2.400009
 30
0.0
 10
8.518303
 20
0.000009
 30
0.0
 10
1.318303
 20
0.000009
 30
0.0
 10
1.318303
 20
2.400009
 30
0.0
 10
0.657896
 20
2.400009
 30
0.0
 10
0.657896
 20
2.400009
 30
0.0
  0
LWPOLYLINE
  5
101
100
AcDbEntity
  8
0
 62
7
100
AcDbPolyline
 90
6
 70
1
 10
38.568592
 20
116.947897
 30
0.0
 10
56.471251
 20
116.947897
 30
0.0
 10
56.471251
 20
113.383209
 30
0.0
 10
38.251731
 20
113.383209
 30
0.0
 10
38.251731
 20
116.947897
 30
0.0
 10
38.568592
 20
116.947897
 30
0.0
  0
LWPOLYLINE
  5
102
100
AcDbEntity
  8
0
 62
7
100
AcDbPolyline
 90
6
 70
1
 10
60.907310
 20
116.987505
 30
0.0
 10
67.601002
 20
116.987505
 30
0.0
 10
67.601002
 20
113.422817
 30
0.0
 10
60.630057
 20
113.422817
 30
0.0
 10
60.630057
 20
116.987505
 30
0.0
 10
60.907310
 20
116.987505
 30
0.0
  0
LWPOLYLINE
  5
103
100
AcDbEntity
  8
0
 62
7
100
AcDbPolyline
 90
6
 70
1
 10
82.533088
 20
117.066721
 30
0.0
 10
89.226784
 20
117.066721
 30
0.0
 10
89.226784
 20
113.502033
 30
0.0
 10
82.255840
 20
113.502033
 30
0.0
 10
82.255840
 20
117.066721
 30
0.0
 10
82.533088
 20
117.066721
 30
0.0
  0
LWPOLYLINE
  5
104
100
AcDbEntity
  8
0
 62
7
100
AcDbPolyline
 90
6
 70
1
 10
71.680591
 20
117.027113
 30
0.0
 10
78.374284
 20
117.027113
 30
0.0
 10
78.374284
 20
113.462425
 30
0.0
 10
71.403338
 20
113.462425
 30
0.0
 10
71.403338
 20
117.027113
 30
0.0
 10
71.680591
 20
117.027113
 30
0.0
  0
LWPOLYLINE
  5
105
100
AcDbEntity
  8
0
 62
7
100
AcDbPolyline
 90
6
 70
1
 10
93.623232
 20
117.145937
 30
0.0
 10
100.316928
 20
117.145937
 30
0.0
 10
100.316928
 20
113.581249
 30
0.0
 10
93.345984
 20
113.581249
 30
0.0
 10
93.345984
 20
117.145937
 30
0.0
 10
93.623232
 20
117.145937
 30
0.0
  0
LWPOLYLINE
  5
106
100
AcDbEntity
  8
0
 62
7
100
AcDbPolyline
 90
6
 70
1
 10
38.568592
 20
116.947897
 30
0.0
 10
56.471251
 20
116.947897
 30
0.0
 10
56.471251
 20
113.383209
 30
0.0
 10
38.251731
 20
113.383209
 30
0.0
 10
38.251731
 20
116.947897
 30
0.0
 10
38.568592
 20
116.947897
 30
0.0
  0
LWPOLYLINE
  5
107
100
AcDbEntity
  8
0
 62
7
100
AcDbPolyline
 90
6
 70
1
 10
82.533088
 20
117.066721
 30
0.0
 10
89.226784
 20
117.066721
 30
0.0
 10
89.226784
 20
113.502033
 30
0.0
 10
82.255840
 20
113.502033
 30
0.0
 10
82.255840
 20
117.066721
 30
0.0
 10
82.533088
 20
117.066721
 30
0.0
  0
LWPOLYLINE
  5
108
100
AcDbEntity
  8
0
 62
7
100
AcDbPolyline
 90
6
 70
1
 10
71.680591
 20
117.027113
 30
0.0
 10
78.374284
 20
117.027113
 30
0.0
 10
78.374284
 20
113.462425
 30
0.0
 10
71.403338
 20
113.462425
 30
0.0
 10
71.403338
 20
117.027113
 30
0.0
 10
71.680591
 20
117.027113
 30
0.0
  0
LWPOLYLINE
  5
109
100
AcDbEntity
  8
0
 62
7
100
AcDbPolyline
 90
6
 70
1
 10
93.623232
 20
117.145937
 30
0.0
 10
100.316928
 20
117.145937
 30
0.0
 10
100.316928
 20
113.581249
 30
0.0
 10
93.345984
 20
113.581249
 30
0.0
 10
93.345984
 20
117.145937
 30
0.0
 10
93.623232
 20
117.145937
 30
0.0
  0
LWPOLYLINE
  5
10a
100
AcDbEntity
  8
0
 62
7
100
AcDbPolyline
 90
6
 70
1
 10
38.568592
 20
116.947897
 30
0.0
 10
56.471251
 20
116.947897
 30
0.0
 10
56.471251
 20
113.383209
 30
0.0
 10
38.251731
 20
113.383209
 30
0.0
 10
38.251731
 20
116.947897
 30
0.0
 10
38.568592
 20
116.947897
 30
0.0
  0
LWPOLYLINE
  5
10b
100
AcDbEntity
  8
0
 62
7
100
AcDbPolyline
 90
6
 70
1
 10
60.907310
 20
116.987505
 30
0.0
 10
67.601002
 20
116.987505
 30
0.0
 10
67.601002
 20
113.422817
 30
0.0
 10
60.630057
 20
113.422817
 30
0.0
 10
60.630057
 20
116.987505
 30
0.0
 10
60.907310
 20
116.987505
 30
0.0
  0
LWPOLYLINE
  5
10c
100
AcDbEntity
  8
0
 62
7
100
AcDbPolyline
 90
6
 70
1
 10
82.533088
 20
117.066721
 30
0.0
 10
89.226784
 20
117.066721
 30
0.0
 10
89.226784
 20
113.502033
 30
0.0
 10
82.255840
 20
113.502033
 30
0.0
 10
82.255840
 20
117.066721
 30
0.0
 10
82.533088
 20
117.066721
 30
0.0
  0
LWPOLYLINE
  5
10d
100
AcDbEntity
  8
0
 62
7
100
AcDbPolyline
 90
6
 70
1
 10
71.680591
 20
117.027113
 30
0.0
 10
78.374284
 20
117.027113
 30
0.0
 10
78.374284
 20
113.462425
 30
0.0
 10
71.403338
 20
113.462425
 30
0.0
 10
71.403338
 20
117.027113
 30
0.0
 10
71.680591
 20
117.027113
 30
0.0
  0
LWPOLYLINE
  5
10e
100
AcDbEntity
  8
0
 62
7
100
AcDbPolyline
 90
6
 70
1
 10
93.623232
 20
117.145937
 30
0.0
 10
100.316928
 20
117.145937
 30
0.0
 10
100.316928
 20
113.581249
 30
0.0
 10
93.345984
 20
113.581249
 30
0.0
 10
93.345984
 20
117.145937
 30
0.0
 10
93.623232
 20
117.145937
 30
0.0
  0
LWPOLYLINE
  5
10f
100
AcDbEntity
  8
0
 62
7
100
AcDbPolyline
 90
6
 70
1
 10
38.568592
 20
116.947897
 30
0.0
 10
56.471251
 20
116.947897
 30
0.0
 10
56.471251
 20
113.383209
 30
0.0
 10
38.251731
 20
113.383209
 30
0.0
 10
38.251731
 20
116.947897
 30
0.0
 10
38.568592
 20
116.947897
 30
0.0
  0
LWPOLYLINE
  5
110
100
AcDbEntity
  8
0
 62
7
100
AcDbPolyline
 90
6
 70
1
 10
82.533088
 20
117.066721
 30
0.0
 10
89.226784
 20
117.066721
 30
0.0
 10
89.226784
 20
113.502033
 30
0.0
 10
82.255840
 20
113.502033
 30
0.0
 10
82.255840
 20
117.066721
 30
0.0
 10
82.533088
 20
117.066721
 30
0.0
  0
LWPOLYLINE
  5
111
100
AcDbEntity
  8
0
 62
7
100
AcDbPolyline
 90
6
 70
1
 10
71.680591
 20
117.027113
 30
0.0
 10
78.374284
 20
117.027113
 30
0.0
 10
78.374284
 20
113.462425
 30
0.0
 10
71.403338
 20
113.462425
 30
0.0
 10
71.403338
 20
117.027113
 30
0.0
 10
71.680591
 20
117.027113
 30
0.0
  0
LWPOLYLINE
  5
112
100
AcDbEntity
  8
0
 62
7
100
AcDbPolyline
 90
6
 70
1
 10
93.623232
 20
117.145937
 30
0.0
 10
100.316928
 20
117.145937
 30
0.0
 10
100.316928
 20
113.581249
 30
0.0
 10
93.345984
 20
113.581249
 30
0.0
 10
93.345984
 20
117.145937
 30
0.0
 10
93.623232
 20
117.145937
 30
0.0
  0
LWPOLYLINE
  5
113
100
AcDbEntity
  8
0
 62
7
100
AcDbPolyline
 90
6
 70
1
 10
38.466057
 20
87.930489
 30
0.0
 10
56.368716
 20
87.930489
 30
0.0
 10
56.368716
 20
84.365801
 30
0.0
 10
38.149196
 20
84.365801
 30
0.0
 10
38.149196
 20
87.930489
 30
0.0
 10
38.466057
 20
87.930489
 30
0.0
  0
LWPOLYLINE
  5
114
100
AcDbEntity
  8
0
 62
7
100
AcDbPolyline
 90
6
 70
1
 10
60.804774
 20
87.970097
 30
0.0
 10
67.498467
 20
87.970097
 30
0.0
 10
67.498467
 20
84.405409
 30
0.0
 10
60.527522
 20
84.405409
 30
0.0
 10
60.527522
 20
87.970097
 30
0.0
 10
60.804774
 20
87.970097
 30
0.0
  0
LWPOLYLINE
  5
115
100
AcDbEntity
  8
0
 62
7
100
AcDbPolyline
 90
6
 70
1
 10
82.430552
 20
88.049313
 30
0.0
 10
89.124248
 20
88.049313
 30
0.0
 10
89.124248
 20
84.484625
 30
0.0
 10
82.153304
 20
84.484625
 30
0.0
 10
82.153304
 20
88.049313
 30
0.0
 10
82.430552
 20
88.049313
 30
0.0
  0
LWPOLYLINE
  5
116
100
AcDbEntity
  8
0
 62
7
100
AcDbPolyline
 90
6
 70
1
 10
71.578056
 20
88.009705
 30
0.0
 10
78.271749
 20
88.009705
 30
0.0
 10
78.271749
 20
84.445017
 30
0.0
 10
71.300803
 20
84.445017
 30
0.0
 10
71.300803
 20
88.009705
 30
0.0
 10
71.578056
 20
88.009705
 30
0.0
  0
LWPOLYLINE
  5
117
100
AcDbEntity
  8
0
 62
7
100
AcDbPolyline
 90
6
 70
1
 10
93.520696
 20
88.128529
 30
0.0
 10
100.214392
 20
88.128529
 30
0.0
 10
100.214392
 20
84.563841
 30
0.0
 10
93.243448
 20
84.563841
 30
0.0
 10
93.243448
 20
88.128529
 30
0.0
 10
93.520696
 20
88.128529
 30
0.0
  0
LWPOLYLINE
  5
118
100
AcDbEntity
  8
0
 62
7
100
AcDbPolyline
 90
6
 70
1
 10
38.466057
 20
87.930489
 30
0.0
 10
56.368716
 20
87.930489
 30
0.0
 10
56.368716
 20
84.365801
 30
0.0
 10
38.149196
 20
84.365801
 30
0.0
 10
38.149196
 20
87.930489
 30
0.0
 10
38.466057
 20
87.930489
 30
0.0
  0
LWPOLYLINE
  5
119
100
AcDbEntity
  8
0
 62
7
100
AcDbPolyline
 90
6
 70
1
 10
82.430552
 20
88.049313
 30
0.0
 10
89.124248
 20
88.049313
 30
0.0
 10
89.124248
 20
84.484625
 30
0.0
 10
82.153304
 20
84.484625
 30
0.0
 10
82.153304
 20
88.049313
 30
0.0
 10
82.430552
 20
88.049313
 30
0.0
  0
LWPOLYLINE
  5
11a
100
AcDbEntity
  8
0
 62
7
100
AcDbPolyline
 90
6
 70
1
 10
71.578056
 20
88.009705
 30
0.0
 10
78.271749
 20
88.009705
 30
0.0
 10
78.271749
 20
84.445017
 30
0.0
 10
71.300803
 20
84.445017
 30
0.0
 10
71.300803
 20
88.009705
 30
0.0
 10
71.578056
 20
88.009705
 30
0.0
  0
LWPOLYLINE
  5
11b
100
AcDbEntity
  8
0
 62
7
100
AcDbPolyline
 90
6
 70
1
 10
93.520696
 20
88.128529
 30
0.0
 10
100.214392
 20
88.128529
 30
0.0
 10
100.214392
 20
84.563841
 30
0.0
 10
93.243448
 20
84.563841
 30
0.0
 10
93.243448
 20
88.128529
 30
0.0
 10
93.520696
 20
88.128529
 30
0.0
  0
LWPOLYLINE
  5
11c
100
AcDbEntity
  8
0
 62
7
100
AcDbPolyline
 90
6
 70
1
 10
38.466057
 20
87.930489
 30
0.0
 10
56.368716
 20
87.930489
 30
0.0
 10
56.368716
 20
84.365801
 30
0.0
 10
38.149196
 20
84.365801
 30
0.0
 10
38.149196
 20
87.930489
 30
0.0
 10
38.466057
 20
87.930489
 30
0.0
  0
LWPOLYLINE
  5
11d
100
AcDbEntity
  8
0
 62
7
100
AcDbPolyline
 90
6
 70
1
 10
60.804774
 20
87.970097
 30
0.0
 10
67.498467
 20
87.970097
 30
0.0
 10
67.498467
 20
84.405409
 30
0.0
 10
60.527522
 20
84.405409
 30
0.0
 10
60.527522
 20
87.970097
 30
0.0
 10
60.804774
 20
87.970097
 30
0.0
  0
LWPOLYLINE
  5
11e
100
AcDbEntity
  8
0
 62
7
100
AcDbPolyline
 90
6
 70
1
 10
82.430552
 20
88.049313
 30
0.0
 10
89.124248
 20
88.049313
 30
0.0
 10
89.124248
 20
84.484625
 30
0.0
 10
82.153304
 20
84.484625
 30
0.0
 10
82.153304
 20
88.049313
 30
0.0
 10
82.430552
 20
88.049313
 30
0.0
  0
LWPOLYLINE
  5
11f
100
AcDbEntity
  8
0
 62
7
100
AcDbPolyline
 90
6
 70
1
 10
71.578056
 20
88.009705
 30
0.0
 10
78.271749
 20
88.009705
 30
0.0
 10
78.271749
 20
84.445017
 30
0.0
 10
71.300803
 20
84.445017
 30
0.0
 10
71.300803
 20
88.009705
 30
0.0
 10
71.578056
 20
88.009705
 30
0.0
  0
LWPOLYLINE
  5
120
100
AcDbEntity
  8
0
 62
7
100
AcDbPolyline
 90
6
 70
1
 10
93.520696
 20
88.128529
 30
0.0
 10
100.214392
 20
88.128529
 30
0.0
 10
100.214392
 20
84.563841
 30
0.0
 10
93.243448
 20
84.563841
 30
0.0
 10
93.243448
 20
88.128529
 30
0.0
 10
93.520696
 20
88.128529
 30
0.0
  0
LWPOLYLINE
  5
121
100
AcDbEntity
  8
0
 62
7
100
AcDbPolyline
 90
6
 70
1
 10
38.466057
 20
87.930489
 30
0.0
 10
56.368716
 20
87.930489
 30
0.0
 10
56.368716
 20
84.365801
 30
0.0
 10
38.149196
 20
84.365801
 30
0.0
 10
38.149196
 20
87.930489
 30
0.0
 10
38.466057
 20
87.930489
 30
0.0
  0
LWPOLYLINE
  5
122
100
AcDbEntity
  8
0
 62
7
100
AcDbPolyline
 90
6
 70
1
 10
82.430552
 20
88.049313
 30
0.0
 10
89.124248
 20
88.049313
 30
0.0
 10
89.124248
 20
84.484625
 30
0.0
 10
82.153304
 20
84.484625
 30
0.0
 10
82.153304
 20
88.049313
 30
0.0
 10
82.430552
 20
88.049313
 30
0.0
  0
LWPOLYLINE
  5
123
100
AcDbEntity
  8
0
 62
7
100
AcDbPolyline
 90
6
 70
1
 10
71.578056
 20
88.009705
 30
0.0
 10
78.271749
 20
88.009705
 30
0.0
 10
78.271749
 20
84.445017
 30
0.0
 10
71.300803
 20
84.445017
 30
0.0
 10
71.300803
 20
88.009705
 30
0.0
 10
71.578056
 20
88.009705
 30
0.0
  0
LWPOLYLINE
  5
124
100
AcDbEntity
  8
0
 62
7
100
AcDbPolyline
 90
6
 70
1
 10
93.520696
 20
88.128529
 30
0.0
 10
100.214392
 20
88.128529
 30
0.0
 10
100.214392
 20
84.563841
 30
0.0
 10
93.243448
 20
84.563841
 30
0.0
 10
93.243448
 20
88.128529
 30
0.0
 10
93.520696
 20
88.128529
 30
0.0
  0
SPLINE
  5
125
100
AcDbEntity
  8
0
 62
7
100
AcDbSpline
 70
8
 71
3
 72
8
 73
4
 74
0
 40
0
 40
0
 40
0
 40
0
 40
1
 40
1
 40
1
 40
1
 10
59.676328
 20
51.514169
 30
0.0
 10
59.688320
 20
58.071457
 30
0.0
 10
59.700320
 20
64.628737
 30
0.0
 10
59.712312
 20
71.186025
 30
0.0
  0
SPLINE
  5
126
100
AcDbEntity
  8
0
 62
7
100
AcDbSpline
 70
8
 71
3
 72
8
 73
4
 74
0
 40
0
 40
0
 40
0
 40
0
 40
1
 40
1
 40
1
 40
1
 10
59.712312
 20
71.186025
 30
0.0
 10
59.712312
 20
71.186025
 30
0.0
 10
59.427134
 20
79.266105
 30
0.0
 10
64.180122
 20
79.266105
 30
0.0
  0
SPLINE
  5
127
100
AcDbEntity
  8
0
 62
7
100
AcDbSpline
 70
8
 71
3
 72
8
 73
4
 74
0
 40
0
 40
0
 40
0
 40
0
 40
1
 40
1
 40
1
 40
1
 10
64.180122
 20
79.266105
 30
0.0
 10
68.933108
 20
79.266105
 30
0.0
 10
70.359006
 20
75.748889
 30
0.0
 10
70.454065
 20
74.322993
 30
0.0
  0
SPLINE
  5
128
100
AcDbEntity
  8
0
 62
7
100
AcDbSpline
 70
8
 71
3
 72
8
 73
4
 74
0
 40
0
 40
0
 40
0
 40
0
 40
1
 40
1
 40
1
 40
1
 10
70.454065
 20
74.322993
 30
0.0
 10
70.549124
 20
72.897097
 30
0.0
 10
70.834304
 20
67.668809
 30
0.0
 10
67.126974
 20
67.573753
 30
0.0
  0
SPLINE
  5
129
100
AcDbEntity
  8
0
 62
7
100
AcDbSpline
 70
8
 71
3
 72
8
 73
4
 74
0
 40
0
 40
0
 40
0
 40
0
 40
1
 40
1
 40
1
 40
1
 10
67.126974
 20
67.573753
 30
0.0
 10
63.419644
 20
67.478697
 30
0.0
 10
63.990002
 20
72.516857
 30
0.0
 10
63.990002
 20
72.516857
 30
0.0
  0
SPLINE
  5
12a
100
AcDbEntity
  8
0
 62
7
100
AcDbSpline
 70
8
 71
3
 72
8
 73
4
 74
0
 40
0
 40
0
 40
0
 40
0
 40
1
 40
1
 40
1
 40
1
 10
63.990002
 20
72.516857
 30
0.0
 10
63.990002
 20
72.516857
 30
0.0
 10
64.370241
 20
76.224185
 30
0.0
 10
66.271437
 20
76.224185
 30
0.0
  0
SPLINE
  5
12b
100
AcDbEntity
  8
0
 62
7
100
AcDbSpline
 70
8
 71
3
 72
8
 73
4
 74
0
 40
0
 40
0
 40
0
 40
0
 40
1
 40
1
 40
1
 40
1
 10
66.271437
 20
76.224185
 30
0.0
 10
68.172632
 20
76.224185
 30
0.0
 10
66.271437
 20
74.798297
 30
0.0
 10
66.271437
 20
74.798297
 30
0.0
  0
SPLINE
  5
12c
100
AcDbEntity
  8
0
 62
7
100
AcDbSpline
 70
8
 71
3
 72
8
 73
4
 74
0
 40
0
 40
0
 40
0
 40
0
 40
1
 40
1
 40
1
 40
1
 10
66.271437
 20
74.798297
 30
0.0
 10
66.271437
 20
74.798297
 30
0.0
 10
64.940598
 20
72.897097
 30
0.0
 10
65.320838
 20
71.566265
 30
0.0
  0
SPLINE
  5
12d
100
AcDbEntity
  8
0
 62
7
100
AcDbSpline
 70
8
 71
3
 72
8
 73
4
 74
0
 40
0
 40
0
 40
0
 40
0
 40
1
 40
1
 40
1
 40
1
 10
65.320838
 20
71.566265
 30
0.0
 10
65.701077
 20
70.235425
 30
0.0
 10
65.796138
 20
68.809529
 30
0.0
 10
66.936854
 20
68.809529
 30
0.0
  0
SPLINE
  5
12e
100
AcDbEntity
  8
0
 62
7
100
AcDbSpline
 70
8
 71
3
 72
8
 73
4
 74
0
 40
0
 40
0
 40
0
 40
0
 40
1
 40
1
 40
1
 40
1
 10
66.936854
 20
68.809529
 30
0.0
 10
68.077571
 20
68.809529
 30
0.0
 10
69.218288
 20
71.186025
 30
0.0
 10
69.123229
 20
73.562513
 30
0.0
  0
SPLINE
  5
12f
100
AcDbEntity
  8
0
 62
7
100
AcDbSpline
 70
8
 71
3
 72
8
 73
4
 74
0
 40
0
 40
0
 40
0
 40
0
 40
1
 40
1
 40
1
 40
1
 10
69.123229
 20
73.562513
 30
0.0
 10
69.028170
 20
75.939009
 30
0.0
 10
67.602273
 20
77.555025
 30
0.0
 10
66.461555
 20
77.840201
 30
0.0
  0
SPLINE
  5
130
100
AcDbEntity
  8
0
 62
7
100
AcDbSpline
 70
8
 71
3
 72
8
 73
4
 74
0
 40
0
 40
0
 40
0
 40
0
 40
1
 40
1
 40
1
 40
1
 10
66.461555
 20
77.840201
 30
0.0
 10
65.320838
 20
78.125385
 30
0.0
 10
62.983362
 20
79.122009
 30
0.0
 10
61.708566
 20
75.843953
 30
0.0
  0
SPLINE
  5
131
100
AcDbEntity
  8
0
 62
7
100
AcDbSpline
 70
8
 71
3
 72
8
 73
4
 74
0
 40
0
 40
0
 40
0
 40
0
 40
1
 40
1
 40
1
 40
1
 10
61.708566
 20
75.843953
 30
0.0
 10
60.377731
 20
72.421793
 30
0.0
 10
61.653374
 20
43.492657
 30
0.0
 10
61.300996
 20
42.158449
 30
0.0
  0
SPLINE
  5
132
100
AcDbEntity
  8
0
 62
7
100
AcDbSpline
 70
8
 71
3
 72
8
 73
4
 74
0
 40
0
 40
0
 40
0
 40
0
 40
1
 40
1
 40
1
 40
1
 10
61.300996
 20
42.158449
 30
0.0
 10
60.939207
 20
40.788609
 30
0.0
 10
59.762281
 20
40.942465
 30
0.0
 10
59.762281
 20
40.942465
 30
0.0
  0
LWPOLYLINE
  5
133
100
AcDbEntity
  8
0
 62
7
100
AcDbPolyline
 90
6
 70
1
 10
47.219707
 20
91.402545
 30
0.0
 10
47.219707
 20
109.715345
 30
0.0
 10
53.040166
 20
109.612809
 30
0.0
 10
53.142701
 20
91.393289
 30
0.0
 10
47.219707
 20
91.495825
 30
0.0
 10
47.219707
 20
91.402545
 30
0.0
  0
SPLINE
  5
134
100
AcDbEntity
  8
0
 62
7
100
AcDbSpline
 70
8
 71
3
 72
8
 73
4
 74
0
 40
0
 40
0
 40
0
 40
0
 40
1
 40
1
 40
1
 40
1
 10
69.978762
 20
78.505625
 30
0.0
 10
69.978762
 20
78.505625
 30
0.0
 10
71.119480
 20
79.456225
 30
0.0
 10
74.541630
 20
79.456225
 30
0.0
  0
SPLINE
  5
135
100
AcDbEntity
  8
0
 62
7
100
AcDbSpline
 70
8
 71
3
 72
8
 73
4
 74
0
 40
0
 40
0
 40
0
 40
0
 40
1
 40
1
 40
1
 40
1
 10
74.541630
 20
79.456225
 30
0.0
 10
77.963782
 20
79.456225
 30
0.0
 10
79.769921
 20
77.555025
 30
0.0
 10
79.864977
 20
73.372393
 30
0.0
  0
SPLINE
  5
136
100
AcDbEntity
  8
0
 62
7
100
AcDbSpline
 70
8
 71
3
 72
8
 73
4
 74
0
 40
0
 40
0
 40
0
 40
0
 40
1
 40
1
 40
1
 40
1
 10
79.864977
 20
73.372393
 30
0.0
 10
79.960041
 20
69.189769
 30
0.0
 10
76.918126
 20
67.668809
 30
0.0
 10
75.872470
 20
67.668809
 30
0.0
  0
SPLINE
  5
137
100
AcDbEntity
  8
0
 62
7
100
AcDbSpline
 70
8
 71
3
 72
8
 73
4
 74
0
 40
0
 40
0
 40
0
 40
0
 40
1
 40
1
 40
1
 40
1
 10
75.872470
 20
67.668809
 30
0.0
 10
74.826806
 20
67.668809
 30
0.0
 10
71.975018
 20
67.953993
 30
0.0
 10
72.070077
 20
73.847697
 30
0.0
  0
SPLINE
  5
138
100
AcDbEntity
  8
0
 62
7
100
AcDbSpline
 70
8
 71
3
 72
8
 73
4
 74
0
 40
0
 40
0
 40
0
 40
0
 40
1
 40
1
 40
1
 40
1
 10
72.070077
 20
73.847697
 30
0.0
 10
72.165138
 20
79.741401
 30
0.0
 10
77.013182
 20
76.224185
 30
0.0
 10
75.016926
 20
76.224193
 30
0.0
  0
SPLINE
  5
139
100
AcDbEntity
  8
0
 62
7
100
AcDbSpline
 70
8
 71
3
 72
8
 73
4
 74
0
 40
0
 40
0
 40
0
 40
0
 40
1
 40
1
 40
1
 40
1
 10
75.016926
 20
76.224193
 30
0.0
 10
73.057222
 20
76.224201
 30
0.0
 10
73.591030
 20
72.421801
 30
0.0
 10
73.591030
 20
72.421801
 30
0.0
  0
SPLINE
  5
13a
100
AcDbEntity
  8
0
 62
7
100
AcDbSpline
 70
8
 71
3
 72
8
 73
4
 74
0
 40
0
 40
0
 40
0
 40
0
 40
1
 40
1
 40
1
 40
1
 10
73.591030
 20
72.421801
 30
0.0
 10
73.591030
 20
72.421801
 30
0.0
 10
74.161390
 20
69.284825
 30
0.0
 10
75.587286
 20
69.284825
 30
0.0
  0
SPLINE
  5
13b
100
AcDbEntity
  8
0
 62
7
100
AcDbSpline
 70
8
 71
3
 72
8
 73
4
 74
0
 40
0
 40
0
 40
0
 40
0
 40
1
 40
1
 40
1
 40
1
 10
75.587286
 20
69.284825
 30
0.0
 10
77.013182
 20
69.284825
 30
0.0
 10
78.439078
 20
71.090961
 30
0.0
 10
78.344022
 20
73.372393
 30
0.0
  0
SPLINE
  5
13c
100
AcDbEntity
  8
0
 62
7
100
AcDbSpline
 70
8
 71
3
 72
8
 73
4
 74
0
 40
0
 40
0
 40
0
 40
0
 40
1
 40
1
 40
1
 40
1
 10
78.344022
 20
73.372393
 30
0.0
 10
78.248966
 20
75.653833
 30
0.0
 10
77.203302
 20
78.410561
 30
0.0
 10
75.302110
 20
78.315505
 30
0.0
  0
SPLINE
  5
13d
100
AcDbEntity
  8
0
 62
7
100
AcDbSpline
 70
8
 71
3
 72
8
 73
4
 74
0
 40
0
 40
0
 40
0
 40
0
 40
1
 40
1
 40
1
 40
1
 10
75.302110
 20
78.315505
 30
0.0
 10
73.400918
 20
78.220441
 30
0.0
 10
70.739241
 20
77.650089
 30
0.0
 10
70.739241
 20
77.650089
 30
0.0
  0
SPLINE
  5
13e
100
AcDbEntity
  8
0
 62
7
100
AcDbSpline
 70
8
 71
3
 72
8
 73
4
 74
0
 40
0
 40
0
 40
0
 40
0
 40
1
 40
1
 40
1
 40
1
 10
70.739241
 20
77.650089
 30
0.0
 10
70.739241
 20
77.650089
 30
0.0
 10
69.788644
 20
77.935265
 30
0.0
 10
69.978762
 20
78.505625
 30
0.0
  0
LWPOLYLINE
  5
13f
100
AcDbEntity
  8
0
 62
7
100
AcDbPolyline
 90
2
 70
1
 10
59.762281
 20
40.942465
 30
0.0
 10
59.676328
 20
51.514169
 30
0.0
  0
SPLINE
  5
140
100
AcDbEntity
  8
0
 62
7
100
AcDbSpline
 70
8
 71
3
 72
8
 73
4
 74
0
 40
0
 40
0
 40
0
 40
0
 40
1
 40
1
 40
1
 40
1
 10
79.579801
 20
78.505625
 30
0.0
 10
79.579801
 20
78.505625
 30
0.0
 10
80.720520
 20
79.456225
 30
0.0
 10
84.142664
 20
79.456225
 30
0.0
  0
SPLINE
  5
141
100
AcDbEntity
  8
0
 62
7
100
AcDbSpline
 70
8
 71
3
 72
8
 73
4
 74
0
 40
0
 40
0
 40
0
 40
0
 40
1
 40
1
 40
1
 40
1
 10
84.142664
 20
79.456225
 30
0.0
 10
87.564816
 20
79.456225
 30
0.0
 10
89.370952
 20
77.555025
 30
0.0
 10
89.466008
 20
73.372393
 30
0.0
  0
SPLINE
  5
142
100
AcDbEntity
  8
0
 62
7
100
AcDbSpline
 70
8
 71
3
 72
8
 73
4
 74
0
 40
0
 40
0
 40
0
 40
0
 40
1
 40
1
 40
1
 40
1
 10
89.466008
 20
73.372393
 30
0.0
 10
89.561072
 20
69.189769
 30
0.0
 10
86.519160
 20
67.668809
 30
0.0
 10
85.473504
 20
67.668809
 30
0.0
  0
SPLINE
  5
143
100
AcDbEntity
  8
0
 62
7
100
AcDbSpline
 70
8
 71
3
 72
8
 73
4
 74
0
 40
0
 40
0
 40
0
 40
0
 40
1
 40
1
 40
1
 40
1
 10
85.473504
 20
67.668809
 30
0.0
 10
84.427840
 20
67.668809
 30
0.0
 10
81.576056
 20
67.953993
 30
0.0
 10
81.671112
 20
73.847697
 30
0.0
  0
SPLINE
  5
144
100
AcDbEntity
  8
0
 62
7
100
AcDbSpline
 70
8
 71
3
 72
8
 73
4
 74
0
 40
0
 40
0
 40
0
 40
0
 40
1
 40
1
 40
1
 40
1
 10
81.671112
 20
73.847697
 30
0.0
 10
81.766176
 20
79.741401
 30
0.0
 10
86.614216
 20
76.224185
 30
0.0
 10
84.617960
 20
76.224193
 30
0.0
  0
SPLINE
  5
145
100
AcDbEntity
  8
0
 62
7
100
AcDbSpline
 70
8
 71
3
 72
8
 73
4
 74
0
 40
0
 40
0
 40
0
 40
0
 40
1
 40
1
 40
1
 40
1
 10
84.617960
 20
76.224193
 30
0.0
 10
82.658256
 20
76.224201
 30
0.0
 10
83.192064
 20
72.421801
 30
0.0
 10
83.192064
 20
72.421801
 30
0.0
  0
SPLINE
  5
146
100
AcDbEntity
  8
0
 62
7
100
AcDbSpline
 70
8
 71
3
 72
8
 73
4
 74
0
 40
0
 40
0
 40
0
 40
0
 40
1
 40
1
 40
1
 40
1
 10
83.192064
 20
72.421801
 30
0.0
 10
83.192064
 20
72.421801
 30
0.0
 10
83.762424
 20
69.284825
 30
0.0
 10
85.188320
 20
69.284825
 30
0.0
  0
SPLINE
  5
147
100
AcDbEntity
  8
0
 62
7
100
AcDbSpline
 70
8
 71
3
 72
8
 73
4
 74
0
 40
0
 40
0
 40
0
 40
0
 40
1
 40
1
 40
1
 40
1
 10
85.188320
 20
69.284825
 30
0.0
 10
86.614216
 20
69.284825
 30
0.0
 10
88.040112
 20
71.090961
 30
0.0
 10
87.945056
 20
73.372393
 30
0.0
  0
SPLINE
  5
148
100
AcDbEntity
  8
0
 62
7
100
AcDbSpline
 70
8
 71
3
 72
8
 73
4
 74
0
 40
0
 40
0
 40
0
 40
0
 40
1
 40
1
 40
1
 40
1
 10
87.945056
 20
73.372393
 30
0.0
 10
87.850000
 20
75.653833
 30
0.0
 10
86.804336
 20
78.410561
 30
0.0
 10
84.903144
 20
78.315505
 30
0.0
  0
SPLINE
  5
149
100
AcDbEntity
  8
0
 62
7
100
AcDbSpline
 70
8
 71
3
 72
8
 73
4
 74
0
 40
0
 40
0
 40
0
 40
0
 40
1
 40
1
 40
1
 40
1
 10
84.903144
 20
78.315505
 30
0.0
 10
83.001952
 20
78.220441
 30
0.0
 10
80.340280
 20
77.650089
 30
0.0
 10
80.340280
 20
77.650089
 30
0.0
  0
SPLINE
  5
14a
100
AcDbEntity
  8
0
 62
7
100
AcDbSpline
 70
8
 71
3
 72
8
 73
4
 74
0
 40
0
 40
0
 40
0
 40
0
 40
1
 40
1
 40
1
 40
1
 10
80.340280
 20
77.650089
 30
0.0
 10
80.340280
 20
77.650089
 30
0.0
 10
79.389681
 20
77.935265
 30
0.0
 10
79.579801
 20
78.505625
 30
0.0
  0
LWPOLYLINE
  5
14b
100
AcDbEntity
  8
0
 62
7
100
AcDbPolyline
 90
2
 70
1
 10
69.978762
 20
78.505625
 30
0.0
 10
69.978762
 20
78.505625
 30
0.0
  0
SPLINE
  5
14c
100
AcDbEntity
  8
0
 62
7
100
AcDbSpline
 70
8
 71
3
 72
8
 73
4
 74
0
 40
0
 40
0
 40
0
 40
0
 40
1
 40
1
 40
1
 40
1
 10
91.272152
 20
77.840201
 30
0.0
 10
89.846256
 20
76.604425
 30
0.0
 10
88.610480
 20
78.790801
 30
0.0
 10
89.656136
 20
79.456225
 30
0.0
  0
SPLINE
  5
14d
100
AcDbEntity
  8
0
 62
7
100
AcDbSpline
 70
8
 71
3
 72
8
 73
4
 74
0
 40
0
 40
0
 40
0
 40
0
 40
1
 40
1
 40
1
 40
1
 10
89.656136
 20
79.456225
 30
0.0
 10
90.701792
 20
80.121641
 30
0.0
 10
97.831272
 20
81.642593
 30
0.0
 10
97.736216
 20
74.988409
 30
0.0
  0
SPLINE
  5
14e
100
AcDbEntity
  8
0
 62
7
100
AcDbSpline
 70
8
 71
3
 72
8
 73
4
 74
0
 40
0
 40
0
 40
0
 40
0
 40
1
 40
1
 40
1
 40
1
 10
97.736216
 20
74.988409
 30
0.0
 10
97.641152
 20
68.334233
 30
0.0
 10
97.899000
 20
42.719705
 30
0.0
 10
97.899000
 20
42.719705
 30
0.0
  0
SPLINE
  5
14f
100
AcDbEntity
  8
0
 62
7
100
AcDbSpline
 70
8
 71
3
 72
8
 73
4
 74
0
 40
0
 40
0
 40
0
 40
0
 40
1
 40
1
 40
1
 40
1
 10
97.899000
 20
42.719705
 30
0.0
 10
97.899000
 20
42.719705
 30
0.0
 10
96.018056
 20
40.338705
 30
0.0
 10
95.911856
 20
43.443729
 30
0.0
  0
SPLINE
  5
150
100
AcDbEntity
  8
0
 62
7
100
AcDbSpline
 70
8
 71
3
 72
8
 73
4
 74
0
 40
0
 40
0
 40
0
 40
0
 40
1
 40
1
 40
1
 40
1
 10
95.911856
 20
43.443729
 30
0.0
 10
95.658216
 20
50.859545
 30
0.0
 10
95.834976
 20
70.045305
 30
0.0
 10
95.834976
 20
74.703233
 30
0.0
  0
SPLINE
  5
151
100
AcDbEntity
  8
0
 62
7
100
AcDbSpline
 70
8
 71
3
 72
8
 73
4
 74
0
 40
0
 40
0
 40
0
 40
0
 40
1
 40
1
 40
1
 40
1
 10
95.834976
 20
74.703233
 30
0.0
 10
95.834976
 20
79.361161
 30
0.0
 10
93.838728
 20
78.790801
 30
0.0
 10
92.602952
 20
78.885865
 30
0.0
  0
SPLINE
  5
152
100
AcDbEntity
  8
0
 62
7
100
AcDbSpline
 70
8
 71
3
 72
8
 73
4
 74
0
 40
0
 40
0
 40
0
 40
0
 40
1
 40
1
 40
1
 40
1
 10
92.602952
 20
78.885865
 30
0.0
 10
91.367168
 20
78.980921
 30
0.0
 10
91.272112
 20
77.840201
 30
0.0
 10
91.272112
 20
77.840201
 30
0.0
  0
LWPOLYLINE
  5
153
100
AcDbEntity
  8
0
 62
7
100
AcDbPolyline
 90
2
 70
1
 10
79.579801
 20
78.505625
 30
0.0
 10
79.579801
 20
78.505625
 30
0.0
  0
SPLINE
  5
154
100
AcDbEntity
  8
0
 62
7
100
AcDbSpline
 70
8
 71
3
 72
8
 73
4
 74
0
 40
0
 40
0
 40
0
 40
0
 40
1
 40
1
 40
1
 40
1
 10
72.501474
 20
184.370681
 30
0.0
 10
56.857567
 20
181.607900
 30
0.0
 10
52.484411
 20
163.943130
 30
0.0
 10
52.813634
 20
153.986681
 30
0.0
  0
LWPOLYLINE
  5
155
100
AcDbEntity
  8
0
 62
7
100
AcDbPolyline
 90
2
 70
1
 10
91.272112
 20
77.840201
 30
0.0
 10
91.272152
 20
77.840201
 30
0.0
  0
SPLINE
  5
156
100
AcDbEntity
  8
0
 62
7
100
AcDbSpline
 70
8
 71
3
 72
8
 73
4
 74
0
 40
0
 40
0
 40
0
 40
0
 40
1
 40
1
 40
1
 40
1
 10
47.115066
 20
153.924969
 30
0.0
 10
47.000597
 20
171.996312
 30
0.0
 10
56.354558
 20
187.959581
 30
0.0
 10
72.565194
 20
189.752780
 30
0.0
  0
LWPOLYLINE
  5
157
100
AcDbEntity
  8
0
 62
7
100
AcDbPolyline
 90
5
 70
1
 10
52.813634
 20
153.986681
 30
0.0
 10
52.937630
 20
121.128473
 30
0.0
 10
47.014637
 20
121.231009
 30
0.0
 10
47.014637
 20
121.137697
 30
0.0
 10
47.115066
 20
153.924969
 30
0.0
  0
SPLINE
  5
158
100
AcDbEntity
  8
0
 62
7
100
AcDbSpline
 70
8
 71
3
 72
8
 73
4
 74
0
 40
0
 40
0
 40
0
 40
0
 40
1
 40
1
 40
1
 40
1
 10
83.973032
 20
189.572164
 30
0.0
 10
86.169616
 20
189.581260
 30
0.0
 10
109.338704
 20
189.886358
 30
0.0
 10
109.226672
 20
153.813553
 30
0.0
  0
LWPOLYLINE
  5
159
100
AcDbEntity
  8
0
 62
7
100
AcDbPolyline
 90
2
 70
1
 10
72.565194
 20
189.752780
 30
0.0
 10
72.501474
 20
184.370681
 30
0.0
  0
SPLINE
  5
15a
100
AcDbEntity
  8
0
 62
7
100
AcDbSpline
 70
8
 71
3
 72
8
 73
4
 74
0
 40
0
 40
0
 40
0
 40
0
 40
1
 40
1
 40
1
 40
1
 10
103.851264
 20
153.756913
 30
0.0
 10
103.851264
 20
153.756913
 30
0.0
 10
106.545680
 20
183.223935
 30
0.0
 10
84.057160
 20
184.547041
 30
0.0
  0
LWPOLYLINE
  5
15b
100
AcDbEntity
  8
0
 62
7
100
AcDbPolyline
 90
2
 70
1
 10
109.226672
 20
153.813553
 30
0.0
 10
103.851264
 20
153.756913
 30
0.0
  0
LWPOLYLINE
  5
15c
100
AcDbEntity
  8
0
 62
7
100
AcDbPolyline
 90
2
 70
1
 10
84.057160
 20
184.547041
 30
0.0
 10
83.973032
 20
189.572164
 30
0.0
  0
SPLINE
  5
15d
100
AcDbEntity
  8
0
 62
7
100
AcDbSpline
 70
8
 71
3
 72
8
 73
4
 74
0
 40
0
 40
0
 40
0
 40
0
 40
1
 40
1
 40
1
 40
1
 10
104.142176
 20
67.140729
 30
0.0
 10
104.136576
 20
69.318865
 30
0.0
 10
103.630464
 20
138.426929
 30
0.0
 10
103.630464
 20
138.426929
 30
0.0
  0
SPLINE
  5
15e
100
AcDbEntity
  8
0
 62
7
100
AcDbSpline
 70
8
 71
3
 72
8
 73
4
 74
0
 40
0
 40
0
 40
0
 40
0
 40
1
 40
1
 40
1
 40
1
 10
103.630464
 20
138.426929
 30
0.0
 10
103.630464
 20
138.426929
 30
0.0
 10
106.321272
 20
138.403889
 30
0.0
 10
109.058072
 20
138.357889
 30
0.0
  0
LWPOLYLINE
  5
15f
100
AcDbEntity
  8
0
 62
7
100
AcDbPolyline
 90
10
 70
1
 10
109.260320
 20
148.771337
 30
0.0
 10
109.260320
 20
144.437209
 30
0.0
 10
56.665568
 20
144.311257
 30
0.0
 10
56.615184
 20
144.286057
 30
0.0
 10
56.640376
 20
148.661769
 30
0.0
 10
76.035806
 20
148.776801
 30
0.0
 10
76.035806
 20
200.395296
 30
0.0
 10
80.284336
 20
200.325176
 30
0.0
 10
80.460408
 20
148.735239
 30
0.0
 10
109.260320
 20
148.771337
 30
0.0
  0
SPLINE
  5
160
100
AcDbEntity
  8
0
 62
7
100
AcDbSpline
 70
8
 71
3
 72
8
 73
4
 74
0
 40
0
 40
0
 40
0
 40
0
 40
1
 40
1
 40
1
 40
1
 10
109.334056
 20
70.098849
 30
0.0
 10
109.334056
 20
70.098849
 30
0.0
 10
109.242064
 20
81.965985
 30
0.0
 10
109.334056
 20
70.098849
 30
0.0
  0
SPLINE
  5
161
100
AcDbEntity
  8
0
 62
7
100
AcDbSpline
 70
8
 71
3
 72
8
 73
4
 74
0
 40
0
 40
0
 40
0
 40
0
 40
1
 40
1
 40
1
 40
1
 10
109.334056
 20
70.098849
 30
0.0
 10
109.426048
 20
58.231713
 30
0.0
 10
106.181888
 20
56.089593
 30
0.0
 10
106.181888
 20
56.089593
 30
0.0
  0
SPLINE
  5
162
100
AcDbEntity
  8
0
 62
7
100
AcDbSpline
 70
8
 71
3
 72
8
 73
4
 74
0
 40
0
 40
0
 40
0
 40
0
 40
1
 40
1
 40
1
 40
1
 10
106.181888
 20
56.089593
 30
0.0
 10
101.292320
 20
53.825497
 30
0.0
 10
102.409832
 20
60.033145
 30
0.0
 10
102.409832
 20
60.033145
 30
0.0
  0
SPLINE
  5
163
100
AcDbEntity
  8
0
 62
7
100
AcDbSpline
 70
8
 71
3
 72
8
 73
4
 74
0
 40
0
 40
0
 40
0
 40
0
 40
1
 40
1
 40
1
 40
1
 10
102.409832
 20
60.033145
 30
0.0
 10
104.162368
 20
62.553593
 30
0.0
 10
104.142176
 20
67.140689
 30
0.0
 10
104.142176
 20
67.140689
 30
0.0
  0
LWPOLYLINE
  5
164
100
AcDbEntity
  8
0
 62
7
100
AcDbPolyline
 90
2
 70
1
 10
109.058072
 20
138.357889
 30
0.0
 10
109.334056
 20
70.098849
 30
0.0
  0
LWPOLYLINE
  5
165
100
AcDbEntity
  8
0
 62
7
100
AcDbPolyline
 90
2
 70
1
 10
104.142176
 20
67.140689
 30
0.0
 10
104.142176
 20
67.140729
 30
0.0
  0
SPLINE
  5
166
100
AcDbEntity
  8
0
 62
7
100
AcDbSpline
 70
8
 71
3
 72
8
 73
4
 74
0
 40
0
 40
0
 40
0
 40
0
 40
1
 40
1
 40
1
 40
1
 10
52.905924
 20
65.609657
 30
0.0
 10
52.905924
 20
65.609657
 30
0.0
 10
52.579042
 20
62.338833
 30
0.0
 10
53.918119
 20
61.542649
 30
0.0
  0
SPLINE
  5
167
100
AcDbEntity
  8
0
 62
7
100
AcDbSpline
 70
8
 71
3
 72
8
 73
4
 74
0
 40
0
 40
0
 40
0
 40
0
 40
1
 40
1
 40
1
 40
1
 10
53.918119
 20
61.542649
 30
0.0
 10
58.154166
 20
59.023993
 30
0.0
 10
56.016107
 20
52.846401
 30
0.0
 10
52.258394
 20
55.196929
 30
0.0
  0
SPLINE
  5
168
100
AcDbEntity
  8
0
 62
7
100
AcDbSpline
 70
8
 71
3
 72
8
 73
4
 74
0
 40
0
 40
0
 40
0
 40
0
 40
1
 40
1
 40
1
 40
1
 10
52.258394
 20
55.196929
 30
0.0
 10
49.052216
 20
57.202465
 30
0.0
 10
46.912315
 20
60.173329
 30
0.0
 10
46.862930
 20
65.313913
 30
0.0
  0
SPLINE
  5
169
100
AcDbEntity
  8
0
 62
7
100
AcDbSpline
 70
8
 71
3
 72
8
 73
4
 74
0
 40
0
 40
0
 40
0
 40
0
 40
1
 40
1
 40
1
 40
1
 10
46.862930
 20
65.313913
 30
0.0
 10
46.809906
 20
70.833073
 30
0.0
 10
46.976243
 20
79.470665
 30
0.0
 10
46.976243
 20
79.470665
 30
0.0
  0
LWPOLYLINE
  5
16a
100
AcDbEntity
  8
0
 62
7
100
AcDbPolyline
 90
3
 70
1
 10
46.976246
 20
79.470641
 30
0.0
 10
53.002101
 20
79.526881
 30
0.0
 10
52.905924
 20
65.609657
 30
0.0
  0
SPLINE
  5
16b
100
AcDbEntity
  8
0
 62
7
100
AcDbSpline
 70
8
 71
3
 72
8
 73
4
 74
0
 40
0
 40
0
 40
0
 40
0
 40
1
 40
1
 40
1
 40
1
 10
65.277607
 20
57.197625
 30
0.0
 10
68.099829
 20
59.196697
 30
0.0
 10
73.094502
 20
55.232025
 30
0.0
 10
77.915799
 20
55.114433
 30
0.0
  0
SPLINE
  5
16c
100
AcDbEntity
  8
0
 62
7
100
AcDbSpline
 70
8
 71
3
 72
8
 73
4
 74
0
 40
0
 40
0
 40
0
 40
0
 40
1
 40
1
 40
1
 40
1
 10
77.915799
 20
55.114433
 30
0.0
 10
82.737096
 20
54.996841
 30
0.0
 10
87.052184
 20
58.069001
 30
0.0
 10
89.448472
 20
57.777001
 30
0.0
  0
SPLINE
  5
16d
100
AcDbEntity
  8
0
 62
7
100
AcDbSpline
 70
8
 71
3
 72
8
 73
4
 74
0
 40
0
 40
0
 40
0
 40
0
 40
1
 40
1
 40
1
 40
1
 10
89.448472
 20
57.777001
 30
0.0
 10
92.530392
 20
57.401449
 30
0.0
 10
93.194352
 20
52.531225
 30
0.0
 10
91.083608
 20
51.830433
 30
0.0
  0
SPLINE
  5
16e
100
AcDbEntity
  8
0
 62
7
100
AcDbSpline
 70
8
 71
3
 72
8
 73
4
 74
0
 40
0
 40
0
 40
0
 40
0
 40
1
 40
1
 40
1
 40
1
 10
91.083608
 20
51.830433
 30
0.0
 10
86.193656
 20
50.206913
 30
0.0
 10
81.021296
 20
48.271753
 30
0.0
 10
77.728702
 20
48.506937
 30
0.0
  0
SPLINE
  5
16f
100
AcDbEntity
  8
0
 62
7
100
AcDbSpline
 70
8
 71
3
 72
8
 73
4
 74
0
 40
0
 40
0
 40
0
 40
0
 40
1
 40
1
 40
1
 40
1
 10
77.728702
 20
48.506937
 30
0.0
 10
74.436108
 20
48.742121
 30
0.0
 10
67.262960
 20
51.049345
 30
0.0
 10
65.028702
 20
51.637305
 30
0.0
  0
SPLINE
  5
170
100
AcDbEntity
  8
0
 62
7
100
AcDbSpline
 70
8
 71
3
 72
8
 73
4
 74
0
 40
0
 40
0
 40
0
 40
0
 40
1
 40
1
 40
1
 40
1
 10
65.028702
 20
51.637305
 30
0.0
 10
62.794441
 20
52.225265
 30
0.0
 10
65.277607
 20
57.197625
 30
0.0
 10
65.277607
 20
57.197625
 30
0.0
  0
LWPOLYLINE
  5
171
100
AcDbEntity
  8
0
 62
7
100
AcDbPolyline
 90
2
 70
1
 10
46.976243
 20
79.470665
 30
0.0
 10
46.976246
 20
79.470641
 30
0.0
  0
LWPOLYLINE
  5
172
100
AcDbEntity
  8
0
 62
7
100
AcDbPolyline
 90
2
 70
1
 10
65.277607
 20
57.197625
 30
0.0
 10
65.277607
 20
57.197625
 30
0.0
  0
SPLINE
  5
173
100
AcDbEntity
  8
0
 62
7
100
AcDbSpline
 70
8
 71
3
 72
8
 73
4
 74
0
 40
0
 40
0
 40
0
 40
0
 40
1
 40
1
 40
1
 40
1
 10
56.829799
 20
212.531580
 30
0.0
 10
56.829799
 20
211.892813
 30
0.0
 10
56.940973
 20
211.432369
 30
0.0
 10
57.163321
 20
211.150248
 30
0.0
  0
SPLINE
  5
174
100
AcDbEntity
  8
0
 62
7
100
AcDbSpline
 70
8
 71
3
 72
8
 73
4
 74
0
 40
0
 40
0
 40
0
 40
0
 40
1
 40
1
 40
1
 40
1
 10
57.163321
 20
211.150248
 30
0.0
 10
57.385668
 20
210.870788
 30
0.0
 10
57.746024
 20
210.731058
 30
0.0
 10
58.244390
 20
210.731058
 30
0.0
  0
SPLINE
  5
175
100
AcDbEntity
  8
0
 62
7
100
AcDbSpline
 70
8
 71
3
 72
8
 73
4
 74
0
 40
0
 40
0
 40
0
 40
0
 40
1
 40
1
 40
1
 40
1
 10
58.244390
 20
210.731058
 30
0.0
 10
58.740198
 20
210.731058
 30
0.0
 10
59.099277
 20
210.870788
 30
0.0
 10
59.321626
 20
211.150248
 30
0.0
  0
SPLINE
  5
176
100
AcDbEntity
  8
0
 62
7
100
AcDbSpline
 70
8
 71
3
 72
8
 73
4
 74
0
 40
0
 40
0
 40
0
 40
0
 40
1
 40
1
 40
1
 40
1
 10
59.321626
 20
211.150248
 30
0.0
 10
59.543975
 20
211.432369
 30
0.0
 10
59.655149
 20
211.892813
 30
0.0
 10
59.655149
 20
212.531580
 30
0.0
  0
LWPOLYLINE
  5
177
100
AcDbEntity
  8
0
 62
7
100
AcDbPolyline
 90
3
 70
1
 10
56.051583
 20
216.152584
 30
0.0
 10
56.829799
 20
216.152584
 30
0.0
 10
56.829799
 20
212.531580
 30
0.0
  0
SPLINE
  5
178
100
AcDbEntity
  8
0
 62
7
100
AcDbSpline
 70
8
 71
3
 72
8
 73
4
 74
0
 40
0
 40
0
 40
0
 40
0
 40
1
 40
1
 40
1
 40
1
 10
60.433361
 20
212.431772
 30
0.0
 10
60.433361
 20
211.654607
 30
0.0
 10
60.248072
 20
211.067740
 30
0.0
 10
59.877493
 20
210.671173
 30
0.0
  0
SPLINE
  5
179
100
AcDbEntity
  8
0
 62
7
100
AcDbSpline
 70
8
 71
3
 72
8
 73
4
 74
0
 40
0
 40
0
 40
0
 40
0
 40
1
 40
1
 40
1
 40
1
 10
59.877493
 20
210.671173
 30
0.0
 10
59.509470
 20
210.274606
 30
0.0
 10
58.965102
 20
210.076322
 30
0.0
 10
58.244390
 20
210.076322
 30
0.0
  0
SPLINE
  5
17a
100
AcDbEntity
  8
0
 62
7
100
AcDbSpline
 70
8
 71
3
 72
8
 73
4
 74
0
 40
0
 40
0
 40
0
 40
0
 40
1
 40
1
 40
1
 40
1
 10
58.244390
 20
210.076322
 30
0.0
 10
57.521121
 20
210.076322
 30
0.0
 10
56.974197
 20
210.274606
 30
0.0
 10
56.603618
 20
210.671173
 30
0.0
  0
SPLINE
  5
17b
100
AcDbEntity
  8
0
 62
7
100
AcDbSpline
 70
8
 71
3
 72
8
 73
4
 74
0
 40
0
 40
0
 40
0
 40
0
 40
1
 40
1
 40
1
 40
1
 10
56.603618
 20
210.671173
 30
0.0
 10
56.235594
 20
211.067740
 30
0.0
 10
56.051583
 20
211.654607
 30
0.0
 10
56.051583
 20
212.431772
 30
0.0
  0
LWPOLYLINE
  5
17c
100
AcDbEntity
  8
0
 62
7
100
AcDbPolyline
 90
4
 70
1
 10
59.655149
 20
212.531580
 30
0.0
 10
59.655149
 20
216.152584
 30
0.0
 10
60.433361
 20
216.152584
 30
0.0
 10
60.433361
 20
212.431772
 30
0.0
  0
LWPOLYLINE
  5
17d
100
AcDbEntity
  8
0
 62
7
100
AcDbPolyline
 90
3
 70
1
 10
56.051583
 20
212.431772
 30
0.0
 10
56.051583
 20
216.152584
 30
0.0
 10
56.051583
 20
216.152584
 30
0.0
  0
SPLINE
  5
17e
100
AcDbEntity
  8
0
 62
7
100
AcDbSpline
 70
8
 71
3
 72
8
 73
4
 74
0
 40
0
 40
0
 40
0
 40
0
 40
1
 40
1
 40
1
 40
1
 10
62.108905
 20
211.827912
 30
0.0
 10
62.108905
 20
211.827912
 30
0.0
 10
62.615881
 20
212.171185
 30
0.0
 10
63.636904
 20
212.179468
 30
0.0
  0
SPLINE
  5
17f
100
AcDbEntity
  8
0
 62
7
100
AcDbSpline
 70
8
 71
3
 72
8
 73
4
 74
0
 40
0
 40
0
 40
0
 40
0
 40
1
 40
1
 40
1
 40
1
 10
63.636904
 20
212.179468
 30
0.0
 10
64.383326
 20
212.185548
 30
0.0
 10
65.462727
 20
211.879013
 30
0.0
 10
65.449186
 20
210.310660
 30
0.0
  0
SPLINE
  5
180
100
AcDbEntity
  8
0
 62
7
100
AcDbSpline
 70
8
 71
3
 72
8
 73
4
 74
0
 40
0
 40
0
 40
0
 40
0
 40
1
 40
1
 40
1
 40
1
 10
65.449186
 20
210.310660
 30
0.0
 10
65.436114
 20
208.793023
 30
0.0
 10
65.460874
 20
207.436878
 30
0.0
 10
65.460874
 20
207.436878
 30
0.0
  0
LWPOLYLINE
  5
181
100
AcDbEntity
  8
0
 62
7
100
AcDbPolyline
 90
2
 70
1
 10
62.108905
 20
211.180304
 30
0.0
 10
62.108905
 20
211.827912
 30
0.0
  0
SPLINE
  5
182
100
AcDbEntity
  8
0
 62
7
100
AcDbSpline
 70
8
 71
3
 72
8
 73
4
 74
0
 40
0
 40
0
 40
0
 40
0
 40
1
 40
1
 40
1
 40
1
 10
64.774075
 20
208.201312
 30
0.0
 10
64.774075
 20
208.201312
 30
0.0
 10
64.294356
 20
207.572208
 30
0.0
 10
63.441513
 20
207.442688
 30
0.0
  0
SPLINE
  5
183
100
AcDbEntity
  8
0
 62
7
100
AcDbSpline
 70
8
 71
3
 72
8
 73
4
 74
0
 40
0
 40
0
 40
0
 40
0
 40
1
 40
1
 40
1
 40
1
 10
63.441513
 20
207.442688
 30
0.0
 10
62.588677
 20
207.313166
 30
0.0
 10
61.824674
 20
207.886761
 30
0.0
 10
61.789142
 20
208.830416
 30
0.0
  0
SPLINE
  5
184
100
AcDbEntity
  8
0
 62
7
100
AcDbSpline
 70
8
 71
3
 72
8
 73
4
 74
0
 40
0
 40
0
 40
0
 40
0
 40
1
 40
1
 40
1
 40
1
 10
61.789142
 20
208.830416
 30
0.0
 10
61.753606
 20
209.774071
 30
0.0
 10
62.388108
 20
210.324840
 30
0.0
 10
63.228307
 20
210.384672
 30
0.0
  0
SPLINE
  5
185
100
AcDbEntity
  8
0
 62
7
100
AcDbSpline
 70
8
 71
3
 72
8
 73
4
 74
0
 40
0
 40
0
 40
0
 40
0
 40
1
 40
1
 40
1
 40
1
 10
63.228307
 20
210.384672
 30
0.0
 10
63.500810
 20
210.404072
 30
0.0
 10
64.010073
 20
210.442112
 30
0.0
 10
64.010073
 20
210.442112
 30
0.0
  0
LWPOLYLINE
  5
186
100
AcDbEntity
  8
0
 62
7
100
AcDbPolyline
 90
3
 70
1
 10
65.460874
 20
207.436878
 30
0.0
 10
64.791811
 20
207.426654
 30
0.0
 10
64.774075
 20
208.201312
 30
0.0
  0
SPLINE
  5
187
100
AcDbEntity
  8
0
 62
7
100
AcDbSpline
 70
8
 71
3
 72
8
 73
4
 74
0
 40
0
 40
0
 40
0
 40
0
 40
1
 40
1
 40
1
 40
1
 10
63.982529
 20
209.882613
 30
0.0
 10
63.982529
 20
209.882613
 30
0.0
 10
62.535406
 20
210.014605
 30
0.0
 10
62.517638
 20
208.978435
 30
0.0
  0
SPLINE
  5
188
100
AcDbEntity
  8
0
 62
7
100
AcDbSpline
 70
8
 71
3
 72
8
 73
4
 74
0
 40
0
 40
0
 40
0
 40
0
 40
1
 40
1
 40
1
 40
1
 10
62.517638
 20
208.978435
 30
0.0
 10
62.499902
 20
208.177330
 30
0.0
 10
62.944062
 20
208.108791
 30
0.0
 10
63.334942
 20
208.071785
 30
0.0
  0
SPLINE
  5
189
100
AcDbEntity
  8
0
 62
7
100
AcDbSpline
 70
8
 71
3
 72
8
 73
4
 74
0
 40
0
 40
0
 40
0
 40
0
 40
1
 40
1
 40
1
 40
1
 10
63.334942
 20
208.071785
 30
0.0
 10
63.334942
 20
208.071785
 30
0.0
 10
64.665321
 20
208.089561
 30
0.0
 10
64.720806
 20
209.570533
 30
0.0
  0
LWPOLYLINE
  5
18a
100
AcDbEntity
  8
0
 62
7
100
AcDbPolyline
 90
2
 70
1
 10
64.010073
 20
210.442112
 30
0.0
 10
63.982529
 20
209.882613
 30
0.0
  0
SPLINE
  5
18b
100
AcDbEntity
  8
0
 62
7
100
AcDbSpline
 70
8
 71
3
 72
8
 73
4
 74
0
 40
0
 40
0
 40
0
 40
0
 40
1
 40
1
 40
1
 40
1
 10
64.758222
 20
210.569696
 30
0.0
 10
64.758222
 20
210.569696
 30
0.0
 10
64.713854
 20
211.544256
 30
0.0
 10
63.548174
 20
211.550358
 30
0.0
  0
SPLINE
  5
18c
100
AcDbEntity
  8
0
 62
7
100
AcDbSpline
 70
8
 71
3
 72
8
 73
4
 74
0
 40
0
 40
0
 40
0
 40
0
 40
1
 40
1
 40
1
 40
1
 10
63.548174
 20
211.550358
 30
0.0
 10
62.598326
 20
211.555318
 30
0.0
 10
62.109009
 20
211.149636
 30
0.0
 10
62.109009
 20
211.149636
 30
0.0
  0
LWPOLYLINE
  5
18d
100
AcDbEntity
  8
0
 62
7
100
AcDbPolyline
 90
2
 70
1
 10
64.720806
 20
209.570533
 30
0.0
 10
64.758222
 20
210.569696
 30
0.0
  0
LWPOLYLINE
  5
18e
100
AcDbEntity
  8
0
 62
7
100
AcDbPolyline
 90
2
 70
1
 10
62.109009
 20
211.149636
 30
0.0
 10
62.108905
 20
211.180304
 30
0.0
  0
SPLINE
  5
18f
100
AcDbEntity
  8
0
 62
7
100
AcDbSpline
 70
8
 71
3
 72
8
 73
4
 74
0
 40
0
 40
0
 40
0
 40
0
 40
1
 40
1
 40
1
 40
1
 10
16.524682
 20
117.341574
 30
0.0
 10
16.524682
 20
116.653328
 30
0.0
 10
16.632666
 20
116.157218
 30
0.0
 10
16.848633
 20
115.853242
 30
0.0
  0
SPLINE
  5
190
100
AcDbEntity
  8
0
 62
7
100
AcDbSpline
 70
8
 71
3
 72
8
 73
4
 74
0
 40
0
 40
0
 40
0
 40
0
 40
1
 40
1
 40
1
 40
1
 10
16.848633
 20
115.853242
 30
0.0
 10
17.064599
 20
115.552135
 30
0.0
 10
17.414614
 20
115.401581
 30
0.0
 10
17.898677
 20
115.401581
 30
0.0
  0
SPLINE
  5
191
100
AcDbEntity
  8
0
 62
7
100
AcDbSpline
 70
8
 71
3
 72
8
 73
4
 74
0
 40
0
 40
0
 40
0
 40
0
 40
1
 40
1
 40
1
 40
1
 10
17.898677
 20
115.401581
 30
0.0
 10
18.380257
 20
115.401581
 30
0.0
 10
18.729030
 20
115.552135
 30
0.0
 10
18.944998
 20
115.853242
 30
0.0
  0
SPLINE
  5
192
100
AcDbEntity
  8
0
 62
7
100
AcDbSpline
 70
8
 71
3
 72
8
 73
4
 74
0
 40
0
 40
0
 40
0
 40
0
 40
1
 40
1
 40
1
 40
1
 10
18.944998
 20
115.853242
 30
0.0
 10
19.160966
 20
116.157218
 30
0.0
 10
19.268950
 20
116.653328
 30
0.0
 10
19.268950
 20
117.341574
 30
0.0
  0
LWPOLYLINE
  5
193
100
AcDbEntity
  8
0
 62
7
100
AcDbPolyline
 90
3
 70
1
 10
15.768799
 20
121.243067
 30
0.0
 10
16.524682
 20
121.243067
 30
0.0
 10
16.524682
 20
117.341574
 30
0.0
  0
SPLINE
  5
194
100
AcDbEntity
  8
0
 62
7
100
AcDbSpline
 70
8
 71
3
 72
8
 73
4
 74
0
 40
0
 40
0
 40
0
 40
0
 40
1
 40
1
 40
1
 40
1
 10
20.024828
 20
117.234036
 30
0.0
 10
20.024828
 20
116.396670
 30
0.0
 10
19.844856
 20
115.764344
 30
0.0
 10
19.484913
 20
115.337057
 30
0.0
  0
SPLINE
  5
195
100
AcDbEntity
  8
0
 62
7
100
AcDbSpline
 70
8
 71
3
 72
8
 73
4
 74
0
 40
0
 40
0
 40
0
 40
0
 40
1
 40
1
 40
1
 40
1
 10
19.484913
 20
115.337057
 30
0.0
 10
19.127451
 20
114.909772
 30
0.0
 10
18.598706
 20
114.696129
 30
0.0
 10
17.898677
 20
114.696129
 30
0.0
  0
SPLINE
  5
196
100
AcDbEntity
  8
0
 62
7
100
AcDbSpline
 70
8
 71
3
 72
8
 73
4
 74
0
 40
0
 40
0
 40
0
 40
0
 40
1
 40
1
 40
1
 40
1
 10
17.898677
 20
114.696129
 30
0.0
 10
17.196165
 20
114.696129
 30
0.0
 10
16.664936
 20
114.909772
 30
0.0
 10
16.304992
 20
115.337057
 30
0.0
  0
SPLINE
  5
197
100
AcDbEntity
  8
0
 62
7
100
AcDbSpline
 70
8
 71
3
 72
8
 73
4
 74
0
 40
0
 40
0
 40
0
 40
0
 40
1
 40
1
 40
1
 40
1
 10
16.304992
 20
115.337057
 30
0.0
 10
15.947530
 20
115.764344
 30
0.0
 10
15.768799
 20
116.396670
 30
0.0
 10
15.768799
 20
117.234036
 30
0.0
  0
LWPOLYLINE
  5
198
100
AcDbEntity
  8
0
 62
7
100
AcDbPolyline
 90
4
 70
1
 10
19.268950
 20
117.341574
 30
0.0
 10
19.268950
 20
121.243067
 30
0.0
 10
20.024828
 20
121.243067
 30
0.0
 10
20.024828
 20
117.234036
 30
0.0
  0
LWPOLYLINE
  5
199
100
AcDbEntity
  8
0
 62
7
100
AcDbPolyline
 90
3
 70
1
 10
15.768799
 20
117.234036
 30
0.0
 10
15.768799
 20
121.243067
 30
0.0
 10
15.768799
 20
121.243067
 30
0.0
  0
SPLINE
  5
19a
100
AcDbEntity
  8
0
 62
7
100
AcDbSpline
 70
8
 71
3
 72
8
 73
4
 74
0
 40
0
 40
0
 40
0
 40
0
 40
1
 40
1
 40
1
 40
1
 10
23.973621
 20
117.511737
 30
0.0
 10
23.973621
 20
117.511737
 30
0.0
 10
23.896437
 20
117.756433
 30
0.0
 10
23.350700
 20
117.745377
 30
0.0
  0
SPLINE
  5
19b
100
AcDbEntity
  8
0
 62
7
100
AcDbSpline
 70
8
 71
3
 72
8
 73
4
 74
0
 40
0
 40
0
 40
0
 40
0
 40
1
 40
1
 40
1
 40
1
 10
23.350700
 20
117.745377
 30
0.0
 10
22.804960
 20
117.734337
 30
0.0
 10
22.134754
 20
117.225529
 30
0.0
 10
22.134754
 20
115.931457
 30
0.0
  0
SPLINE
  5
19c
100
AcDbEntity
  8
0
 62
7
100
AcDbSpline
 70
8
 71
3
 72
8
 73
4
 74
0
 40
0
 40
0
 40
0
 40
0
 40
1
 40
1
 40
1
 40
1
 10
22.134754
 20
115.931457
 30
0.0
 10
22.134754
 20
114.637369
 30
0.0
 10
22.785811
 20
114.117521
 30
0.0
 10
23.312404
 20
114.128577
 30
0.0
  0
SPLINE
  5
19d
100
AcDbEntity
  8
0
 62
7
100
AcDbSpline
 70
8
 71
3
 72
8
 73
4
 74
0
 40
0
 40
0
 40
0
 40
0
 40
1
 40
1
 40
1
 40
1
 10
23.312404
 20
114.128577
 30
0.0
 10
23.838994
 20
114.139697
 30
0.0
 10
23.964829
 20
114.552361
 30
0.0
 10
23.964829
 20
114.552361
 30
0.0
  0
LWPOLYLINE
  5
19e
100
AcDbEntity
  8
0
 62
7
100
AcDbPolyline
 90
2
 70
1
 10
23.973621
 20
118.198793
 30
0.0
 10
23.973621
 20
117.511737
 30
0.0
  0
SPLINE
  5
19f
100
AcDbEntity
  8
0
 62
7
100
AcDbSpline
 70
8
 71
3
 72
8
 73
4
 74
0
 40
0
 40
0
 40
0
 40
0
 40
1
 40
1
 40
1
 40
1
 10
23.958669
 20
113.854257
 30
0.0
 10
23.958669
 20
113.854257
 30
0.0
 10
23.874730
 20
113.510281
 30
0.0
 10
23.312436
 20
113.476009
 30
0.0
  0
SPLINE
  5
1a0
100
AcDbEntity
  8
0
 62
7
100
AcDbSpline
 70
8
 71
3
 72
8
 73
4
 74
0
 40
0
 40
0
 40
0
 40
0
 40
1
 40
1
 40
1
 40
1
 10
23.312436
 20
113.476009
 30
0.0
 10
22.680525
 20
113.464969
 30
0.0
 10
21.474153
 20
113.929489
 30
0.0
 10
21.493302
 20
115.975697
 30
0.0
  0
SPLINE
  5
1a1
100
AcDbEntity
  8
0
 62
7
100
AcDbSpline
 70
8
 71
3
 72
8
 73
4
 74
0
 40
0
 40
0
 40
0
 40
0
 40
1
 40
1
 40
1
 40
1
 10
21.493302
 20
115.975697
 30
0.0
 10
21.512454
 20
118.021897
 30
0.0
 10
22.651802
 20
118.375825
 30
0.0
 10
23.187968
 20
118.397945
 30
0.0
  0
SPLINE
  5
1a2
100
AcDbEntity
  8
0
 62
7
100
AcDbSpline
 70
8
 71
3
 72
8
 73
4
 74
0
 40
0
 40
0
 40
0
 40
0
 40
1
 40
1
 40
1
 40
1
 10
23.187968
 20
118.397945
 30
0.0
 10
23.724133
 20
118.420105
 30
0.0
 10
23.973653
 20
118.198793
 30
0.0
 10
23.973651
 20
118.198793
 30
0.0
  0
LWPOLYLINE
  5
1a3
100
AcDbEntity
  8
0
 62
7
100
AcDbPolyline
 90
2
 70
1
 10
23.964829
 20
114.552361
 30
0.0
 10
23.958669
 20
113.854257
 30
0.0
  0
LWPOLYLINE
  5
1a4
100
AcDbEntity
  8
0
 62
7
100
AcDbPolyline
 90
2
 70
1
 10
23.973651
 20
118.198793
 30
0.0
 10
23.973621
 20
118.198793
 30
0.0
  0
SPLINE
  5
1a5
100
AcDbEntity
  8
0
 62
7
100
AcDbSpline
 70
8
 71
3
 72
8
 73
4
 74
0
 40
0
 40
0
 40
0
 40
0
 40
1
 40
1
 40
1
 40
1
 10
25.265580
 20
113.984801
 30
0.0
 10
25.265580
 20
113.984801
 30
0.0
 10
25.332596
 20
111.617849
 30
0.0
 10
23.580488
 20
111.628905
 30
0.0
  0
SPLINE
  5
1a6
100
AcDbEntity
  8
0
 62
7
100
AcDbSpline
 70
8
 71
3
 72
8
 73
4
 74
0
 40
0
 40
0
 40
0
 40
0
 40
1
 40
1
 40
1
 40
1
 10
23.580488
 20
111.628905
 30
0.0
 10
22.594328
 20
111.628929
 30
0.0
 10
22.067736
 20
111.894353
 30
0.0
 10
22.067736
 20
111.894353
 30
0.0
  0
LWPOLYLINE
  5
1a7
100
AcDbEntity
  8
0
 62
7
100
AcDbPolyline
 90
3
 70
1
 10
24.585795
 20
118.265225
 30
0.0
 10
25.294300
 20
118.265225
 30
0.0
 10
25.265580
 20
113.984801
 30
0.0
  0
SPLINE
  5
1a8
100
AcDbEntity
  8
0
 62
7
100
AcDbSpline
 70
8
 71
3
 72
8
 73
4
 74
0
 40
0
 40
0
 40
0
 40
0
 40
1
 40
1
 40
1
 40
1
 10
22.067736
 20
112.657529
 30
0.0
 10
22.067736
 20
112.657529
 30
0.0
 10
22.575179
 20
112.248297
 30
0.0
 10
23.341129
 20
112.281473
 30
0.0
  0
SPLINE
  5
1a9
100
AcDbEntity
  8
0
 62
7
100
AcDbSpline
 70
8
 71
3
 72
8
 73
4
 74
0
 40
0
 40
0
 40
0
 40
0
 40
1
 40
1
 40
1
 40
1
 10
23.341129
 20
112.281473
 30
0.0
 10
24.107079
 20
112.314673
 30
0.0
 10
24.576224
 20
112.801321
 30
0.0
 10
24.595373
 20
113.841017
 30
0.0
  0
SPLINE
  5
1aa
100
AcDbEntity
  8
0
 62
7
100
AcDbSpline
 70
8
 71
3
 72
8
 73
4
 74
0
 40
0
 40
0
 40
0
 40
0
 40
1
 40
1
 40
1
 40
1
 10
24.595373
 20
113.841017
 30
0.0
 10
24.614525
 20
114.880697
 30
0.0
 10
24.585797
 20
118.265225
 30
0.0
 10
24.585797
 20
118.265225
 30
0.0
  0
LWPOLYLINE
  5
1ab
100
AcDbEntity
  8
0
 62
7
100
AcDbPolyline
 90
2
 70
1
 10
22.067736
 20
111.894353
 30
0.0
 10
22.067736
 20
112.657529
 30
0.0
  0
SPLINE
  5
1ac
100
AcDbEntity
  8
0
 62
7
100
AcDbSpline
 70
8
 71
3
 72
8
 73
4
 74
0
 40
0
 40
0
 40
0
 40
0
 40
1
 40
1
 40
1
 40
1
 10
91.604648
 20
213.652928
 30
0.0
 10
91.659688
 20
215.818104
 30
0.0
 10
90.750976
 20
216.018843
 30
0.0
 10
90.750976
 20
216.018843
 30
0.0
  0
LWPOLYLINE
  5
1ad
100
AcDbEntity
  8
0
 62
7
100
AcDbPolyline
 90
2
 70
1
 10
24.585797
 20
118.265225
 30
0.0
 10
24.585795
 20
118.265225
 30
0.0
  0
SPLINE
  5
1ae
100
AcDbEntity
  8
0
 62
7
100
AcDbSpline
 70
8
 71
3
 72
8
 73
4
 74
0
 40
0
 40
0
 40
0
 40
0
 40
1
 40
1
 40
1
 40
1
 10
90.750984
 20
216.678436
 30
0.0
 10
90.750984
 20
216.678436
 30
0.0
 10
92.389480
 20
216.649756
 30
0.0
 10
92.417016
 20
213.652928
 30
0.0
  0
SPLINE
  5
1af
100
AcDbEntity
  8
0
 62
7
100
AcDbSpline
 70
8
 71
3
 72
8
 73
4
 74
0
 40
0
 40
0
 40
0
 40
0
 40
1
 40
1
 40
1
 40
1
 10
92.417016
 20
213.652928
 30
0.0
 10
92.444536
 20
210.656092
 30
0.0
 10
90.764752
 20
210.584397
 30
0.0
 10
90.764752
 20
210.584397
 30
0.0
  0
LWPOLYLINE
  5
1b0
100
AcDbEntity
  8
0
 62
7
100
AcDbPolyline
 90
2
 70
1
 10
90.750976
 20
216.018843
 30
0.0
 10
90.750984
 20
216.678436
 30
0.0
  0
SPLINE
  5
1b1
100
AcDbEntity
  8
0
 62
7
100
AcDbSpline
 70
8
 71
3
 72
8
 73
4
 74
0
 40
0
 40
0
 40
0
 40
0
 40
1
 40
1
 40
1
 40
1
 10
90.764752
 20
211.301338
 30
0.0
 10
90.764752
 20
211.301338
 30
0.0
 10
91.604648
 20
211.258314
 30
0.0
 10
91.604648
 20
213.667260
 30
0.0
  0
LWPOLYLINE
  5
1b2
100
AcDbEntity
  8
0
 62
7
100
AcDbPolyline
 90
2
 70
1
 10
90.764752
 20
210.584397
 30
0.0
 10
90.764752
 20
211.301338
 30
0.0
  0
SPLINE
  5
1b3
100
AcDbEntity
  8
0
 62
7
100
AcDbSpline
 70
8
 71
3
 72
8
 73
4
 74
0
 40
0
 40
0
 40
0
 40
0
 40
1
 40
1
 40
1
 40
1
 10
89.209208
 20
213.595569
 30
0.0
 10
89.154088
 20
211.430393
 30
0.0
 10
90.062872
 20
211.229649
 30
0.0
 10
90.062872
 20
211.229649
 30
0.0
  0
LWPOLYLINE
  5
1b4
100
AcDbEntity
  8
0
 62
7
100
AcDbPolyline
 90
2
 70
1
 10
91.604648
 20
213.667260
 30
0.0
 10
91.604648
 20
213.652928
 30
0.0
  0
SPLINE
  5
1b5
100
AcDbEntity
  8
0
 62
7
100
AcDbSpline
 70
8
 71
3
 72
8
 73
4
 74
0
 40
0
 40
0
 40
0
 40
0
 40
1
 40
1
 40
1
 40
1
 10
90.062872
 20
210.570059
 30
0.0
 10
90.062872
 20
210.570059
 30
0.0
 10
88.424368
 20
210.598731
 30
0.0
 10
88.396832
 20
213.595569
 30
0.0
  0
SPLINE
  5
1b6
100
AcDbEntity
  8
0
 62
7
100
AcDbSpline
 70
8
 71
3
 72
8
 73
4
 74
0
 40
0
 40
0
 40
0
 40
0
 40
1
 40
1
 40
1
 40
1
 10
88.396832
 20
213.595569
 30
0.0
 10
88.369312
 20
216.592403
 30
0.0
 10
90.049096
 20
216.664097
 30
0.0
 10
90.049096
 20
216.664097
 30
0.0
  0
LWPOLYLINE
  5
1b7
100
AcDbEntity
  8
0
 62
7
100
AcDbPolyline
 90
2
 70
1
 10
90.062872
 20
211.229649
 30
0.0
 10
90.062872
 20
210.570059
 30
0.0
  0
SPLINE
  5
1b8
100
AcDbEntity
  8
0
 62
7
100
AcDbSpline
 70
8
 71
3
 72
8
 73
4
 74
0
 40
0
 40
0
 40
0
 40
0
 40
1
 40
1
 40
1
 40
1
 10
90.049096
 20
215.947152
 30
0.0
 10
90.049096
 20
215.947152
 30
0.0
 10
89.209200
 20
215.990168
 30
0.0
 10
89.209200
 20
213.581230
 30
0.0
  0
LWPOLYLINE
  5
1b9
100
AcDbEntity
  8
0
 62
7
100
AcDbPolyline
 90
2
 70
1
 10
90.049096
 20
216.664097
 30
0.0
 10
90.049096
 20
215.947152
 30
0.0
  0
LWPOLYLINE
  5
1ba
100
AcDbEntity
  8
0
 62
7
100
AcDbPolyline
 90
2
 70
1
 10
89.209200
 20
213.581230
 30
0.0
 10
89.209208
 20
213.595569
 30
0.0
  0
ENDSEC
  0
SECTION
  2
OBJECTS
  0
DICTIONARY
  5
C
330
0
100
AcDbDictionary
  3
ACAD_GROUP
350
D
  3
ACAD_MLINESTYLE
350
17
  0
DICTIONARY
  5
D
330
C
100
AcDbDictionary
  0
DICTIONARY
  5
1A
330
C
100
AcDbDictionary
  0
DICTIONARY
  5
17
330
C
100
AcDbDictionary
  3
STANDARD
350
18
  0
DICTIONARY
  5
19
330
C
100
AcDbDictionary
  0
ENDSEC
  0
EOF
