<?xml version="1.0" encoding="UTF-8" standalone="no"?>
<svg
   xmlns:dc="http://purl.org/dc/elements/1.1/"
   xmlns:cc="http://creativecommons.org/ns#"
   xmlns:rdf="http://www.w3.org/1999/02/22-rdf-syntax-ns#"
   xmlns:svg="http://www.w3.org/2000/svg"
   xmlns="http://www.w3.org/2000/svg"
   xmlns:sodipodi="http://sodipodi.sourceforge.net/DTD/sodipodi-0.dtd"
   xmlns:inkscape="http://www.inkscape.org/namespaces/inkscape"
   width="193.99998632632088mm"
   height="302.9985214145163mm"
   viewBox="0 0 193.99998632632088 302.9985214145163"
   id="svg3336"
   version="1.1"
   inkscape:version="0.91 r13725"
   sodipodi:docname="seitenteile.svg">
  <metadata
     id="metadata3348">
    <rdf:RDF>
      <cc:Work
         rdf:about="">
        <dc:format>image/svg+xml</dc:format>
        <dc:type
           rdf:resource="http://purl.org/dc/dcmitype/StillImage" />
      </cc:Work>
    </rdf:RDF>
  </metadata>
  <defs
     id="defs3346" />
  <sodipodi:namedview
     pagecolor="#ffffff"
     bordercolor="#666666"
     borderopacity="1"
     objecttolerance="10"
     gridtolerance="10"
     guidetolerance="10"
     inkscape:pageopacity="0"
     inkscape:pageshadow="2"
     inkscape:window-width="1280"
     inkscape:window-height="972"
     id="namedview3344"
     showgrid="false"
     inkscape:zoom="0.3609295"
     inkscape:cx="807.37433"
     inkscape:cy="454.61284"
     inkscape:window-x="-8"
     inkscape:window-y="-8"
     inkscape:window-maximized="1"
     inkscape:current-layer="svg3336" />
  <title
     id="title3338">Bezier Curve : BezierCircle.003</title>
  <desc
     id="desc3340">This is an exported Bezier xml_path from Blender, using the ExportScript by maybites.ch and Craxic</desc>
  <path
     style="fill:none;stroke:#000000;stroke-width:1px;stroke-linecap:butt;stroke-linejoin:miter;stroke-opacity:1"
     d="m 0.82237058,299.99851 c 0,0 0,-280.757951 0,-280.757951 0,0 9.91825142,-9.9183049 9.91825142,-9.9183049 0,0 0,-9.322266107469 0,-9.322266107469 0,0 3.323685,0 3.323685,0 0,0 0,3.000274807469 0,3.000274807469 0,0 24.794099,0 24.794099,0 0,0 0,-3.000274807469 0,-3.000274807469 0,0 3.29765,0 3.29765,0 0,0 0,5.998566007469 0,5.998566007469 0,0 111.332564,0 111.332564,0 0,0 0,-5.998566007469 0,-5.998566007469 0,0 3.29765,0 3.29765,0 0,0 0,3.000274807469 0,3.000274807469 0,0 24.7941,0 24.7941,0 0,0 0,-3.000274807469 0,-3.000274807469 0,0 3.32368,0 3.32368,0 0,0 0,9.322266107469 0,9.322266107469 0,0 9.91831,9.9183659 9.91831,9.9183659 0,0 0,280.75789 0,280.75789 0,0 -0.82556,0 -0.82556,0 0,0 0,3 0,3 0,0 -9.00001,0 -9.00001,0 0,0 0,-3 0,-3 0,0 -12.29861,0 -12.29861,0 0,0 -22.32173,-24.84746 -22.32173,-24.84746 0,0 -105.108193,0 -105.108193,0 0,0 -22.321717,24.84746 -22.321717,24.84746 0,0 -12.298661,0 -12.298661,0 0,0 0,3 0,3 0,0 -9.0000003,0 -9.0000003,0 0,0 0,-3 0,-3 0,0 -0.82550812,0 -0.82550812,0 z"
     id="path3342"
     inkscape:connector-curvature="0" />
</svg>
