  0
SECTION
  2
HEADER
  9
$ACADVER
  1
AC1014
  9
$HANDSEED
  5
FFFF
  9
$MEASUREMENT
 70
     1
  0
ENDSEC
  0
SECTION
  2
TABLES
  0
TABLE
  2
VPORT
  5
8
330
0
100
AcDbSymbolTable
 70
     4
  0
VPORT
  5
2E
330
8
100
AcDbSymbolTableRecord
100
AcDbViewportTableRecord
  2
*ACTIVE
 70
     0
 10
0.0
 20
0.0
 11
1.0
 21
1.0
 12
210.0
 22
148.5
 13
0.0
 23
0.0
 14
10.0
 24
10.0
 15
10.0
 25
10.0
 16
0.0
 26
0.0
 36
1.0
 17
0.0
 27
0.0
 37
0.0
 40
341.0
 41
1.24
 42
50.0
 43
0.0
 44
0.0
 50
0.0
 51
0.0
 71
     0
 72
   100
 73
     1
 74
     3
 75
     0
 76
     0
 77
     0
 78
     0
  0
ENDTAB
  0
TABLE
  2
LTYPE
  5
5
330
0
100
AcDbSymbolTable
 70
     1
  0
LTYPE
  5
14
330
5
100
AcDbSymbolTableRecord
100
AcDbLinetypeTableRecord
  2
BYBLOCK
 70
     0
  3

 72
    65
 73
     0
 40
0.0
  0
LTYPE
  5
15
330
5
100
AcDbSymbolTableRecord
100
AcDbLinetypeTableRecord
  2
BYLAYER
 70
     0
  3

 72
    65
 73
     0
 40
0.0
  0
LTYPE
  5
16
330
5
100
AcDbSymbolTableRecord
100
AcDbLinetypeTableRecord
  2
CONTINUOUS
 70
     0
  3
Solid line
 72
    65
 73
     0
 40
0.0
  0
ENDTAB
  0
TABLE
  2
LAYER
  5
2
100
AcDbSymbolTable
 70
2
  0
LAYER
  5
50
100
AcDbSymbolTableRecord
100
AcDbLayerTableRecord
  2
0
 70
0
  6
CONTINUOUS
  0
LAYER
  5
51
100
AcDbSymbolTableRecord
100
AcDbLayerTableRecord
  2
Ebene_1
 70
0
  6
CONTINUOUS
  0
ENDTAB
  0
TABLE
  2
STYLE
  5
3
330
0
100
AcDbSymbolTable
 70
     1
  0
STYLE
  5
11
330
3
100
AcDbSymbolTableRecord
100
AcDbTextStyleTableRecord
  2
STANDARD
 70
     0
 40
0.0
 41
1.0
 50
0.0
 71
     0
 42
2.5
  3
txt
  4

  0
ENDTAB
  0
TABLE
  2
VIEW
  5
6
330
0
100
AcDbSymbolTable
 70
     0
  0
ENDTAB
  0
TABLE
  2
UCS
  5
7
330
0
100
AcDbSymbolTable
 70
     0
  0
ENDTAB
  0
TABLE
  2
APPID
  5
9
330
0
100
AcDbSymbolTable
 70
     2
  0
APPID
  5
12
330
9
100
AcDbSymbolTableRecord
100
AcDbRegAppTableRecord
  2
ACAD
 70
     0
  0
ENDTAB
  0
TABLE
  2
DIMSTYLE
  5
A
330
0
100
AcDbSymbolTable
 70
     1
  0
DIMSTYLE
105
27
330
A
100
AcDbSymbolTableRecord
100
AcDbDimStyleTableRecord
  2
ISO-25
 70
     0
  3

  4

  5

  6

  7

 40
1.0
 41
2.5
 42
0.625
 43
3.75
 44
1.25
 45
0.0
 46
0.0
 47
0.0
 48
0.0
140
2.5
141
2.5
142
0.0
143
0.03937007874016
144
1.0
145
0.0
146
1.0
147
0.625
 71
     0
 72
     0
 73
     0
 74
     0
 75
     0
 76
     0
 77
     1
 78
     8
170
     0
171
     3
172
     1
173
     0
174
     0
175
     0
176
     0
177
     0
178
     0
270
     2
271
     2
272
     2
273
     2
274
     3
340
11
275
     0
280
     0
281
     0
282
     0
283
     0
284
     8
285
     0
286
     0
287
     3
288
     0
  0
ENDTAB
  0
TABLE
  2
BLOCK_RECORD
  5
1
330
0
100
AcDbSymbolTable
 70
     1
  0
BLOCK_RECORD
  5
1F
330
1
100
AcDbSymbolTableRecord
100
AcDbBlockTableRecord
  2
*MODEL_SPACE
  0
BLOCK_RECORD
  5
1B
330
1
100
AcDbSymbolTableRecord
100
AcDbBlockTableRecord
  2
*PAPER_SPACE
  0
ENDTAB
  0
ENDSEC
  0
SECTION
  2
BLOCKS
  0
BLOCK
  5
20
330
1F
100
AcDbEntity
  8
0
100
AcDbBlockBegin
  2
*MODEL_SPACE
 70
     0
 10
0.0
 20
0.0
 30
0.0
  3
*MODEL_SPACE
  1

  0
ENDBLK
  5
21
330
1F
100
AcDbEntity
  8
0
100
AcDbBlockEnd
  0
BLOCK
  5
1C
330
1B
100
AcDbEntity
 67
     1
  8
0
100
AcDbBlockBegin
  2
*PAPER_SPACE
  1

  0
ENDBLK
  5
1D
330
1B
100
AcDbEntity
 67
     1
  8
0
100
AcDbBlockEnd
  0
ENDSEC
  0
SECTION
  2
ENTITIES
  0
SPLINE
  5
100
100
AcDbEntity
  8
Ebene_1
 62
7
100
AcDbSpline
 70
8
 71
3
 72
8
 73
4
 74
0
 40
0
 40
0
 40
0
 40
0
 40
1
 40
1
 40
1
 40
1
 10
40.022278
 20
288.491937
 30
0.0
 10
110.510057
 20
367.398625
 30
0.0
 10
-31.228079
 20
493.258625
 30
0.0
 10
155.065681
 20
526.570057
 30
0.0
  0
SPLINE
  5
101
100
AcDbEntity
  8
Ebene_1
 62
7
100
AcDbSpline
 70
8
 71
3
 72
8
 73
4
 74
0
 40
0
 40
0
 40
0
 40
0
 40
1
 40
1
 40
1
 40
1
 10
155.065681
 20
526.570057
 30
0.0
 10
173.154361
 20
527.952721
 30
0.0
 10
166.274785
 20
528.705785
 30
0.0
 10
180.112481
 20
529.441129
 30
0.0
  0
SPLINE
  5
102
100
AcDbEntity
  8
Ebene_1
 62
7
100
AcDbSpline
 70
8
 71
3
 72
8
 73
4
 74
0
 40
0
 40
0
 40
0
 40
0
 40
1
 40
1
 40
1
 40
1
 10
180.112481
 20
529.441129
 30
0.0
 10
322.155681
 20
536.749041
 30
0.0
 10
276.817281
 20
514.814089
 30
0.0
 10
322.306081
 20
524.530545
 30
0.0
  0
SPLINE
  5
103
100
AcDbEntity
  8
Ebene_1
 62
7
100
AcDbSpline
 70
8
 71
3
 72
8
 73
4
 74
0
 40
0
 40
0
 40
0
 40
0
 40
1
 40
1
 40
1
 40
1
 10
322.306081
 20
524.530545
 30
0.0
 10
367.852641
 20
534.259265
 30
0.0
 10
330.894081
 20
533.888465
 30
0.0
 10
381.961841
 20
536.257745
 30
0.0
  0
SPLINE
  5
104
100
AcDbEntity
  8
Ebene_1
 62
7
100
AcDbSpline
 70
8
 71
3
 72
8
 73
4
 74
0
 40
0
 40
0
 40
0
 40
0
 40
1
 40
1
 40
1
 40
1
 10
381.961841
 20
536.257745
 30
0.0
 10
428.859201
 20
538.433561
 30
0.0
 10
403.613121
 20
541.036481
 30
0.0
 10
419.692881
 20
541.356529
 30
0.0
  0
SPLINE
  5
105
100
AcDbEntity
  8
Ebene_1
 62
7
100
AcDbSpline
 70
8
 71
3
 72
8
 73
4
 74
0
 40
0
 40
0
 40
0
 40
0
 40
1
 40
1
 40
1
 40
1
 10
419.692881
 20
541.356529
 30
0.0
 10
469.385521
 20
542.345593
 30
0.0
 10
440.495281
 20
534.538265
 30
0.0
 10
452.834961
 20
543.396049
 30
0.0
  0
SPLINE
  5
106
100
AcDbEntity
  8
Ebene_1
 62
7
100
AcDbSpline
 70
8
 71
3
 72
8
 73
4
 74
0
 40
0
 40
0
 40
0
 40
0
 40
1
 40
1
 40
1
 40
1
 10
452.834961
 20
543.396049
 30
0.0
 10
469.912241
 20
555.654609
 30
0.0
 10
452.081785
 20
560.789649
 30
0.0
 10
476.289361
 20
561.241809
 30
0.0
  0
SPLINE
  5
107
100
AcDbEntity
  8
Ebene_1
 62
7
100
AcDbSpline
 70
8
 71
3
 72
8
 73
4
 74
0
 40
0
 40
0
 40
0
 40
0
 40
1
 40
1
 40
1
 40
1
 10
476.289361
 20
561.241809
 30
0.0
 10
488.653601
 20
561.472745
 30
0.0
 10
470.881201
 20
536.577089
 30
0.0
 10
485.467121
 20
550.534369
 30
0.0
  0
SPLINE
  5
108
100
AcDbEntity
  8
Ebene_1
 62
7
100
AcDbSpline
 70
8
 71
3
 72
8
 73
4
 74
0
 40
0
 40
0
 40
0
 40
0
 40
1
 40
1
 40
1
 40
1
 10
485.467121
 20
550.534369
 30
0.0
 10
494.337041
 20
559.021969
 30
0.0
 10
498.092321
 20
567.430049
 30
0.0
 10
497.704241
 20
558.692449
 30
0.0
  0
SPLINE
  5
109
100
AcDbEntity
  8
Ebene_1
 62
7
100
AcDbSpline
 70
8
 71
3
 72
8
 73
4
 74
0
 40
0
 40
0
 40
0
 40
0
 40
1
 40
1
 40
1
 40
1
 10
497.704241
 20
558.692449
 30
0.0
 10
496.672041
 20
535.452929
 30
0.0
 10
486.345681
 20
552.710129
 30
0.0
 10
496.174593
 20
537.277569
 30
0.0
  0
SPLINE
  5
10a
100
AcDbEntity
  8
Ebene_1
 62
7
100
AcDbSpline
 70
8
 71
3
 72
8
 73
4
 74
0
 40
0
 40
0
 40
0
 40
0
 40
1
 40
1
 40
1
 40
1
 10
496.174593
 20
537.277569
 30
0.0
 10
531.662433
 20
504.288529
 30
0.0
 10
506.085713
 20
525.557249
 30
0.0
 10
522.178433
 20
501.586049
 30
0.0
  0
SPLINE
  5
10b
100
AcDbEntity
  8
Ebene_1
 62
7
100
AcDbSpline
 70
8
 71
3
 72
8
 73
4
 74
0
 40
0
 40
0
 40
0
 40
0
 40
1
 40
1
 40
1
 40
1
 10
522.178433
 20
501.586049
 30
0.0
 10
542.989233
 20
474.313089
 30
0.0
 10
534.497553
 20
481.303329
 30
0.0
 10
533.905633
 20
475.072369
 30
0.0
  0
SPLINE
  5
10c
100
AcDbEntity
  8
Ebene_1
 62
7
100
AcDbSpline
 70
8
 71
3
 72
8
 73
4
 74
0
 40
0
 40
0
 40
0
 40
0
 40
1
 40
1
 40
1
 40
1
 10
533.905633
 20
475.072369
 30
0.0
 10
527.110809
 20
460.134449
 30
0.0
 10
528.167849
 20
462.318769
 30
0.0
 10
513.510513
 20
457.736529
 30
0.0
  0
SPLINE
  5
10d
100
AcDbEntity
  8
Ebene_1
 62
7
100
AcDbSpline
 70
8
 71
3
 72
8
 73
4
 74
0
 40
0
 40
0
 40
0
 40
0
 40
1
 40
1
 40
1
 40
1
 10
513.510513
 20
457.736529
 30
0.0
 10
499.657553
 20
455.933721
 30
0.0
 10
521.254185
 20
455.056097
 30
0.0
 10
488.600993
 20
460.304553
 30
0.0
  0
SPLINE
  5
10e
100
AcDbEntity
  8
Ebene_1
 62
7
100
AcDbSpline
 70
8
 71
3
 72
8
 73
4
 74
0
 40
0
 40
0
 40
0
 40
0
 40
1
 40
1
 40
1
 40
1
 10
488.600993
 20
460.304553
 30
0.0
 10
488.091897
 20
476.386233
 30
0.0
 10
468.396513
 20
458.433441
 30
0.0
 10
462.171953
 20
451.036553
 30
0.0
  0
SPLINE
  5
10f
100
AcDbEntity
  8
Ebene_1
 62
7
100
AcDbSpline
 70
8
 71
3
 72
8
 73
4
 74
0
 40
0
 40
0
 40
0
 40
0
 40
1
 40
1
 40
1
 40
1
 10
462.171953
 20
451.036553
 30
0.0
 10
448.190113
 20
446.551841
 30
0.0
 10
445.642513
 20
467.199913
 30
0.0
 10
429.380513
 20
450.598249
 30
0.0
  0
SPLINE
  5
110
100
AcDbEntity
  8
Ebene_1
 62
7
100
AcDbSpline
 70
8
 71
3
 72
8
 73
4
 74
0
 40
0
 40
0
 40
0
 40
0
 40
1
 40
1
 40
1
 40
1
 10
429.380513
 20
450.598249
 30
0.0
 10
422.098385
 20
400.824969
 30
0.0
 10
421.370913
 20
410.326809
 30
0.0
 10
417.143473
 20
400.120249
 30
0.0
  0
SPLINE
  5
111
100
AcDbEntity
  8
Ebene_1
 62
7
100
AcDbSpline
 70
8
 71
3
 72
8
 73
4
 74
0
 40
0
 40
0
 40
0
 40
0
 40
1
 40
1
 40
1
 40
1
 10
417.143473
 20
400.120249
 30
0.0
 10
431.934353
 20
308.057049
 30
0.0
 10
422.038321
 20
316.406649
 30
0.0
 10
432.949713
 20
316.500249
 30
0.0
  0
SPLINE
  5
112
100
AcDbEntity
  8
Ebene_1
 62
7
100
AcDbSpline
 70
8
 71
3
 72
8
 73
4
 74
0
 40
0
 40
0
 40
0
 40
0
 40
1
 40
1
 40
1
 40
1
 10
432.949713
 20
316.500249
 30
0.0
 10
439.114737
 20
316.553209
 30
0.0
 10
470.816193
 20
309.367729
 30
0.0
 10
439.578137
 20
311.401465
 30
0.0
  0
SPLINE
  5
113
100
AcDbEntity
  8
Ebene_1
 62
7
100
AcDbSpline
 70
8
 71
3
 72
8
 73
4
 74
0
 40
0
 40
0
 40
0
 40
0
 40
1
 40
1
 40
1
 40
1
 10
439.578137
 20
311.401465
 30
0.0
 10
477.648937
 20
310.320977
 30
0.0
 10
454.224537
 20
286.964985
 30
0.0
 10
445.696673
 20
289.476665
 30
0.0
  0
SPLINE
  5
114
100
AcDbEntity
  8
Ebene_1
 62
7
100
AcDbSpline
 70
8
 71
3
 72
8
 73
4
 74
0
 40
0
 40
0
 40
0
 40
0
 40
1
 40
1
 40
1
 40
1
 10
445.696673
 20
289.476665
 30
0.0
 10
407.770913
 20
288.325945
 30
0.0
 10
413.640593
 20
291.067457
 30
0.0
 10
411.024913
 20
295.595209
 30
0.0
  0
SPLINE
  5
115
100
AcDbEntity
  8
Ebene_1
 62
7
100
AcDbSpline
 70
8
 71
3
 72
8
 73
4
 74
0
 40
0
 40
0
 40
0
 40
0
 40
1
 40
1
 40
1
 40
1
 10
411.024913
 20
295.595209
 30
0.0
 10
376.059073
 20
356.120729
 30
0.0
 10
385.637793
 20
387.608809
 30
0.0
 10
372.784033
 20
327.717529
 30
0.0
  0
SPLINE
  5
116
100
AcDbEntity
  8
Ebene_1
 62
7
100
AcDbSpline
 70
8
 71
3
 72
8
 73
4
 74
0
 40
0
 40
0
 40
0
 40
0
 40
1
 40
1
 40
1
 40
1
 10
372.784033
 20
327.717529
 30
0.0
 10
361.429473
 20
274.811609
 30
0.0
 10
380.443481
 20
292.621369
 30
0.0
 10
380.432209
 20
292.535929
 30
0.0
  0
SPLINE
  5
117
100
AcDbEntity
  8
Ebene_1
 62
7
100
AcDbSpline
 70
8
 71
3
 72
8
 73
4
 74
0
 40
0
 40
0
 40
0
 40
0
 40
1
 40
1
 40
1
 40
1
 10
380.432209
 20
292.535929
 30
0.0
 10
411.009409
 20
277.342569
 30
0.0
 10
399.622209
 20
262.464009
 30
0.0
 10
377.882809
 20
267.551849
 30
0.0
  0
SPLINE
  5
118
100
AcDbEntity
  8
Ebene_1
 62
7
100
AcDbSpline
 70
8
 71
3
 72
8
 73
4
 74
0
 40
0
 40
0
 40
0
 40
0
 40
1
 40
1
 40
1
 40
1
 10
377.882809
 20
267.551849
 30
0.0
 10
368.997609
 20
269.769377
 30
0.0
 10
350.972009
 20
267.368417
 30
0.0
 10
349.329609
 20
272.650641
 30
0.0
  0
SPLINE
  5
119
100
AcDbEntity
  8
Ebene_1
 62
7
100
AcDbSpline
 70
8
 71
3
 72
8
 73
4
 74
0
 40
0
 40
0
 40
0
 40
0
 40
1
 40
1
 40
1
 40
1
 10
349.329609
 20
272.650641
 30
0.0
 10
326.838409
 20
344.987361
 30
0.0
 10
342.482977
 20
372.559441
 30
0.0
 10
334.033289
 20
375.136241
 30
0.0
  0
SPLINE
  5
11a
100
AcDbEntity
  8
Ebene_1
 62
7
100
AcDbSpline
 70
8
 71
3
 72
8
 73
4
 74
0
 40
0
 40
0
 40
0
 40
0
 40
1
 40
1
 40
1
 40
1
 10
334.033289
 20
375.136241
 30
0.0
 10
316.425129
 20
380.506417
 30
0.0
 10
313.491689
 20
369.843633
 30
0.0
 10
264.179929
 20
377.685633
 30
0.0
  0
SPLINE
  5
11b
100
AcDbEntity
  8
Ebene_1
 62
7
100
AcDbSpline
 70
8
 71
3
 72
8
 73
4
 74
0
 40
0
 40
0
 40
0
 40
0
 40
1
 40
1
 40
1
 40
1
 10
264.179929
 20
377.685633
 30
0.0
 10
214.390569
 20
385.603585
 30
0.0
 10
212.623289
 20
408.880673
 30
0.0
 10
209.113049
 20
394.511633
 30
0.0
  0
SPLINE
  5
11c
100
AcDbEntity
  8
Ebene_1
 62
7
100
AcDbSpline
 70
8
 71
3
 72
8
 73
4
 74
0
 40
0
 40
0
 40
0
 40
0
 40
1
 40
1
 40
1
 40
1
 10
209.113049
 20
394.511633
 30
0.0
 10
194.931049
 20
336.458113
 30
0.0
 10
187.449849
 20
348.088513
 30
0.0
 10
188.717929
 20
325.678033
 30
0.0
  0
SPLINE
  5
11d
100
AcDbEntity
  8
Ebene_1
 62
7
100
AcDbSpline
 70
8
 71
3
 72
8
 73
4
 74
0
 40
0
 40
0
 40
0
 40
0
 40
1
 40
1
 40
1
 40
1
 10
188.717929
 20
325.678033
 30
0.0
 10
190.106425
 20
301.139153
 30
0.0
 10
182.670449
 20
331.378649
 30
0.0
 10
192.287089
 20
307.832273
 30
0.0
  0
SPLINE
  5
11e
100
AcDbEntity
  8
Ebene_1
 62
7
100
AcDbSpline
 70
8
 71
3
 72
8
 73
4
 74
0
 40
0
 40
0
 40
0
 40
0
 40
1
 40
1
 40
1
 40
1
 10
192.287089
 20
307.832273
 30
0.0
 10
198.242329
 20
293.250833
 30
0.0
 10
212.449249
 20
310.507297
 30
0.0
 10
218.800769
 20
300.184097
 30
0.0
  0
SPLINE
  5
11f
100
AcDbEntity
  8
Ebene_1
 62
7
100
AcDbSpline
 70
8
 71
3
 72
8
 73
4
 74
0
 40
0
 40
0
 40
0
 40
0
 40
1
 40
1
 40
1
 40
1
 10
218.800769
 20
300.184097
 30
0.0
 10
240.555569
 20
287.180177
 30
0.0
 10
226.568497
 20
279.646817
 30
0.0
 10
200.445169
 20
277.749377
 30
0.0
  0
SPLINE
  5
120
100
AcDbEntity
  8
Ebene_1
 62
7
100
AcDbSpline
 70
8
 71
3
 72
8
 73
4
 74
0
 40
0
 40
0
 40
0
 40
0
 40
1
 40
1
 40
1
 40
1
 10
200.445169
 20
277.749377
 30
0.0
 10
170.338769
 20
290.441617
 30
0.0
 10
183.569409
 20
293.770657
 30
0.0
 10
169.852449
 20
308.851937
 30
0.0
  0
SPLINE
  5
121
100
AcDbEntity
  8
Ebene_1
 62
7
100
AcDbSpline
 70
8
 71
3
 72
8
 73
4
 74
0
 40
0
 40
0
 40
0
 40
0
 40
1
 40
1
 40
1
 40
1
 10
169.852449
 20
308.851937
 30
0.0
 10
152.405409
 20
328.034337
 30
0.0
 10
151.586289
 20
323.516897
 30
0.0
 10
157.615329
 20
332.816257
 30
0.0
  0
SPLINE
  5
122
100
AcDbEntity
  8
Ebene_1
 62
7
100
AcDbSpline
 70
8
 71
3
 72
8
 73
4
 74
0
 40
0
 40
0
 40
0
 40
0
 40
1
 40
1
 40
1
 40
1
 10
157.615329
 20
332.816257
 30
0.0
 10
162.252569
 20
339.968865
 30
0.0
 10
156.300289
 20
377.197617
 30
0.0
 10
152.516545
 20
368.507777
 30
0.0
  0
SPLINE
  5
123
100
AcDbEntity
  8
Ebene_1
 62
7
100
AcDbSpline
 70
8
 71
3
 72
8
 73
4
 74
0
 40
0
 40
0
 40
0
 40
0
 40
1
 40
1
 40
1
 40
1
 10
152.516545
 20
368.507777
 30
0.0
 10
127.344785
 20
310.697697
 30
0.0
 10
130.865105
 20
340.968977
 30
0.0
 10
116.825025
 20
315.480417
 30
0.0
  0
SPLINE
  5
124
100
AcDbEntity
  8
Ebene_1
 62
7
100
AcDbSpline
 70
8
 71
3
 72
8
 73
4
 74
0
 40
0
 40
0
 40
0
 40
0
 40
1
 40
1
 40
1
 40
1
 10
116.825025
 20
315.480417
 30
0.0
 10
108.253265
 20
299.919057
 30
0.0
 10
110.442297
 20
295.186017
 30
0.0
 10
120.394177
 20
280.298817
 30
0.0
  0
SPLINE
  5
125
100
AcDbEntity
  8
Ebene_1
 62
7
100
AcDbSpline
 70
8
 71
3
 72
8
 73
4
 74
0
 40
0
 40
0
 40
0
 40
0
 40
1
 40
1
 40
1
 40
1
 10
120.394177
 20
280.298817
 30
0.0
 10
123.801665
 20
275.201497
 30
0.0
 10
135.997217
 20
281.676809
 30
0.0
 10
146.398017
 20
267.551857
 30
0.0
  0
SPLINE
  5
126
100
AcDbEntity
  8
Ebene_1
 62
7
100
AcDbSpline
 70
8
 71
3
 72
8
 73
4
 74
0
 40
0
 40
0
 40
0
 40
0
 40
1
 40
1
 40
1
 40
1
 10
146.398017
 20
267.551857
 30
0.0
 10
151.570417
 20
260.527377
 30
0.0
 10
131.686257
 20
255.658657
 30
0.0
 10
127.022657
 20
257.864177
 30
0.0
  0
SPLINE
  5
127
100
AcDbEntity
  8
Ebene_1
 62
7
100
AcDbSpline
 70
8
 71
3
 72
8
 73
4
 74
0
 40
0
 40
0
 40
0
 40
0
 40
1
 40
1
 40
1
 40
1
 10
127.022657
 20
257.864177
 30
0.0
 10
122.638841
 20
259.937409
 30
0.0
 10
99.680177
 20
257.023273
 30
0.0
 10
97.449697
 20
269.081537
 30
0.0
  0
SPLINE
  5
128
100
AcDbEntity
  8
Ebene_1
 62
7
100
AcDbSpline
 70
8
 71
3
 72
8
 73
4
 74
0
 40
0
 40
0
 40
0
 40
0
 40
1
 40
1
 40
1
 40
1
 10
97.449697
 20
269.081537
 30
0.0
 10
93.375009
 20
291.109457
 30
0.0
 10
77.936425
 20
299.384913
 30
0.0
 10
80.623697
 20
320.069377
 30
0.0
  0
SPLINE
  5
129
100
AcDbEntity
  8
Ebene_1
 62
7
100
AcDbSpline
 70
8
 71
3
 72
8
 73
4
 74
0
 40
0
 40
0
 40
0
 40
0
 40
1
 40
1
 40
1
 40
1
 10
80.623697
 20
320.069377
 30
0.0
 10
82.783737
 20
336.695633
 30
0.0
 10
109.124713
 20
329.339809
 30
0.0
 10
99.489217
 20
360.349857
 30
0.0
  0
SPLINE
  5
12a
100
AcDbEntity
  8
Ebene_1
 62
7
100
AcDbSpline
 70
8
 71
3
 72
8
 73
4
 74
0
 40
0
 40
0
 40
0
 40
0
 40
1
 40
1
 40
1
 40
1
 10
99.489217
 20
360.349857
 30
0.0
 10
78.698145
 20
427.262049
 30
0.0
 10
76.490065
 20
438.405289
 30
0.0
 10
76.401537
 20
439.134177
 30
0.0
  0
SPLINE
  5
12b
100
AcDbEntity
  8
Ebene_1
 62
7
100
AcDbSpline
 70
8
 71
3
 72
8
 73
4
 74
0
 40
0
 40
0
 40
0
 40
0
 40
1
 40
1
 40
1
 40
1
 10
76.401537
 20
439.134177
 30
0.0
 10
75.456817
 20
446.912737
 30
0.0
 10
66.321393
 20
458.550041
 30
0.0
 10
67.350817
 20
446.025577
 30
0.0
  0
SPLINE
  5
12c
100
AcDbEntity
  8
Ebene_1
 62
7
100
AcDbSpline
 70
8
 71
3
 72
8
 73
4
 74
0
 40
0
 40
0
 40
0
 40
0
 40
1
 40
1
 40
1
 40
1
 10
67.350817
 20
446.025577
 30
0.0
 10
79.556745
 20
297.522761
 30
0.0
 10
74.806897
 20
336.239849
 30
0.0
 10
61.248361
 20
301.713577
 30
0.0
  0
SPLINE
  5
12d
100
AcDbEntity
  8
Ebene_1
 62
7
100
AcDbSpline
 70
8
 71
3
 72
8
 73
4
 74
0
 40
0
 40
0
 40
0
 40
0
 40
1
 40
1
 40
1
 40
1
 10
61.248361
 20
301.713577
 30
0.0
 10
51.472705
 20
276.820265
 30
0.0
 10
34.676814
 20
276.986089
 30
0.0
 10
33.380360
 20
280.298697
 30
0.0
  0
SPLINE
  5
12e
100
AcDbEntity
  8
Ebene_1
 62
7
100
AcDbSpline
 70
8
 71
3
 72
8
 73
4
 74
0
 40
0
 40
0
 40
0
 40
0
 40
1
 40
1
 40
1
 40
1
 10
33.380360
 20
280.298697
 30
0.0
 10
24.318254
 20
303.453561
 30
0.0
 10
35.064130
 20
326.391017
 30
0.0
 10
40.623195
 20
318.947721
 30
0.0
  0
SPLINE
  5
12f
100
AcDbEntity
  8
Ebene_1
 62
7
100
AcDbSpline
 70
8
 71
3
 72
8
 73
4
 74
0
 40
0
 40
0
 40
0
 40
0
 40
1
 40
1
 40
1
 40
1
 10
40.623195
 20
318.947721
 30
0.0
 10
46.182261
 20
311.504425
 30
0.0
 10
38.372122
 20
306.362121
 30
0.0
 10
38.492540
 20
300.218889
 30
0.0
  0
SPLINE
  5
130
100
AcDbEntity
  8
Ebene_1
 62
7
100
AcDbSpline
 70
8
 71
3
 72
8
 73
4
 74
0
 40
0
 40
0
 40
0
 40
0
 40
1
 40
1
 40
1
 40
1
 10
38.492540
 20
300.218889
 30
0.0
 10
38.612958
 20
294.075657
 30
0.0
 10
34.452792
 20
282.257241
 30
0.0
 10
40.022278
 20
288.491937
 30
0.0
  0
LWPOLYLINE
  5
131
100
AcDbEntity
  8
Ebene_1
 62
7
100
AcDbPolyline
 90
2
 70
1
 10
40.022278
 20
288.491937
 30
0.0
 10
40.022278
 20
288.491937
 30
0.0
  0
ENDSEC
  0
SECTION
  2
OBJECTS
  0
DICTIONARY
  5
C
330
0
100
AcDbDictionary
  3
ACAD_GROUP
350
D
  3
ACAD_MLINESTYLE
350
17
  0
DICTIONARY
  5
D
330
C
100
AcDbDictionary
  0
DICTIONARY
  5
1A
330
C
100
AcDbDictionary
  0
DICTIONARY
  5
17
330
C
100
AcDbDictionary
  3
STANDARD
350
18
  0
DICTIONARY
  5
19
330
C
100
AcDbDictionary
  0
ENDSEC
  0
EOF
