<?xml version="1.0" encoding="UTF-8" standalone="no"?>
<!-- Created with Inkscape (http://www.inkscape.org/) -->

<svg
   xmlns:dc="http://purl.org/dc/elements/1.1/"
   xmlns:cc="http://creativecommons.org/ns#"
   xmlns:rdf="http://www.w3.org/1999/02/22-rdf-syntax-ns#"
   xmlns:svg="http://www.w3.org/2000/svg"
   xmlns="http://www.w3.org/2000/svg"
   xmlns:sodipodi="http://sodipodi.sourceforge.net/DTD/sodipodi-0.dtd"
   xmlns:inkscape="http://www.inkscape.org/namespaces/inkscape"
   width="210mm"
   height="297mm"
   viewBox="0 0 744.09448819 1052.3622047"
   id="svg3433"
   version="1.1"
   inkscape:version="0.91 r13725"
   sodipodi:docname="Zeichnung Löwebimap.svg">
  <defs
     id="defs3435" />
  <sodipodi:namedview
     id="base"
     pagecolor="#ffffff"
     bordercolor="#666666"
     borderopacity="1.0"
     inkscape:pageopacity="0.0"
     inkscape:pageshadow="2"
     inkscape:zoom="5.3579741"
     inkscape:cx="374.44476"
     inkscape:cy="575.59001"
     inkscape:document-units="px"
     inkscape:current-layer="layer1"
     showgrid="false"
     inkscape:window-width="1280"
     inkscape:window-height="962"
     inkscape:window-x="-8"
     inkscape:window-y="-8"
     inkscape:window-maximized="1" />
  <metadata
     id="metadata3438">
    <rdf:RDF>
      <cc:Work
         rdf:about="">
        <dc:format>image/svg+xml</dc:format>
        <dc:type
           rdf:resource="http://purl.org/dc/dcmitype/StillImage" />
        <dc:title />
      </cc:Work>
    </rdf:RDF>
  </metadata>
  <g
     inkscape:label="Ebene 1"
     inkscape:groupmode="layer"
     id="layer1">
    <path
       style="fill:#000000"
       d="m 383.28569,568.21933 c -0.36706,-0.59391 0.80328,-1 2.88197,-1 1.925,0 3.82537,-0.52647 4.22306,-1.16994 0.48504,-0.78482 0.17954,-0.96137 -0.92809,-0.53633 -1.14342,0.43877 -2.10404,-0.20085 -3.124,-2.08006 l -1.47286,-2.71367 -0.04,2.75 c -0.0465,3.19703 -1.51682,3.59617 -3.00486,0.81574 -1.6688,-3.11819 -1.29547,-5.36707 0.80001,-4.81909 1.49204,0.39018 1.76779,-0.009 1.4747,-2.13337 -0.24615,-1.78444 0.41405,-1.02745 2.08158,2.38672 2.6158,5.35571 3.41013,3.90755 1.44831,-2.64043 -1.33143,-4.44392 -1.32969,-4.44752 2.63493,-5.44258 l 2.97061,-0.74557 -1.79367,2.73747 c -1.73031,2.64079 -1.72934,2.70177 0.0273,1.72646 1.00156,-0.55606 3.10295,-2.22341 4.66976,-3.70522 2.37027,-2.24168 2.78808,-2.37809 2.48752,-0.81217 -0.19869,1.03512 -2.4706,3.02253 -5.04871,4.41646 -4.37734,2.36673 -4.54365,2.5983 -2.51368,3.5 1.36849,0.60787 2.50367,2.3782 3.06423,4.77872 0.61423,2.63036 1.32026,3.6482 2.27616,3.28138 0.76215,-0.29246 1.38573,-0.14836 1.38573,0.32023 0,2.00258 -13.31706,2.99929 -14.5,1.08525 z m -8.83333,-2.66667 c -0.36667,-0.36666 -0.65236,-1.60416 -0.63487,-2.75 0.0312,-2.04685 0.0575,-2.04934 1.5,-0.1422 0.80751,1.06762 1.4682,2.30512 1.4682,2.75 0,0.97839 -1.41114,1.06439 -2.33333,0.1422 z m -11,-1 c -0.9557,-0.95569 -0.82206,-2.33333 0.22634,-2.33333 0.49116,0 1.15203,0.675 1.46862,1.5 0.58492,1.52428 -0.4803,2.04799 -1.69496,0.83333 z m 39.34537,-1.35584 c 1.2406,-2.31806 1.98796,-2.53779 1.98796,-0.58448 0,0.76616 -0.68541,1.65603 -1.52314,1.9775 -1.24266,0.47685 -1.32825,0.22033 -0.46482,-1.39302 z m -55.01204,-0.97747 c -0.825,-0.53315 -4.425,-1.93195 -8,-3.10845 -3.575,-1.1765 -6.95,-2.59963 -7.5,-3.16251 -0.6787,-0.6946 -0.35741,-0.78249 1,-0.27355 1.1,0.41243 4.30766,1.56056 7.12813,2.55139 5.6061,1.96943 11.46196,4.89843 9.87187,4.93775 -0.55,0.0136 -1.675,-0.41149 -2.5,-0.94463 z m 17.25,-2.13767 c -1.50107,-4.20822 -1.60513,-6.86235 -0.26905,-6.86235 1.28148,0 2.26217,4.01513 1.84713,7.56252 l -0.32808,2.80417 -1.25,-3.50434 z m 12.35,1.53765 c -0.35589,-0.92744 -0.42208,-1.91126 -0.14708,-2.18626 0.275,-0.275 0.79119,0.25882 1.14708,1.18626 0.35589,0.92744 0.42208,1.91126 0.14708,2.18626 -0.275,0.275 -0.79119,-0.25882 -1.14708,-1.18626 z m 21.99696,0.20793 c 0.78163,-2.03691 4.86708,-4.50006 4.21394,-2.54062 -0.23128,0.69384 -1.41766,1.92361 -2.6364,2.73282 -2.00277,1.32979 -2.15449,1.3113 -1.57754,-0.1922 z m 9.40304,-2.60793 c 0,-1.82405 0.415,-2.86155 1,-2.5 0.55,0.33992 1,1.46492 1,2.5 0,1.03508 -0.45,2.16008 -1,2.5 -0.585,0.36155 -1,-0.67595 -1,-2.5 z m -14.55931,0.90404 c -0.93006,-1.50487 1.45013,-3.62386 5.05931,-4.50411 2.83343,-0.69105 2.91944,-0.6253 1.54908,1.1842 -3.13383,4.13808 -5.39932,5.27622 -6.60839,3.31991 z m -19.44069,-4.40404 c 0,-0.825 0.17686,-1.5 0.39301,-1.5 0.21616,0 0.65203,0.675 0.96862,1.5 0.31658,0.825 0.13972,1.5 -0.39301,1.5 -0.53274,0 -0.96862,-0.675 -0.96862,-1.5 z m -48,-0.5 c -0.825,-0.53316 -2.4,-0.97904 -3.5,-0.99085 -1.1,-0.0118 -3.15227,-0.62279 -4.5606,-1.35775 -1.40833,-0.73495 -4.04205,-1.37839 -5.8527,-1.42987 -3.89702,-0.1108 -4.03725,-0.21848 -4.6443,-3.56611 -0.37587,-2.0728 0.0965,-2.88275 2.36577,-4.05622 2.70322,-1.39789 5.19183,-6.65388 5.19183,-10.96522 0,-2.22047 -0.74138,-2.06862 -4.72129,0.96701 -4.06403,3.09979 -5.16096,2.48768 -3.38548,-1.88916 2.00045,-4.93137 2.79586,-9.95149 2.01413,-12.71183 -0.5907,-2.0858 -0.73616,-2.16864 -0.87797,-0.5 -0.16996,2 -0.16996,2 -1.02939,0 -0.74746,-1.73944 -0.88157,-1.60916 -1.0294,1 -0.0935,1.65 -0.54116,4.125 -0.99485,5.5 -0.47051,1.42601 -0.57782,-2.13972 -0.24979,-8.30018 0.33051,-6.20699 0.19211,-10.72847 -0.32543,-10.63157 -2.90159,0.54323 -4.3993,-0.24854 -4.38522,-2.31825 0.011,-1.61469 0.25418,-1.87318 0.86126,-0.91547 0.6431,1.01453 0.97676,0.83435 1.39143,-0.75138 0.30002,-1.14725 0.13745,-1.83373 -0.36126,-1.52551 -1.12199,0.69343 -1.09812,-2.63527 0.0614,-8.55764 0.52906,-2.70227 0.51166,-4.87952 -0.0436,-5.45 -1.17385,-1.20612 -1.21206,-2.84571 -0.0496,-2.12725 0.48125,0.29742 0.88107,-0.46352 0.88848,-1.69099 0.0161,-2.6689 5.05144,-15.49934 6.41296,-16.34081 1.79712,-1.11068 1.97258,0.4202 0.3973,3.46646 -0.86556,1.6738 -1.57374,4.10062 -1.57374,5.39293 0,1.29231 -0.5325,2.88216 -1.18333,3.53299 -0.65084,0.65084 -0.88031,1.48637 -0.50993,1.85674 0.94362,0.94362 5.69326,-4.3886 5.69326,-6.39159 0,-1.18049 0.30663,-1.34185 1.08011,-0.56837 0.72439,0.72439 0.77643,2.18994 0.15801,4.45 -1.00492,3.67261 -0.6003,6.21177 0.84729,5.3171 0.74844,-0.46256 1.44348,7.53438 1.16546,13.40946 -0.0469,0.99162 0.23357,1.05889 1.04246,0.25 1.7612,-1.7612 2.40729,-1.3266 3.18635,2.14333 l 0.72967,3.25 1.09577,-3.5 1.09577,-3.5 0.54955,4.47382 0.54956,4.47382 1.36461,-2.97382 c 1.36173,-2.96757 1.36645,-2.96896 2.24154,-0.65958 0.508,1.34063 1.34824,2.02297 1.99719,1.62189 0.61615,-0.3808 1.49685,-0.083 1.95711,0.66168 0.63366,1.02528 1.07673,0.75288 1.82481,-1.12188 0.54338,-1.36176 1.01649,-1.8976 1.05135,-1.19075 0.0349,0.70685 -0.72411,2.48945 -1.68661,3.96133 -0.9625,1.47187 -1.1875,2.32948 -0.5,1.9058 0.82068,-0.50577 1.26092,-0.14903 1.2818,1.03867 0.0297,1.68776 0.13022,1.67891 1.5,-0.13211 1.37468,-1.81748 1.47724,-1.69008 1.6101,2 l 0.14191,3.94113 0.71619,-4 c 0.3939,-2.2 0.82611,-3.325 0.96046,-2.5 0.13434,0.825 0.61757,-0.075 1.07382,-2 0.45626,-1.925 0.4756,-3.6282 0.043,-3.78489 -0.43261,-0.15668 -0.57328,-1.40067 -0.31259,-2.7644 0.3769,-1.97164 0.1423,-2.35224 -1.14534,-1.85813 -1.31295,0.50383 -1.63427,-0.10835 -1.69828,-3.23559 -0.0434,-2.12135 -0.30685,-3.29169 -0.58541,-2.60076 -0.27855,0.69093 -0.89837,1.01402 -1.37737,0.71798 -0.47901,-0.29605 -0.61842,-1.19626 -0.30981,-2.00049 0.30861,-0.80423 0.92199,-1.2392 1.36307,-0.9666 0.44107,0.2726 0.57972,-0.35419 0.30809,-1.39288 -0.6086,-2.32731 1.29785,-3.6766 3.09151,-2.188 0.98354,0.81627 1.64592,0.70995 2.57864,-0.41391 1.53723,-1.85226 6.01023,-2.00714 6.01023,-0.20811 0,0.71732 -1.28049,3.32334 -2.84554,5.79116 -2.40498,3.79228 -2.93134,5.87396 -3.39978,13.44578 -0.30483,4.92736 -0.33824,7.9097 -0.0742,6.62742 0.45586,-2.21416 0.54981,-2.23931 1.86798,-0.5 1.56843,2.06954 1.59285,1.99686 1.99383,-5.93395 0.13251,-2.62095 0.54342,-6.37774 0.91312,-8.34843 0.49883,-2.659 0.3629,-3.39192 -0.52706,-2.84189 -0.65959,0.40765 -0.1606,-0.66368 1.10887,-2.38072 1.77594,-2.4021 2.61416,-2.86791 3.63547,-2.0203 0.91375,0.75834 1.32735,0.77023 1.32735,0.0382 0,-0.58488 -0.45,-1.34154 -1,-1.68146 -0.55,-0.33992 -1,-1.22435 -1,-1.9654 0,-1.62357 3.41863,-0.94004 5.03415,1.00655 0.89903,1.08326 1.43114,0.99356 2.91635,-0.49165 2.35049,-2.35049 7.0495,-1.63921 7.0495,1.06708 0,1.43456 -0.77455,1.91091 -3.25,1.99877 -1.7875,0.0634 -3.88626,0.17594 -4.66391,0.25 -1.98158,0.18868 -2.60305,2.63462 -0.66942,2.63462 0.87083,0 1.58333,0.77246 1.58333,1.71657 0,2.65039 3.15251,10.28343 4.24715,10.28343 0.57753,0 0.70117,-1.46194 0.3031,-3.58384 -0.36978,-1.97111 -0.37095,-4.95602 -0.003,-6.63314 1.04661,-4.76519 2.48723,-1.32658 2.39515,5.71698 -0.0431,3.3 0.39255,7.35 0.9682,9 0.85212,2.44246 0.94213,1.792 0.4843,-3.5 -0.52656,-6.08642 -0.46242,-6.36319 1.00799,-4.34978 0.86368,1.18262 2.1066,3.43262 2.76204,5 1.08784,2.6014 1.22449,2.66361 1.5678,0.71376 0.20685,-1.17482 -0.5468,-3.64982 -1.67479,-5.5 -2.60478,-4.27253 -2.82026,-6.7412 -0.4141,-4.74427 1.47204,1.22169 1.56395,1.1036 0.87761,-1.12755 -0.42165,-1.37069 -1.27406,-3.12784 -1.89425,-3.90478 -0.84719,-1.06133 -0.81676,-1.51725 0.12239,-1.83333 0.6875,-0.2314 1.25,-1.05822 1.25,-1.83738 0,-0.77917 0.50625,-1.30417 1.125,-1.16667 0.61875,0.1375 1.354,-0.38074 1.63388,-1.15164 0.36716,-1.0113 -0.0751,-1.24892 -1.58823,-0.85324 -1.18638,0.31025 -2.60054,-0.0582 -3.25633,-0.84835 -0.83858,-1.01092 -0.84873,-1.39677 -0.0363,-1.39677 0.61734,0 1.12244,-0.63157 1.12244,-1.40348 0,-1.99248 -10.13109,-7.57727 -11.94737,-6.58602 -0.79606,0.43445 -2.37222,0.43829 -3.50258,0.009 -1.38468,-0.52645 -3.58412,-0.0435 -6.74148,1.48031 -3.93777,1.90045 -4.77644,2.02678 -5.25068,0.79094 -0.8434,-2.19786 0.37846,-3.58796 1.98315,-2.25619 3.15136,2.6154 10.45896,-2.59102 10.45896,-7.45165 0,-3.12929 -2.4417,-6.58241 -4.65443,-6.58241 -0.54832,0 -2.08788,-1.19756 -3.42126,-2.66125 -1.33337,-1.46369 -1.86181,-2.33713 -1.17431,-1.94098 0.6875,0.39614 1.80054,0.38001 2.47343,-0.0358 0.67289,-0.41587 4.38539,-0.64877 8.25,-0.51757 3.86461,0.13121 7.81407,0.24787 8.77657,0.25926 2.75298,0.0326 2.0614,1.54082 -1.80107,3.92796 -7.54205,4.66124 -8.0791,9.58597 -1.41606,12.9852 4.66415,2.37948 6.82841,2.50831 7.61694,0.45343 0.7753,-2.02039 4.01493,-1.02754 7.60019,2.32924 3.14457,2.94417 3.40413,4.40359 1.17894,6.62878 -0.86409,0.86408 -1.65159,3.08693 -1.75,4.93967 -0.12169,2.29087 -0.59198,3.21153 -1.46995,2.87764 -0.95686,-0.36389 -0.85971,0.58694 0.37534,3.67363 1.08937,2.72262 1.48991,5.72986 1.15679,8.68528 -0.42458,3.76688 -0.25505,4.42303 1.01669,3.93501 1.29412,-0.4966 1.43248,0.21633 0.90975,4.68744 -0.41271,3.53004 -0.29944,4.77728 0.34266,3.77311 0.52754,-0.82499 0.96605,-3.16093 0.97447,-5.19097 0.008,-2.03004 0.51352,-3.9989 1.12244,-4.37523 0.74458,-0.46018 0.88685,0.01 0.43445,1.4352 -0.57506,1.81187 -0.30036,2.08864 1.89287,1.90713 1.81498,-0.15022 2.58611,-0.80678 2.63584,-2.24423 0.0682,-1.97144 0.0929,-1.97398 0.83199,-0.0854 0.70782,1.80872 0.81374,1.77336 1.49702,-0.5 0.43038,-1.43196 0.94929,-1.9281 1.25133,-1.19645 0.28382,0.6875 0.95509,1.25 1.49172,1.25 0.53663,0 0.69076,-0.5625 0.34251,-1.25 -0.34825,-0.6875 0.0123,-0.4625 0.80123,0.5 1.99631,2.43555 2.49696,2.19269 2.06138,-1 -0.3314,-2.42913 -0.25509,-2.51664 0.65404,-0.75 0.90144,1.75168 0.96577,1.67009 0.51812,-0.6571 -0.2811,-1.4614 -0.81614,-3.45203 -1.18897,-4.42361 -0.52381,-1.36503 -0.29751,-1.62055 0.99573,-1.12428 1.30259,0.49984 1.69169,0.0395 1.75518,-2.07639 l 0.0816,-2.71862 1.42129,3.25 c 0.78171,1.7875 1.604,3.25 1.8273,3.25 0.2233,0 0.38801,-2.3625 0.36601,-5.25 -0.0553,-7.25409 0.69646,-13.78159 1.92895,-16.75 0.6321,-1.5224 0.69687,-3.40531 0.16565,-4.8151 -0.47979,-1.27331 -0.83682,-3.29831 -0.7934,-4.5 0.0693,-1.91755 0.20185,-1.8484 1.08333,0.5651 0.55241,1.5125 1.46503,2.75 2.02804,2.75 0.57702,0 0.71582,-0.76357 0.31814,-1.75 -0.38804,-0.9625 -0.95232,-3.48882 -1.25396,-5.61404 -0.51332,-3.61666 -0.40848,-3.81961 1.63761,-3.17021 1.98476,0.62994 2.12415,0.43326 1.51388,-2.13596 -0.3697,-1.55639 -1.28728,-4.34725 -2.03908,-6.20192 -1.679,-4.14203 -1.68894,-4.43938 -0.11691,-3.49493 0.72721,0.43689 0.62265,-0.035 -0.25,-1.12822 -1.37721,-1.72536 -1.34087,-1.81941 0.44393,-1.14892 1.84102,0.6916 1.85426,0.63117 0.25,-1.14151 -0.93168,-1.02952 -1.69395,-2.74876 -1.69395,-3.82057 0,-1.07182 -0.70107,-2.94967 -1.55793,-4.17302 -0.85687,-1.22334 -1.28349,-2.66831 -0.94806,-3.21105 0.34315,-0.55523 -0.0393,-0.73769 -0.87448,-0.41719 -0.97232,0.37311 -2.04168,-0.50818 -3.10004,-2.55481 -1.61591,-3.12483 -5.9404,-5.95012 -7.19189,-4.69863 -0.36517,0.36517 -0.0626,1.78759 0.6724,3.16093 1.651,3.08493 0.6268,4.37722 -1.7584,2.21865 -1.53114,-1.38567 -2.44197,-3.79375 -4.91981,-13.00714 -0.26455,-0.98367 -2.33099,-3.00867 -4.5921,-4.5 -3.84168,-2.53381 -3.95329,-2.73432 -1.70307,-3.05954 1.32441,-0.19142 2.55681,0.0983 2.73865,0.64384 0.18184,0.54553 1.21145,0.76153 2.288,0.48001 1.07656,-0.28153 2.51749,-0.0738 3.20206,0.46172 0.68457,0.53548 2.20933,1.20895 3.38837,1.49661 1.5783,0.38507 2.08083,0.0947 1.90534,-1.10098 -0.14189,-0.96675 -2.72948,-2.60026 -6.3937,-4.03626 -6.05157,-2.37159 -8.32046,-4.36693 -3.90534,-3.43449 2.00027,0.42244 2.05343,0.34974 0.47897,-0.65508 -2.30526,-1.4712 -1.35713,-2.94617 1.52203,-2.36777 1.23695,0.24849 -0.001,-0.46839 -2.751,-1.59307 -2.75,-1.12468 -5.83735,-2.04524 -6.86078,-2.04569 -1.64506,-7.2e-4 -1.58709,-0.22882 0.5,-1.96754 l 2.36078,-1.96673 -3.29545,-0.0333 c -2.17456,-0.0219 -4.10972,0.78099 -5.6894,2.36067 -1.31667,1.31667 -2.59219,2.19568 -2.83451,1.95337 -0.24231,-0.24231 -0.75524,1.23678 -1.13984,3.28688 -0.45302,2.41484 -0.97694,3.27816 -1.48778,2.4516 -0.5396,-0.8731 -1.01524,-0.37777 -1.50678,1.56919 l -0.71827,2.84502 -1.48095,-2.81686 c -1.20148,-2.28528 -1.75148,-2.59236 -2.91443,-1.62719 -1.17946,0.97886 -1.54153,0.64937 -2.04329,-1.85945 -0.36283,-1.81417 -1.10055,-2.8608 -1.82144,-2.58417 -0.66639,0.25572 -1.73213,-0.67744 -2.3683,-2.07369 -1.43766,-3.15533 -6.54049,-3.56684 -8.3476,-0.67319 -0.74945,1.20005 -1.91173,1.69052 -3.25848,1.37503 -2.02532,-0.47446 -2.03181,-0.44266 -0.19909,0.97671 1.8385,1.42386 1.82375,1.51967 -0.5,3.24802 -1.58063,1.17562 -1.78198,1.57302 -0.59245,1.16929 0.99106,-0.33638 1.54622,-0.19784 1.23369,0.30786 -0.31254,0.50569 -0.11091,1.20209 0.44806,1.54756 0.55897,0.34546 1.01631,1.14156 1.01631,1.7691 0,0.82185 -0.33563,0.80535 -1.2,-0.059 -0.66,-0.66 -2.5725,-1.18632 -4.25,-1.16959 -2.63386,0.0263 -2.80127,0.17505 -1.22699,1.09055 1.65317,0.96137 1.51342,1.23181 -1.5,2.90277 -8.40906,4.66287 -7.94355,4.5319 -9.33656,2.62685 -1.68703,-2.30715 -2.90669,-0.46108 -2.0226,3.06139 0.63239,2.51967 -0.57735,4.2574 -2.96385,4.2574 -0.55,0 -0.37663,-0.39478 0.38526,-0.8773 1.10783,-0.7016 1.1603,-1.52263 0.26198,-4.09955 -0.61781,-1.77225 -0.87712,-3.62057 -0.57625,-4.10739 0.30088,-0.48682 -0.26701,-0.89945 -1.26197,-0.91694 -1.68776,-0.0297 -1.67891,-0.13021 0.13211,-1.5 2.68512,-2.03092 3.81017,-1.83532 3.05887,0.53181 -0.73817,2.32575 -0.47331,2.40059 2.95983,0.83635 2.39631,-1.09183 2.45227,-1.27599 0.9067,-2.98383 -1.12684,-1.24515 -2.47166,-1.64413 -4.25688,-1.26294 l -2.60965,0.55723 2.75,-2.52544 c 3.17503,-2.91576 3.47941,-3.8131 1,-2.94801 -1.56272,0.54524 -1.58947,0.44285 -0.25,-0.9567 0.825,-0.86201 4.2,-2.48582 7.5,-3.60848 4.0474,-1.37692 5.18642,-2.07412 3.5,-2.14237 -2.29846,-0.093 -2.33877,-0.17058 -0.5,-0.96215 1.1,-0.47354 3.35,-1.19716 5,-1.60803 l 3,-0.74705 -3.5,-0.69265 c -3.26719,-0.64657 -3.16408,-0.7014 1.55,-0.82429 2.7775,-0.0724 5.57779,-0.65943 6.22287,-1.30451 0.89717,-0.89717 1.77799,-0.89717 3.74706,0 3.01034,1.3716 4.8136,1.52156 4.08308,0.33954 -0.97408,-1.5761 2.89899,-0.90521 4.89699,0.84825 3.77845,3.31599 5.79446,3.19137 8.5,-0.52543 2.74622,-3.77268 4.72524,-4.71313 2.95416,-1.40384 -1.64392,3.0717 -0.50042,3.39699 1.45431,0.41369 0.92367,-1.40969 2.10032,-2.30292 2.6148,-1.98496 0.51447,0.31796 1.88324,0.0708 3.04171,-0.54916 3.06399,-1.6398 3.46388,-0.49408 0.76835,2.20145 l -2.33333,2.33333 2.30504,0.32676 c 1.26778,0.17972 3.04166,-0.27028 3.94196,-1 1.18179,-0.95787 1.42812,-0.97921 0.88594,-0.0768 -0.74831,1.24557 0.41564,1.69509 3.31328,1.27958 1.2096,-0.17344 1.23047,0.0526 0.12756,1.38152 -1.16624,1.40524 -0.87105,1.58954 2.55378,1.59448 5.05592,0.007 11.58388,1.84328 10.83902,3.04849 -0.32154,0.52026 -0.0221,0.94593 0.66553,0.94593 0.68758,0 0.37664,0.66069 -0.69098,1.4682 -1.88528,1.42595 -1.8737,1.46911 0.40249,1.5 1.40221,0.019 2.53363,0.75838 2.81663,1.84061 0.26016,0.99485 1.62257,2.50633 3.02758,3.35883 2.16089,1.31116 2.5744,2.32772 2.68336,6.59672 0.0708,2.77569 -0.16154,4.8668 -0.51641,4.64692 -1.95543,-1.21164 -3.13544,7.36847 -1.31872,9.58872 0.67506,0.825 1.55491,2.57231 1.95523,3.88291 0.40032,1.3106 2.70355,4.98078 5.11828,8.15594 4.41106,5.80016 5.94614,9.49716 2.89043,6.96115 -2.56281,-2.12694 -1.64922,0.066 1.54138,3.69992 2.11616,2.41017 2.84973,4.06779 2.41139,5.4489 -0.40605,1.27935 0.2902,3.37549 1.95861,5.89663 3.00571,4.54193 3.14312,5.10456 1.05062,4.30159 -1.18095,-0.45317 -1.03609,0.2605 0.62396,3.07409 2.28781,3.87754 1.87709,6.27818 -0.51453,3.00744 -0.77435,-1.05898 -1.71879,-1.61454 -2.09876,-1.23457 -1.12784,1.12784 3.44498,6.77483 5.00223,6.17726 1.79076,-0.68718 12.21703,1.4424 15.6266,3.19176 1.43083,0.73411 3.40383,2.55927 4.38446,4.0559 1.60512,2.44971 2.18247,5.43295 4.17907,21.5935 0.97928,7.92632 -4.67519,18.23591 -12.61732,23.0047 -1.95124,1.17161 -3.72637,2.2682 -3.94472,2.43688 -0.21836,0.16868 -1.23918,2.67804 -2.26848,5.57635 l -1.87147,5.26965 0.63202,-4.75 c 0.42596,-3.20128 0.26896,-4.75 -0.48152,-4.75 -0.61245,0 -1.0421,0.3375 -0.95478,0.75 0.0873,0.4125 -0.18871,1.54501 -0.61339,2.51668 -0.42468,0.97167 -0.55231,2.91667 -0.28362,4.32222 0.38399,2.00874 -0.0197,2.74877 -1.88662,3.45857 -1.30632,0.49667 -2.37513,1.4934 -2.37513,2.21497 0,0.72158 -0.86975,1.37747 -1.93279,1.45754 -2.37896,0.17921 -6.36086,3.9805 -5.03074,4.80256 1.53438,0.9483 1.12541,2.32046 -1.03647,3.47746 -2.72809,1.46003 -5.99544,-0.30145 -5.32372,-2.8701 0.58568,-2.23962 -2.19322,-8.06341 -3.95196,-8.28221 -0.67338,-0.0838 -1.67432,-0.25687 -2.22432,-0.38465 -0.55,-0.12779 -2.35,-0.29856 -4,-0.37949 -2.79606,-0.13715 -2.87409,-0.24255 -1.14777,-1.55035 1.64621,-1.24711 1.69282,-1.6308 0.41905,-3.44936 -1.42222,-2.0305 -1.45227,-2.02526 -3.9256,0.685 -1.37082,1.50214 -3.9597,4.64366 -5.75307,6.98116 -4.16514,5.4289 -6.51578,5.46134 -11.63966,0.16064 -4.27027,-4.41763 -17.94833,-11.91064 -21.74219,-11.91064 -1.2835,0 -3.34492,0.94215 -4.58093,2.09367 -1.72519,1.60726 -2.87252,1.91373 -4.93856,1.31915 -6.65484,-1.91519 -13.01546,-0.55069 -16.44127,3.52703 -2.26051,2.69067 -2.20689,4.74111 0.25,9.56015 1.1,2.15759 2,4.46974 2,5.13812 0,0.66838 0.7875,1.42103 1.75,1.67255 1.23998,0.32404 1.31284,0.48667 0.25,0.55802 -0.825,0.0554 -2.175,-0.33553 -3,-0.86869 z m 100.51812,-28.97068 c -0.32995,-0.53388 0.4827,-1.24241 1.80589,-1.57451 3.46837,-0.8705 10.23745,-8.30454 11.67734,-12.82445 0.85208,-2.67477 1.48415,-3.46283 2.04698,-2.55216 1.52017,2.45969 2.24362,-3.96678 1.11325,-9.88916 -0.59721,-3.12897 -1.36646,-7.47349 -1.70944,-9.65448 -0.34298,-2.181 -1.25509,-5.18661 -2.0269,-6.67914 -1.36105,-2.63197 -4.96684,-4.64715 -6.16727,-3.44673 -0.32522,0.32522 0.13831,0.59131 1.03005,0.59131 3.34804,0 3.34982,9.50502 0.002,12.85244 -0.79514,0.79514 -1.21696,2.32047 -0.93737,3.38961 0.27958,1.06915 -0.39566,3.5534 -1.50055,5.52056 -1.72271,3.06714 -1.82651,3.91743 -0.72869,5.96874 1.04751,1.95728 1.03696,2.78157 -0.058,4.53495 -0.9583,1.53447 -1.01565,2.25041 -0.20201,2.52162 1.90268,0.63423 1.28023,2.06628 -1.61376,3.71277 l -2.75,1.56457 3.25,-0.61209 c 4.29516,-0.80892 4.09964,-0.0146 -0.75,3.04683 -3.82829,2.41669 -5.18984,4.5 -2.94098,4.5 0.58246,0 0.78905,-0.43681 0.4591,-0.97068 z m -45.51812,-24.52932 c 0,-1.375 0.17254,-2.5 0.38342,-2.5 0.21089,0 0.59848,1.125 0.86133,2.5 0.26285,1.375 0.0903,2.5 -0.38342,2.5 -0.47373,0 -0.86133,-1.125 -0.86133,-2.5 z m -3.19065,-4 c -0.28957,-1.65 -0.86328,-3.7875 -1.27491,-4.75 -0.53848,-1.25912 -0.28884,-1.75 0.88996,-1.75 2.24324,0 2.86569,2.11477 1.80371,6.12805 l -0.89228,3.37195 -0.52648,-3 z m -52.65887,-7.50184 c 1.04982,-3.01151 2.84952,-4.98348 2.84952,-3.12228 0,1.98655 -1.97499,6.12412 -2.92323,6.12412 -0.61394,0 -0.58675,-1.10723 0.0737,-3.00184 z m -5.15048,-4.30703 c 0,-0.71988 0.66882,-2.18238 1.48626,-3.25 1.35975,-1.77591 1.39399,-1.6645 0.40218,1.30887 -1.13195,3.39349 -1.88844,4.17108 -1.88844,1.94113 z m 74.72046,-1.02292 c -0.39625,-1.00748 -0.70678,-2.58248 -0.69005,-3.5 0.0271,-1.48832 0.14221,-1.47612 1.06727,0.11321 0.57028,0.97978 0.8808,2.55478 0.69005,3.5 -0.31674,1.56951 -0.40931,1.55969 -1.06727,-0.11321 z m 1.77954,-6.66821 c -0.37968,-1.72866 -0.46532,-3.36801 -0.19032,-3.64301 0.275,-0.275 0.81064,0.91435 1.19032,2.64301 0.37968,1.72866 0.46532,3.36801 0.19032,3.64301 -0.275,0.275 -0.81064,-0.91435 -1.19032,-2.64301 z m -62.49216,-2.54771 c 0.86546,-1.065 0.96716,-1.5208 0.24216,-1.08523 -0.6875,0.41304 -1.25,0.34665 -1.25,-0.14753 0,-0.49417 1.14017,-1.418 2.53372,-2.05294 2.09173,-0.95306 2.63821,-0.88211 3.13278,0.4067 0.71261,1.85703 -0.28227,2.93346 -3.65866,3.95856 -2.32056,0.70454 -2.38941,0.63021 -1,-1.07956 z m 43.11219,-2.20229 c -0.53864,-0.9625 -1.3485,-1.69078 -1.79969,-1.6184 -0.45119,0.0724 -1.72034,-0.50281 -2.82034,-1.27819 -1.7178,-1.21087 -1.78835,-1.54475 -0.5,-2.36629 0.825,-0.52607 1.0275,-0.96339 0.45,-0.97181 -1.73963,-0.0254 -1.24609,-5.01083 0.5,-5.05075 1.03871,-0.0238 0.79746,-0.45321 -0.73136,-1.30196 -1.25475,-0.6966 -1.9702,-1.57771 -1.58987,-1.95803 0.38032,-0.38032 -0.99024,-2.32477 -3.04568,-4.32099 -2.66966,-2.59274 -3.42952,-3.93715 -2.66013,-4.70654 1.86107,-1.86107 1.17638,-5.45374 -1.43012,-7.50401 -2.55442,-2.00931 -2.56186,-4.54883 -0.0162,-5.5257 0.72711,-0.27902 1.85229,-2.11402 2.50038,-4.07777 0.86027,-2.60664 1.89973,-3.72892 3.85066,-4.15748 4.6343,-1.01801 4.73641,-1.14821 1.81179,-2.31015 -2.69143,-1.06929 -2.77303,-1.26843 -1.38052,-3.3692 1.79357,-2.70577 4.74105,-3.51774 4.74105,-1.30605 0,0.86532 0.70156,1.57332 1.55902,1.57332 0.85746,0 1.29544,0.42648 0.97329,0.94773 -0.32215,0.52125 0.28046,0.78091 1.33913,0.57703 1.38813,-0.26733 2.05401,0.30493 2.38804,2.05227 0.25475,1.33264 0.12212,2.42297 -0.29473,2.42297 -0.41685,0 -0.78744,2.47281 -0.82354,5.49514 -0.0637,5.33634 -1.38371,9.50486 -3.00973,9.50486 -1.129,0 -1.04871,-3.25923 0.1167,-4.73726 0.53657,-0.6805 0.72551,-1.88893 0.41987,-2.6854 -0.30563,-0.79647 -0.1154,-1.59489 0.42274,-1.77427 0.56549,-0.1885 0.40716,-1.1074 -0.37515,-2.17728 -1.30979,-1.79125 -1.49242,-1.78032 -5.64435,0.33784 -3.95564,2.01802 -4.24298,2.42791 -3.67897,5.24798 0.65184,3.2592 4.30203,9.78839 5.47226,9.78839 1.13696,0 0.57751,5.10874 -0.64198,5.86242 -0.67464,0.41695 -0.77853,1.23806 -0.26233,2.07329 0.47008,0.76061 0.60762,2.02678 0.30564,2.81372 -0.74923,1.95246 4.77952,1.31029 6.45229,-0.74943 1.0311,-1.26963 1.22308,-1.10325 1.25,1.08333 0.0175,1.42084 0.33003,2.88156 0.69452,3.24606 0.3645,0.3645 0.81232,2.02916 0.99515,3.69925 0.31368,2.86529 0.20582,2.96907 -1.91272,1.84023 -1.99291,-1.06191 -2.09926,-1.0194 -0.94659,0.37838 0.80223,0.97283 0.9242,1.80606 0.3191,2.18003 -0.53871,0.33294 -1.26212,0.148 -1.60758,-0.41097 -0.34546,-0.55897 -1.1213,-1.01631 -1.72408,-1.01631 -0.63962,0 -0.47018,0.72869 0.40691,1.75 2.32798,2.71077 3.02183,4.25 1.9158,4.25 -0.55513,0 -1.45004,-0.7875 -1.98868,-1.75 z m -1.49164,-4.10615 c -0.4057,-3.48447 -1.35898,-5.14883 -2.93741,-5.12854 -0.77189,0.01 -0.69984,0.3263 0.20474,0.89908 0.82277,0.52098 1.12357,1.59297 0.73274,2.61143 -0.36463,0.95022 -0.1501,2.34564 0.47673,3.10093 1.64073,1.97695 1.89699,1.72747 1.5232,-1.4829 z m -3.62839,-38.11246 c 0,-0.53274 -0.675,-0.7096 -1.5,-0.39302 -0.825,0.31659 -1.5,0.75246 -1.5,0.96862 0,0.21616 0.675,0.39301 1.5,0.39301 0.825,0 1.5,-0.43588 1.5,-0.96861 z m -70.42444,38.96861 c 0.92646,-3.4171 3.46871,-8.28906 4.03162,-7.72616 0.25283,0.25284 -0.70335,2.65716 -2.12486,5.34293 -1.42151,2.68578 -2.27955,3.75823 -1.90676,2.38323 z m 92.58233,0 c 0,-1.375 0.22698,-1.9375 0.50439,-1.25 0.27741,0.6875 0.27741,1.8125 0,2.5 -0.27741,0.6875 -0.50439,0.125 -0.50439,-1.25 z m -60.30801,-2.31912 c 0.62302,-0.75069 0.90977,-1.5879 0.63722,-1.86045 -0.27256,-0.27255 0.63713,-1.01163 2.02151,-1.6424 2.48591,-1.13266 2.4976,-1.11714 0.94424,1.25359 -0.86506,1.32025 -2.28449,2.67353 -3.15429,3.0073 -1.24376,0.47728 -1.33957,0.31542 -0.44868,-0.75804 z m -3.84744,-5.18382 c 0.4612,-0.55571 0.21612,-2.11644 -0.5496,-3.5 -1.61725,-2.92218 -2.03991,-9.45287 -0.45284,-6.99706 0.53316,0.825 0.97626,2.32902 0.98469,3.34227 0.008,1.01325 0.91531,2.98644 2.01531,4.38486 2.57371,3.27194 2.51862,3.77287 -0.41496,3.77287 -1.50132,0 -2.10006,-0.37944 -1.5826,-1.00294 z m 65.45644,0.43641 c -0.36253,-0.58659 -0.44468,-1.281 -0.18255,-1.54313 0.26212,-0.26213 0.74306,0.21781 1.06875,1.06653 0.67618,1.76211 0.0999,2.07206 -0.8862,0.4766 z m -91.89459,-2.2266 c 0.37553,-0.98622 0.93469,-1.54122 1.24258,-1.23333 0.30789,0.30789 6.4e-4,1.11479 -0.68278,1.79313 -0.98762,0.98026 -1.10248,0.8654 -0.5598,-0.5598 z m 62.70954,-0.53764 c -0.67597,-0.41777 -0.82775,-1.27296 -0.36021,-2.02947 0.62722,-1.01485 0.95636,-0.92097 1.47076,0.41952 0.79873,2.08148 0.45609,2.57819 -1.11055,1.60995 z m -61.27383,-2.96232 c 0,-0.64645 1.36607,-2.64496 3.03571,-4.44113 2.97866,-3.20439 3.03035,-3.21879 2.75,-0.76578 -0.15714,1.375 -0.88449,2.5 -1.61632,2.5 -0.73184,0 -1.96934,0.87351 -2.75,1.94113 -0.78067,1.06762 -1.41939,1.41222 -1.41939,0.76578 z m 33.16996,-2.70691 c 0.0162,-1.1 0.38969,-3.125 0.83004,-4.5 l 0.80064,-2.5 0.0294,2.5 c 0.0162,1.375 -0.35735,3.4 -0.83004,4.5 -0.85942,2 -0.85942,2 -0.83003,0 z m -30.95635,-4.69519 c 0.80165,-1.20736 2.02625,-2.38476 2.72133,-2.61646 0.8225,-0.27417 0.66517,0.49232 -0.4506,2.1952 -0.9429,1.43905 -2.16749,2.61645 -2.72132,2.61645 -0.55383,0 -0.35107,-0.98784 0.45059,-2.19519 z m 17.94428,-4.80481 c 0,-1.375 0.22698,-1.9375 0.50439,-1.25 0.27741,0.6875 0.27741,1.8125 0,2.5 -0.27741,0.6875 -0.50439,0.125 -0.50439,-1.25 z m -16.15789,-5 c 0.5887,-1.1 1.57428,-2 2.19017,-2 0.61589,0 0.30532,0.9 -0.69017,2 -0.99549,1.1 -1.98106,2 -2.19017,2 -0.20911,0 0.10147,-0.9 0.69017,-2 z m 34.92105,-3.75 c -0.0434,-1.5125 -0.31387,-2.16365 -0.601,-1.447 -0.41518,1.03627 -0.75726,1.00576 -1.67105,-0.14902 -0.63195,-0.79862 -2.274,-1.78227 -3.649,-2.18591 -2.48859,-0.73052 -2.49131,-0.72414 -0.59501,1.39903 1.70124,1.90478 1.72569,2.1329 0.22856,2.1329 -2.46613,0 -4.12321,-4.21654 -2.70125,-6.87351 2.94707,-5.50665 11.0677,-0.13297 11.0677,7.32385 0,3.45564 -1.97947,3.26489 -2.07895,-0.20034 z m -2.42105,-6.31964 c 0,-0.77163 -0.7875,-1.55463 -1.75,-1.73999 -1.72374,-0.33196 -2.43634,1.78995 -1.0625,3.1638 1.04821,1.0482 2.8125,0.15504 2.8125,-1.42381 z m -31.5,2.27036 c 0,-1.16538 5.18447,-8.30384 7.28947,-10.03681 0.89261,-0.73485 2.05039,-1.0719 2.57284,-0.749 1.39894,0.86459 0.18268,4.43455 -1.72028,5.04936 -0.90312,0.29178 -3.10453,1.90449 -4.89203,3.5838 -1.7875,1.67932 -3.25,2.64801 -3.25,2.15265 z m 52.15789,-2.20072 c 0,-1.375 0.22698,-1.9375 0.50439,-1.25 0.27741,0.6875 0.27741,1.8125 0,2.5 -0.27741,0.6875 -0.50439,0.125 -0.50439,-1.25 z m -36.15789,-5.04338 c 7.23661,-6.42188 8,-7.00315 8,-6.09148 0,1.47669 -4.11566,6.18141 -4.95413,5.66321 -0.4367,-0.26989 -1.63247,0.62582 -2.65728,1.99047 -1.02481,1.36465 -2.54398,2.46993 -3.37594,2.45618 -0.8687,-0.0144 0.40306,-1.72504 2.98735,-4.01838 z m 28,-0.1106 c 0,-0.85469 -1.14992,-2.79476 -2.55538,-4.31128 -1.40547,-1.51652 -2.281,-3.0317 -1.94563,-3.36706 0.33537,-0.33537 0.95877,-0.0451 1.38533,0.64515 1.15534,1.86938 4.04311,0.32449 4.76425,-2.54876 1.14608,-4.56636 2.31219,-0.0371 1.23247,4.78705 -1.0237,4.57383 -2.88104,7.66499 -2.88104,4.7949 z m 11.58345,-1.48915 c -0.95273,-2.48276 0.0974,-2.82177 1.37071,-0.44252 0.6143,1.14784 0.69884,2.08565 0.18801,2.08565 -0.5105,0 -1.21193,-0.73941 -1.55872,-1.64313 z m -42.34192,-3.60687 c 0.69216,-1.2375 1.70847,-2.58061 2.25847,-2.98469 0.56023,-0.41159 0.20444,-0.74142 -0.80902,-0.75 -0.9961,-0.008 -1.51999,-0.48296 -1.16584,-1.05599 0.35375,-0.57237 1.5053,-0.76705 2.55902,-0.43261 1.3564,0.43051 1.91584,0.12897 1.91584,-1.03265 0,-1.02017 0.65753,-1.51408 1.73852,-1.3059 2.09243,0.40297 3.0063,3.81184 1.02189,3.81184 -0.76242,0 -2.67961,1.35 -4.26041,3 -3.39573,3.54438 -5.03209,3.92102 -3.25847,0.75 z m 11.79443,-0.46607 c -0.0529,-1.78911 3.20022,-8.28393 4.14925,-8.28393 0.44814,0 0.81255,0.7875 0.80982,1.75 -0.006,1.97296 -4.90312,8.42579 -4.95907,6.53393 z"
       id="path3334"
       inkscape:connector-curvature="0" />
  </g>
</svg>
