<?xml version="1.0" standalone="no"?>
<!DOCTYPE svg PUBLIC "-//W3C//DTD SVG 20010904//EN" "http://www.w3.org/TR/2001/REC-SVG-20010904/DTD/svg10.dtd">
<svg width="994.0000472124666mm" height="296.999953071584mm"  viewBox="0 0 994.0000472124666 296.999953071584" xmlns="http://www.w3.org/2000/svg">
    <title>Bezier Curve : BezierCircle.005</title>
    <desc>This is an exported Bezier xml_path from Blender, using the ExportScript by maybites.ch and Craxic</desc>
<path style="fill:none;stroke:#000000;stroke-width:1px;stroke-linecap:butt;stroke-linejoin:miter;stroke-opacity:1" d="M497.00003238767493,296.99993896484386 C497.00003238767493,296.99993896484386 497.00003238767493,13.241990916752684 497.00003238767493,13.241990916752684 C497.00003238767493,13.241990916752684 510.24206792874725,-1.4106740024999453e-05 510.24206792874725,-1.4106740024999453e-05 C510.24206792874725,-1.4106740024999453e-05 677.7580289492929,-1.4106740024999453e-05 677.7580289492929,-1.4106740024999453e-05 C677.7580289492929,-1.4106740024999453e-05 691.0000187139958,13.242051951911833 691.0000187139958,13.242051951911833 C691.0000187139958,13.242051951911833 691.0000187139958,296.99993896484386 691.0000187139958,296.99993896484386 C691.0000187139958,296.99993896484386 668.8758416377632,296.99993896484386 668.8758416377632,296.99993896484386 C668.8758416377632,296.99993896484386 646.5541166395499,272.15248371360815 646.5541166395499,272.15248371360815 C646.5541166395499,272.15248371360815 541.445919203331,272.15248371360815 541.445919203331,272.15248371360815 C541.445919203331,272.15248371360815 519.1242018345126,296.99993896484386 519.1242018345126,296.99993896484386 C519.1242018345126,296.99993896484386 497.00003238767493,296.99993896484386 497.00003238767493,296.99993896484386 Z "/>
<path style="fill:none;stroke:#000000;stroke-width:1px;stroke-linecap:butt;stroke-linejoin:miter;stroke-opacity:1" d="M506.02527085346014,16.675432241941735 C506.02527085346014,12.45161612335255 509.4516855059522,9.025437982102176 513.6755016245414,9.025437982102176 C517.8993177431307,9.025437982102176 521.3257323956227,12.45161612335255 521.3257323956227,16.675432241941735 C521.3257323956227,20.899248360531033 517.8993177431307,24.32542650178135 513.6755016245414,24.32542650178135 C509.4516855059522,24.32542650178135 506.02527085346014,20.899248360531033 506.02527085346014,16.675432241941735 Z "/>
<path style="fill:none;stroke:#000000;stroke-width:1px;stroke-linecap:butt;stroke-linejoin:miter;stroke-opacity:1" d="M681.9747573600259,16.675432241941735 C681.9747573600259,12.45161612335255 678.548342707534,9.025437982102176 674.3245265889447,9.025437982102176 C670.1007104703554,9.025437982102176 666.6742958178634,12.45161612335255 666.6742958178634,16.675432241941735 C666.6742958178634,20.899248360531033 670.1007104703554,24.32542650178135 674.3245265889447,24.32542650178135 C678.548342707534,24.32542650178135 681.9747573600259,20.899248360531033 681.9747573600259,16.675432241941735 Z "/>
<path style="fill:none;stroke:#000000;stroke-width:1px;stroke-linecap:butt;stroke-linejoin:miter;stroke-opacity:1" d="M502.008295259832,271.1129443270745 C502.008295259832,266.8891243937878 505.43470228292915,263.46295006723494 509.6585260309133,263.46295006723494 C513.8823497788974,263.46295006723494 517.3087568019946,266.8891243937878 517.3087568019946,271.1129443270745 C517.3087568019946,275.3367642603612 513.8823497788974,278.7629385869141 509.6585260309133,278.7629385869141 C505.43470228292915,278.7629385869141 502.008295259832,275.3367642603612 502.008295259832,271.1129443270745 Z "/>
<path style="fill:none;stroke:#000000;stroke-width:1px;stroke-linecap:butt;stroke-linejoin:miter;stroke-opacity:1" d="M685.991732953654,271.1129443270745 C685.991732953654,266.8891243937878 682.5653259305569,263.46295006723494 678.3415021825728,263.46295006723494 C674.1176784345887,263.46295006723494 670.6912714114915,266.8891243937878 670.6912714114915,271.1129443270745 C670.6912714114915,275.3367642603612 674.1176784345887,278.7629385869141 678.3415021825728,278.7629385869141 C682.5653259305569,278.7629385869141 685.991732953654,275.3367642603612 685.991732953654,271.1129443270745 Z "/>
<path style="fill:none;stroke:#000000;stroke-width:1px;stroke-linecap:butt;stroke-linejoin:miter;stroke-opacity:1" d="M507.1585259121697,254.8629817022154 C507.1585259121697,254.8629817022154 507.1585259121697,252.36298158347176 507.1585259121697,252.36298158347176 C507.1585259121697,252.36298158347176 512.158526149657,252.36298158347176 512.158526149657,252.36298158347176 C512.158526149657,252.36298158347176 512.158526149657,254.8629817022154 512.158526149657,254.8629817022154 C512.158526149657,254.8629817022154 507.1585259121697,254.8629817022154 507.1585259121697,254.8629817022154 Z "/>
<path style="fill:none;stroke:#000000;stroke-width:1px;stroke-linecap:butt;stroke-linejoin:miter;stroke-opacity:1" d="M507.1585259121697,289.8629833646262 C507.1585259121697,289.8629833646262 507.1585259121697,287.36298324588256 507.1585259121697,287.36298324588256 C507.1585259121697,287.36298324588256 512.158526149657,287.36298324588256 512.158526149657,287.36298324588256 C512.158526149657,287.36298324588256 512.158526149657,289.8629833646262 512.158526149657,289.8629833646262 C512.158526149657,289.8629833646262 507.1585259121697,289.8629833646262 507.1585259121697,289.8629833646262 Z "/>
<path style="fill:none;stroke:#000000;stroke-width:1px;stroke-linecap:butt;stroke-linejoin:miter;stroke-opacity:1" d="M680.8415023013164,289.8629833646262 C680.8415023013164,289.8629833646262 680.8415023013164,287.36298324588256 680.8415023013164,287.36298324588256 C680.8415023013164,287.36298324588256 675.8415020638291,287.36298324588256 675.8415020638291,287.36298324588256 C675.8415020638291,287.36298324588256 675.8415020638291,289.8629833646262 675.8415020638291,289.8629833646262 C675.8415020638291,289.8629833646262 680.8415023013164,289.8629833646262 680.8415023013164,289.8629833646262 Z "/>
<path style="fill:none;stroke:#000000;stroke-width:1px;stroke-linecap:butt;stroke-linejoin:miter;stroke-opacity:1" d="M680.8415023013164,254.8629817022154 C680.8415023013164,254.8629817022154 680.8415023013164,252.36298158347176 680.8415023013164,252.36298158347176 C680.8415023013164,252.36298158347176 675.8415020638291,252.36298158347176 675.8415020638291,252.36298158347176 C675.8415020638291,252.36298158347176 675.8415020638291,254.8629817022154 675.8415020638291,254.8629817022154 C675.8415020638291,254.8629817022154 680.8415023013164,254.8629817022154 680.8415023013164,254.8629817022154 Z "/>
<path style="fill:none;stroke:#000000;stroke-width:1px;stroke-linecap:butt;stroke-linejoin:miter;stroke-opacity:1" d="M530.5534435577924,10.571946844619902 C530.5534435577924,10.571946844619902 532.3212086869228,8.804185530186999 532.3212086869228,8.804185530186999 C532.3212086869228,8.804185530186999 528.7856784286621,5.268632383741647 528.7856784286621,5.268632383741647 C528.7856784286621,5.268632383741647 527.0179094848343,7.036424215754096 527.0179094848343,7.036424215754096 C527.0179094848343,7.036424215754096 530.5534435577924,10.571946844619902 530.5534435577924,10.571946844619902 Z "/>
<path style="fill:none;stroke:#000000;stroke-width:1px;stroke-linecap:butt;stroke-linejoin:miter;stroke-opacity:1" d="M505.80470504708535,35.32069679941924 C505.80470504708535,35.32069679941924 507.5724739909132,33.55290496740679 507.5724739909132,33.55290496740679 C507.5724739909132,33.55290496740679 504.0369361032576,30.017382338540983 504.0369361032576,30.017382338540983 C504.0369361032576,30.017382338540983 502.26917478882467,31.785143652973886 502.26917478882467,31.785143652973886 C502.26917478882467,31.785143652973886 505.80470504708535,35.32069679941924 505.80470504708535,35.32069679941924 Z "/>
<path style="fill:none;stroke:#000000;stroke-width:1px;stroke-linecap:butt;stroke-linejoin:miter;stroke-opacity:1" d="M682.1953231664007,35.32069679941924 C682.1953231664007,35.32069679941924 680.4275542225729,33.55290496740679 680.4275542225729,33.55290496740679 C680.4275542225729,33.55290496740679 683.9630921102284,30.017382338540983 683.9630921102284,30.017382338540983 C683.9630921102284,30.017382338540983 685.7308534246614,31.785143652973886 685.7308534246614,31.785143652973886 C685.7308534246614,31.785143652973886 682.1953231664007,35.32069679941924 682.1953231664007,35.32069679941924 Z "/>
<path style="fill:none;stroke:#000000;stroke-width:1px;stroke-linecap:butt;stroke-linejoin:miter;stroke-opacity:1" d="M657.4465846556936,10.571946844619902 C657.4465846556936,10.571946844619902 655.6788195265633,8.804185530186999 655.6788195265633,8.804185530186999 C655.6788195265633,8.804185530186999 659.214349784824,5.268632383741647 659.214349784824,5.268632383741647 C659.214349784824,5.268632383741647 660.9821187286518,7.036424215754096 660.9821187286518,7.036424215754096 C660.9821187286518,7.036424215754096 657.4465846556936,10.571946844619902 657.4465846556936,10.571946844619902 Z "/>
<path style="fill:none;stroke:#000000;stroke-width:1px;stroke-linecap:butt;stroke-linejoin:miter;stroke-opacity:1" d="M537.5777587718005,247.4333701432731 C535.2954481775568,242.93288927765627 536.0139159240845,242.14350630559227 559.9666605920522,202.1850846078645 C588.9811654491712,153.7825401946093 589.6529517893678,153.01104052417597 594.3415680494338,153.12717517324674 C599.0871220067539,153.24471363097797 599.2246466180834,154.18802727441576 627.7775006048863,204.37057055151325 C647.9614424510232,239.84448352183404 648.793050309126,242.417901307639 645.6638959551769,246.8502478621583 C642.2281162204529,251.716920609182 639.1385889435812,251.7192017982552 595.3295597869967,251.702432388279 C541.9136812189568,251.68198560996407 540.0738907873331,252.3554818882913 537.5777587718005,247.4333701432731 Z "/>
<path style="fill:none;stroke:#000000;stroke-width:1px;stroke-linecap:butt;stroke-linejoin:miter;stroke-opacity:1" d="M519.5519667474085,35.26079079071451 C523.8667634001042,32.588579970431965 525.3364213678585,32.317065064957546 551.8362395210635,76.81355765694303 C582.1871454273758,127.7765117377096 583.4221480037354,128.43137321900915 583.3848097451261,135.22594446458552 C583.3548233621709,140.68267079798485 584.4158843180253,142.1035845617637 553.9884117119093,187.01639797430465 C525.8501695612056,228.55016764724806 524.7528336936552,230.92364951047068 519.9417677913136,228.826161007525 C514.6592968372847,226.52315186493482 516.703883116038,221.70390725126737 516.0865887751947,136.3201217626499 C515.4133251934118,43.19508682187018 514.8329113474842,38.18336783382631 519.5519667474085,35.26079079071451 Z "/>
<path style="fill:none;stroke:#000000;stroke-width:1px;stroke-linecap:butt;stroke-linejoin:miter;stroke-opacity:1" d="M668.4480767248674,236.8916597426664 C664.1332724427767,239.56386293355408 662.6636221044174,239.83538928312083 636.1638192100022,195.33890050583275 C605.8129209330848,144.3759387956713 604.5779183567251,143.72107731437174 604.6152566153345,136.92650606879536 C604.6452429982895,131.46977973539603 603.5841877644815,130.04886597161718 634.0116622779462,85.13606781786604 C662.1499196874397,43.60229814492263 663.2472402962003,41.228808652305105 668.0583061985417,43.32631241404056 C673.3407695231757,45.629336815420544 671.2961908738174,50.44856617029819 671.9134699558709,135.83234402952078 C672.5867106494693,228.95738659969538 673.1671321247917,233.96909795834438 668.4480767248674,236.8916597426664 Z "/>
<path style="fill:none;stroke:#000000;stroke-width:1px;stroke-linecap:butt;stroke-linejoin:miter;stroke-opacity:1" d="M650.4223228474498,24.719103278292494 C652.7046219976012,29.21956125572467 651.9861656951658,30.00895948657842 628.0334210271981,69.96736592551639 C599.0189066333356,118.36991033877158 598.3471279225339,119.14141000920492 593.6585008740265,119.02527536013415 C588.9129352938003,118.90773690240292 588.7754197423772,117.96440800017533 560.2225810143641,67.78187998186763 C540.038646797622,32.30797082624434 539.2070313101243,29.73454541104445 542.3361856640735,25.30220267122263 C545.7719653987974,20.435533738896368 548.8615003050639,20.43324492042825 592.670523978021,20.449999071614684 C646.0864118443859,20.470415332350058 647.9261870172197,19.79698390387938 650.4223228474498,24.719103278292494 Z "/>
<path style="fill:none;stroke:#000000;stroke-width:1px;stroke-linecap:butt;stroke-linejoin:miter;stroke-opacity:1" d="M895.2936380365622,296.99993133544893 C895.2936380365622,296.99993133544893 895.2936380365622,13.241990916752684 895.2936380365622,13.241990916752684 C895.2936380365622,13.241990916752684 908.5356735776345,-1.4106740024999453e-05 908.5356735776345,-1.4106740024999453e-05 C908.5356735776345,-1.4106740024999453e-05 1076.0516117099955,-1.4106740024999453e-05 1076.0516117099955,-1.4106740024999453e-05 C1076.0516117099955,-1.4106740024999453e-05 1089.2936167334883,13.242051951911833 1089.2936167334883,13.242051951911833 C1089.2936167334883,13.242051951911833 1089.2936167334883,296.99993133544893 1089.2936167334883,296.99993133544893 C1089.2936167334883,296.99993133544893 1067.1694396572557,296.99993133544893 1067.1694396572557,296.99993133544893 C1067.1694396572557,296.99993133544893 1044.8477222884371,272.1524760842133 1044.8477222884371,272.1524760842133 C1044.8477222884371,272.1524760842133 939.7395324816132,272.1524760842133 939.7395324816132,272.1524760842133 C939.7395324816132,272.1524760842133 917.4178151127949,296.99993133544893 917.4178151127949,296.99993133544893 C917.4178151127949,296.99993133544893 895.2936380365622,296.99993133544893 895.2936380365622,296.99993133544893 Z "/>
<path style="fill:none;stroke:#000000;stroke-width:1px;stroke-linecap:butt;stroke-linejoin:miter;stroke-opacity:1" d="M904.3188765023474,16.675432241941735 C904.3188765023474,12.45161612335255 907.7452682666548,9.025437982102176 911.9690843852441,9.025437982102176 C916.1929005038332,9.025437982102176 919.6193227857202,12.45161612335255 919.6193227857202,16.675432241941735 C919.6193227857202,20.899248360531033 916.1929005038332,24.32542650178135 911.9690843852441,24.32542650178135 C907.7452682666548,24.32542650178135 904.3188765023474,20.899248360531033 904.3188765023474,16.675432241941735 Z "/>
<path style="fill:none;stroke:#000000;stroke-width:1px;stroke-linecap:butt;stroke-linejoin:miter;stroke-opacity:1" d="M1080.2683477501234,16.675432241941735 C1080.2683477501234,12.45161612335255 1076.8419559858162,9.025437982102176 1072.6181398672268,9.025437982102176 C1068.3943237486376,9.025437982102176 1064.9679014667506,12.45161612335255 1064.9679014667506,16.675432241941735 C1064.9679014667506,20.899248360531033 1068.3943237486376,24.32542650178135 1072.6181398672268,24.32542650178135 C1076.8419559858162,24.32542650178135 1080.2683477501234,20.899248360531033 1080.2683477501234,16.675432241941735 Z "/>
<path style="fill:none;stroke:#000000;stroke-width:1px;stroke-linecap:butt;stroke-linejoin:miter;stroke-opacity:1" d="M900.3019085381142,271.11293669767963 C900.3019085381142,266.8891224864391 903.7283003024215,263.46294625253745 907.9521164210107,263.46294243784 C912.1759325396,263.4629386231426 915.602354821487,266.8891148570442 915.602354821487,271.11293669767963 C915.602354821487,275.336758538315 912.1759325396,278.7629347722166 907.9521164210107,278.7629309575192 C903.7283003024215,278.76292714282175 900.3019085381142,275.3367509089201 900.3019085381142,271.11293669767963 Z "/>
<path style="fill:none;stroke:#000000;stroke-width:1px;stroke-linecap:butt;stroke-linejoin:miter;stroke-opacity:1" d="M1084.2853157143568,271.11293669767963 C1084.2853157143568,266.8891224864391 1080.8589239500493,263.46294625253745 1076.6351078314601,263.46294243784 C1072.411291712871,263.4629386231426 1068.984869430984,266.8891148570442 1068.984869430984,271.11293669767963 C1068.984869430984,275.336758538315 1072.411291712871,278.7629347722166 1076.6351078314601,278.7629309575192 C1080.8589239500493,278.76292714282175 1084.2853157143568,275.3367509089201 1084.2853157143568,271.11293669767963 Z "/>
<path style="fill:none;stroke:#000000;stroke-width:1px;stroke-linecap:butt;stroke-linejoin:miter;stroke-opacity:1" d="M905.4521163022671,254.8629740728205 C905.4521163022671,254.8629740728205 905.4521163022671,252.36297395407686 905.4521163022671,252.36297395407686 C905.4521163022671,252.36297395407686 910.4521165397543,252.36297395407686 910.4521165397543,252.36297395407686 C910.4521165397543,252.36297395407686 910.4521165397543,254.8629740728205 910.4521165397543,254.8629740728205 C910.4521165397543,254.8629740728205 905.4521163022671,254.8629740728205 905.4521163022671,254.8629740728205 Z "/>
<path style="fill:none;stroke:#000000;stroke-width:1px;stroke-linecap:butt;stroke-linejoin:miter;stroke-opacity:1" d="M905.4521163022671,289.8629757352313 C905.4521163022671,289.8629757352313 905.4521163022671,287.3629756164877 905.4521163022671,287.3629756164877 C905.4521163022671,287.3629756164877 910.4521165397543,287.3629756164877 910.4521165397543,287.3629756164877 C910.4521165397543,287.3629756164877 910.4521165397543,289.8629757352313 910.4521165397543,289.8629757352313 C910.4521165397543,289.8629757352313 905.4521163022671,289.8629757352313 905.4521163022671,289.8629757352313 Z "/>
<path style="fill:none;stroke:#000000;stroke-width:1px;stroke-linecap:butt;stroke-linejoin:miter;stroke-opacity:1" d="M1079.1351079502037,289.8629757352313 C1079.1351079502037,289.8629757352313 1079.1351079502037,287.3629756164877 1079.1351079502037,287.3629756164877 C1079.1351079502037,287.3629756164877 1074.1351077127165,287.3629756164877 1074.1351077127165,287.3629756164877 C1074.1351077127165,287.3629756164877 1074.1351077127165,289.8629757352313 1074.1351077127165,289.8629757352313 C1074.1351077127165,289.8629757352313 1079.1351079502037,289.8629757352313 1079.1351079502037,289.8629757352313 Z "/>
<path style="fill:none;stroke:#000000;stroke-width:1px;stroke-linecap:butt;stroke-linejoin:miter;stroke-opacity:1" d="M1079.1351079502037,254.8629740728205 C1079.1351079502037,254.8629740728205 1079.1351079502037,252.36297395407686 1079.1351079502037,252.36297395407686 C1079.1351079502037,252.36297395407686 1074.1351077127165,252.36297395407686 1074.1351077127165,252.36297395407686 C1074.1351077127165,252.36297395407686 1074.1351077127165,254.8629740728205 1074.1351077127165,254.8629740728205 C1074.1351077127165,254.8629740728205 1079.1351079502037,254.8629740728205 1079.1351079502037,254.8629740728205 Z "/>
<path style="fill:none;stroke:#000000;stroke-width:1px;stroke-linecap:butt;stroke-linejoin:miter;stroke-opacity:1" d="M928.8470453919822,10.571946844619902 C928.8470453919822,10.571946844619902 930.6148067064152,8.804185530186999 930.6148067064152,8.804185530186999 C930.6148067064152,8.804185530186999 927.0792840775493,5.268632383741647 927.0792840775493,5.268632383741647 C927.0792840775493,5.268632383741647 925.3114922455368,7.036424215754096 925.3114922455368,7.036424215754096 C925.3114922455368,7.036424215754096 928.8470453919822,10.571946844619902 928.8470453919822,10.571946844619902 Z "/>
<path style="fill:none;stroke:#000000;stroke-width:1px;stroke-linecap:butt;stroke-linejoin:miter;stroke-opacity:1" d="M904.0982954371829,35.32069679941924 C904.0982954371829,35.32069679941924 905.8660567516158,33.55290496740679 905.8660567516158,33.55290496740679 C905.8660567516158,33.55290496740679 902.3305341227499,30.017382338540983 902.3305341227499,30.017382338540983 C902.3305341227499,30.017382338540983 900.562772808317,31.785143652973886 900.562772808317,31.785143652973886 C900.562772808317,31.785143652973886 904.0982954371829,35.32069679941924 904.0982954371829,35.32069679941924 Z "/>
<path style="fill:none;stroke:#000000;stroke-width:1px;stroke-linecap:butt;stroke-linejoin:miter;stroke-opacity:1" d="M1080.488928815288,35.32069679941924 C1080.488928815288,35.32069679941924 1078.721167500855,33.55290496740679 1078.721167500855,33.55290496740679 C1078.721167500855,33.55290496740679 1082.256690129721,30.017382338540983 1082.256690129721,30.017382338540983 C1082.256690129721,30.017382338540983 1084.0244514441538,31.785143652973886 1084.0244514441538,31.785143652973886 C1084.0244514441538,31.785143652973886 1080.488928815288,35.32069679941924 1080.488928815288,35.32069679941924 Z "/>
<path style="fill:none;stroke:#000000;stroke-width:1px;stroke-linecap:butt;stroke-linejoin:miter;stroke-opacity:1" d="M1055.7401788604886,10.571946844619902 C1055.7401788604886,10.571946844619902 1053.9724175460556,8.804185530186999 1053.9724175460556,8.804185530186999 C1053.9724175460556,8.804185530186999 1057.5079401749215,5.268632383741647 1057.5079401749215,5.268632383741647 C1057.5079401749215,5.268632383741647 1059.275732006934,7.036424215754096 1059.275732006934,7.036424215754096 C1059.275732006934,7.036424215754096 1055.7401788604886,10.571946844619902 1055.7401788604886,10.571946844619902 Z "/>
<path style="fill:none;stroke:#000000;stroke-width:1px;stroke-linecap:butt;stroke-linejoin:miter;stroke-opacity:1" d="M935.8713682353853,247.4333625138782 C933.5890500117466,242.93288164826137 934.3075253876692,242.1434910468025 958.2602547968471,202.1850769784696 C987.2747520245712,153.7825249358195 987.9465355037447,153.0110100065964 992.6351648768333,153.12715991445697 C997.3807095358284,153.24471363097797 997.5182522669706,154.188012015626 1026.0711100684712,204.37056292211835 C1046.2550404705157,239.84446063364933 1047.0866445139209,242.41790893703393 1043.9574939746692,246.8502402327634 C1040.521702795853,251.71691297978708 1037.4321945924685,251.7191941688603 993.6231715155579,251.7024247588841 C940.2072754237516,251.68197798056917 938.367492621523,252.35545137071176 935.8713682353853,247.4333625138782 Z "/>
<path style="fill:none;stroke:#000000;stroke-width:1px;stroke-linecap:butt;stroke-linejoin:miter;stroke-opacity:1" d="M917.8455495081112,35.26079079071451 C922.1603690489915,32.588579970431965 923.6300346461406,32.317065064957546 950.1298527993456,76.81355765694303 C980.4807453542169,127.77648122013002 981.7157612820176,128.43135796021937 981.6784077646184,135.22594446458552 C981.6484089838966,140.68267079798485 982.7095052257023,142.1035540441841 952.282013546099,187.01639034490975 C924.1437675806978,228.55016764724806 923.0464164543578,230.923626622286 918.2353810695959,228.82615337813013 C912.952910115567,226.52315186493482 914.9974658767406,221.7038919924776 914.3801867946871,136.3201217626499 C913.7069384716939,43.19508682187018 913.1264941081868,38.18336783382631 917.8455495081112,35.26079079071451 Z "/>
<path style="fill:none;stroke:#000000;stroke-width:1px;stroke-linecap:butt;stroke-linejoin:miter;stroke-opacity:1" d="M1066.7416747443597,236.8916521132715 C1062.4268552034794,239.56385530415918 1060.9572506414893,239.83536639493613 1034.4574324882842,195.33889287643785 C1004.1065094158336,144.3759387956713 1002.8714934880328,143.72106205558194 1002.908847005432,136.92650606879536 C1002.9388457861537,131.46977973539603 1001.8778105795072,130.04888123040698 1032.305271741531,85.13606781786604 C1060.4435177069322,43.602282886132826 1061.5408383156928,41.228823911094906 1066.3519042180342,43.32631241404056 C1071.634375172063,45.62932155663074 1069.5897888933098,50.44856617029819 1070.2070679753633,135.83232877073098 C1070.8803162983565,228.9573789703005 1071.460730144284,233.9691017730418 1066.7416747443597,236.8916521132715 Z "/>
<path style="fill:none;stroke:#000000;stroke-width:1px;stroke-linecap:butt;stroke-linejoin:miter;stroke-opacity:1" d="M1048.7159170522448,24.719103278292494 C1050.998204758304,29.21956125572467 1050.2797904175404,30.00895948657842 1026.3270304907828,69.96736592551639 C997.3125027454793,118.36991033877158 996.6407192663057,119.14137949162534 991.9520898932171,119.02526010134434 C987.2065452342221,118.90773690240292 987.0690025030798,117.96440800017533 958.516175219159,67.78187998186763 C938.3322448171143,32.30797082624434 937.500640773709,29.73454541104445 940.6297913129607,25.30220267122263 C944.0655519741974,20.435533738896368 947.1550906951614,20.43324492042825 990.964113772072,20.449999071614684 C1044.3800098638783,20.470415332350058 1046.219792666107,19.79698390387938 1048.7159170522448,24.719103278292494 Z "/>
<path style="fill:none;stroke:#000000;stroke-width:1px;stroke-linecap:butt;stroke-linejoin:miter;stroke-opacity:1" d="M1097.0000685155405,296.99993133544893 C1097.0000685155405,296.99993133544893 1097.0000685155405,13.241990916752684 1097.0000685155405,13.241990916752684 C1097.0000685155405,13.241990916752684 1110.2421040566128,-1.4106740024999453e-05 1110.2421040566128,-1.4106740024999453e-05 C1110.2421040566128,-1.4106740024999453e-05 1277.7580421889738,-1.4106740024999453e-05 1277.7580421889738,-1.4106740024999453e-05 C1277.7580421889738,-1.4106740024999453e-05 1291.0000472124666,13.242051951911833 1291.0000472124666,13.242051951911833 C1291.0000472124666,13.242051951911833 1291.0000472124666,296.99993133544893 1291.0000472124666,296.99993133544893 C1291.0000472124666,296.99993133544893 1268.8759006538135,296.99993133544893 1268.8759006538135,296.99993133544893 C1268.8759006538135,296.99993133544893 1246.554122249836,272.1524760842133 1246.554122249836,272.1524760842133 C1246.554122249836,272.1524760842133 1141.4459629605917,272.1524760842133 1141.4459629605917,272.1524760842133 C1141.4459629605917,272.1524760842133 1119.1242455917732,296.99993133544893 1119.1242455917732,296.99993133544893 C1119.1242455917732,296.99993133544893 1097.0000685155405,296.99993133544893 1097.0000685155405,296.99993133544893 Z "/>
<path style="fill:none;stroke:#000000;stroke-width:1px;stroke-linecap:butt;stroke-linejoin:miter;stroke-opacity:1" d="M1106.0253069813257,16.675432241941735 C1106.0253069813257,12.45161612335255 1109.4516987456332,9.025437982102176 1113.6755148642224,9.025437982102176 C1117.8993309828115,9.025437982102176 1121.3257837822782,12.45161612335255 1121.3257837822782,16.675432241941735 C1121.3257837822782,20.899248360531033 1117.8993309828115,24.32542650178135 1113.6755148642224,24.32542650178135 C1109.4516987456332,24.32542650178135 1106.0253069813257,20.899248360531033 1106.0253069813257,16.675432241941735 Z "/>
<path style="fill:none;stroke:#000000;stroke-width:1px;stroke-linecap:butt;stroke-linejoin:miter;stroke-opacity:1" d="M1281.974778229102,16.675432241941735 C1281.974778229102,12.45161612335255 1278.5483864647945,9.025437982102176 1274.3245703462053,9.025437982102176 C1270.100754227616,9.025437982102176 1266.6743014281494,12.45161612335255 1266.6743014281494,16.675432241941735 C1266.6743014281494,20.899248360531033 1270.100754227616,24.32542650178135 1274.3245703462053,24.32542650178135 C1278.5483864647945,24.32542650178135 1281.974778229102,20.899248360531033 1281.974778229102,16.675432241941735 Z "/>
<path style="fill:none;stroke:#000000;stroke-width:1px;stroke-linecap:butt;stroke-linejoin:miter;stroke-opacity:1" d="M1102.0083390170926,271.11293669767963 C1102.0083390170926,266.8891224864391 1105.4347307814,263.46294243784 1109.6585468999892,263.46294243784 C1113.8823630185784,263.46294243784 1117.308754782886,266.8891224864391 1117.308754782886,271.11293669767963 C1117.308754782886,275.3367509089201 1113.8823630185784,278.7629309575192 1109.6585468999892,278.7629309575192 C1105.4347307814,278.7629309575192 1102.0083390170926,275.3367509089201 1102.0083390170926,271.11293669767963 Z "/>
<path style="fill:none;stroke:#000000;stroke-width:1px;stroke-linecap:butt;stroke-linejoin:miter;stroke-opacity:1" d="M1285.991746193335,271.11293669767963 C1285.991746193335,266.8891224864391 1282.5653544290276,263.46294243784 1278.3415383104384,263.46294243784 C1274.1177221918492,263.46294243784 1270.6913304275417,266.8891224864391 1270.6913304275417,271.11293669767963 C1270.6913304275417,275.3367509089201 1274.1177221918492,278.7629309575192 1278.3415383104384,278.7629309575192 C1282.5653544290276,278.7629309575192 1285.991746193335,275.3367509089201 1285.991746193335,271.11293669767963 Z "/>
<path style="fill:none;stroke:#000000;stroke-width:1px;stroke-linecap:butt;stroke-linejoin:miter;stroke-opacity:1" d="M1107.1585467812456,254.8629740728205 C1107.1585467812456,254.8629740728205 1107.1585467812456,252.36297395407686 1107.1585467812456,252.36297395407686 C1107.1585467812456,252.36297395407686 1112.1585470187329,252.36297395407686 1112.1585470187329,252.36297395407686 C1112.1585470187329,252.36297395407686 1112.1585470187329,254.8629740728205 1112.1585470187329,254.8629740728205 C1112.1585470187329,254.8629740728205 1107.1585467812456,254.8629740728205 1107.1585467812456,254.8629740728205 Z "/>
<path style="fill:none;stroke:#000000;stroke-width:1px;stroke-linecap:butt;stroke-linejoin:miter;stroke-opacity:1" d="M1107.1585467812456,289.8629757352313 C1107.1585467812456,289.8629757352313 1107.1585467812456,287.3629756164877 1107.1585467812456,287.3629756164877 C1107.1585467812456,287.3629756164877 1112.1585470187329,287.3629756164877 1112.1585470187329,287.3629756164877 C1112.1585470187329,287.3629756164877 1112.1585470187329,289.8629757352313 1112.1585470187329,289.8629757352313 C1112.1585470187329,289.8629757352313 1107.1585467812456,289.8629757352313 1107.1585467812456,289.8629757352313 Z "/>
<path style="fill:none;stroke:#000000;stroke-width:1px;stroke-linecap:butt;stroke-linejoin:miter;stroke-opacity:1" d="M1280.841538429182,289.8629757352313 C1280.841538429182,289.8629757352313 1280.841538429182,287.3629756164877 1280.841538429182,287.3629756164877 C1280.841538429182,287.3629756164877 1275.8415381916948,287.3629756164877 1275.8415381916948,287.3629756164877 C1275.8415381916948,287.3629756164877 1275.8415381916948,289.8629757352313 1275.8415381916948,289.8629757352313 C1275.8415381916948,289.8629757352313 1280.841538429182,289.8629757352313 1280.841538429182,289.8629757352313 Z "/>
<path style="fill:none;stroke:#000000;stroke-width:1px;stroke-linecap:butt;stroke-linejoin:miter;stroke-opacity:1" d="M1280.841538429182,254.8629740728205 C1280.841538429182,254.8629740728205 1280.841538429182,252.36297395407686 1280.841538429182,252.36297395407686 C1280.841538429182,252.36297395407686 1275.8415381916948,252.36297395407686 1275.8415381916948,252.36297395407686 C1275.8415381916948,252.36297395407686 1275.8415381916948,254.8629740728205 1275.8415381916948,254.8629740728205 C1275.8415381916948,254.8629740728205 1280.841538429182,254.8629740728205 1280.841538429182,254.8629740728205 Z "/>
<path style="fill:none;stroke:#000000;stroke-width:1px;stroke-linecap:butt;stroke-linejoin:miter;stroke-opacity:1" d="M1130.553445353381,10.571946844619902 C1130.553445353381,10.571946844619902 1132.3212066678138,8.804185530186999 1132.3212066678138,8.804185530186999 C1132.3212066678138,8.804185530186999 1128.7856840389481,5.268632383741647 1128.7856840389481,5.268632383741647 C1128.7856840389481,5.268632383741647 1127.0179227245153,7.036424215754096 1127.0179227245153,7.036424215754096 C1127.0179227245153,7.036424215754096 1130.553445353381,10.571946844619902 1130.553445353381,10.571946844619902 Z "/>
<path style="fill:none;stroke:#000000;stroke-width:1px;stroke-linecap:butt;stroke-linejoin:miter;stroke-opacity:1" d="M1105.8047259161613,35.32069679941924 C1105.8047259161613,35.32069679941924 1107.572487230594,33.55290496740679 1107.572487230594,33.55290496740679 C1107.572487230594,33.55290496740679 1104.0369646017284,30.017382338540983 1104.0369646017284,30.017382338540983 C1104.0369646017284,30.017382338540983 1102.2692032872956,31.785143652973886 1102.2692032872956,31.785143652973886 C1102.2692032872956,31.785143652973886 1105.8047259161613,35.32069679941924 1105.8047259161613,35.32069679941924 Z "/>
<path style="fill:none;stroke:#000000;stroke-width:1px;stroke-linecap:butt;stroke-linejoin:miter;stroke-opacity:1" d="M1282.1953592942664,35.32069679941924 C1282.1953592942664,35.32069679941924 1280.4275979798335,33.55290496740679 1280.4275979798335,33.55290496740679 C1280.4275979798335,33.55290496740679 1283.9631206086992,30.017382338540983 1283.9631206086992,30.017382338540983 C1283.9631206086992,30.017382338540983 1285.730881923132,31.785143652973886 1285.730881923132,31.785143652973886 C1285.730881923132,31.785143652973886 1282.1953592942664,35.32069679941924 1282.1953592942664,35.32069679941924 Z "/>
<path style="fill:none;stroke:#000000;stroke-width:1px;stroke-linecap:butt;stroke-linejoin:miter;stroke-opacity:1" d="M1257.4466398570466,10.571946844619902 C1257.4466398570466,10.571946844619902 1255.6788785426138,8.804185530186999 1255.6788785426138,8.804185530186999 C1255.6788785426138,8.804185530186999 1259.2144011714795,5.268632383741647 1259.2144011714795,5.268632383741647 C1259.2144011714795,5.268632383741647 1260.9821624859123,7.036424215754096 1260.9821624859123,7.036424215754096 C1260.9821624859123,7.036424215754096 1257.4466398570466,10.571946844619902 1257.4466398570466,10.571946844619902 Z "/>
<path style="fill:none;stroke:#000000;stroke-width:1px;stroke-linecap:butt;stroke-linejoin:miter;stroke-opacity:1" d="M1137.5777987143638,247.4333625138782 C1135.2954499731454,242.93288164826137 1136.0140169018068,242.14356352605398 1159.966715793405,202.1850769784696 C1188.9811214683905,153.7825249358195 1189.6529965003028,153.0110100065964 1194.3415953558117,153.12715991445697 C1199.0871400148067,153.24471363097797 1199.2246522283695,154.18804253320556 1227.77751002987,204.37056292211835 C1247.961470949494,239.84446826304423 1248.7930749928994,242.41790893703393 1245.6639244536477,246.8502402327634 C1242.2281332748314,251.71691297978708 1239.1385945538673,251.7191941688603 1195.3295714769567,251.7024247588841 C1141.9137364203098,251.68197798056917 1140.0739536180808,252.35544374131686 1137.5777987143638,247.4333625138782 Z "/>
<path style="fill:none;stroke:#000000;stroke-width:1px;stroke-linecap:butt;stroke-linejoin:miter;stroke-opacity:1" d="M1119.5519799870895,35.26079079071451 C1123.86679952797,32.588579970431965 1125.336465125119,32.317065064957546 1151.8362832783241,76.81355765694303 C1182.1871758331954,127.77648122013002 1183.4221002082572,128.43135796021937 1183.3848077260172,135.22594446458552 C1183.3548394628751,140.68267079798485 1184.4159357046806,142.1035693029739 1153.9884440250776,187.01639034490975 C1125.8501980596764,228.5501523884583 1124.752846933336,230.923626622286 1119.9418115485742,228.82615337813013 C1114.6593405945455,226.52315186493482 1116.7038353205598,221.7038919924776 1116.086586756086,136.3201217626499 C1115.4133689506723,43.19508682187018 1114.832924587165,38.18336783382631 1119.5519799870895,35.26079079071451 Z "/>
<path style="fill:none;stroke:#000000;stroke-width:1px;stroke-linecap:butt;stroke-linejoin:miter;stroke-opacity:1" d="M1268.4481052233382,236.8916521132715 C1264.1332856824577,239.56385530415918 1262.6636811204678,239.83531680386932 1236.1638629672627,195.33889287643785 C1205.8129093772322,144.3759387956713 1204.5779850021704,143.72106205558194 1204.6152774844104,136.92650606879536 C1204.6452457475525,131.46977973539603 1203.5842715760652,130.0488507128274 1234.0117022205093,85.13606781786604 C1262.1499481859105,43.602282886132826 1263.2472382770916,41.228808652305105 1268.0583346970125,43.32631241404056 C1273.3408056510414,45.62932155663074 1271.2962498898678,50.44856617029819 1271.9134984543416,135.83232877073098 C1272.5867162597553,228.9573789703005 1273.1671606232626,233.9691017730418 1268.4481052233382,236.8916521132715 Z "/>
<path style="fill:none;stroke:#000000;stroke-width:1px;stroke-linecap:butt;stroke-linejoin:miter;stroke-opacity:1" d="M1250.422347531223,24.719103278292494 C1252.7046352372822,29.21956125572467 1251.98612934378,30.008928968998816 1228.0334304521816,69.96736592551639 C1199.0190247771964,118.3698950799818 1198.347149745284,119.14136423283557 1193.6585508897751,119.02526010134434 C1188.912945195621,118.90773690240292 1188.7754940172174,117.96437748259575 1160.2226362157169,67.78187998186763 C1140.0386752960928,32.30797082624434 1139.2070712526875,29.73454541104445 1142.3362217919391,25.30220267122263 C1145.7720129707554,20.435533738896368 1148.8615516917193,20.43324492042825 1192.67057476863,20.449999071614684 C1246.0864708604363,20.470415332350058 1247.9261926275058,19.79698390387938 1250.422347531223,24.719103278292494 Z "/>
<path style="fill:none;stroke:#000000;stroke-width:1px;stroke-linecap:butt;stroke-linejoin:miter;stroke-opacity:1" d="M697.0000113695856,296.9999389648439 C697.0000113695856,296.9999389648439 697.0000113695856,13.241990916752684 697.0000113695856,13.241990916752684 C697.0000113695856,13.241990916752684 710.2420469106579,-1.4106740024999453e-05 710.2420469106579,-1.4106740024999453e-05 C710.2420469106579,-1.4106740024999453e-05 877.7580231899933,-1.4106740024999453e-05 877.7580231899933,-1.4106740024999453e-05 C877.7580231899933,-1.4106740024999453e-05 890.9999976959065,13.242051951911833 890.9999976959065,13.242051951911833 C890.9999976959065,13.242051951911833 890.9999976959065,296.99993896484375 890.9999976959065,296.99993896484375 C890.9999976959065,296.99993896484375 868.875820619674,296.99993896484375 868.875820619674,296.99993896484375 C868.875820619674,296.99993896484375 846.5541032508555,272.15248371360815 846.5541032508555,272.15248371360815 C846.5541032508555,272.15248371360815 741.4458981852417,272.15248371360815 741.4458981852417,272.15248371360815 C741.4458981852417,272.15248371360815 719.1241808164234,296.9999389648439 719.1241808164234,296.9999389648439 C719.1241808164234,296.9999389648439 697.0000113695856,296.9999389648439 697.0000113695856,296.9999389648439 Z "/>
<path style="fill:none;stroke:#000000;stroke-width:1px;stroke-linecap:butt;stroke-linejoin:miter;stroke-opacity:1" d="M706.0252498353708,16.675432241941735 C706.0252498353708,12.45161612335255 709.4516644878629,9.025437982102176 713.6754806064521,9.025437982102176 C717.8992967250413,9.025437982102176 721.3257113775334,12.45161612335255 721.3257113775334,16.675432241941735 C721.3257113775334,20.899248360531033 717.8992967250413,24.32542650178135 713.6754806064521,24.32542650178135 C709.4516644878629,24.32542650178135 706.0252498353708,20.899248360531033 706.0252498353708,16.675432241941735 Z "/>
<path style="fill:none;stroke:#000000;stroke-width:1px;stroke-linecap:butt;stroke-linejoin:miter;stroke-opacity:1" d="M881.9747287125417,16.675432241941735 C881.9747287125417,12.45161612335255 878.5483064306547,9.025437982102176 874.3244903120656,9.025437982102176 C870.1006741934764,9.025437982102176 866.6742824291689,12.45161612335255 866.6742824291689,16.675432241941735 C866.6742824291689,20.899248360531033 870.1006741934764,24.32542650178135 874.3244903120656,24.32542650178135 C878.5483064306547,24.32542650178135 881.9747287125417,20.899248360531033 881.9747287125417,16.675432241941735 Z "/>
<path style="fill:none;stroke:#000000;stroke-width:1px;stroke-linecap:butt;stroke-linejoin:miter;stroke-opacity:1" d="M702.0082742417427,271.1129443270745 C702.0082742417427,266.8891243937878 705.4346812648398,263.46295006723494 709.658505012824,263.46295006723494 C713.8823287608082,263.46295006723494 717.3087357839053,266.8891243937878 717.3087357839053,271.1129443270745 C717.3087357839053,275.3367642603612 713.8823287608082,278.7629385869141 709.658505012824,278.7629385869141 C705.4346812648398,278.7629385869141 702.0082742417427,275.3367642603612 702.0082742417427,271.1129443270745 Z "/>
<path style="fill:none;stroke:#000000;stroke-width:1px;stroke-linecap:butt;stroke-linejoin:miter;stroke-opacity:1" d="M885.9917271943546,271.1129443270745 C885.9917271943546,266.8891224864391 882.5653049124676,263.46295006723494 878.3414887938784,263.46295006723494 C874.1176726752891,263.46295006723494 870.6912503934022,266.8891224864391 870.6912503934022,271.1129443270745 C870.6912503934022,275.3367661677099 874.1176726752891,278.7629385869141 878.3414887938784,278.7629385869141 C882.5653049124676,278.7629385869141 885.9917271943546,275.3367661677099 885.9917271943546,271.1129443270745 Z "/>
<path style="fill:none;stroke:#000000;stroke-width:1px;stroke-linecap:butt;stroke-linejoin:miter;stroke-opacity:1" d="M707.1585048940804,254.8629817022154 C707.1585048940804,254.8629817022154 707.1585048940804,252.36298158347176 707.1585048940804,252.36298158347176 C707.1585048940804,252.36298158347176 712.1585051315676,252.36298158347176 712.1585051315676,252.36298158347176 C712.1585051315676,252.36298158347176 712.1585051315676,254.8629817022154 712.1585051315676,254.8629817022154 C712.1585051315676,254.8629817022154 707.1585048940804,254.8629817022154 707.1585048940804,254.8629817022154 Z "/>
<path style="fill:none;stroke:#000000;stroke-width:1px;stroke-linecap:butt;stroke-linejoin:miter;stroke-opacity:1" d="M707.1585048940804,289.8629833646262 C707.1585048940804,289.8629833646262 707.1585048940804,287.36298324588256 707.1585048940804,287.36298324588256 C707.1585048940804,287.36298324588256 712.1585051315676,287.36298324588256 712.1585051315676,287.36298324588256 C712.1585051315676,287.36298324588256 712.1585051315676,289.8629833646262 712.1585051315676,289.8629833646262 C712.1585051315676,289.8629833646262 707.1585048940804,289.8629833646262 707.1585048940804,289.8629833646262 Z "/>
<path style="fill:none;stroke:#000000;stroke-width:1px;stroke-linecap:butt;stroke-linejoin:miter;stroke-opacity:1" d="M880.841488912622,289.8629833646262 C880.841488912622,289.8629833646262 880.841488912622,287.36298324588256 880.841488912622,287.36298324588256 C880.841488912622,287.36298324588256 875.8414886751348,287.36298324588256 875.8414886751348,287.36298324588256 C875.8414886751348,287.36298324588256 875.8414886751348,289.8629833646262 875.8414886751348,289.8629833646262 C875.8414886751348,289.8629833646262 880.841488912622,289.8629833646262 880.841488912622,289.8629833646262 Z "/>
<path style="fill:none;stroke:#000000;stroke-width:1px;stroke-linecap:butt;stroke-linejoin:miter;stroke-opacity:1" d="M880.841488912622,254.8629817022154 C880.841488912622,254.8629817022154 880.841488912622,252.36298158347176 880.841488912622,252.36298158347176 C880.841488912622,252.36298158347176 875.8414886751348,252.36298158347176 875.8414886751348,252.36298158347176 C875.8414886751348,252.36298158347176 875.8414886751348,254.8629817022154 875.8414886751348,254.8629817022154 C875.8414886751348,254.8629817022154 880.841488912622,254.8629817022154 880.841488912622,254.8629817022154 Z "/>
<path style="fill:none;stroke:#000000;stroke-width:1px;stroke-linecap:butt;stroke-linejoin:miter;stroke-opacity:1" d="M730.5534263544005,10.571946844619902 C730.5534263544005,10.571946844619902 732.3211876688334,8.804185530186999 732.3211876688334,8.804185530186999 C732.3211876688334,8.804185530186999 728.7856650399676,5.268632383741647 728.7856650399676,5.268632383741647 C728.7856650399676,5.268632383741647 727.0178884667449,7.036424215754096 727.0178884667449,7.036424215754096 C727.0178884667449,7.036424215754096 730.5534263544005,10.571946844619902 730.5534263544005,10.571946844619902 Z "/>
<path style="fill:none;stroke:#000000;stroke-width:1px;stroke-linecap:butt;stroke-linejoin:miter;stroke-opacity:1" d="M705.804684028996,35.32069679941924 C705.804684028996,35.32069679941924 707.5724529728238,33.55290496740679 707.5724529728238,33.55290496740679 C707.5724529728238,33.55290496740679 704.0369150851683,30.017382338540983 704.0369150851683,30.017382338540983 C704.0369150851683,30.017382338540983 702.2691537707353,31.785143652973886 702.2691537707353,31.785143652973886 C702.2691537707353,31.785143652973886 705.804684028996,35.32069679941924 705.804684028996,35.32069679941924 Z "/>
<path style="fill:none;stroke:#000000;stroke-width:1px;stroke-linecap:butt;stroke-linejoin:miter;stroke-opacity:1" d="M882.1953097777063,35.32069679941924 C882.1953097777063,35.32069679941924 880.4275179456938,33.55290496740679 880.4275179456938,33.55290496740679 C880.4275179456938,33.55290496740679 883.9630710921392,30.017382338540983 883.9630710921392,30.017382338540983 C883.9630710921392,30.017382338540983 885.7308324065721,31.785143652973886 885.7308324065721,31.785143652973886 C885.7308324065721,31.785143652973886 882.1953097777063,35.32069679941924 882.1953097777063,35.32069679941924 Z "/>
<path style="fill:none;stroke:#000000;stroke-width:1px;stroke-linecap:butt;stroke-linejoin:miter;stroke-opacity:1" d="M857.4465598229069,10.571946844619902 C857.4465598229069,10.571946844619902 855.6787985084741,8.804185530186999 855.6787985084741,8.804185530186999 C855.6787985084741,8.804185530186999 859.2143211373398,5.268632383741647 859.2143211373398,5.268632383741647 C859.2143211373398,5.268632383741647 860.9820824517727,7.036424215754096 860.9820824517727,7.036424215754096 C860.9820824517727,7.036424215754096 857.4465598229069,10.571946844619902 857.4465598229069,10.571946844619902 Z "/>
<path style="fill:none;stroke:#000000;stroke-width:1px;stroke-linecap:butt;stroke-linejoin:miter;stroke-opacity:1" d="M737.5777339390138,247.4333701432731 C735.2954309741649,242.93288927765627 736.0139063500875,242.14350249089483 759.9666357592655,202.1850846078645 C788.9811177281997,153.7825401946093 789.6529317249529,153.01104052417597 794.3415458392516,153.12717517324674 C799.0871057570364,153.24471363097797 799.2246179705992,154.18804253320556 827.7774757720995,204.37057055151325 C847.9614214329339,239.8444758924391 848.7930254763393,242.417901307639 845.6638749370876,246.8502478621583 C842.228099017061,251.716920609182 839.1385755548869,251.7192017982552 795.3295372191865,251.702432388279 C741.91365638617,251.68198560996407 740.0738583251514,252.3554895176862 737.5777339390138,247.4333701432731 Z "/>
<path style="fill:none;stroke:#000000;stroke-width:1px;stroke-linecap:butt;stroke-linejoin:miter;stroke-opacity:1" d="M719.5519457293192,35.26079079071451 C723.8667500114099,32.588579970431965 725.3364003497692,32.317065064957546 751.8362185029741,76.81355765694303 C782.1871263166352,127.7765117377096 783.4221269856462,128.43137321900915 783.3847887270367,135.22594446458552 C783.3548052051048,140.68267079798485 784.4158709293308,142.1035693029739 753.9883945085173,187.01639797430465 C725.8501485431162,228.55018290603783 724.7528126755658,230.92364951047068 719.9417467732244,228.826161007525 C714.6592758191955,226.52315186493482 716.7038620979488,221.70390725126737 716.0865677571054,136.3201217626499 C715.4133041753224,43.19508682187018 714.8328827,38.18336783382631 719.5519457293192,35.26079079071451 Z "/>
<path style="fill:none;stroke:#000000;stroke-width:1px;stroke-linecap:butt;stroke-linejoin:miter;stroke-opacity:1" d="M868.4480557067781,236.8916597426664 C864.1332666834771,239.56386293355408 862.6636010863281,239.8353969125157 836.1637981919129,195.33890050583275 C805.8129056370417,144.3759387956713 804.5778744504511,143.72107731437174 804.6152279678503,136.92650606879536 C804.645226748572,131.46977973539603 803.584161024346,130.04886597161718 834.0116374451595,85.13606781786604 C862.1498986693504,43.60229814492263 863.247219278111,41.228808652305105 868.0582851804525,43.32631241404056 C873.3407561344814,45.629336815420544 871.2961698557281,50.44856617029819 871.9134489377816,135.83234402952078 C872.5866972607748,228.95738659969538 873.1671111067024,233.96909032894948 868.4480557067781,236.8916597426664 Z "/>
<path style="fill:none;stroke:#000000;stroke-width:1px;stroke-linecap:butt;stroke-linejoin:miter;stroke-opacity:1" d="M850.422298014663,24.719103278292494 C852.7046162383017,29.21956125572467 851.9861408623791,30.00895948657842 828.0333961944114,69.96736592551639 C799.0188837078977,118.36991033877158 798.347100228724,119.14141000920492 793.6584861144252,119.02527536013415 C788.9129109378506,118.90773690240292 788.7753834654981,117.96440800017533 760.2225561815773,67.78187998186763 C740.0386257795327,32.30797082624434 739.2070217361273,29.73454541104445 742.336172275379,25.30220267122263 C745.7719481954056,20.435533738896368 748.8614716575797,20.43324492042825 792.6705099932801,20.449999071614684 C846.0863908262966,20.470415332350058 847.9261431109458,19.79698390387938 850.422298014663,24.719103278292494 Z "/>
<path style="fill:none;stroke:#000000;stroke-width:1px;stroke-linecap:butt;stroke-linejoin:miter;stroke-opacity:1" d="M332.3209550467959,108.80461752604614 C332.3209550467959,108.80461752604614 330.5531632147834,110.57237884047905 330.5531632147834,110.57237884047905 C330.5531632147834,110.57237884047905 327.0176405859176,107.03684095282344 327.0176405859176,107.03684095282344 C327.0176405859176,107.03684095282344 328.7854019003505,105.26907963839054 328.7854019003505,105.26907963839054 C328.7854019003505,105.26907963839054 332.3209550467959,108.80461752604614 332.3209550467959,108.80461752604614 Z "/>
<path style="fill:none;stroke:#000000;stroke-width:1px;stroke-linecap:butt;stroke-linejoin:miter;stroke-opacity:1" d="M307.5722050919965,133.55335222205574 C307.5722050919965,133.55335222205574 305.8044437775636,135.32111353648864 305.8044437775636,135.32111353648864 C305.8044437775636,135.32111353648864 302.2688906311182,131.78557564883303 302.2688906311182,131.78557564883303 C302.2688906311182,131.78557564883303 304.0366824631307,130.01781433440013 304.0366824631307,130.01781433440013 C304.0366824631307,130.01781433440013 307.5722050919965,133.55335222205574 307.5722050919965,133.55335222205574 Z "/>
<path style="fill:none;stroke:#000000;stroke-width:1px;stroke-linecap:butt;stroke-linejoin:miter;stroke-opacity:1" d="M313.6756904893184,109.02516807363111 C309.4518743707291,109.02516807363111 306.0256962294788,112.45159035551805 306.0256962294788,116.67540647410729 C306.0256962294788,120.89922259269653 309.4518743707291,124.32564487458347 313.6756904893184,124.32564487458347 C317.8995066079076,124.32564487458347 321.325684749158,120.89922259269653 321.325684749158,116.67540647410729 C321.325684749158,112.45159035551805 317.8995066079076,109.02516807363111 313.6756904893184,109.02516807363111 Z "/>
<path style="fill:none;stroke:#000000;stroke-width:1px;stroke-linecap:butt;stroke-linejoin:miter;stroke-opacity:1" d="M297.0,280.7576362524579 C297.0,280.7576362524579 310.2420050234927,293.99964127595064 310.2420050234927,293.99964127595064 C310.2420050234927,293.99964127595064 477.7576837564273,293.9999159341668 477.7576837564273,293.9999159341668 C477.7576837564273,293.9999159341668 490.99968877992,280.7578803930945 490.99968877992,280.7578803930945 C490.99968877992,280.7578803930945 490.99997869692595,113.24220928955481 490.99997869692595,113.24220928955481 C490.99997869692595,113.24220928955481 477.7579431558537,100.0002042660621 477.7579431558537,100.0002042660621 C477.7579431558537,100.0002042660621 310.2422491641293,99.99992960784593 310.2422491641293,99.99992960784593 C310.2422491641293,99.99992960784593 297.0002441406366,113.24196514891821 297.0002441406366,113.24196514891821 C297.0002441406366,113.24196514891821 297.0,280.7576362524579 297.0,280.7576362524579 Z "/>
<path style="fill:none;stroke:#000000;stroke-width:1px;stroke-linecap:butt;stroke-linejoin:miter;stroke-opacity:1" d="M306.0252079482056,277.3241949272688 C306.0252079482056,281.548018675253 309.4516302300925,284.9741949091546 313.6754463486818,284.9741968165033 C317.899262467271,284.97419872385206 321.325684749158,281.5480301193453 321.325684749158,277.3242101860586 C321.325684749158,273.1003864380745 317.899262467271,269.6742102041729 313.6754463486818,269.67420829682413 C309.4516302300925,269.67420638947544 306.0252079482056,273.10037499398214 306.0252079482056,277.3241949272688 Z "/>
<path style="fill:none;stroke:#000000;stroke-width:1px;stroke-linecap:butt;stroke-linejoin:miter;stroke-opacity:1" d="M330.55340735542,283.4276879539856 C330.55340735542,283.4276879539856 332.3211686698529,285.1954492684185 332.3211686698529,285.1954492684185 C332.3211686698529,285.1954492684185 328.7856460409871,288.73099478546897 328.7856460409871,288.73099478546897 C328.7856460409871,288.73099478546897 327.01785420897465,286.9632105828514 327.01785420897465,286.9632105828514 C327.01785420897465,286.9632105828514 330.55340735542,283.4276879539856 330.55340735542,283.4276879539856 Z "/>
<path style="fill:none;stroke:#000000;stroke-width:1px;stroke-linecap:butt;stroke-linejoin:miter;stroke-opacity:1" d="M305.8046574006206,258.6789456285811 C305.8046574006206,258.6789456285811 307.5724187150536,260.4467298311987 307.5724187150536,260.4467298311987 C307.5724187150536,260.4467298311987 304.03689608618777,263.9822524600645 304.03689608618777,263.9822524600645 C304.03689608618777,263.9822524600645 302.2691347717548,262.2144911456316 302.2691347717548,262.2144911456316 C302.2691347717548,262.2144911456316 305.8046574006206,258.6789456285811 305.8046574006206,258.6789456285811 Z "/>
<path style="fill:none;stroke:#000000;stroke-width:1px;stroke-linecap:butt;stroke-linejoin:miter;stroke-opacity:1" d="M455.67899313255054,285.19524327475636 C455.67899313255054,285.19524327475636 457.446784964563,283.4274743309286 457.446784964563,283.4274743309286 C457.446784964563,283.4274743309286 460.9823075934288,286.9630122185842 460.9823075934288,286.9630122185842 C460.9823075934288,286.9630122185842 459.2145462789959,288.7307735330171 459.2145462789959,288.7307735330171 C459.2145462789959,288.7307735330171 455.67899313255054,285.19524327475636 455.67899313255054,285.19524327475636 Z "/>
<path style="fill:none;stroke:#000000;stroke-width:1px;stroke-linecap:butt;stroke-linejoin:miter;stroke-opacity:1" d="M480.4277278285601,260.44650476404934 C480.4277278285601,260.44650476404934 482.19549677238786,258.678739634919 482.19549677238786,258.678739634919 C482.19549677238786,258.678739634919 485.7310422894384,262.2142698931797 485.7310422894384,262.2142698931797 C485.7310422894384,262.2142698931797 483.9632580868208,263.9820388370075 483.9632580868208,263.9820388370075 C483.9632580868208,263.9820388370075 480.4277278285601,260.44650476404934 480.4277278285601,260.44650476404934 Z "/>
<path style="fill:none;stroke:#000000;stroke-width:1px;stroke-linecap:butt;stroke-linejoin:miter;stroke-opacity:1" d="M474.32424243123825,284.9746774683816 C478.54806617922236,284.9746793757304 481.97424432047274,281.54826853793577 481.97424432047274,277.32444669730035 C481.97424432047274,273.10062867136236 478.54807380861723,269.67421783356775 474.32425769002805,269.67421592621906 C470.1004339420439,269.6742140188703 466.6742558007935,273.1006248566649 466.6742558007935,277.32444669730035 C466.6742558007935,281.5482647232383 470.100426312649,284.9746755610329 474.32424243123825,284.9746774683816 Z "/>
<path style="fill:none;stroke:#000000;stroke-width:1px;stroke-linecap:butt;stroke-linejoin:miter;stroke-opacity:1" d="M481.9747402311408,116.67565061474389 C481.9747402311408,112.45183449615465 478.54833320804363,109.0256563549043 474.3245094600595,109.0256563549043 C470.10068571207535,109.0256563549043 466.67427868897823,112.45183449615465 466.67427868897823,116.67565061474389 C466.67427868897823,120.89946673333313 470.10068571207535,124.32564487458347 474.3245094600595,124.32564487458347 C478.54833320804363,124.32564487458347 481.9747402311408,120.89946673333313 481.9747402311408,116.67565061474389 Z "/>
<path style="fill:none;stroke:#000000;stroke-width:1px;stroke-linecap:butt;stroke-linejoin:miter;stroke-opacity:1" d="M457.446571341506,110.57216521742203 C457.446571341506,110.57216521742203 455.67881002707304,108.80440390298912 455.67881002707304,108.80440390298912 C455.67881002707304,108.80440390298912 459.21433265593885,105.26885075654374 459.21433265593885,105.26885075654374 C459.21433265593885,105.26885075654374 460.9820939703718,107.03664258855622 460.9820939703718,107.03664258855622 C460.9820939703718,107.03664258855622 457.446571341506,110.57216521742203 457.446571341506,110.57216521742203 Z "/>
<path style="fill:none;stroke:#000000;stroke-width:1px;stroke-linecap:butt;stroke-linejoin:miter;stroke-opacity:1" d="M482.19530603751554,135.3209151722214 C482.19530603751554,135.3209151722214 480.42753709368776,133.5531233402089 480.42753709368776,133.5531233402089 C480.42753709368776,133.5531233402089 483.9630749813433,130.0176007113431 483.9630749813433,130.0176007113431 C483.9630749813433,130.0176007113431 485.73083629577627,131.785362025776 485.73083629577627,131.785362025776 C485.73083629577627,131.785362025776 482.19530603751554,135.3209151722214 482.19530603751554,135.3209151722214 Z "/>
<path style="fill:none;stroke:#000000;stroke-width:1px;stroke-linecap:butt;stroke-linejoin:miter;stroke-opacity:1" d="M337.4314289223429,147.08649495468924 L344.0865500880535,147.08647969589944 L344.0865500880535,140.43137378897856 L337.4314289223429,140.43137378897856 Z "/>
<path style="fill:none;stroke:#000000;stroke-width:1px;stroke-linecap:butt;stroke-linejoin:miter;stroke-opacity:1" d="M337.4314289223429,160.39673728611055 L337.4314289223429,153.74161612039987 L344.0865500880535,153.74161612039987 L344.0865500880535,160.39673728611055 Z "/>
<path style="fill:none;stroke:#000000;stroke-width:1px;stroke-linecap:butt;stroke-linejoin:miter;stroke-opacity:1" d="M337.4314289223429,173.70697961753183 L337.4314289223429,167.05185845182118 L344.0865500880535,167.05185845182118 L344.0865500880535,173.70697198813696 Z "/>
<path style="fill:none;stroke:#000000;stroke-width:1px;stroke-linecap:butt;stroke-linejoin:miter;stroke-opacity:1" d="M337.4314289223429,187.01722957834804 L337.4314289223429,180.3621007832425 L344.0865500880535,180.3621007832425 L344.0865500880535,187.01722194895314 Z "/>
<path style="fill:none;stroke:#000000;stroke-width:1px;stroke-linecap:butt;stroke-linejoin:miter;stroke-opacity:1" d="M337.4314289223429,200.32747953916424 L337.4314289223429,193.6723507440587 L344.0865500880535,193.6723507440587 L344.0865500880535,200.32747190976934 Z "/>
<path style="fill:none;stroke:#000000;stroke-width:1px;stroke-linecap:butt;stroke-linejoin:miter;stroke-opacity:1" d="M337.4314289223429,213.63772187058555 L337.4314289223429,206.9826007048749 L344.0865500880535,206.9826007048749 L344.0865500880535,213.63772187058555 Z "/>
<path style="fill:none;stroke:#000000;stroke-width:1px;stroke-linecap:butt;stroke-linejoin:miter;stroke-opacity:1" d="M337.4314289223429,226.94797183140176 L337.4314289223429,220.2928506656911 L344.0865500880535,220.2928430362962 L344.0865500880535,226.94796420200686 Z "/>
<path style="fill:none;stroke:#000000;stroke-width:1px;stroke-linecap:butt;stroke-linejoin:miter;stroke-opacity:1" d="M337.4314289223429,240.25822179221797 L337.4314289223429,233.6030929971124 L344.0865500880535,233.6030929971124 L344.0865500880535,240.2582179775205 Z "/>
<path style="fill:none;stroke:#000000;stroke-width:1px;stroke-linecap:butt;stroke-linejoin:miter;stroke-opacity:1" d="M337.4314289223429,253.56846412363927 L337.4314289223429,246.9133429579286 L344.0865500880535,246.91333914323116 L344.0865500880535,253.5684603089418 Z "/>
<path style="fill:none;stroke:#000000;stroke-width:1px;stroke-linecap:butt;stroke-linejoin:miter;stroke-opacity:1" d="M350.74167125376414,140.4313585301888 L350.74167125376414,147.08647969589944 L357.3967924194748,147.08647969589944 L357.3967924194748,140.43137378897856 Z "/>
<path style="fill:none;stroke:#000000;stroke-width:1px;stroke-linecap:butt;stroke-linejoin:miter;stroke-opacity:1" d="M350.74167125376414,160.39673728611055 L350.74167125376414,153.74161612039987 L357.3967924194748,153.74161612039987 L357.3967924194748,160.39673728611055 Z "/>
<path style="fill:none;stroke:#000000;stroke-width:1px;stroke-linecap:butt;stroke-linejoin:miter;stroke-opacity:1" d="M350.74167125376414,173.70697961753183 L350.74167125376414,167.05185845182118 L357.3967924194748,167.05185845182118 L357.3967924194748,173.70697961753183 Z "/>
<path style="fill:none;stroke:#000000;stroke-width:1px;stroke-linecap:butt;stroke-linejoin:miter;stroke-opacity:1" d="M350.74167125376414,187.01722194895314 L350.74167125376414,180.3621007832425 L357.3967924194748,180.3621007832425 L357.3967924194748,187.01722194895314 Z "/>
<path style="fill:none;stroke:#000000;stroke-width:1px;stroke-linecap:butt;stroke-linejoin:miter;stroke-opacity:1" d="M350.74167125376414,200.32747190976934 L350.74167125376414,193.6723507440587 L357.3967924194748,193.6723507440587 L357.3967924194748,200.32747190976934 Z "/>
<path style="fill:none;stroke:#000000;stroke-width:1px;stroke-linecap:butt;stroke-linejoin:miter;stroke-opacity:1" d="M350.74167125376414,213.63772187058555 L350.74167125376414,206.98259307548 L357.3967924194748,206.9826007048749 L357.3967924194748,213.63772187058555 Z "/>
<path style="fill:none;stroke:#000000;stroke-width:1px;stroke-linecap:butt;stroke-linejoin:miter;stroke-opacity:1" d="M350.74167125376414,226.94796420200686 L350.74167125376414,220.2928430362962 L357.3967924194748,220.2928430362962 L357.3967924194748,226.94796420200686 Z "/>
<path style="fill:none;stroke:#000000;stroke-width:1px;stroke-linecap:butt;stroke-linejoin:miter;stroke-opacity:1" d="M350.74167125376414,240.2582179775205 L350.74167125376414,233.6030929971124 L357.3967924194748,233.6030929971124 L357.3967924194748,240.2582179775205 Z "/>
<path style="fill:none;stroke:#000000;stroke-width:1px;stroke-linecap:butt;stroke-linejoin:miter;stroke-opacity:1" d="M350.74167125376414,253.56846412363927 L350.74167125376414,246.91333914323116 L357.3967924194748,246.9133429579286 L357.3967924194748,253.56846412363927 Z "/>
<path style="fill:none;stroke:#000000;stroke-width:1px;stroke-linecap:butt;stroke-linejoin:miter;stroke-opacity:1" d="M364.0519135851855,140.43137378897856 L364.0519135851855,147.08649495468924 L370.70705000968593,147.08647969589944 L370.70705000968593,140.4313585301888 Z "/>
<path style="fill:none;stroke:#000000;stroke-width:1px;stroke-linecap:butt;stroke-linejoin:miter;stroke-opacity:1" d="M364.0519135851855,160.39673728611055 L364.0519135851855,153.74161612039987 L370.7070347508961,153.74161612039987 L370.7070347508961,160.39673728611055 Z "/>
<path style="fill:none;stroke:#000000;stroke-width:1px;stroke-linecap:butt;stroke-linejoin:miter;stroke-opacity:1" d="M364.0519135851855,173.70697961753183 L364.0519135851855,167.05185845182118 L370.7070347508961,167.05185845182118 L370.7070347508961,173.70697961753183 Z "/>
<path style="fill:none;stroke:#000000;stroke-width:1px;stroke-linecap:butt;stroke-linejoin:miter;stroke-opacity:1" d="M364.0519135851855,187.01722957834804 L364.0519135851855,180.3621007832425 L370.70705000968593,180.36210841263738 L370.7070347508961,187.01722957834804 Z "/>
<path style="fill:none;stroke:#000000;stroke-width:1px;stroke-linecap:butt;stroke-linejoin:miter;stroke-opacity:1" d="M364.0519135851855,200.32747953916424 L364.0519135851855,193.6723583734536 L370.7070347508961,193.6723507440587 L370.7070347508961,200.32747953916424 Z "/>
<path style="fill:none;stroke:#000000;stroke-width:1px;stroke-linecap:butt;stroke-linejoin:miter;stroke-opacity:1" d="M364.0519135851855,213.63772187058555 L364.0519135851855,206.9826007048749 L370.7070347508961,206.9826007048749 L370.7070347508961,213.63772187058555 Z "/>
<path style="fill:none;stroke:#000000;stroke-width:1px;stroke-linecap:butt;stroke-linejoin:miter;stroke-opacity:1" d="M364.0519135851855,226.94797183140176 L364.0519135851855,220.2928430362962 L370.7070347508961,220.2928430362962 L370.7070347508961,226.94797183140176 Z "/>
<path style="fill:none;stroke:#000000;stroke-width:1px;stroke-linecap:butt;stroke-linejoin:miter;stroke-opacity:1" d="M364.0519135851855,240.2582179775205 L364.0519135851855,233.60309681180985 L370.7070347508961,233.60309681180985 L370.7070347508961,240.2582179775205 Z "/>
<path style="fill:none;stroke:#000000;stroke-width:1px;stroke-linecap:butt;stroke-linejoin:miter;stroke-opacity:1" d="M364.0519135851855,253.56846412363927 L364.0519135851855,246.9133429579286 L370.7070347508961,246.9133429579286 L370.7070347508961,253.56846412363927 Z "/>
<path style="fill:none;stroke:#000000;stroke-width:1px;stroke-linecap:butt;stroke-linejoin:miter;stroke-opacity:1" d="M377.36217117539655,140.43137378897856 L377.36217117539655,147.08649495468924 L384.01729234110724,147.08649495468924 L384.01729234110724,140.43137378897856 Z "/>
<path style="fill:none;stroke:#000000;stroke-width:1px;stroke-linecap:butt;stroke-linejoin:miter;stroke-opacity:1" d="M377.36215591660675,160.39673728611055 L377.36217117539655,153.74161612039987 L384.01729234110724,153.74161612039987 L384.01729234110724,160.39673728611055 Z "/>
<path style="fill:none;stroke:#000000;stroke-width:1px;stroke-linecap:butt;stroke-linejoin:miter;stroke-opacity:1" d="M377.36217117539655,173.70697961753183 L377.36217117539655,167.05185845182118 L384.01729234110724,167.05185845182118 L384.01729234110724,173.70698724692673 Z "/>
<path style="fill:none;stroke:#000000;stroke-width:1px;stroke-linecap:butt;stroke-linejoin:miter;stroke-opacity:1" d="M377.36217117539655,187.01722957834804 L377.36217117539655,180.36210841263738 L384.01729234110724,180.36210841263738 L384.01729234110724,187.01722957834804 Z "/>
<path style="fill:none;stroke:#000000;stroke-width:1px;stroke-linecap:butt;stroke-linejoin:miter;stroke-opacity:1" d="M377.36217117539655,200.32747953916424 L377.36217117539655,193.6723507440587 L384.01729234110724,193.6723507440587 L384.01729234110724,200.32747953916424 Z "/>
<path style="fill:none;stroke:#000000;stroke-width:1px;stroke-linecap:butt;stroke-linejoin:miter;stroke-opacity:1" d="M377.36215591660675,213.63772187058555 L377.36217117539655,206.9826007048749 L384.01729234110724,206.9826007048749 L384.01729234110724,213.63772187058555 Z "/>
<path style="fill:none;stroke:#000000;stroke-width:1px;stroke-linecap:butt;stroke-linejoin:miter;stroke-opacity:1" d="M377.36215591660675,226.94796420200686 L377.36215591660675,220.2928430362962 L384.01729234110724,220.2928430362962 L384.01729234110724,226.94797183140176 Z "/>
<path style="fill:none;stroke:#000000;stroke-width:1px;stroke-linecap:butt;stroke-linejoin:miter;stroke-opacity:1" d="M377.36215591660675,240.2582179775205 L377.36215591660675,233.6030929971124 L384.01729234110724,233.6030929971124 L384.01729234110724,240.2582179775205 Z "/>
<path style="fill:none;stroke:#000000;stroke-width:1px;stroke-linecap:butt;stroke-linejoin:miter;stroke-opacity:1" d="M377.36215591660675,253.56846412363927 L377.36215591660675,246.9133429579286 L384.01729234110724,246.9133429579286 L384.01729234110724,253.56846412363927 Z "/>
<path style="fill:none;stroke:#000000;stroke-width:1px;stroke-linecap:butt;stroke-linejoin:miter;stroke-opacity:1" d="M390.67241350681786,140.43137378897856 L390.67241350681786,147.08649495468924 L397.32753467252854,147.08649495468924 L397.32753467252854,140.43137378897856 Z "/>
<path style="fill:none;stroke:#000000;stroke-width:1px;stroke-linecap:butt;stroke-linejoin:miter;stroke-opacity:1" d="M390.67241350681786,160.39673728611055 L390.67241350681786,153.74161612039987 L397.32753467252854,153.74161612039987 L397.32753467252854,160.39673728611055 Z "/>
<path style="fill:none;stroke:#000000;stroke-width:1px;stroke-linecap:butt;stroke-linejoin:miter;stroke-opacity:1" d="M390.67241350681786,173.70698724692673 L390.67241350681786,167.05185845182118 L397.32753467252854,167.05185845182118 L397.32753467252854,173.70698724692673 Z "/>
<path style="fill:none;stroke:#000000;stroke-width:1px;stroke-linecap:butt;stroke-linejoin:miter;stroke-opacity:1" d="M390.67241350681786,187.01722957834804 L390.67241350681786,180.36210841263738 L397.32753467252854,180.36210841263738 L397.32753467252854,187.01722957834804 Z "/>
<path style="fill:none;stroke:#000000;stroke-width:1px;stroke-linecap:butt;stroke-linejoin:miter;stroke-opacity:1" d="M390.67241350681786,200.32747953916424 L390.67241350681786,193.6723507440587 L397.32753467252854,193.6723507440587 L397.32753467252854,200.32747953916424 Z "/>
<path style="fill:none;stroke:#000000;stroke-width:1px;stroke-linecap:butt;stroke-linejoin:miter;stroke-opacity:1" d="M390.67241350681786,213.63772187058555 L390.67241350681786,206.9826007048749 L397.32753467252854,206.9826007048749 L397.32753467252854,213.63772187058555 Z "/>
<path style="fill:none;stroke:#000000;stroke-width:1px;stroke-linecap:butt;stroke-linejoin:miter;stroke-opacity:1" d="M390.67241350681786,226.94796420200686 L390.67241350681786,220.2928430362962 L397.32753467252854,220.2928430362962 L397.32753467252854,226.94797183140176 Z "/>
<path style="fill:none;stroke:#000000;stroke-width:1px;stroke-linecap:butt;stroke-linejoin:miter;stroke-opacity:1" d="M390.67241350681786,240.2582179775205 L390.67241350681786,233.6030929971124 L397.32753467252854,233.6030929971124 L397.32753467252854,240.2582179775205 Z "/>
<path style="fill:none;stroke:#000000;stroke-width:1px;stroke-linecap:butt;stroke-linejoin:miter;stroke-opacity:1" d="M390.67241350681786,253.56846412363927 L390.67241350681786,246.9133429579286 L397.32753467252854,246.9133429579286 L397.32753467252854,253.56846412363927 Z "/>
<path style="fill:none;stroke:#000000;stroke-width:1px;stroke-linecap:butt;stroke-linejoin:miter;stroke-opacity:1" d="M403.98265583823917,140.43137378897856 L403.98267109702897,147.08649495468924 L410.6377922627396,147.08649495468924 L410.6377922627396,140.43137378897856 Z "/>
<path style="fill:none;stroke:#000000;stroke-width:1px;stroke-linecap:butt;stroke-linejoin:miter;stroke-opacity:1" d="M403.98267109702897,160.39673728611055 L403.98267109702897,153.74161612039987 L410.6377922627396,153.74161612039987 L410.6377922627396,160.39673728611055 Z "/>
<path style="fill:none;stroke:#000000;stroke-width:1px;stroke-linecap:butt;stroke-linejoin:miter;stroke-opacity:1" d="M403.98267109702897,173.70698724692673 L403.98267109702897,167.05185845182118 L410.6377922627396,167.05185845182118 L410.6377922627396,173.70697961753183 Z "/>
<path style="fill:none;stroke:#000000;stroke-width:1px;stroke-linecap:butt;stroke-linejoin:miter;stroke-opacity:1" d="M403.98265583823917,187.01722957834804 L403.98267109702897,180.36210841263738 L410.6377922627396,180.36210841263738 L410.6377922627396,187.01722957834804 Z "/>
<path style="fill:none;stroke:#000000;stroke-width:1px;stroke-linecap:butt;stroke-linejoin:miter;stroke-opacity:1" d="M403.98265583823917,200.32747953916424 L403.98265583823917,193.6723507440587 L410.6377922627396,193.6723583734536 L410.63777700394985,200.32747953916424 Z "/>
<path style="fill:none;stroke:#000000;stroke-width:1px;stroke-linecap:butt;stroke-linejoin:miter;stroke-opacity:1" d="M403.98265583823917,213.63772187058555 L403.98265583823917,206.9826007048749 L410.63777700394985,206.9826007048749 L410.63777700394985,213.63772187058555 Z "/>
<path style="fill:none;stroke:#000000;stroke-width:1px;stroke-linecap:butt;stroke-linejoin:miter;stroke-opacity:1" d="M403.98265583823917,226.94797183140176 L403.98265583823917,220.2928430362962 L410.63777700394985,220.2928430362962 L410.63777700394985,226.94797183140176 Z "/>
<path style="fill:none;stroke:#000000;stroke-width:1px;stroke-linecap:butt;stroke-linejoin:miter;stroke-opacity:1" d="M403.98265583823917,240.2582179775205 L403.98265583823917,233.6030929971124 L410.63777700394985,233.60309681180985 L410.63777700394985,240.25822179221797 Z "/>
<path style="fill:none;stroke:#000000;stroke-width:1px;stroke-linecap:butt;stroke-linejoin:miter;stroke-opacity:1" d="M403.98265583823917,253.56846412363927 L403.98265583823917,246.9133429579286 L410.63777700394985,246.9133429579286 L410.63777700394985,253.56846412363927 Z "/>
<path style="fill:none;stroke:#000000;stroke-width:1px;stroke-linecap:butt;stroke-linejoin:miter;stroke-opacity:1" d="M417.2929134284503,140.43137378897856 L417.2929134284503,147.08649495468924 L423.94803459416096,147.08649495468924 L423.94803459416096,140.43137378897856 Z "/>
<path style="fill:none;stroke:#000000;stroke-width:1px;stroke-linecap:butt;stroke-linejoin:miter;stroke-opacity:1" d="M417.2929134284503,160.39673728611055 L417.2929134284503,153.74161612039987 L423.94803459416096,153.74161612039987 L423.94803459416096,160.39673728611055 Z "/>
<path style="fill:none;stroke:#000000;stroke-width:1px;stroke-linecap:butt;stroke-linejoin:miter;stroke-opacity:1" d="M417.2929134284503,173.70697961753183 L417.2929134284503,167.05185845182118 L423.94803459416096,167.05185845182118 L423.94803459416096,173.70697961753183 Z "/>
<path style="fill:none;stroke:#000000;stroke-width:1px;stroke-linecap:butt;stroke-linejoin:miter;stroke-opacity:1" d="M417.2929134284503,187.01722957834804 L417.2929134284503,180.36210841263738 L423.94803459416096,180.36210841263738 L423.94803459416096,187.01722957834804 Z "/>
<path style="fill:none;stroke:#000000;stroke-width:1px;stroke-linecap:butt;stroke-linejoin:miter;stroke-opacity:1" d="M417.2928981696605,213.63772187058555 L417.2929134284503,206.9826007048749 L423.94803459416096,206.9826007048749 L423.94803459416096,213.63772187058555 Z "/>
<path style="fill:none;stroke:#000000;stroke-width:1px;stroke-linecap:butt;stroke-linejoin:miter;stroke-opacity:1" d="M417.2928981696605,226.94797183140176 L417.2928981696605,220.2928430362962 L423.94803459416096,220.2928430362962 L423.94801933537116,226.94797183140176 Z "/>
<path style="fill:none;stroke:#000000;stroke-width:1px;stroke-linecap:butt;stroke-linejoin:miter;stroke-opacity:1" d="M417.2928981696605,240.25822179221797 L417.2928981696605,233.60309681180985 L423.94801933537116,233.60309681180985 L423.94801933537116,240.25822179221797 Z "/>
<path style="fill:none;stroke:#000000;stroke-width:1px;stroke-linecap:butt;stroke-linejoin:miter;stroke-opacity:1" d="M417.2928981696605,253.56847175303415 L417.2928981696605,246.9133429579286 L423.94801933537116,246.91334677262606 L423.94803459416096,253.5684679383367 Z "/>
<path style="fill:none;stroke:#000000;stroke-width:1px;stroke-linecap:butt;stroke-linejoin:miter;stroke-opacity:1" d="M430.6031557598716,140.43137378897856 L430.6031557598716,147.08649495468924 L437.2582769255822,147.08649495468924 L437.2582769255822,140.43137378897856 Z "/>
<path style="fill:none;stroke:#000000;stroke-width:1px;stroke-linecap:butt;stroke-linejoin:miter;stroke-opacity:1" d="M430.6031557598716,160.39673728611055 L430.6031557598716,153.74161612039987 L437.2582769255822,153.74161612039987 L437.2582769255822,160.39675254490032 Z "/>
<path style="fill:none;stroke:#000000;stroke-width:1px;stroke-linecap:butt;stroke-linejoin:miter;stroke-opacity:1" d="M430.6031557598716,173.70698724692673 L430.6031557598716,167.05185845182118 L437.2582769255822,167.05185845182118 L437.2582769255822,173.70697961753183 Z "/>
<path style="fill:none;stroke:#000000;stroke-width:1px;stroke-linecap:butt;stroke-linejoin:miter;stroke-opacity:1" d="M430.6031557598716,187.01722957834804 L430.6031557598716,180.3621007832425 L437.2582769255822,180.3621007832425 L437.2582769255822,187.01722957834804 Z "/>
<path style="fill:none;stroke:#000000;stroke-width:1px;stroke-linecap:butt;stroke-linejoin:miter;stroke-opacity:1" d="M430.6031557598716,213.63772187058555 L430.6031557598716,206.9826007048749 L437.2582769255822,206.9826007048749 L437.2582769255822,213.63772187058555 Z "/>
<path style="fill:none;stroke:#000000;stroke-width:1px;stroke-linecap:butt;stroke-linejoin:miter;stroke-opacity:1" d="M430.6031557598716,226.94797183140176 L430.6031557598716,220.2928506656911 L437.2582769255822,220.2928506656911 L437.2582769255822,226.94797183140176 Z "/>
<path style="fill:none;stroke:#000000;stroke-width:1px;stroke-linecap:butt;stroke-linejoin:miter;stroke-opacity:1" d="M430.6031557598716,240.25822179221797 L430.6031557598716,233.60309681180985 L437.2582769255822,233.60310062650728 L437.2582769255822,240.25822179221797 Z "/>
<path style="fill:none;stroke:#000000;stroke-width:1px;stroke-linecap:butt;stroke-linejoin:miter;stroke-opacity:1" d="M430.6031557598716,253.5684679383367 L430.6031557598716,246.9133429579286 L437.2582769255822,246.9133429579286 L437.2582769255822,253.56847175303415 Z "/>
<path style="fill:none;stroke:#000000;stroke-width:1px;stroke-linecap:butt;stroke-linejoin:miter;stroke-opacity:1" d="M443.9133980912929,140.43137378897856 L443.9133980912929,147.08651021347902 L450.5685192570036,147.08649495468924 L450.5685192570036,140.43137378897856 Z "/>
<path style="fill:none;stroke:#000000;stroke-width:1px;stroke-linecap:butt;stroke-linejoin:miter;stroke-opacity:1" d="M443.9133980912929,160.39675254490032 L443.9133980912929,153.74163137918967 L450.5685345157933,153.74161612039987 L450.5685192570036,160.39675254490032 Z "/>
<path style="fill:none;stroke:#000000;stroke-width:1px;stroke-linecap:butt;stroke-linejoin:miter;stroke-opacity:1" d="M443.9133980912929,173.70698724692673 L443.9133980912929,167.05187371061098 L450.5685192570036,167.05187371061098 L450.5685192570036,173.70698724692673 Z "/>
<path style="fill:none;stroke:#000000;stroke-width:1px;stroke-linecap:butt;stroke-linejoin:miter;stroke-opacity:1" d="M443.9133980912929,187.01723720774294 L443.9133980912929,180.36211604203228 L450.5685192570036,180.36211604203228 L450.5685192570036,187.01723720774294 Z "/>
<path style="fill:none;stroke:#000000;stroke-width:1px;stroke-linecap:butt;stroke-linejoin:miter;stroke-opacity:1" d="M443.9133980912929,200.32748716855914 L443.9133980912929,193.6723583734536 L450.5685192570036,193.6723583734536 L450.5685192570036,200.32747953916424 Z "/>
<path style="fill:none;stroke:#000000;stroke-width:1px;stroke-linecap:butt;stroke-linejoin:miter;stroke-opacity:1" d="M443.9133980912929,213.63772949998045 L443.9133980912929,206.9826083342698 L450.5685192570036,206.9826007048749 L450.5685192570036,213.63773712937535 Z "/>
<path style="fill:none;stroke:#000000;stroke-width:1px;stroke-linecap:butt;stroke-linejoin:miter;stroke-opacity:1" d="M443.9133980912929,226.94797946079666 L443.9133980912929,220.29285829508598 L450.5685192570036,220.29285829508598 L450.5685192570036,226.94797946079666 Z "/>
<path style="fill:none;stroke:#000000;stroke-width:1px;stroke-linecap:butt;stroke-linejoin:miter;stroke-opacity:1" d="M443.9133980912929,240.25822942161284 L443.9133980912929,233.60310444120475 L450.5685192570036,233.60310062650728 L450.5685192570036,240.25822179221797 Z "/>
<path style="fill:none;stroke:#000000;stroke-width:1px;stroke-linecap:butt;stroke-linejoin:miter;stroke-opacity:1" d="M450.5685192570036,253.5684679383367 L443.9133980912929,253.5684679383367 L443.9133980912929,246.9133505873235 L450.5685192570036,246.9133429579286 Z "/>
<path style="fill:none;stroke:#000000;stroke-width:1px;stroke-linecap:butt;stroke-linejoin:miter;stroke-opacity:1" d="M423.94803459416096,193.6723507440587 L417.2929134284503,193.6723507440587 L417.2929134284503,200.32747953916424 L423.94803459416096,200.32747953916424 Z "/>
<path style="fill:none;stroke:#000000;stroke-width:1px;stroke-linecap:butt;stroke-linejoin:miter;stroke-opacity:1" d="M430.6031557598716,193.6723507440587 L437.2582769255822,193.6723507440587 L437.2582769255822,200.32747190976934 L430.6031557598716,200.32747953916424 Z "/>
</svg>